<?xml version="1.0" encoding="UTF-8"?>
<!-- Created with Inkscape (http://www.inkscape.org/) -->
<svg width="1632" height="1056" version="1.1" viewBox="0 0 1632 1056" xmlns="http://www.w3.org/2000/svg">
 <path id="map" d="m1314.1 617.04 1.6 0.8 1.68 0.56 1.84 0.24h1.76l1.76-0.32 1.76-0.64 1.6-0.8 1.44-1.12 1.2-1.28 1.04-1.52m0 0 0.08-0.16zm-10.08-5.6 10.16 5.44-0.16 0.32m-9.84-6.08-0.16 0.32 10.16 5.44m-15.76 4.24-1.36-0.72m8.4-11.52-1.28 2.24-1.28-0.72m0 0 1.28-2.24m0.96 27.28 3.92-6.8m-15.2 0.32 4.56-7.84m-16.8 26.08-210.08-121.28m232.64 82.24-3.36-1.92m-17.92 41.68 10.32-17.84m-11.6 17.12 15.44-26.8m7.44 16.16-11.28-6.48m11.92 5.36-11.28-6.48m-239.28-152.4-0.88-0.24-0.88 0.48-0.96 1.04-0.4 0.72-0.4 1.36v0.96l0.64 0.64 0.4 0.32 0.88 0.16 0.88-0.48 0.96-1.04 0.4-0.72 0.48-1.28-0.08-1.04-0.56-0.64zm-4.8-2.8-0.88-0.16-0.88 0.4-0.88 1.12-0.4 0.72-0.48 1.28 0.08 1.04 0.56 0.64 0.48 0.24 0.88 0.16 0.88-0.4 0.88-1.04 0.4-0.72 0.48-1.36-0.08-0.96-0.56-0.64zm-3.84-2.16-2.88 4.96m2.88-4.96-4.32 1.92 3.6 2.08m-6.16-2-0.4 0.16 0.16 0.32 0.32-0.08zm-3.84-3.76 2.4 1.36m-4.08-0.16 4.8-3.84-0.96 6.08m-4.8-9.44 3.36 1.92m-1.68-0.96-2.88 5.04m40.56 13.6-0.08 15.04m-26.64-34.88 16.72 9.6m-15.92-11.04 13.36 7.76m-13.2-8 0.8-1.68 0.56-1.84 0.16-1.92-0.16-1.84-0.48-1.84-0.8-1.76-1.04-1.52-1.36-1.36-1.52-1.12m0 0-0.16-0.08zm-5.36 9.6 5.2-9.68 0.24 0.16m-5.68 9.36 0.24 0.16 5.2-9.68m4 14.96-0.96 1.68m-8.48-7.12-0.96 1.68m-12.64 8.96-2.16 3.76m3.28-3.12-2.24-1.28 4.8-8.4 2.24 1.28m2.24-3.84 4.48 2.64m-4.48-2.64-9.28 16 4.48 2.64m3.68-19.28-2.24 3.84m34 14.48-2 3.36m1.76-8.08-1.2 2.08 2.24 1.28m-35.36-20.4 9.2 5.28m-8.64-3.12 2.24 1.28m-9.92 30.48-0.16-0.08 0.16 0.08 1.68 0.8 1.84 0.48 1.84 0.16 1.92-0.16 1.84-0.56 1.68-0.8 1.52-1.12 1.36-1.36 1.04-1.52m-9.44-5.52-5.2 9.68-0.24-0.16m5.76-9.36-0.32-0.16-5.2 9.68m398.72 222.24 0.16-0.24 0.48-0.4 0.4-0.08 0.64 0.08 0.96 0.56 0.32 0.48 0.08 0.4v0.56l-0.32 0.48-0.48 0.4-0.88 0.4-3.76 1.04 3.28 1.92m-3.76-8.88-0.88-0.16-0.88 0.4-0.88 1.04-0.4 0.72-0.48 1.36 0.08 0.96 0.56 0.72 0.48 0.24 0.88 0.16 0.88-0.4 0.88-1.12 0.48-0.64 0.4-1.36-0.08-0.96-0.56-0.72zm-3.84-2.24-2.88 5.04m2.88-5.04-4.24 2 3.52 2.08m-6.16-2-0.4 0.08 0.16 0.4 0.32-0.08zm-3.84-3.84 2.4 1.44m-4.08-0.16 4.8-3.92-0.96 6.16m-4.72-9.44 3.28 1.92m-1.68-0.96-2.88 5.04m-10.72-37.28 0.56 0.08 1.12-0.32-2.88 5.04m-2.32-8.08-0.88-0.16-0.88 0.4-0.96 1.12-0.4 0.72-0.4 1.28v1.04l0.64 0.64 0.48 0.24 0.8 0.16 0.88-0.4 0.96-1.04 0.4-0.72 0.48-1.36-0.08-0.96-0.56-0.64zm-3.84-2.16-2.88 4.96m2.88-4.96-4.32 1.92 3.6 2.08m-6.16-2-0.4 0.08 0.08 0.4 0.4-0.08zm-3.84-3.76 2.4 1.36m-4.08-0.16 4.8-3.92-1.04 6.16m-4.72-9.44 3.36 1.92m-1.68-0.96-2.88 5.04m31.12 25.12-26.96-15.52m7.04 38.56-24.72-14.32m-183.68-93.52 2.32 1.36m-4-0.16 4.8-3.84-1.04 6.08m-3.76-8.88-0.88-0.16-0.88 0.4-0.88 1.12-0.48 0.72-0.4 1.28 0.08 1.04 0.56 0.64 0.48 0.24 0.8 0.16 0.96-0.4 0.88-1.04 0.4-0.72 0.48-1.36-0.08-0.96-0.56-0.64zm-6.08-2.24 0.64 0.08 1.12-0.32-2.88 5.04m-1.36-7.52-2.96 5.04m2.96-5.04-4.32 2 3.52 2.08m54.96-74.72 0.56 0.64 0.08 0.4v0.64l-0.4 0.72-0.56 0.32-0.4 0.08-0.8-0.16-2.16-1.2m0 0 2.88-5.04 2.16 1.2 0.56 0.72 0.08 0.32v0.64l-0.32 0.48-0.48 0.32-0.4 0.08-0.8-0.16-2.16-1.2m-2.24-4.48-0.8-0.16-0.88 0.4-0.96 1.12-0.4 0.72-0.48 1.28 0.08 1.04 0.56 0.64 0.48 0.24 0.88 0.16 0.88-0.4 0.96-1.04 0.4-0.72 0.4-1.36v-0.96l-0.64-0.64zm-6-2.24 0.64 0.08 1.12-0.32-2.88 5.04m-1.44-7.52-2.88 5.04m2.88-5.04-4.32 2 3.6 2m-104.16-48-17.2-10m16.48 11.2-6.64-3.84m2 12.32-0.16-0.08 0.16 0.08 1.52 0.72 1.6 0.4 1.68 0.16 1.6-0.16 1.6-0.48 1.52-0.72 1.36-0.96 1.2-1.2 0.88-1.36m-8.32-4.88-4.56 8.56-0.24-0.16m5.12-8.24-0.32-0.16-4.56 8.56m12.88-3.68 0.8-1.28m-9.12-3.6 0.72-1.2m-30.8 60.48-3.36-1.92m2.64 3.12-20.32-11.68m29.36 15.28 0.72-1.52 0.48-1.6 0.16-1.68-0.16-1.6-0.4-1.68-0.72-1.52-0.88-1.36-1.2-1.2-1.36-0.96m0 0-0.16-0.08zm-4.72 8.48 4.56-8.56 0.24 0.16m-5.04 8.24 0.24 0.16 4.56-8.56m3.52 13.2-0.72 1.28m-7.6-6.08-0.72 1.2m252 64.64h3.04l-1.68 2.16h0.8l0.56 0.24 0.32 0.32 0.24 0.8v0.56l-0.24 0.8-0.56 0.56-0.88 0.32h-0.8l-0.8-0.32-0.32-0.24-0.24-0.56m-4.72-3.6 0.56-0.24 0.88-0.8v5.76m-4.96-5.76v5.76m0-5.76-2.8 3.84h4.16m36.8 50.24 0.08-0.56-0.24-0.8-0.32-0.48-0.96-0.56h-0.64l-0.72 0.16-0.56 0.32-0.64 0.64-0.64 1.12-0.24 0.88v0.64l0.16 0.72 0.4 0.56 0.96 0.48 0.56 0.08 0.8-0.24 0.48-0.32m-5.92-2.4-0.32 0.08 0.08 0.32 0.4-0.08zm-2.56-7.6-1.04 6.08 4.8-3.84m-10.48 0.56 3.04 1.76m-1.52-4.4 1.84 1.12m-3.36 1.52 2.88-5.04 3.12 1.84m-7.2-4.16-2.88 5.04 2.88 1.6m-7.44-4.24 3.12 1.76m-1.6-4.4 1.92 1.12m-3.44 1.52 2.96-4.96 3.04 1.76m35.44 38.96v5.76m0-5.76-2.8 3.84h4.16m-8.8-2.8 0.56-0.24 0.8-0.8v5.76m-4.96-5.76v5.76m0-5.76-2.72 3.84h4.08m-4.32 6.48-3.36-1.92 0.8-1.44 0.48-0.4 0.24-0.08h0.4l0.48 0.32 0.24 0.32 0.08 0.24-0.16 0.56-0.8 1.44m-3.76 2.48 2.4 1.44 0.56 0.08 0.48-0.16 0.48-0.32 0.16-0.32 0.08-0.64-0.08-0.48-0.4-0.4-2.4-1.36m-2.08-5.36 2.48 1.52m-4.96-2.96 2.96 0.64-0.96 1.68m-3.68 0.08 1.68 0.96 2.88-4.96-1.68-0.96m37.28 59.12-0.88 0.24-0.56 0.8-0.24 1.44v0.8l0.24 1.36 0.56 0.88 0.88 0.24h0.56l0.8-0.24 0.56-0.88 0.24-1.36v-0.8l-0.24-1.44-0.56-0.8-0.8-0.24zm-6.88 1.36v-0.32l0.24-0.48 0.24-0.32 0.56-0.24h1.12l0.56 0.24 0.24 0.32 0.32 0.48v0.56l-0.32 0.56-0.48 0.88-2.8 2.72h3.84m-6.56-5.76v5.76m0-5.76-2.8 3.84h4.16m43.2 29.12-0.32 0.88-0.56 0.56-0.8 0.24h-0.32l-0.8-0.24-0.56-0.56-0.24-0.88v-0.24l0.24-0.8 0.56-0.56 0.8-0.32h0.32l0.8 0.32 0.56 0.56 0.32 1.04v1.44l-0.32 1.36-0.56 0.8-0.8 0.24h-0.56l-0.8-0.24-0.32-0.56m-4.96-3.84 0.56-0.24 0.88-0.88v5.76m-4.96-5.76v5.76m0-5.76-2.8 3.84h4.16m50.4 7.84-0.88 0.32-0.24 0.56v0.56l0.24 0.48 0.56 0.32 1.12 0.24 0.8 0.32 0.56 0.56 0.32 0.56v0.8l-0.32 0.56-0.24 0.24-0.88 0.32h-1.04l-0.88-0.32-0.24-0.24-0.24-0.56v-0.8l0.24-0.56 0.56-0.56 0.8-0.32 1.12-0.24 0.56-0.32 0.24-0.48v-0.56l-0.24-0.56-0.88-0.32zm-6.08 1.12 0.56-0.24 0.8-0.88v5.84m-4.96-5.84v5.84m0-5.84-2.72 3.92h4.08m48.48-67.84 2.8-5.84h-3.92m-4.64 1.12 0.56-0.24 0.8-0.88v5.84m-4.96-5.84v5.84m0-5.84-2.72 3.92h4.08m-20-34.56-0.24-0.56-0.88-0.32h-0.56l-0.8 0.32-0.56 0.8-0.24 1.36v1.44l0.24 1.04 0.56 0.56 0.8 0.32h0.32l0.8-0.32 0.56-0.56 0.24-0.8v-0.24l-0.24-0.88-0.56-0.56-0.8-0.24h-0.32l-0.8 0.24-0.56 0.56-0.24 0.88m-4.96-2.8 0.56-0.24 0.8-0.88v5.84m-4.96-5.84v5.84m0-5.84-2.72 3.92h4.08m-30.8-17.68h-2.8l-0.24 2.48 0.24-0.32 0.88-0.24h0.8l0.8 0.24 0.56 0.56 0.32 0.88v0.56l-0.32 0.8-0.56 0.56-0.8 0.24h-0.8l-0.88-0.24-0.24-0.32-0.32-0.56m-4.64-3.52 0.56-0.32 0.8-0.8v5.76m-4.96-5.76v5.76m0-5.76-2.72 3.84h4.08m85.92 84.4-2.4-1.44-1.44 2.08 0.4-0.16 0.8 0.24 0.72 0.4 0.56 0.64 0.24 0.72-0.16 0.88-0.32 0.48-0.64 0.56-0.72 0.24-0.88-0.24-0.72-0.4-0.56-0.64-0.08-0.4v-0.56m-2.16-0.64-0.4 0.08 0.08 0.4 0.4-0.08zm-2.16-7.28 3.36 1.92m-1.68-0.96-2.88 4.96m-0.16-5.76-0.24-0.8-0.56-0.64-0.96-0.56-0.8-0.16-0.8 0.24-0.24 0.48-0.08 0.56 0.08 0.4 0.4 0.56 1.12 1.28 0.32 0.48 0.16 0.4-0.08 0.64-0.4 0.72-0.72 0.16-0.88-0.16-0.96-0.56-0.56-0.64-0.24-0.72m4.72 25.84v-6.24l-1.68-0.96 3.36-1.92-1.68-0.96v-6.24m-4.96 3.04 4 4.56-5.92-1.2m-9.6-7.76 10.56 6.08m-9.2-10.8-3.36-1.92 4.64-0.32-3.36-1.92m0.08 7.52-3.28-2 0.64-1.12 0.4-0.32 0.48-0.16h0.48l0.56 0.16 0.8 0.48 0.32 0.4 0.24 0.32 0.16 0.48-0.16 0.64zm-105.44-109.36 9.84-16.96m-9.36 17.2 9.68-16.8m-0.32-0.4 57.76-15.44m-57.44 15.84 57.36-15.36m0.08-0.48 12.64 7.28m-12.72-6.8 12.64 7.28m14.08-4.24-14 3.76m13.92-3.28-14 3.76m97.84 105.2-15.6-58.24m15.12 58.16-15.52-57.84m0.4-0.32-12.56-7.28m12.16 7.6-12.56-7.28m-3.36-14.32 3.76 14m-4.16-13.68 3.76 14m-3.36-14.32-51.84-29.92m51.44 30.24-51.52-29.76m28.88 203.12 54.48-94.24m-54.16 94.72 54.64-94.64m-112.56 109.68 57.6-15.52m-57.68 16 58-15.52m-57.92 15.04-12.64-7.28m12.56 7.76-12.64-7.28m-13.52 3.12 13.6-3.6m-65.84-26 52.16 30.16 13.6-3.68m-65.36-26.8 51.84 29.92m-52.24-29.6-3.76-14.08m4.16 13.76-3.76-14.08m-13.04-6.88 12.64 7.2m-12.16-7.52 12.56 7.2m-13.04-6.88-15.44-57.84m15.92 57.52-15.44-57.44m-0.48-0.08 13.2-22.88m-12.72 22.96 13.12-22.72m179.76 71.12-8.56-4.96m-188.24-145.52-12.8-7.44m63.28 32.8 9.28-16.08m-13.36 13.76 8.48-14.56m-70.32 36.32 13.52-23.44m-16.96 29.36 2.16-3.68m11.28-25.36 2.48 1.44m12.4-21.44 18.32-31.76m148.96 186 14.8-25.6m0.96-1.68 8.16-14.16m-142.56-83.92 0.64-1.36 0.32-1.44 0.08-1.52-0.24-1.52-0.48-1.36-0.8-1.28-1.04-1.12-1.2-0.88m0 0-0.16-0.08zm-3.68 6.72 3.52-6.8 0.32 0.16m-4.16 6.48 0.32 0.16 3.52-6.8m2.88 10.56-0.96 1.68m-5.76-5.6-0.96 1.68m7.68 2.24 0.56 0.32m-8.24-2.56-0.56-0.32m0.96-1.68 0.56 0.32m6.32 5.92-0.56-0.32m-83.76-34.64-0.16-0.08 0.16 0.08 1.52 0.72 1.6 0.4 1.68 0.16 1.68-0.16 1.6-0.48 1.52-0.72 1.36-0.96 1.12-1.2 0.96-1.36m-8.32-4.8-4.56 8.48-0.32-0.16m5.12-8.16-0.24-0.16-4.56 8.48m12.88-3.68 0.8-1.44m-13.84-6.16 4.72 2.8 0.8-1.44m0 0-3.36-1.92m75.36 49.68 0.16 0.08-1.76-0.88-1.76-0.48-1.76-0.24-1.84 0.08-1.76 0.32-1.68 0.64-1.6 0.88-1.44 1.12-1.2 1.28-0.96 1.52m10 5.76 5.52-10.16 0.24 0.16m-6.08 9.84 0.32 0.16 5.52-10.16m-6.32 11.6 0.8-1.44m-12.48-5.36 1.68 0.96 0.8-1.36m0 0-15.36-8.8m31.68 20.08-4.48-2.56m29.12 51.6-0.8 1.6-0.56 1.76-0.24 1.76 0.08 1.84 0.32 1.76 0.56 1.68 0.88 1.6 1.04 1.44 1.36 1.28 1.44 0.96m0 0 0.16 0.08zm5.68-10.08-5.52 10.16-0.32-0.16m6.08-9.84-0.24-0.16-5.52 10.16m-4.24-15.76 0.8-1.36m9.2 7.12 0.8-1.36m-10.8-4.4-8.72-5.04m9.52 3.68-36.24-20.96m45.68 41.6-0.16-0.08 0.16 0.08 1.6 0.72 1.76 0.56 1.76 0.24 1.84-0.08 1.76-0.32 1.68-0.64 1.6-0.88 1.44-1.12 1.2-1.36 0.96-1.44m-10-5.84-5.52 10.24-0.24-0.16m6.08-9.92-0.32-0.16-5.52 10.24m15.52-4.4 0.88-1.44m-13.12-5.68 2.24 1.28 0.8-1.36m0 0-5.84-3.36m61.2 33.28-0.08 0.08 0.08-0.08 0.72-1.68 0.56-1.68 0.24-1.84-0.08-1.76-0.32-1.76-0.64-1.76-0.88-1.52-1.12-1.44-1.28-1.2-1.52-1.04m-5.76 10 10.16 5.52-0.16 0.24m-9.84-6-0.16 0.24 10.16 5.52m-4.4-15.52-1.68-0.96m-4.08 10.96-1.68-0.96m7.44-9.04 0.64-1.12m-2.32 0.16 7.52-13.12m-36.72 26.72-0.08-0.08 0.08 0.08 1.68 0.72 1.68 0.56 1.84 0.24 1.76-0.08 1.76-0.32 1.76-0.64 1.52-0.88 1.44-1.12 1.28-1.28 0.96-1.52m-10-5.84-5.52 10.24-0.24-0.16m6-9.92-0.24-0.16-5.52 10.24m15.52-4.4 0.8-1.44m-13.04-5.68 2.24 1.28 0.8-1.36m-1.68-35.44 0.8-1.6 0.56-1.76 0.24-1.76v-1.84l-0.32-1.76-0.64-1.68-0.8-1.6-1.12-1.44-1.28-1.28-1.52-1.04m0 0-0.16-0.08zm-5.6 10.16 5.44-10.24 0.32 0.16m-6.08 9.92 0.32 0.16 5.44-10.24m4.24 15.84-0.8 1.36m-11.44-8.48 2.24 1.36-0.8 1.36m0 0-5.84-3.36m6.48-11.52 0.08 0.08-0.08-0.08-1.68-0.8-1.68-0.48-1.84-0.24-1.76 0.08-1.84 0.32-1.68 0.64-1.6 0.88-1.36 1.12-1.28 1.28-0.96 1.52m10 5.76 5.52-10.16 0.24 0.16m-6 9.84 0.24 0.16 5.52-10.16m-15.52 4.4-0.8 1.36m10.8 4.4-0.8 1.44m-9.2-7.2-8.8-5.04m8 6.4-9.36-5.36m62.64 34.32 0.8-1.6 0.56-1.76 0.24-1.76-0.08-1.84-0.32-1.76-0.56-1.68-0.88-1.6-1.04-1.44-1.36-1.28-1.44-1.04m0 0-0.16-0.08zm-5.68 10.16 5.52-10.24 0.24 0.16m-6 9.92 0.24 0.16 5.52-10.24m4.24 15.84-0.8 1.36m-11.44-8.4 2.24 1.28-0.8 1.36m0 0-16.64-9.6m-95.68-48.4-30.56 1.52m8.24-14.4 14 27.28m192.8 59.92-18.16-67.84m6.16 25.36-1.92 0.56m2.32-1.36-4.64 1.28m4.24-0.48-0.24-0.56m-1.68 1.12-0.16-0.64m3.12 7.76-2-7.44m2.88 7.2-1.92-7.44m2.16 8.08-0.24-0.64-1.84 0.56-2-7.44m8.72 41.28-16.88-63.2m-19.04-16.56 0.56 0.32m-17.12-7.6 6.64 3.84m-5.68-5.52 6.64 3.84m-7.12-3.04 6.64 3.84m-6.72-4.96 0.56 0.32-0.96 1.68-0.56-0.32m16.16 9.28 0.56 0.32m-8.96-5.12 1.12 0.64m-0.16-2.32 0.88-0.24m0.32 2 6.72 3.92m-6.24-4.72-0.96 1.68 6.72 3.84m-8-6.8-0.96 1.68m3.2-0.4-0.56-0.32-0.96 1.68 0.56 0.32m-1.28-2.96 0.56 0.32-0.96 1.68-0.56-0.32m2.64-0.72-0.24-0.88m0.8 1.2 6.72 3.84-0.96 1.68m1.84-1.92-2.4 4.16m-10.56 32.88 4.56-3.52m0 0 2.56 3.28-4.56 3.52m0 0-2.56-3.28m6.32-1.28 24.8-18.96m-25.76 17.68 24.8-18.96m13.76 40.56-1.92-7.44m3.84 6.96-2-7.52m1.04 7.76-2-7.44m3.12 7.76-0.16-0.56-1.92 0.48 0.24 0.64m-2.4-8.72-0.32-1.28m0.32 1.28 0.24 0.64 1.84-0.56m0 0-0.16-0.56m0.4-0.8-0.4 0.8-1.92 0.48m4.88 8-4.72 1.28m-8.32 54.08-3.84 6.72m0.48 1.04 4.16-7.28m6.08-9.12-4.16-2.4m3.6 2.08-0.32 0.56-1.68-0.96 0.32-0.56m-4.16 7.2-0.32 0.56m2 0.4-0.32 0.56m-1.68-0.96 1.68 0.96 0.16 0.88m0 0-0.88 0.24m-0.32 0.56 0.32-0.56-1.6-0.96m1.28 1.52-1.6-0.96 0.32-0.56m2.64-0.72-1.68-0.96m-0.32 0.56-0.64 1.12m4.8-8.32-3.84 6.64m5.52-5.68-3.84 6.64m2.96-7.12-3.84 6.64m17.6-7.6-8.48-4.88m-25.84-22.8-3.36 5.92m1.36-5.36-2.64 4.64m-15.6-6.8 0.96-1.68m8.64 4.96 3.44-5.84m-2.16 6.56 2.64-4.56m-10.16 2.48-1.68-0.96m-3.6 2.4 3.36 1.92m1.12-2.16-0.16-0.48-0.32-0.32-0.48-0.16-0.48 0.16-0.4 0.32-0.08 0.48 0.08 0.48 0.4 0.32 0.48 0.16 0.48-0.16 0.32-0.32zm10.48-5.68 7.2 4.16m-6.72-2.16 4.72 2.72m-2.96 40.8 5.04-8.64m-2.48 10.08 2.48-4.32m10.64 5.28-0.32 0.56m-30.4-11.6 7.12-12.32m-4.56 13.76 7.04-12.24m-4.56 13.68 7.04-12.24m-12.24 19.28 3.44-5.92m-1.28-0.72-2.72 4.64m8.24-3.6 7.12-12.24m-4.56 13.68 7.04-12.24m-4.56 13.68 7.04-12.24m-12.48-7.28 7.68-13.28m25.92 14.88-35.92-20.72-7.68 13.36m44.56 5.68-40.96-23.6m19.36 31.2-12.96-7.52m27.52 16.64-3.92 6.72m1.92 1.84-4.16-2.4m3.92 1.52-1.68-0.96m15.2-70.88-0.72-0.48-1.92 0.48-0.16-0.56m-11.12-30.64-44.56-25.76m-1.44-0.8-10.64-6.16m-7.6 35.36 2.56-4.48 3.6 2.08m-6.16 2.4 3.6 2.08 2.56-4.48m-1.12-0.64 14.64-25.36m-16 24.56 14.56-25.36m-34.64-4.72 1.28 4.64m-0.56-2.16-0.64 0.16-0.48-1.84m0 0 0.56-0.16m-9.44 4.48 1.28-0.32m-10.64 0.16 1.28 4.64m-0.56-2.16 0.64-0.16-0.56-1.84-0.56 0.16m0.8 0.64 7.44-2m-7.68 1.2 7.44-2m0 0 0.56 1.84-7.44 2m9.36-4.48 0.56 1.84m-2.48 0.64 0.56-0.16m-1.12-1.68 0.64-0.16m1.28-0.32 0.56-0.16m-0.56 0.16 0.48 1.84 0.64-0.16m-1.12-1.68-0.8-0.48-0.48 0.8 0.48 1.84m1.92-0.48 7.44-2m-7.76 0.88 7.44-2m-7.68 1.28 7.52-2m2.48 60.4-2.24-1.28m-20.96-19.04 3.68-0.96 3.2 11.92m38.88-58.48-67.84 18.24m45.28 49.6 15.44-26.64m-14.08 27.44 15.44-26.64m5.12-36.8-52.72 14.08m58.8 64.8 5.52-9.6m-19.92 1.28 12.96 7.44 5.68-9.84m13.28 22.64-6.08-3.52m-0.24 34.4-3.36 5.92m4.64-5.2-2.64 4.64m-4.56-11.04 0.64-1.12m-3.28 1.84-6.16-3.52m15.12-12.08 3.36 1.92m-35.28 10.96-2.8 21.12m1.28-21.68-2.88 21.52m2.88 0.32-0.64 5.12m0.64-5.12-4.16-0.56-0.64 5.12m4.16 0.56-4.16-0.56m30.08-24.48-6.16-3.6m-19.12 1.68 4.72-8.16-13.04-7.44m14.4 8.24-4.56 7.92m-60.8-105.44 7.84 4.48m-7.84-4.48-2.4 4.16m10.24 0.32-2.4 4.16m-7.84-4.48 7.84 4.48m15.36-2.64-11.44 3.04m-16.08 13.6 0.64-1.12-0.56-0.32m2.64 1.52 0.8-1.44m3.68 4 0.8-1.36m0.56 3.68-8.56-4.96m30.56-5.2-3.04-11.44m3.68 13.6-19.04-10.96m18.4 8.8-14.48-8.4m-28.88-19.6 0.56 0.32m-0.56-0.32-0.96 1.68 0.56 0.32m1.28-2.24-2.4 4.16m-11.44 14 1.28-2.16m-6.24-22 2.16-3.68m7.44 5.12 0.88-0.24m0.24 0.88-0.96 1.68 0.56 0.32m-8.96-5.2 6.72 3.92m-5.68-5.6 6.64 3.92m-7.2-3.04 6.72 3.84m-6.72-5.04 0.56 0.32-1.04 1.68-0.56-0.32m7.84 4.56 1.12 0.64m-0.72-2.64 0.56 0.32-0.96 1.68-0.56-0.32zm-6.88-4.8-2.48 4.24m10.8 0.64 0.24 0.88 0.56 0.32-0.96 1.68m31.84 38.64-10.56-6.16m-15.2-5.76-11.44-6.64m5.84-20.96 6.64 3.84m-7.12-2.96 6.64 3.84m-5.68-5.52 6.64 3.84m7.84 61.6-20.88-12.08m-2-1.52 13.52-23.44m-11.52 24.96 14.24-24.56m23.04 11.52-15.04 26.08m12.16-24.4-13.52 23.44m22.48 15.04-2.56 4.4 5.6 3.28 2.56-4.48m5.36 36.48 3.68 2.08m0 0-2.56 4.48-3.68-2.08m0 0 2.56-4.48m-41.84-16 0.16 0.64 1.84-0.48-0.16-0.64m-2.48 0.64 4.64-1.2m-6.08-22.72 17.2 64m-22.4-64.72 18.24 67.92m-8.64-34.72 1.84-0.48m0.64 9.76 1.84-0.48m-2.32 1.28 4.72-1.28m-4.24 0.48 0.16 0.64m1.68-1.12 0.16 0.64m-3.04-7.84 2 7.44m-2.96-7.2 2 7.44m-0.16-7.92 2 7.44m-2.64-9.92 0.16 0.64m-2-0.16 0.16 0.64m1.84-0.48 0.32 1.2m-1.68 1.12 1.84-0.48m-2.48-2 1.84-0.48m0.64 2.48-0.16-0.64-1.84 0.48 0.16 0.64m-0.16-0.64-0.8-0.4 0.48-0.8m-0.32-8.56 2 7.44m-3.84-6.96 2 7.44m-1.12-7.68 2 7.44m-2.56-45.6-7.76 13.28m64.72 16.08-2.24-1.28m33.28 17.36-16.56-9.6m-65.76-36.08-8.24 14.24m45.04 40.4 14.48-25.04m-13.04 25.84 14.4-25.04m-6.64-40.16-9.76-36.48m8.4 37.52-6.24-23.44m60.88 40 16.96-12.96m-15.68 14.08 16.64-12.8m22.32 82.16-39.2-22.64m38.24 24.32-40.88-23.6m0.8-1.36 0.8-1.44m3.6 13.68 10.56 6.08m-8.56-6.64 8 4.64m37.6-101.68-60.88-35.2m22.08 12.8-2.4 4.16m0.72 91.28 6.72-11.68m-8.4 10.72 6.72-11.68m-1.68-0.96-6.08-3.52m0.08 17.84 3.36 1.92m40.48 42-8.48-4.96m-43.2 22.4-1.2 0.32m10.56-0.16-1.28-4.64m0.64 2.16-0.64 0.16 0.48 1.92 0.64-0.24m-0.88-0.72-7.44 2m7.68-1.04-7.44 1.92m0 0-0.48-1.84 7.44-2m-9.28 2.48-0.64 0.24 0.48 1.84m0.64-0.16-0.64 0.16m1.44 0.24-0.8-0.4-0.48-1.92m1.68 1.6-0.48-1.92m1.12 1.68-0.64 0.24-0.4 0.72m0.56-2.8-0.64 0.16m-9.28 2.48-0.64 0.24m1.12 1.68-0.64 0.16m0.16 0.64-1.2-4.72m8.64 0.08-7.44 1.92 0.48 1.92m7.44-2-7.44 2m7.2-2.96-7.44 2m-46.16-6.96 0.56 0.32m-0.56-0.32-0.96 1.68 0.56 0.32m-0.4 0.56 2.48-4.16m21.2 11.52 63.12-16.96m-94.4 2.24 1.12 0.64m-8.88-5.2 0.56 0.32-0.96 1.68-0.56-0.32m1.04-0.48 6.64 3.84m-7.12-3.04 6.64 3.84m-5.68-5.52 6.64 3.92m0.72 2.64 0.56 0.32m0.4-2 0.56 0.32m-10.72-3.28 2.4-4.16m7.36 9.12 0.96-1.68m-1.52 1.36 0.96-1.68m-2.08 1.04 0.96-1.68-0.56-0.32-0.96 1.6m1.68 1.04-0.88 0.16-0.24-0.8-0.56-0.4m-13.36-12.48 44.56 25.68m-60.8-29.52 60.8 35.12m-28-19.12 6.72 3.84m-7.68-2.16 6.72 3.84m-6.24-4.72 6.72 3.84m124.8-64.56-35.12 60.88-67.92 18.16m-44.56-31.28 14.64-25.36m-16.08 24.56 14.64-25.36m35.44 20.56-4.08 31.28m5.68-31.04-4.08 31.28m-58.24-32.96 10.64 6.24m110.72 9.76 8.24-14.24m-173.52-154.48-11.2-6.48m12 5.12-1.92-1.12m5.84 25.84-11.36-6.56m11.36 6.56 1.28-2.24-13.6-7.84m0.96 3.52-1.04 1.76m-13.44 29.04 1.92 1.12 2.16-3.68m-6.16 6.08 5.28 3.04 2.96-4.96m19.68-46.48-4.72-2.72m-11.44 39.2 8.24-14.4 22.32 12.88-8.32 14.4zm-5.6 5.84-1.92-1.12m33.28 16.24-32-18.48m46.96 33.04-44.24-25.52m63.84-26.48-41.68-24.16m39.28 28.32-41.76-24.16m-23.04-37.84-196.72-113.52m192.48 187.68-11.2-6.48m-267.36-140.4-0.08-0.08 0.08 0.08 1.68 0.8 1.76 0.48 1.76 0.24 1.76-0.08 1.84-0.32 1.68-0.64 1.6-0.88 1.36-1.12 1.28-1.28 0.96-1.52m-10-5.76-5.52 10.16-0.24-0.16m6.08-9.84-0.32-0.16-5.52 10.16m15.52-4.4 0.8-1.36m-11.92-5.04 1.12 0.64 0.8-1.44m0.16-2.88-1.28 2.24 1.12 0.64m10 5.84 6.72 3.84 9.6-16.72m-10.4 18.08-6.72-3.84m-32.96 31.44 21.84-37.84m297.36 117.2 20-34.64m-29.52-15.68 26.96 15.6-19.36 33.6m-1.12-0.64 18.72-32.48m-43.2 18.32 18.72-32.48m-20.88 33.04 10.56-18.4m0.72-1.2 8.88-15.36m25.2 16.08-24.48-14.16m-230.8-107.44 0.48-0.32 0.24-0.08h0.4l0.48 0.32 0.24 0.32v0.24l-0.08 0.56-0.8 1.44m0 0-3.36-1.92 0.8-1.44 0.48-0.4 0.24-0.08 0.4 0.08 0.32 0.16 0.24 0.32 0.08 0.24-0.16 0.56-0.8 1.44m-2.64 2.32 0.08-0.4-0.24-0.72 3.36 1.92m-5.36 1.52-0.16 0.64 0.32 0.56 0.72 0.64 0.48 0.24 0.88 0.32 0.64-0.08 0.48-0.32 0.16-0.32 0.08-0.64-0.24-0.56-0.72-0.64-0.48-0.24-0.88-0.32-0.64 0.08-0.48 0.32zm-1.52 2.56 3.36 1.92m-3.36-1.92 1.36 2.88 1.36-2.4m-17.6 32.96 0.96-1.6m-0.08 2.72-2.64-3.2 4.08 0.64m-5.52 3.36v-0.4l-0.16-0.8 3.28 2m-5.36 1.52-0.08 0.56 0.32 0.64 0.64 0.56 0.48 0.32 0.88 0.32 0.72-0.08 0.4-0.4 0.16-0.32 0.16-0.56-0.32-0.56-0.72-0.64-0.48-0.24-0.88-0.32h-0.64l-0.4 0.4zm-1.44 2.56 3.36 1.92m-3.36-1.92 1.28 2.88 1.44-2.4m10-39.04 2.24 1.28m-333.6-17.12 3.84 6m-7.68 0v-11.52h4.96l1.6 0.56 0.56 0.56 0.56 1.04v1.12l-0.56 1.12-0.56 0.56-1.6 0.56h-4.96m-9.36-5.52-1.12 0.56-1.12 1.12-0.56 1.04-0.56 1.68v2.72l0.56 1.68 0.56 1.12 1.12 1.12 1.12 0.48h2.16l1.12-0.48 1.12-1.12 0.56-1.12 0.56-1.68v-2.72l-0.56-1.68-0.56-1.04-1.12-1.12-1.12-0.56zm-12.16 0-1.04 0.56-1.12 1.12-0.56 1.04-0.56 1.68v2.72l0.56 1.68 0.56 1.12 1.12 1.12 1.04 0.48h2.24l1.12-0.48 1.04-1.12 0.56-1.12 0.56-1.68v-2.72l-0.56-1.68-0.56-1.04-1.04-1.12-1.12-0.56zm-12.08 0v11.52h6.56m-16.48-6h4.4m-4.4 6v-11.52h7.12m-30.24 11.52v-11.52h3.84l1.68 0.56 1.04 1.12 0.56 1.04 0.56 1.68v2.72l-0.56 1.68-0.56 1.12-1.04 1.12-1.68 0.48zm-7.76-6 3.92 6m-7.76 0v-11.52h4.96l1.68 0.56 0.56 0.56 0.56 1.04v1.12l-0.56 1.12-0.56 0.56-1.68 0.56h-4.96m-10.48-5.52h6.08l-3.28 4.4h1.6l1.12 0.56 0.56 0.56 0.56 1.6v1.12l-0.56 1.68-1.12 1.12-1.6 0.48h-1.68l-1.68-0.48-0.48-0.56-0.56-1.12m-20.96-3.84h4.4m-4.4 6v-11.52h7.2m-16.56 0-1.12 0.56-1.12 1.12-0.48 1.04-0.56 1.68v2.72l0.56 1.68 0.48 1.12 1.12 1.12 1.12 0.48h2.24l1.04-0.48 1.12-1.12 0.56-1.12 0.56-1.68v-2.72l-0.56-1.68-0.56-1.04-1.12-1.12-1.04-0.56zm116.8-7.2h7.12m-7.12-6h4.4m-4.4 6v-11.52h7.12m-11.04 2.72-0.56-1.12-1.04-1.04-1.12-0.56h-2.24l-1.04 0.56-1.12 1.04-0.56 1.12-0.56 1.68v2.72l0.56 1.68 0.56 1.12 1.12 1.12 1.04 0.48h2.24l1.12-0.48 1.04-1.12 0.56-1.12m-17.6-1.12h5.52m-7.2 3.84 4.4-11.52 4.48 11.52m-18.8 0v-11.52h4.96l1.68 0.56 0.56 0.56 0.56 1.04v1.68l-0.56 1.12-0.56 0.56-1.68 0.56h-4.96m-3.84-4.48-1.12-1.04-1.6-0.56h-2.24l-1.6 0.56-1.12 1.04v1.12l0.56 1.12 0.56 0.56 1.04 0.56 3.36 1.12 1.04 0.48 0.56 0.56 0.56 1.12v1.68l-1.12 1.12-1.6 0.48h-2.24l-1.6-0.48-1.12-1.12m-14.88-7.2-0.56-1.12-1.12-1.04-1.04-0.56h-2.24l-1.12 0.56-1.12 1.04-0.48 1.12-0.56 1.68v2.72l0.56 1.68 0.48 1.12 1.12 1.12 1.12 0.48h2.24l1.04-0.48 1.12-1.12 0.56-1.12v-1.68h-2.72m-17.12 4.4v-11.52l7.76 11.52v-11.52m-12.16 0v11.52m-9.36-11.52v11.52h6.64m-11.04-11.52v11.52m-10.48 0h7.2m-7.2-6h4.4m-4.4 6v-11.52h7.2m-11.04 2.72-0.56-1.12-1.12-1.04-1.04-0.56h-2.24l-1.12 0.56-1.12 1.04-0.48 1.12-0.56 1.68v2.72l0.56 1.68 0.48 1.12 1.12 1.12 1.12 0.48h2.24l1.04-0.48 1.12-1.12 0.56-1.12m574.08 114.72-0.88-0.16-0.88 0.48-0.88 1.04-0.48 0.72-0.4 1.28 0.08 1.04 0.56 0.64 0.48 0.24 0.8 0.24 0.96-0.48 0.88-1.04 0.4-0.72 0.48-1.36-0.08-0.96-0.56-0.64zm-6-2.16h0.56l1.12-0.32-2.88 5.04m-1.36-7.52-2.88 5.04m2.88-5.04-4.32 2 3.52 2.08m-180.8-1.76 2.64 1.52-2.56 1.12 0.72 0.4 0.32 0.48 0.16 0.4-0.24 0.88-0.24 0.48-0.64 0.56-0.8 0.16-0.8-0.16-0.72-0.4-0.56-0.64-0.16-0.4 0.08-0.64m-2.16-0.56-0.4 0.08 0.08 0.4 0.4-0.16zm-2.16-7.28 3.28 1.92m-1.68-0.96-2.88 4.96m-0.08-5.76-0.24-0.8-0.56-0.64-0.96-0.56-0.87998-0.16-0.72 0.24-0.32 0.48v0.56l0.08 0.4 0.32 0.48 1.2 1.36 0.32 0.48 0.08 0.4v0.56l-0.4 0.72-0.79998 0.24-0.8-0.16-0.96-0.56-0.64-0.64-0.16-0.8m66.8-124.48-0.88 0.32-0.56 0.8-0.24 1.36v0.8l0.24 1.44 0.56 0.8 0.88 0.24h0.48l0.88-0.24 0.56-0.8 0.24-1.44v-0.8l-0.24-1.36-0.56-0.8-0.88-0.32zm-5.52 0-0.88 0.32-0.48 0.8-0.32 1.36v0.8l0.32 1.44 0.48 0.8 0.88 0.24h0.56l0.8-0.24 0.56-0.8 0.24-1.44v-0.8l-0.24-1.36-0.56-0.8-0.8-0.32zm-4.4 0v5.76m0-5.76-2.8 3.84h4.16m-15.84 88.96 1.92-3.36 0.32 4.64 1.92-3.36m-7.52 0.08 1.92-3.28 1.12 0.64 0.4 0.4 0.16 0.48-0.08 0.48-0.08 0.56-0.48 0.8-0.4 0.32-0.32 0.24-0.56 0.16-0.56-0.16zm-13.68-12.64 1.92-3.36 1.44 0.8 0.4 0.48 0.08 0.24-0.08 0.4-0.24 0.48-0.32 0.24h-0.32l-0.56-0.08-1.44-0.8m-2.48-3.76-1.36 2.32-0.08 0.64 0.08 0.48 0.4 0.4 0.32 0.16 0.56 0.16 0.48-0.16 0.48-0.4 1.36-2.32m-19.76 31.12 4.56-4-1.28 6m30.08-14.64-19.28 33.44-17.92-10.32 5.52-9.44m11.12-15.52-4.56 4.08 1.2-6m7.76-9.6-6.08 10.56m36.24-30.96 0.96-1.68m-22.64-10.88 12.24 7.04 0.96-1.6m9.44 5.44 16.72 9.6m-37.44-0.08 0.88-1.68 0.48-1.84 0.16-1.84-0.16-1.92-0.48-1.84-0.72-1.68-1.12-1.6-1.36-1.36-1.52-1.04m0 0-0.16-0.08zm-5.36 9.52 5.2-9.6 0.32 0.16m-5.76 9.28 0.24 0.16 5.2-9.6m4 14.88-0.8 1.44m-9.44-7.36 0.8 0.48-0.8 1.36m0 0-0.8-0.48m0.8-1.36 8.32-14.48m6.72 25.04-5.6-3.2m7.76 2.56-6.96-4m14.88 42.4 1.28 0.56 1.44 0.32 1.44-0.08 1.36-0.32 1.28-0.64 1.04-0.96 0.88-1.12m0 0 0.08-0.16zm-5.68-3.04 5.76 2.88-0.16 0.32m-5.44-3.52-0.16 0.32 5.76 2.88m-10.48 1.44 1.68 0.96m1.92-7.12-0.32 0.56 1.6 0.96m-8.24 3.36 3.04 1.84 0.32-0.56m3.6-6.16-3.12-1.76m62.96-85.2-0.08 0.16 0.08-0.16 0.56-1.28 0.24-1.44-0.08-1.36-0.4-1.44-0.64-1.2-0.96-1.12-1.2-0.8m-3.2 5.6 5.76 2.88-0.16 0.32m-5.44-3.52-0.16 0.32 5.76 2.88m-4.24-9.44 1.68 0.96m-5.2 5.2 0.32-0.56 1.68 0.96m10.32-17.84-19.68 34.08m11.2-23.36-0.32 0.56m-3.52 6.16-3.04-1.76m6.88-4.96-3.04-1.76m254.32 152.24-251.92-145.44m247.44 145.52 3.36 1.92v2l3.36-2v2l3.28 1.92m-312.56-55.92 252 145.44m-0.24-6.64 3.36 1.92 1.68-0.96v3.84l1.68-0.96 3.28 1.92m-220.08-198.4 0.16 0.08-0.16-0.08-1.36-0.64-1.44-0.32-1.52-0.08-1.44 0.24-1.44 0.56-1.28 0.8-1.04 1.04-0.88 1.28m6.72 3.84 3.52-6.8 0.32 0.16m-4.16 6.48 0.32 0.16 3.52-6.8m-10.24 2.96-0.8 1.36m8.64 3.12-1.12-0.64-0.8 1.36m0 0 2.48 1.44m-9.76-7.44 1.36 0.8m0.4-7.04-1.2 2.08m23.92-13.84-14.72 25.44m13.36-26.4-13.92 24.24m13.92-24.24-9.12-5.28-14 24.24m-3.76 42.48-15.6-8.96 11.2-19.52m7.84 4.56-0.64 1.36-0.4 1.44-0.08 1.44 0.24 1.52 0.56 1.44 0.72 1.28 1.04 1.04 1.2 0.88m0 0 0.16 0.08zm3.76-6.72-3.6 6.8-0.24-0.16m4.08-6.48-0.24-0.16-3.6 6.8m-2.8-10.48 0.8-1.44m6.96 5.92-1.12-0.64 0.8-1.44m0 0 2.56 1.52m-19.2-9.28 0.8-1.36m0.56 2.16 7.84 4.56m-8.4-6.72 9.2 5.28m-2.8 26.08 12-20.72m-13.44 20 11.2-19.44m250.64 182-3.28-1.92 0.8-1.44 0.4-0.4h0.72l0.48 0.24 0.16 0.4 0.08 0.24-0.08 0.56-0.88 1.44m-3.76 2.48 2.4 1.36 0.56 0.16 0.48-0.16 0.48-0.4 0.16-0.32 0.16-0.56-0.16-0.48-0.4-0.48-2.4-1.36m22.72 18.48-3.36-1.92 0.8-1.44 0.48-0.4 0.24-0.08 0.4 0.08 0.48 0.24 0.24 0.32 0.08 0.32-0.16 0.56-0.8 1.44m-3.76 2.48 2.4 1.36 0.56 0.08 0.48-0.08 0.4-0.4 0.24-0.32 0.08-0.56-0.08-0.56-0.4-0.4-2.4-1.36m2.48-6.64 2.56 1.44m-5.04-2.88 2.96 0.64-0.96 1.68m-7.68-2.24 5.68 3.28 2.88-5.04-5.68-3.28m-8.24-1.36-2.48-1.44m7.84 7.84-5.76-3.28 2.96-5.04 5.68 3.28m-37.92-30.8 10.4-17.84m-1072.2 121.76 413.92-443.04 328.16 216.88m90.64-237.84-323.12 243.36-669.6 47.52m795.76-97.68 0.08-3.92-1.68-0.96 3.36-1.84-1.68-1.04 0.08-3.84m44.32-238.8 32.96 5.84m-109.52-9.6h33.44m-109.52 9.6 32.88-5.84m-106.16 28.48 31.44-11.44m218.8 286.56 0.08-3.84-1.6-1.04 3.36-1.84-1.68-1.04 0.08-3.84m78.56-255.36 1.36-3.6-1.2-1.52 3.84-0.64-1.2-1.44 1.36-3.68m-1.12 2.72-31.36-11.44m9.52 279.68 23.12-40.08m-23.12 27.84 5.28 3.04m-19.36-3.04h8.64l0.96-1.68 1.92 3.36 0.96-1.68h8.64m-19.36-3.12h8.64l0.96-1.6 1.92 3.28 0.96-1.68h8.64m-12-63.28 31.2-5.6m-19.68-14.48 11.84 33.52m1.68 0.96 2.24 1.28m-23.92-42.72 1.28-2.24-3.12-1.76m30.96 22.88 2.16-3.76-4.4-2.56m-1.28 2.24 1.28-2.24m66.32-13.44 81.44 46.96 3.84-6.64 85.36 49.28-3.84 6.72 85.2 49.12-4.08 7.04m10.4-8.72-6.4 11.12m-55.12 86.16-5.68 9.92-85.2-49.2-3.84 6.72-85.44-49.36 3.84-6.64-81.36-47.04m258.88 142.8 32.96 19.04 8.16-14.08m-46.32 4.08 8-13.92m29.36 44 17.04-29.44m36.72-63.68 55.84-14.96 12.56 7.28 14.08-3.76m-136.24 104.56 14.96 55.84 12.64 7.28 3.76 14m186.24-75.6-53.68 93.04-55.84 14.96-12.64-7.2-14 3.76-50.08-28.96m154.96-152.8 3.76 14.08 12.56 7.28m14.96 55.84-14.96-55.84m-16.32-21.36-50.08-28.88m-2.88-4.08 1.28-2.24zm-20.64-5.12 0.72 2.48 9.44 5.44m10.48-2.8-10.48 2.8m-371.12-325.6-10-5.76-3.84 6.64m-10.88-15.12-10.48-4.88m0 0-3.2 6.96-15.04-5.44m28.72 3.36-3.2 6.96m-81.04-37.6 11.2 2.96m-11.2-2.96-2 7.44-15.68-2.8m41.84 11.2-14.96-5.44 2-7.44m-89.04-7.92 0.64-7.68 11.52 1.04m0 0-0.64 7.68m-11.52-1.04h-15.92m-50.08-7.68-11.52 1.04m12.24 6.64h15.92m-28.16-6.64 0.72 7.68m10.8-8.72 0.72 7.68m-11.52 1.04-15.76 2.72m104.08-2.72 15.68 2.72m131.68 38.8 14.08 8.16m18.4 16.24-6.64-3.84m0 0 2.4-4.24-4.16-2.4m-5.52 34.64-6.64-3.92m0 0 8.16-14.08 6.64 3.84m0 0 5.76-10m-13.92 24.16-5.76 10-6.72-3.84m25.52 76.64-8.32-4.8m8.8 4-8.32-4.88m-0.88-0.48-0.96 1.68 0.88 0.48 8.32 4.8m-8.24-6.96 0.88 0.48-0.96 1.68m9.28 3.2-0.96 1.6 0.8 0.48m0.16-2.08 0.8 0.48-0.96 1.6m1.68-2.72-2.8 4.72m-7.28-10.56-2.72 4.72m31.44 11.84-71.84-41.44m64.32 43.44-67.84-39.2m246.16 135.84-3.84 6.72m-89.68-60.72-3.84 6.72m129.12 111.12-196.64-113.6m-42.48 11.12 2.8 1.6m37.84 109.92 3.84-6.64m162.88-66.24-93.52-54m119.6 194.48-222.56-128.48m21.76-103.92 77.36 44.64m-80.96-49.36-29.6 51.36m-22.24-86.16-0.96 1.68 0.8 0.48m0.16-2.16 0.8 0.48-0.96 1.68m0.8-3.28-2.72 4.8m11.2 1.68-0.96 1.68 0.88 0.48m0.08-2.16 0.88 0.48-0.96 1.68m-0.4-1.36-8.32-4.8m8.8 4-8.32-4.88m7.36 6.56-8.32-4.88m10.8 2.56-2.72 4.72m-19.2 60.16-2-7.44m-31.68-18.32-3.04-1.76m0.8 27.12v-17.6m0 0 3.92-6.8 9.68 5.6m-16.64 2.64 5.28-9.2m4.88 0.56 25.6 14.8m1.2 2.96-18.64-10.8m15.92-55.76-25.92 44.8m-33.52 18.4h-4.48v-3.84m-43.36 14.08v-9.6m0 0h4.48v-4.48m33.12 14.08h-37.6m43.36-14.08h-38.88m69.6 0h-24.32m23.28-1.92h-74.96m116 16.8-9.2 16m29.6 19.36-13.36-7.68m-25.6-14.8-21.44-12.4m5.76 1.12 23.36 13.44m-7.68-2.16-9.6 16.72 2.24 1.28m-5.12 12.64 15.84 9.12m-19.36-3.04 15.84 9.2m-14.08-12.24 15.84 9.2m-22.88 3.04 10.56 6.08m-17.68 6.16 35.12 20.24m-29.76-29.44 5.2 3.04m-1.76 3.12 10.64 6.08m-17.68-6.08 15.92 9.12m-8.8-21.36 15.84 9.12m-14.08-12.16 15.84 9.12m15.68 17.2-17.84-10.24m19.6 7.2-17.84-10.32m19.6 7.28-17.76-10.32m19.52 7.2-17.76-10.24m19.52 7.2-17.76-10.24m-53.28-29.68h-7.68m7.68 0v-2.56h2.56m-12.16 2.56v-25.76m-32.16 25.76v-2.56h-3.52m4.4 4.48v9.92m31.28-11.84h-32.16m46.24 1.92h-45.36m31.28-27.68h-35.68v23.2m88.16 6.56-27.6 47.68h-37.36m67.6 39.52 3.36-1.92m-18.96-7.04 2.8-4.72m-11.28-1.68 8.32 4.8m0.8 0.48 0.96-1.68-0.8-0.48m-0.16 2.16-0.8-0.48 0.96-1.68m-26.4-11.52 41.2 23.76m-35.36-26.72 35.04 20.24m-22.8-10.56 8.32 4.8m-8.8-4 8.32 4.88m-8.8-4 0.96-1.68-0.88-0.48m-0.08 2.16-0.88-0.48 0.96-1.68m27.36 15.6 34.16-59.12m-131.6 27.04h52.88v10.24m-37.44 41.76v-19.28m53.04-13.44 2.72-4.72m22.56 12.96 33.6-58.16m-20.08 34.8-17.84-10.32m19.6 7.28-17.84-10.32m19.6 7.2-17.84-10.24m-34.24 19.52 34.88-60.4m-101.04 6.16v1.6m0-1.6h-11.52v-5.44m-4.08-7.36v-7.76m4.08 15.12h-23.52m0.16-7.36h19.28m23.04 92.48v-32.72m-3.84 55.84h3.84v-3.84m-3.84 3.84v15.44h-19.28m-69.44-15.44h69.44v15.44m-145.52-71.28h52.96m0 0v32.72h-15.44m38.56 38.56v-15.44m-38.56-3.84h15.44v3.84h3.84m19.28 15.44h-19.28v-15.44m-19.28-3.84v-19.28m146.56 0h-15.44m15.44 19.28h-15.44m7.68-97.36h-15.12m8.8-22.16h-24.4m117.68-35.04-11.52 20.08m-3.76-2.24 2.08 1.28 11.52-20.08m-91.6 36v-33.36m39.52 43.68v-27.68m12.16 29.6v-43.68m-1.92 39.2v-35.36m26.24 11.52v-15.36m37.92 14.64-8.8 15.28m10.32-17.2-1.2-4.4m0.88 89.76 77.36 44.64m-39.36-287.12-75.92 131.52m35.52-50.72 25.68-44.48m21.84-47.44-3.84 6.64m-3.28 4.48-9.44-5.12-9.52-4.88-9.68-4.72-9.76-4.4-9.84-4.16m331.76 300-85.12-49.12m262.96 132.8-2.48 0.72-9.44-5.44m-2.8-10.56 1.28-2.24-1.28 2.24 2.8 10.56m11.92 4.72 17.28 64.56-2.48 0.72m-171.92-99.28-0.72-2.56m-51.36 92.64 16.16-27.92m10.64 97.92-9.44-5.44-2.48 0.64m157.12 34.08 0.64 2.48m-65.2 14.8 0.64 2.48m-0.64-2.48-9.44-5.44-10.56 2.8-1.28 2.24 1.28-2.24m-1.28 2.24-57.84-33.44 1.28-2.16-1.28 2.16m79.76 36.32 64.56-17.28m-0.64-2.48 52-90.08m-194.4 71.36-2.8-10.56m-56.24-103.92v-0.08m0.32 0h-0.24l-0.08 0.08-0.08 0.24 0.16 0.08m36.16 20.88-36.16-20.88m-1.52-9.28 7.04-12.24m-10.32 28.88-85.12-49.12-3.92 6.64m123.2 68.72-2.48 0.64m8.24-10.48-37.04-21.36m46.16 96.4-17.36-64.56m9.28-13.36 0.16 0.08 0.16-0.16v-0.16l-0.08-0.16-36.16-20.88m75.52-46.24-37.04-21.36m-35.52 61.44 2.4-4.16m-99.44-24.4-93.44-54m412.4 49.12-57.92-33.44m-86.48 14.4 64.56-17.28m-673.2-357.92-15.68 2.8-2-7.44m0 0-11.2 2.96m0 0 2 7.44-14.96 5.44m-46.4 16.88 14.96-5.44m-28.72 3.36 10.48-4.88m-10.48 4.88 3.28 6.96-14.08 8.16-3.84-6.64m25.12-13.36 3.28 6.96m-28.4 6.4-10 5.76m7.84 23.28 5.12 8.8m-11.76-4.96-5.84-10m17.6 14.96-87.36 50.48-3.84-6.72m73.6-58.72 6.72-3.84-2.4-4.24m1.52 18.08 6.64-3.84m-4-16.64-4.16 2.4m54.56 260.4 9.92 17.12 3.36 1.92 41.12-23.76v-10.24m-54.4 14.96-80.64 46.56 3.84 6.72m-145.28-195.12 3.84 6.64m-91.2 43.84 3.84 6.64m-3.84-6.64-126.64 73.04-22.72-39.36m240.56-77.52-87.36 50.48m173.12-108.88-89.6 51.76m167.84-127.6 3.84 6.64m-408.4 205.12-9.12 1.68-8.96 2-8.88 2.4-8.88 2.64-8.72 2.96-8.64 3.28-8.48 3.6-8.32 3.92-8.24 4.16-8.08 4.48-7.92 4.72-7.68 5.04-7.6 5.28-7.28 5.6-7.2 5.76-6.96 6.08-6.72 6.32-6.48 6.56-6.24 6.8-6 6.96m325.52 117.28 7.52 13.04m-7.52-13.04-29.2 16.88 7.52 13.04m29.2-16.88 88.48-51.04m-117.68 67.92-119.04 68.8-24.8-42.88m261.52-93.84 3.92 6.64m-265.44 87.2-98.48 56.88-50.72-87.92 53.36-30.88m474.24-90.48-112.96 65.2m-361.28 25.28-64.16-111.2m1241.1 54.96 22.32 12.88-8.32 14.4-22.24-12.88z" fill="none" stroke="#000" stroke-linecap="round" stroke-linejoin="round" stroke-miterlimit="10" stroke-width=".32"/>
</svg>
