<?xml version="1.0" encoding="UTF-8"?>
<!-- Created with Inkscape (http://www.inkscape.org/) -->
<svg width="1632" height="1056" version="1.1" viewBox="0 0 1632 1056" xmlns="http://www.w3.org/2000/svg">
 <path id="map" d="m1137.1 270.4zm0-50.4v50.4h27.2v-50.4zm-4.96 50.4zm0-50.4v50.4h-26.08v-50.4zm-144.48-53.52h2m53.28 299.52v-1.6m127.6-26.96 0.24 0.08 0.24 0.16 0.08 0.32v0.08l-0.08 0.32-0.24 0.16-0.24 0.08h-0.08l-0.32-0.08-0.24-0.16-0.08-0.32v-0.08l0.08-0.32 0.24-0.16 0.4-0.08h0.48l0.48 0.08 0.24 0.16 0.16 0.32v0.16l-0.16 0.32-0.16 0.08m-1.28 1.92h-0.08l-0.32-0.16-0.08-0.24v-0.32l0.08-0.24 0.32-0.16h0.24l0.48 0.24 0.96 1.04v-1.36m-1.6 3.12h-0.08l-0.32-0.16-0.08-0.16v-0.4l0.08-0.24 0.32-0.16h0.24l0.16 0.08 0.32 0.24 0.96 0.96v-1.36m-1.68 2.96-0.08-0.16-0.32-0.32h2.08m75.52-270.48v-0.08l0.16-0.32 0.16-0.16 0.24-0.16h0.56l0.32 0.16 0.16 0.16 0.16 0.32v0.24l-0.16 0.32-0.32 0.4-1.44 1.44h2m-4.72-2.32v-0.08l0.24-0.48 0.32-0.16h0.56l0.32 0.16 0.16 0.16 0.16 0.32v0.24l-0.16 0.32-0.32 0.4-1.44 1.44h2m-4.48-2.4 0.32-0.16 0.4-0.48v3.04m-2.24-0.24-0.16 0.08 0.16 0.16 0.08-0.16zm-2.8-0.72h1.44m-1.84 0.96 1.12-3.04 1.2 3.04m-4.64-3.04h2m-0.96 0v3.04m-83.04 20.8-0.4 0.16-0.32 0.4-0.08 0.72v0.48l0.08 0.72 0.32 0.4 0.4 0.16h0.32l0.4-0.16 0.32-0.4 0.16-0.72v-0.48l-0.16-0.72-0.32-0.4-0.4-0.16zm-3.6 0.72v-0.16l0.16-0.24 0.16-0.16 0.32-0.16h0.56l0.24 0.16 0.16 0.16 0.16 0.24v0.32l-0.16 0.32-0.24 0.4-1.52 1.44h2.08m-4.48-2.48 0.24-0.08 0.48-0.48v3.04m-2.32-0.32-0.16 0.16 0.16 0.16 0.16-0.16zm-2.72-0.72h1.44m-1.92 1.04 1.2-3.04 1.12 3.04m-4.64-3.04h2.08m-1.04 0v3.04m-17.68-11.76 0.32-0.08 0.4-0.48v3.04m-3.76-3.04h1.6l-0.88 1.2h0.48l0.24 0.08 0.16 0.16 0.16 0.48v0.24l-0.16 0.48-0.24 0.24-0.48 0.16h-0.4l-0.48-0.16-0.08-0.16-0.16-0.24m-2.72-1.76v-0.16l0.08-0.24 0.16-0.16 0.32-0.16h0.56l0.32 0.16 0.08 0.16 0.16 0.24v0.32l-0.16 0.32-0.24 0.4-1.44 1.44h2m-4.48-2.48 0.32-0.08 0.4-0.48v3.04m7.6-15.28-0.48 0.16-0.24 0.4-0.16 0.72v0.48l0.16 0.72 0.24 0.4 0.48 0.16h0.24l0.48-0.16 0.24-0.4 0.16-0.72v-0.48l-0.16-0.72-0.24-0.4-0.48-0.16zm-3.6 0.72v-0.16l0.08-0.32 0.48-0.24h0.56l0.32 0.16 0.08 0.08 0.16 0.32v0.32l-0.16 0.24-0.24 0.48-1.44 1.44h2m-4.8-2.32v-0.16l0.16-0.32 0.48-0.24h0.56l0.24 0.16 0.16 0.08 0.16 0.32v0.32l-0.16 0.24-0.24 0.48-1.44 1.44h2m-4.48-2.48 0.32-0.16 0.4-0.4v3.04m164.24-8.16 0.24 0.88v0.88l-0.24 0.56-0.32 0.32m-0.56-5.76 0.56 0.24 0.32 0.64v0.8l-0.32 0.64-0.56 0.24 0.56 0.32 0.56 0.56 0.32 0.56v0.88l-0.32 0.56-0.24 0.32-0.88 0.32h-1.2l-0.8-0.32-0.32-0.32-0.32-0.56v-0.24l0.32-0.32 0.32 0.32-0.32 0.24m0-3.76 0.32 0.32-0.32 0.24-0.32-0.24v-0.32l0.32-0.56 0.32-0.32 0.8-0.24h1.2l0.88 0.24 0.24 0.64v0.8l-0.24 0.64-0.88 0.24h-0.88m-4.32 3.2-0.32 0.32-0.24-0.32 0.24-0.32zm-2.88 0.32h1.68m-5.2 0h1.76m1.76-6.08h1.68m-5.2 0h1.76m2.88 0-4 6.08m0.24-6.08 3.76 6.08m-4-6.08 3.76 6.08m-10.4 0h4.56v-1.76l-0.24 1.76m-3.2-3.2h1.76m-2.88-2.88h4.56v1.68l-0.24-1.68m-1.44 1.68v2.32m-1.76-4v6.08m-0.32 0v-6.08m-39.52 8.56v-0.08l0.24-0.48 0.32-0.16h0.56l0.32 0.16 0.16 0.16 0.08 0.32v0.24l-0.08 0.32-0.32 0.4-1.44 1.44h2m-4.48-2.4 0.32-0.16 0.4-0.48v3.04m-2.32-0.24-0.08 0.08 0.08 0.16 0.16-0.16zm-2.88-2.8h2.08m-1.04 0v3.04m-1.6-2.56-0.32-0.32-0.4-0.16h-0.56l-0.48 0.16-0.24 0.32v0.24l0.24 0.48 0.32 0.16 0.88 0.24 0.24 0.16 0.16 0.16 0.16 0.24v0.48l-0.32 0.24-0.4 0.16h-0.56l-0.48-0.16-0.24-0.24m-5.92 1.44v-2h0.88l0.32 0.08 0.08 0.08 0.08 0.16v0.32l-0.16 0.32-0.32 0.08h-0.88m-2.08-1.04v1.44l0.08 0.24 0.16 0.24 0.32 0.08h0.24l0.24-0.08 0.24-0.24 0.08-0.24v-1.44m-24.8 2.08-2.96-1.04 2.96-0.96m21.84 0.96h-21.84m235.84 12.24v-6l-3.2 4.32h4.64m-1.76-3.76v5.44m-5.44-0.24-0.32 0.24-0.24-0.24 0.24-0.32zm-2.88 0.24h1.68m-5.2 0h1.76m1.76-6h1.68m-5.2 0h1.76m2.88 0-4 6m0.24-6 3.76 6m-4-6 3.76 6m-10.4 0h4.56v-1.68l-0.24 1.68m-3.2-3.12h1.76m-2.88-2.88h4.56v1.68l-0.24-1.68m-1.44 1.68v2.32m-1.76-4v6m-0.32 0v-6m-110.32 15.12 0.32-0.16 0.4-0.48v3.04m-3.92-2.32v-0.08l0.16-0.32 0.16-0.16 0.32-0.16h0.56l0.24 0.16 0.16 0.16 0.16 0.32v0.24l-0.16 0.32-0.24 0.4-1.44 1.44h2m-4.48-2.4 0.24-0.16 0.48-0.48v3.04m-2.32-0.24-0.16 0.16 0.16 0.08 0.16-0.08zm-2.72-0.72h1.44m-1.92 0.96 1.2-3.04 1.12 3.04m-4.64-3.04h2.08m-1.04 0v3.04m-60.8 11.92-0.16-0.24-0.24-0.32-0.32-0.16h-0.56l-0.32 0.16-0.24 0.32-0.16 0.24-0.16 0.48v0.72l0.16 0.4 0.16 0.32 0.24 0.24 0.32 0.16h0.56l0.32-0.16 0.24-0.24 0.16-0.32m-3.28 0.48-0.16 0.08 0.16 0.16 0.08-0.16zm-2.64-2.8v3.04h1.76m-4.48 0h1.84m-1.84-1.6h1.12m-1.12 1.6v-3.04h1.84m-32 1.52h1.52l-0.8 1.12h0.4l0.32 0.16 0.08 0.16 0.16 0.48v0.24l-0.16 0.48-0.24 0.24-0.48 0.16h-0.4l-0.4-0.16-0.16-0.16-0.16-0.24m-2.64-2.48h1.6l-0.88 1.12h0.48l0.24 0.16 0.16 0.16 0.16 0.48v0.24l-0.16 0.48-0.24 0.24-0.48 0.16h-0.4l-0.48-0.16-0.08-0.16-0.16-0.24m-2.8-1.76v-0.16l0.16-0.24 0.16-0.16 0.32-0.16h0.56l0.32 0.16 0.08 0.16 0.16 0.24v0.32l-0.16 0.24-0.24 0.48-1.44 1.44h2m-4.48-2.48 0.32-0.16 0.4-0.4v3.04m225.6-1.92h1.6l-0.88 1.2h0.48l0.24 0.16 0.16 0.08 0.16 0.48v0.24l-0.16 0.48-0.24 0.32-0.48 0.08h-0.4l-0.48-0.08-0.24-0.48m-2.48-1.84 0.32-0.16 0.4-0.48v3.04m-2.32-0.24-0.16 0.16 0.16 0.08 0.16-0.08zm-2.88-2.8h2m-0.96 0v3.04m-1.6-2.56-0.32-0.32-0.4-0.16h-0.56l-0.48 0.16-0.24 0.32v0.24l0.08 0.32 0.16 0.16 0.32 0.16 0.88 0.24 0.24 0.16 0.16 0.16 0.16 0.24v0.48l-0.32 0.32-0.4 0.08h-0.56l-0.48-0.08-0.24-0.32m-6.72-10.64v-2.08h0.88l0.32 0.16 0.08 0.08 0.08 0.16v0.32l-0.08 0.16-0.08 0.08-0.32 0.16h-0.88m-2.08-1.12v1.44l0.08 0.32 0.16 0.16 0.32 0.16h0.16l0.32-0.16 0.16-0.16 0.16-0.32v-1.44m18.16 0.08 3.04 1.04-3.04 1.04m-14.64-1.04h14.64m89.6 91.04-0.16-0.32-0.24-0.24-0.32-0.16h-0.56l-0.32 0.16-0.24 0.24-0.16 0.32-0.16 0.4v0.72l0.16 0.48 0.16 0.24 0.24 0.32 0.32 0.16h0.56l0.32-0.16 0.24-0.32 0.16-0.24m-4.16-2.32-0.48 0.16-0.24 0.4-0.16 0.72v0.4l0.16 0.8 0.24 0.4 0.48 0.16h0.24l0.48-0.16 0.24-0.4 0.16-0.8v-0.4l-0.16-0.72-0.24-0.4-0.48-0.16zm-2.32 0v3.04m0-3.04-1.44 2h2.16m-4.88-1.28v-0.16l0.08-0.32 0.48-0.24h0.56l0.32 0.16 0.08 0.08 0.16 0.32v0.32l-0.16 0.24-0.24 0.48-1.44 1.44h2m-4.48-2.48 0.32-0.16 0.4-0.4v3.04m-112.88-1.52 0.48 0.08 0.16 0.16 0.08 0.32v0.4l-0.08 0.32-0.16 0.16-0.48 0.08h-1.28m0 0v-2.96h1.28l0.48 0.08 0.16 0.16 0.08 0.32v0.24l-0.08 0.32-0.16 0.16-0.48 0.16h-1.28m-2.16-1.44-0.4 0.08-0.32 0.48-0.16 0.72v0.4l0.16 0.72 0.32 0.48 0.4 0.08h0.32l0.4-0.08 0.32-0.48 0.08-0.72v-0.4l-0.08-0.72-0.32-0.48-0.4-0.08zm-2.32 0v2.96m0-2.96-1.44 2h2.16m-4.88-1.28v-0.16l0.08-0.32 0.16-0.16 0.32-0.08h0.56l0.32 0.08 0.16 0.16 0.08 0.32v0.24l-0.08 0.32-0.32 0.4-1.44 1.44h2m-4.48-2.4 0.32-0.16 0.4-0.4v2.96m-114-1.04h1.44m-1.84 1.04 1.12-3.04 1.12 3.04m-4-3.04-0.48 0.16-0.24 0.4-0.16 0.72v0.48l0.16 0.72 0.24 0.4 0.48 0.16h0.24l0.48-0.16 0.24-0.4 0.16-0.72v-0.48l-0.16-0.72-0.24-0.4-0.48-0.16zm-2.32 0v3.04m0-3.04-1.44 2h2.16m-4.88-1.28v-0.16l0.08-0.24 0.16-0.16 0.32-0.16h0.56l0.32 0.16 0.08 0.16 0.16 0.24v0.32l-0.16 0.24-0.24 0.48-1.44 1.44h2m-4.48-2.48 0.32-0.16 0.4-0.4v3.04m263.36 133.52-0.16-0.32-0.32-0.32-0.24-0.08h-0.64l-0.24 0.08-0.32 0.32-0.16 0.32-0.08 0.4v0.72l0.08 0.4 0.16 0.32 0.32 0.32 0.24 0.16h0.64l0.24-0.16 0.32-0.32 0.16-0.32v-0.4h-0.72m-3.52-1.84-0.4 0.08-0.32 0.48-0.16 0.72v0.4l0.16 0.72 0.32 0.48 0.4 0.16h0.32l0.4-0.16 0.32-0.48 0.16-0.72v-0.4l-0.16-0.72-0.32-0.48-0.4-0.08zm-2.32 0v3.04m0-3.04-1.44 2h2.16m-4.88-1.28v-0.16l0.16-0.32 0.16-0.16 0.24-0.08h0.56l0.32 0.08 0.16 0.16 0.16 0.32v0.24l-0.16 0.32-0.32 0.4-1.44 1.52h2m-4.48-2.48 0.32-0.16 0.4-0.4v3.04m-114.64 0.08v-3.04h0.96l0.48 0.16 0.24 0.32 0.16 0.24 0.16 0.48v0.72l-0.16 0.4-0.16 0.32-0.24 0.24-0.48 0.16zm-2.24-3.04-0.4 0.16-0.32 0.4-0.08 0.72v0.48l0.08 0.72 0.32 0.4 0.4 0.16h0.32l0.48-0.16 0.24-0.4 0.16-0.72v-0.48l-0.16-0.72-0.24-0.4-0.48-0.16zm-2.24 0v3.04m0-3.04-1.44 2h2.16m-4.96-1.28v-0.16l0.16-0.24 0.16-0.16 0.24-0.16h0.64l0.24 0.16 0.16 0.16 0.16 0.24v0.32l-0.16 0.32-0.32 0.4-1.44 1.44h2.08m-4.48-2.48 0.24-0.08 0.48-0.48v3.04m-139.2-7.68v3.04m0-3.04-1.44 2.08h2.16m-4.56-1.52 0.24-0.08 0.48-0.48v3.04m-2.32-0.24-0.16 0.08 0.16 0.16 0.08-0.16zm-2.88-2.8h2m-1.04 0v3.04m-1.6-2.56-0.24-0.32-0.48-0.16h-0.56l-0.4 0.16-0.32 0.32v0.24l0.16 0.32 0.16 0.16 0.24 0.16 0.88 0.24 0.32 0.16 0.16 0.16 0.08 0.24v0.48l-0.24 0.24-0.48 0.16h-0.56l-0.4-0.16-0.32-0.24m36.64 9.84v-2.08h0.8l0.32 0.16 0.08 0.08 0.08 0.16v0.32l-0.08 0.16-0.08 0.08-0.32 0.16h-0.8m-2.16-1.12v1.44l0.08 0.32 0.48 0.32h0.24l0.48-0.32 0.08-0.32v-1.44m-24.72 2.16-3.04-1.04 3.04-0.96m21.76 0.96h-21.76m-52.72 0.8h-1.28m3.36 0-2.08 0.8v-1.52m-3.84 1.68v-2.08h0.88l0.32 0.08 0.16 0.32v0.32l-0.08 0.16-0.08 0.08-0.32 0.16h-0.88m-2.08-1.12v1.44l0.08 0.32 0.16 0.16 0.32 0.16h0.16l0.32-0.16 0.16-0.16 0.08-0.32v-1.44m-50.64-210.08h-2v-0.64l0.08-0.32 0.16-0.16 0.48-0.16h0.48l0.32 0.08 0.16 0.08 0.24 0.16 0.08 0.32zm-1.36 0.8 0.32 0.08 0.16 0.24 0.08 0.24v0.08l-0.08 0.32-0.16 0.16-0.32 0.16h-0.08l-0.32-0.16-0.16-0.16-0.08-0.32v-0.08l0.08-0.24 0.16-0.24 0.4-0.08h0.48l0.48 0.08 0.32 0.24 0.08 0.24v0.24l-0.08 0.24-0.24 0.08m-1.2 2h-0.16l-0.24-0.24-0.08-0.16v-0.4l0.08-0.24 0.08-0.08 0.16-0.08h0.24l0.16 0.08 0.32 0.24 0.96 0.96v-1.36m-1.52 3.2h-0.16l-0.24-0.24-0.08-0.16v-0.4l0.16-0.32 0.16-0.08h0.24l0.16 0.08 0.32 0.24 0.96 0.96v-1.36m-1.68 2.96-0.08-0.16-0.24-0.32h2m18 15.12v-2l1.36 2v-2m-3.2 2h1.28m-1.28-1.04h0.8m-0.8 1.04v-2h1.28m-3.6 2v-2l0.8 2 0.72-2v2m-3.12-2-0.24 0.08-0.16 0.16-0.08 0.24-0.16 0.24v0.48l0.24 0.48 0.16 0.24 0.24 0.08h0.32l0.24-0.08 0.16-0.24 0.16-0.16 0.08-0.32v-0.48l-0.08-0.24-0.16-0.24-0.16-0.16-0.24-0.08zm-3.04 0 0.48 2 0.48-2 0.48 2 0.48-2m37.6-2.88v-2.08l1.36 2.08v-2.08m-3.2 2.08h1.28m-1.28-1.04h0.8m-0.8 1.04v-2.08h1.28m-3.52 2.08v-2.08l0.72 2.08 0.8-2.08v2.08m6-7.76h-1.44l-0.16 1.28 0.16-0.08 0.4-0.16h0.48l0.4 0.16 0.32 0.24 0.08 0.48v0.24l-0.08 0.48-0.32 0.24-0.4 0.16h-0.48l-0.4-0.16-0.16-0.16-0.16-0.24m-2.56-2.48h1.6l-0.88 1.2h0.4l0.32 0.08 0.16 0.16 0.08 0.48v0.24l-0.08 0.48-0.32 0.24-0.48 0.16h-0.4l-0.4-0.16-0.16-0.16-0.16-0.24m-2.72-1.76v-0.16l0.16-0.24 0.08-0.16 0.32-0.16h0.56l0.32 0.16 0.16 0.16 0.08 0.24v0.32l-0.08 0.32-0.32 0.4-1.44 1.44h2m-4.48-2.48 0.32-0.08 0.4-0.48v3.04m-23.2 1.36v3.04m0-3.04-1.44 2h2.16m-4.8-2h1.6l-0.88 1.12h0.48l0.24 0.16 0.16 0.16 0.16 0.4v0.32l-0.16 0.4-0.24 0.32-0.48 0.16h-0.4l-0.48-0.16-0.16-0.16-0.08-0.24m-2.8-1.76v-0.16l0.16-0.32 0.48-0.24h0.56l0.24 0.16 0.16 0.08 0.16 0.32v0.32l-0.16 0.24-0.24 0.48-1.44 1.44h2m-4.48-2.48 0.24-0.16 0.48-0.4v3.04m-27.28 60.72v1.36m0-3.36 0.72 2h-1.52m1.2 4.56v-2h0.8l0.32 0.08 0.24 0.24v0.32l-0.16 0.16-0.08 0.16-0.32 0.08h-0.8m-2.16-1.04v1.44l0.08 0.24 0.24 0.24 0.24 0.08h0.24l0.24-0.08 0.24-0.24 0.08-0.24v-1.44m-29.52 14.96-0.16-0.24-0.32-0.32-0.24-0.16h-0.64l-0.24 0.16-0.32 0.32-0.16 0.24-0.16 0.48v0.72l0.16 0.4 0.16 0.32 0.32 0.24 0.24 0.16h0.64l0.24-0.16 0.32-0.24 0.16-0.32m-3.2-1.28-0.16 0.4-0.32 0.32-0.4 0.16h-0.16l-0.4-0.16-0.32-0.32-0.16-0.4v-0.16l0.16-0.4 0.32-0.32 0.4-0.16h0.16l0.4 0.16 0.32 0.32 0.16 0.56v0.72l-0.16 0.72-0.32 0.4-0.4 0.16h-0.32l-0.4-0.16-0.16-0.24m-2.88-1.92v-0.08l0.16-0.32 0.16-0.16 0.24-0.16h0.56l0.32 0.16 0.16 0.16 0.16 0.32v0.24l-0.16 0.32-0.32 0.4-1.44 1.44h2.08m-4.8-2.32v-0.08l0.16-0.32 0.16-0.16 0.24-0.16h0.56l0.32 0.16 0.16 0.16 0.16 0.32v0.24l-0.16 0.32-0.32 0.4-1.44 1.44h2m-4.48-2.4 0.32-0.16 0.4-0.48v3.04m-91.6 105.2v2.08h1.12m-2.8-2.08-0.48 0.48-0.08 0.32v0.48l0.08 0.32 0.48 0.48h0.4l0.24-0.16 0.16-0.16 0.24-0.48v-0.48l-0.24-0.48-0.16-0.16-0.24-0.16zm-2.08 0-0.16 0.16-0.24 0.16-0.08 0.16-0.08 0.32v0.48l0.08 0.32 0.08 0.16 0.24 0.16 0.16 0.16h0.4l0.16-0.16 0.24-0.16 0.08-0.16 0.08-0.32v-0.48l-0.08-0.32-0.08-0.16-0.24-0.16-0.16-0.16zm-2.48 2.08v-2.08h0.88l0.24 0.16 0.24 0.24v0.32l-0.24 0.24-0.24 0.16h-0.88m89.2 107.92h-3.04v-0.96l0.16-0.48 0.32-0.24 0.24-0.16 0.48-0.16h0.72l0.4 0.16 0.32 0.16 0.24 0.24 0.16 0.48zm0 2.8v-1.92m-1.6 1.92v-1.2m1.6 1.2h-3.04v-1.92m0 4.64v-2m0 0.96h3.04m-1.04 3.2v-1.44m1.04 1.92-3.04-1.2 3.04-1.12m-3.04 4.88 3.04-1.12-3.04-1.2m2 4.48v-1.44m1.04 1.92-3.04-1.2 3.04-1.12m-2.32 2.88-0.24 0.16-0.32 0.24-0.16 0.32v0.56l0.16 0.32 0.32 0.24 0.24 0.16 0.48 0.16h0.72l0.4-0.16 0.32-0.16 0.24-0.24 0.16-0.32v-0.56l-0.16-0.32-0.24-0.24-0.32-0.16m-2.32 3.04 3.04 2m-3.04 0 3.04-2m0 4.64v-1.92m-1.6 1.92v-1.2m1.6 1.2h-3.04v-1.92m3.04 5.04h-3.04l3.04-2h-3.04m0 5.2h2.16l0.48-0.16 0.24-0.24 0.16-0.48v-0.24l-0.16-0.48-0.24-0.24-0.48-0.16h-2.16m-25.2-371.04-0.8 0.96m-0.8-0.96 0.8 0.96v1.04m-2.24-0.64h0.96m-1.2 0.64 0.72-2 0.8 2m-3.76-2 0.48 2 0.48-2 0.48 2 0.48-2m-3.44 1.36h0.96m-1.28 0.64 0.8-2 0.79998 2m-3.12 0h1.28m-1.28-1.04h0.8m-0.8 1.04v-2h1.28m-2.64 0.96 0.72 1.04m-1.36 0v-2h0.88l0.24 0.08 0.08 0.08 0.16 0.24v0.16l-0.16 0.24-0.08 0.08-0.24 0.08h-0.88m-1.76 0.4h0.96m-1.28 0.64 0.8-2 0.8 2m4.56-5.28h1.36m-0.63998 0v2m-1.04-1.52-0.16-0.16-0.16-0.24-0.16-0.08h-0.4l-0.24 0.08-0.16 0.24-0.08 0.16-0.08 0.32v0.48l0.16 0.48 0.16 0.16 0.24 0.08h0.4l0.16-0.08 0.16-0.16 0.16-0.24m-3.52-1.52v1.44l0.16 0.32 0.16 0.16 0.32 0.08h0.16l0.32-0.08 0.16-0.16 0.08-0.32v-1.44m-3.36 2v-2h0.64l0.32 0.08 0.16 0.24 0.16 0.16 0.08 0.32v0.48l-0.08 0.24-0.16 0.24-0.16 0.16-0.32 0.08zm61.28-31.2h1.92m-3.92 0 2-0.72v1.52m5.44 0.16v-2.08h0.88l0.24 0.16 0.24 0.24v0.32l-0.24 0.24-0.24 0.16h-0.88m-2.16-1.12v1.44l0.08 0.32 0.48 0.32h0.24l0.32-0.16 0.16-0.16 0.08-0.32v-1.44m-37.12 59.84h-1.36m3.36 0-2 0.72v-1.52m-3.76 1.68v-2h0.88l0.32 0.08 0.08 0.08 0.08 0.24v0.24l-0.08 0.24-0.08 0.08-0.32 0.08h-0.88m-2.08-1.04v1.44l0.08 0.32 0.16 0.16 0.32 0.08h0.16l0.32-0.08 0.16-0.16 0.08-0.32v-1.44m26.16-19.84v-2l1.36 2v-2m-3.04 0-0.16 0.08-0.24 0.24-0.08 0.16-0.08 0.32v0.48l0.16 0.48 0.24 0.16 0.16 0.08h0.4l0.24-0.08 0.16-0.16 0.16-0.48v-0.48l-0.08-0.32-0.08-0.16-0.16-0.24-0.24-0.08zm-1.2 0v2m-1.84-2h1.36m-0.72 0v2m-2.08-0.64h0.96m-1.28 0.64 0.8-2 0.72 2m-3.04-2h1.36m-0.72 0v2m-1.04-1.68-0.16-0.24-0.32-0.08h-0.4l-0.24 0.08-0.24 0.24v0.16l0.08 0.24 0.32 0.16 0.56 0.16 0.24 0.16 0.08 0.08 0.08 0.16v0.32l-0.16 0.16-0.32 0.08h-0.4l-0.24-0.08-0.24-0.16m-2.4-0.56h1.76m-2.88-0.24 0.24 0.08 0.08 0.16 0.16 0.16v0.32l-0.24 0.24-0.24 0.08h-0.88m0 0v-2h0.88l0.24 0.08 0.08 0.16 0.16 0.16v0.16l-0.16 0.24-0.08 0.08-0.24 0.08h-0.88m-2.16-0.96v1.44l0.08 0.32 0.24 0.16 0.32 0.08h0.16l0.32-0.08 0.16-0.16 0.08-0.32v-1.44m-2 0.32-0.24-0.24-0.24-0.08h-0.4l-0.32 0.08-0.16 0.24v0.16l0.08 0.24 0.08 0.08 0.24 0.08 0.56 0.16 0.16 0.16 0.16 0.08 0.08 0.16v0.32l-0.24 0.16-0.24 0.08h-0.4l-0.32-0.08-0.16-0.16m-26.4 45.2v2h1.2m-2.96-0.64h0.96m-1.2 0.64 0.72-2 0.8 2m-1.92-1.52-0.08-0.24-0.24-0.16-0.16-0.08h-0.4l-0.16 0.08-0.24 0.16-0.16 0.48v0.48l0.08 0.32 0.08 0.16 0.24 0.24 0.16 0.08h0.4l0.16-0.08 0.24-0.24 0.08-0.16m-2.16-1.52v2m-1.28-1.04 0.64 1.04m-1.36 0v-2h0.88l0.32 0.08 0.08 0.08 0.08 0.16v0.24l-0.08 0.16-0.08 0.08-0.32 0.16h-0.88m-1.84-0.96h1.36m-0.64 0v2m-1.12-1.52-0.08-0.24-0.16-0.16-0.24-0.08h-0.32l-0.24 0.08-0.16 0.16-0.08 0.24-0.16 0.24v0.48l0.24 0.48 0.16 0.24 0.24 0.08h0.32l0.24-0.08 0.16-0.24 0.08-0.16m-3.12 0.48h1.2m-1.2-1.04h0.72m-0.72 1.04v-2h1.2m-2.88 0v2h1.2m-3.04 0h1.28m-1.28-1.04h0.8m-0.8 1.04v-2h1.28m124.64 78.16v2.08h1.12m-2.88-0.72h0.96m-1.28 0.72 0.8-2.08 0.8 2.08m-1.92-1.52-0.16-0.24-0.32-0.32h-0.4l-0.24 0.16-0.16 0.16-0.16 0.48v0.48l0.08 0.32 0.08 0.16 0.16 0.24 0.24 0.08h0.4l0.16-0.08 0.16-0.24 0.16-0.16m-2.16-1.6v2.08m-2.08 0v-2.08l1.36 2.08v-2.08m-3.12 1.36h0.96m-1.28 0.72 0.8-2.08 0.8 2.08m-3.36-1.04h1.28m0-1.04v2.08m-1.28-2.08v2.08m-0.72-1.52-0.08-0.24-0.24-0.16-0.16-0.16h-0.4l-0.16 0.16-0.24 0.16-0.16 0.48v0.48l0.08 0.32 0.08 0.16 0.24 0.24 0.16 0.08h0.4l0.16-0.08 0.24-0.24 0.08-0.16m-3.2 0.48h1.28m-1.28-1.04h0.8m-0.8 1.04v-2.08h1.28m-3.6 2.08v-2.08l0.8 2.08 0.8-2.08v2.08m-98.08-84h1.44m-1.84 1.04 1.12-3.04 1.2 3.04m-3.04-2.08-0.16 0.48-0.24 0.24-0.48 0.16h-0.16l-0.4-0.16-0.32-0.24-0.16-0.48v-0.16l0.16-0.4 0.32-0.32 0.4-0.08h0.16l0.48 0.08 0.24 0.32 0.16 0.56v0.72l-0.16 0.72-0.24 0.48-0.48 0.16h-0.32l-0.4-0.16-0.16-0.32m-2.88-1.84v-0.16l0.16-0.32 0.16-0.16 0.24-0.08h0.64l0.24 0.08 0.16 0.16 0.16 0.32v0.24l-0.16 0.32-0.32 0.4-1.44 1.52h2.08m-4.8-2.32v-0.16l0.16-0.32 0.16-0.16 0.24-0.08h0.56l0.32 0.08 0.16 0.16 0.16 0.32v0.24l-0.16 0.32-0.32 0.4-1.44 1.52h2m-4.4-2.48 0.24-0.16 0.48-0.4v3.04m121.44 74.88-0.16 0.48-0.24 0.24-0.48 0.16h-0.08l-0.48-0.16-0.24-0.24-0.16-0.48v-0.08l0.16-0.48 0.24-0.24 0.48-0.16h0.08l0.48 0.16 0.24 0.24 0.16 0.56v0.72l-0.16 0.72-0.24 0.48-0.48 0.16h-0.24l-0.48-0.16-0.08-0.32m-2.96-1.84v-0.16l0.16-0.32 0.48-0.24h0.56l0.24 0.16 0.16 0.08 0.16 0.32v0.32l-0.16 0.24-0.24 0.48-1.44 1.44h2m-4.8-2.32v-0.16l0.16-0.32 0.16-0.08 0.24-0.16h0.64l0.24 0.16 0.16 0.08 0.16 0.32v0.32l-0.16 0.24-0.24 0.48-1.52 1.44h2.08m-4.48-2.48 0.24-0.16 0.48-0.4v3.04m-58.88-128.88h-1.44l-0.08 1.36 0.08-0.16 0.48-0.16h0.4l0.48 0.16 0.24 0.24 0.16 0.48v0.24l-0.16 0.48-0.24 0.24-0.48 0.16h-0.4l-0.48-0.16-0.08-0.08-0.16-0.32m-2.48-1.84 0.32-0.16 0.4-0.48v3.04m-3.92-2.32v-0.08l0.16-0.32 0.16-0.16 0.32-0.16h0.56l0.24 0.16 0.16 0.16 0.16 0.32v0.24l-0.16 0.32-0.24 0.4-1.44 1.44h2m-4.48-2.4 0.24-0.16 0.48-0.48v3.04m-177.68 219.68v-3.04h1.04l0.4 0.16 0.32 0.32 0.16 0.24 0.16 0.48v0.72l-0.16 0.4-0.16 0.32-0.32 0.24-0.4 0.16zm-2.72 0h1.92m-1.92-1.6h1.2m-1.2 1.6v-3.04h1.92m-4.64 0h2m-1.04 0v3.04m-3.12-1.04h1.44m-1.92 1.04 1.2-3.04 1.12 3.04m-4.88-3.04 1.12 3.04 1.2-3.04m-4.48 2h1.44m-1.92 1.04 1.2-3.04 1.12 3.04m-2.88-2.32-0.16-0.24-0.24-0.32-0.32-0.16h-0.56l-0.32 0.16-0.24 0.32-0.16 0.24-0.16 0.48v0.72l0.16 0.4 0.16 0.32 0.24 0.24 0.32 0.16h0.56l0.32-0.16 0.24-0.24 0.16-0.32m-3.04-2.32-2 3.04m0-3.04 2 3.04m-4.64 0h1.92m-1.92-1.6h1.2m-1.2 1.6v-3.04h1.92m-5.04 3.04v-3.04l2 3.04v-3.04m-5.2 0v2.16l0.16 0.48 0.24 0.24 0.48 0.16h0.24l0.48-0.16 0.24-0.24 0.16-0.48v-2.16m239.2-84.56v-1.36h0.4l0.16 0.08 0.08 0.08v0.48h-0.08l-0.16 0.08h-0.4m-0.96-0.72v0.96l0.08 0.24 0.08 0.08 0.16 0.08h0.08l0.16-0.16 0.08-0.24v-0.96m7.84-16.88v-1.36h0.4l0.24 0.24v0.24l-0.24 0.24h-0.4m-0.96-0.72v1.12l0.08 0.16 0.16 0.08h0.08l0.16-0.08 0.08-0.16v-1.12m-1.76-0.48v-1.36h0.4l0.16 0.16v0.48h-0.08l-0.08 0.08h-0.4m-1.04-0.72v0.96l0.08 0.24 0.08 0.08 0.16 0.08h0.08l0.16-0.08 0.08-0.08v-1.2m54.4-134.88h-2.88m0.64-1.92v-0.08m2.24 2v0.88h2v-0.88m-80.4 292.8h20.16m-23.52 0v-13.04h3.36m0 13.04v-13.04m23.84-140.8v0.31999h5.04v-0.31999zm-2.8-0.32zm0-6v6h0.32v-6zm2.64 39.76v-15.28m-22.88 15.28h28.24v-40.08m-5.36 6.64h5.36m-7.36 18.08v-2.64m2 2.64v-2.64m-2-0.08v-13.36m2 13.36v-15.36m0 32.16h5.36m-5.36-14h1.44v-0.08h-1.44m1.28-2.64v2.64m-0.16-2.64v2.64m-1.12-2.72h1.44v0.08h-1.44m0 2.72h-3.44v-0.08h3.44m-3.28-2.64v2.64m0.16-2.64v2.64m3.12-2.72h-3.44v0.08h3.44m5.36-18.72v0.32h-1.44v-0.08h1.36v-0.24zm0 3.28v-0.32h-1.44v0.08h1.36v0.24zm-1.28-2.96v2.64m0.08-2.64v2.64m0.16-2.64v-0.08h-0.4v0.08zm0 2.72v-0.08h-0.4v0.08zm-6.64-1.36v-0.32h1.44-1.36v0.32zm0-3.36v0.32h1.44-1.36v-0.32zm1.28 3.04v-2.72m-0.08 2.72v-2.72m-0.16 2.72h0.4zm0-2.72h0.4zm-1.04-2v6.64m2.32 0h-47.44m-1.36 33.44v120.32m1.36-153.76h-1.36m1.36 0v33.44h-1.36m55.36 1.28h-29.44m-4-78zm0-3.92v3.92h4v-3.92zm0 43.28zm0-4v4h4v-4zm0 122.08zm0-4v4h4v-4zm0-35.36zm0-4v4h4v-4zm0-37.36h-21.92m21.92 2zm0-4v4h4v-4zm208.48-162.24h-0.56v-0.72m-0.96 0h-1.2m2.64 2.64v-1.2h-1.44m0-1.44v1.44m113.68 30.96v2.88h-0.96m0 0v6.56m-8.8-1.28h7.52v-9.44m1.28 10.72h-7.6v6.16m-1.2-7.44v7.44m7.12 1.28h-7.12m1.2-1.28h11.2m-12.4 1.28v-6.72m-0.4 3.36h-18.4m18.8-1.2h-18.8m18.4 0.56h-18.4m0 0.64v-1.2h-0.32v1.2zm18.8 0v-1.2h-0.4v1.2zm12.4-13.52h-2.64m2.64-1.28h-4.88m56.24-9.04v25.84m-242-18.16zm0-0.8v0.80005h-0.4v-0.80005zm-0.4 0-0.08-1.6-0.48-1.52-0.8-1.44-0.96-1.2-1.2-1.04-1.44-0.72-1.52-0.48-1.6-0.16m0 8.16v-8.16m336.56 241.92zm0 0.32v-0.31999h0.64v0.31999zm6.64-0.32-0.16-1.28-0.4-1.28-0.72-1.12-0.96-0.96-1.12-0.72-1.28-0.4-1.36-0.16m0 5.92h6m-6.64-11.92zm0-0.32v0.31998h0.64v-0.31998zm0.64 6.32 1.36-0.16 1.28-0.48 1.12-0.72 0.96-0.88 0.72-1.2 0.4-1.2 0.16-1.36m-6 0h6m-14 21.44v-1.2h2.08v-2.24m-332.24-239.84h0.64m199.44 1.84h-0.32m0.32-6.72h-0.32m-324.48-33.68v2.16h8.08m-38 0h18.16v-2.16m118.48 53.2h-4.32v-1.04m4.32-0.88h8m-27.36 0h16m-0.16-0.08v0.08h3.68v-0.08zm0.16 0.08v0.95996h3.36v-0.95996zm-92.48-52.56v-6.88m1.92 6.88v-6.88m2 6.88v-6.88m317.28 10.4zm0-2.08v2.08h2v-2.08zm-0.64 2.64zm0-3.28v3.28h3.28v-3.28zm-41.44 2.72zm0-2.08v2.08h2v-2.08zm-0.64 2.64zm0-3.28v3.28h3.28v-3.28zm-41.44 2.72zm0-2.08v2.08h2v-2.08zm-0.64 2.64zm0-3.28v3.28h3.28v-3.28zm252.8 252.32zm0 2.8v-2.8h2.8v2.8zm1.92-5.28h3.12v7.36h-7.44v-3.04h-34.88m38.4-37.36v34.24h3.04v5.36h-5.44v-3.04h-36.88m38.24-40.16zm0 2.4v-2.4h2.8v2.4zm1.12-3.68h2.96v4.88h-2.96m0.72-6.08h3.04v7.36h-3.04m0.64-8h3.04v8.56h-3.04m-1.44-6.72h3.04v4.88h-3.04m-1.04-42.96zm0 2.4v-2.4h2.8v2.4zm0-41.68zm0 2.32v-2.32h2.8v2.32zm1.04-3.6h3.04v4.88h-3.04m0.8 33.2h3.04v7.36h-3.04m0.64-7.92h3.04v8.56h-3.04m-1.44-6.72h3.04v4.88h-3.04m0.8-45.52h3.04v7.36h-3.04m0.64-7.92h3.04v8.56h-3.04m-0.64-47.28h3.04v7.36h-3.04m0.64-8h3.04v8.56h-3.04m-1.44-6.72h3.04v4.88h-3.04m-1.36-43.2zm0 3.04v-3.04h3.04v3.04zm-2.08-2.08v-3.04h7.28v7.36h-3.04m-487.2-60.24v2m29.12-2v2h3.36m77.44 36.4v17.04m-2-17.04v19.04m61.92-40.24v-0.48h1.44m-20.32 33.68h0.24v0.88m-0.24-12.88h0.24v3.68h-0.24m-31.84-25.36h34.88v0.56m-38.96-14.96h39.12v-2.16m-3.6 41.92v-1.6m0 11.52v-1.6m-1.6-9.92zm0 1.6v-1.6h2v1.6zm0 8.32zm0 1.6v-1.6h2v1.6zm18.56 1.2h-2.64v-0.96m0 0h-1.36m-0.88 0h-8.8m-0.88 0h-2m11.68 5.2h-8.8m18.72-45.36v6.08m-5.04 39.28v-4.24m-16.56-1.92h17.44v7.44m-14.56-6.48v5.2m-42.96 0v193.36m81.6-239.92h-19.92m22.56 1.2h-22.56m0-2.72v1.52m-140.08-8.88v-2h-3.36m20.24 10v-2.64m-0.96 0.4v-0.39998h0.64v0.39998zm0 2.24v-0.47998h0.64v0.47998zm0.64-2.64v2.64m-0.32-2.24v1.76m-0.32-1.76v1.76m27.6 4.4v-11.92m-26.64 0v5.36m0 2.64v3.92m0-3.92h-0.96v5.12m0.96-7.76h-0.96m20 20.16h-19.04v-12.4h26.64v12.4m-27.6-25.52v5.36m28.56 7.76v-13.12m-27.6 11.92h26.64m-26.64 1.2h26.64m173.92 42.64h1.76m-1.76-2.72h1.76m-2.72-0.88h3.6m-0.88 3.6v-2.72m0.88 3.68v-4.56m0.32 1.2v-1.2h-0.32v1.2zm-0.32 3.36v-4.56m-35.92 3.6h1.68m-1.68 0v-2.72h1.68m0 2.72v-2.72m-2.64 3.68v-4.56m-253.12 2.96v1.68h0.24m-7.52-1.68h0.64m6.64 0h24.56m-31.2 1.68h-8.88m0.64-1.44v0.08h-2m2-0.16v-0.08m-2 0.08h0.96v-1.76l-0.08-0.08h-0.88v-0.08h2v0.08h-0.88l-0.08 0.08v1.76h0.96v0.08m-2-0.08v0.08m0 0.08v-0.08m44.64-0.24h2.96m-3.52 0.24v0.08h-2.08m2-0.16v-0.08m0-1.76h-0.8l-0.16 0.16v1.6l0.08 0.08h0.88l0.08 0.08m-0.08-1.92h0.08m-2.08 0v-0.08h2.08v0.08m-2.08 0h0.08m0 1.84h0.88v-1.76l-0.08-0.08h-0.8m0 1.84h-0.08v0.08m0 0.08v-0.08m-0.56-0.24v-2.32m0 0h3.2v2.32m-45.28 2.4v-4.72m0 0h3.2v2.32m-1.2 1.68v2.8m-3.68-59.6v-2m56.64 1.92h29.12m-29.12-1.92h29.12m405.36 252.4h-29.76m38.4 5.6h-8.64m8.64-6.32zm0 5.36v-5.36h2.72v5.36zm-85.12-1.68h3.76v2.64m-2.8-6.24zm0 2.72v-2.72h2.8v2.72zm-81.36 0.88v2.64m-2.8-6.32zm0 2.8v-2.8h2.8v2.8zm2.8 3.52h8.56m89.44-5.6h-2.4m2.4-1.6h-3.36m-122.88 0h-117.52m117.52 1.6h-12.88m80.48-221.76h-6.72v0.88m-278.88-32.32v0.8m13.36-6.48-1.28 0.08-1.2 0.4-1.04 0.64-0.96 0.8-0.72 1.04-0.56 1.12-0.24 1.28m6 0v-5.36m397.44 263.52v-4.64h-6.72v4.64zm-79.52-4.64v4.64h6.72m-90.8-4.64v4.64h6.72m-216.88-229.52h-19.04v-12.4h26.64v12.4m5.04 25.52v-1.04h6.56m222.08-11.76v0.32m0-10.48v3.44m-117.2-24.08v1.44m-21.12-1.52v7.84m269.28 263.28h-34.08m33.52 0.4h-33.52m35.6 1.2v-4.88h4.96v4.88zm-35.6-3.84v5.12m0 0h-8.32v-1.68m36.24-29.28v5.6m-252.4-5.6v5.6h7.68m168.24-2.64v-2.96m12.32 5.6h-8.56m0.88-5.6v2.32m7.68 3.28v-5.28m-0.96 4.32v-4.64m-95.52 2.96v-2.96m11.44 4.64v-4.64h-6.72m7.6 5.6v-5.6m-12.32 2.96h3.76m-240.08-170zm0 3.84v-3.84h3.84v3.84zm0.96-2.88zm0 2v-2h2v2zm-85.2-86.32h-9.92m11.92-2h-11.92m228 2.08v0.64h1.28v-0.72m-48 273.12v-0.08l-0.16-1.28-0.48-1.28-0.72-1.12-0.96-0.96-1.12-0.72-1.28-0.4-1.28-0.16m0 6h6m-87.12-220.64zm0 3.84v-3.84h3.84v3.84zm0.96-2.96zm0 2v-2h2v2zm0.32-1.76h-0.08v0.08m0 1.36v-1.36m0 1.36v0.08h0.08m1.36 0h-1.36m1.36 0h0.08v-0.08m0-1.36v1.36m0-1.36v-0.08h-0.08m-1.36 0h1.36m-1.36-0.08-0.16 0.08v0.08m0 1.36v-1.36m0 1.36v0.16h0.16m1.36 0h-1.36m1.36 0h0.08l0.08-0.16m0-1.36v1.36m0-1.36-0.16-0.16m-1.36 0h1.36m-2.64 223.6zm0 3.92v-3.92h3.84v3.92zm0.96-2.96zm0 2v-2h2v2zm0.32-1.76h-0.08v0.08m0 1.36v-1.36m0 1.36v0.08h0.08m1.36 0h-1.36m1.36 0h0.08v-0.08m0-1.36v1.36m0-1.36v-0.08h-0.08m-1.36 0h1.36m-1.36-0.08h-0.16v0.16m0 1.36v-1.36m0 1.36v0.08l0.16 0.08m1.36 0h-1.36m1.36 0 0.16-0.16m0-1.36v1.36m0-1.36-0.08-0.16h-0.08m-1.36 0h1.36m-2.64-56.88zm0 3.84v-3.84h3.84v3.84zm0.96-2.96zm0 2.08v-2.08h2v2.08zm0.24-1.76v-0.08m0 1.52v-1.44l0.08-0.08m-0.08 1.52 0.08 0.08m1.36 0h-1.36m1.44-0.08v-0.08m0-1.36v1.44l-0.08 0.08m0.08-1.52-0.08-0.08m-1.36 0h1.36m-1.36-0.08-0.16 0.08v0.08m0 1.44v-1.44m0 1.44v0.08h0.16m1.36 0h-1.36m1.36 0h0.08l0.08-0.08m0-1.44v1.44m0-1.44-0.16-0.16m-1.36 0h1.36m-2.64-44.96zm0 3.84v-3.84h3.84v3.84zm0.96-2.96zm0 2.08v-2.0799h2v2.0799zm0.24-1.76v-0.08m0 1.52v-1.44l0.08-0.08m-0.08 1.52 0.08 0.08m1.36 0h-1.36m1.44-0.08v-0.08m0-1.36v1.44l-0.08 0.08m0.08-1.52-0.08-0.08m-1.36 0h1.36m-1.36-0.08-0.16 0.08v0.08m0 1.44v-1.44m0 1.44v0.08h0.16m1.36 0h-1.36m1.36 0h0.08l0.08-0.08m0-1.44v1.44m0-1.44-0.16-0.16m-1.36 0h1.36m-1.36-124.88h-0.08v0.08m0 1.36v-1.36m0 1.36v0.08h0.08m1.36 0h-1.36m1.36 0h0.08v-0.08m0-1.36v1.36m0-1.36v-0.08h-0.08m-1.36 0h1.36m-1.36-0.08-0.16 0.08v0.08m0 1.36v-1.36m0 1.36v0.16h0.16m1.36 0h-1.36m1.36 0h0.08l0.08-0.16m0-1.36v1.36m0-1.36-0.16-0.16m-1.36 0h1.36m-1.44 31.04v-0.08m0 1.52v-1.44h0.08m-0.08 1.44 0.08 0.08m1.36 0h-1.36m1.44-0.08v-0.08m0-1.36v1.44l-0.08 0.08m0.08-1.52h-0.08m-1.36 0h1.36m-1.36-0.08h-0.16v0.08m0 1.44v-1.44m0 1.44v0.08l0.16 0.08m1.36 0h-1.36m1.36 0 0.16-0.16m0-1.44v1.44m0-1.44-0.08-0.08h-0.08m-1.36 0h1.36m-2.64 48.48zm0 3.84v-3.84h3.84v3.84zm0.96-2.96zm0 2.08v-2.08h2v2.08zm0.24-1.76v-0.08m0 1.52v-1.44l0.08-0.08m-0.08 1.52 0.08 0.08m1.36 0h-1.36m1.44-0.08v-0.08m0-1.36v1.44l-0.08 0.08m0.08-1.52-0.08-0.08m-1.36 0h1.36m-1.36-0.08-0.16 0.08v0.08m0 1.44v-1.44m0 1.44v0.08h0.16m1.36 0h-1.36m1.36 0h0.08l0.08-0.08m0-1.44v1.44m0-1.44-0.16-0.16m-1.36 0h1.36m131.68-136v-0.8m-90 0v0.8m2.56-0.72zm0-0.08v0.08h0.08v-0.08zm0.24 0.96zm0-0.88v0.88004h-0.4v-0.88004zm3.92 0zm0-0.08v0.08h0.16v-0.08zm0.32 0.96zm0-0.88v0.88004h-0.48v-0.88004zm71.6 0zm0-0.08v0.08h0.08v-0.08zm0.24 0.96zm0-0.88v0.88004h-0.4v-0.88004zm-175.52 0.56h8.08m-19.84 0h-40.16m125.52 2.16h-13.76m13.76-2h-13.76m13.2-0.8h-12.56m13.12-0.64h-13.76m108.96 19.6v3.04h-0.96v-2.72m292.16 254h1.92m-1.92-12.56h1.92m-1.92 12.56v4.72m0-17.28v-1.92m-0.16 17.68h-3.04v2.56m-42.08 0v-2.56m0 0h5.04v2.56m-206.24-268zm0-0.08v0.0799h0.08v-0.0799zm0.24 0.96zm0-0.88v0.88004h-0.4v-0.88004zm8.48 0zm0-0.08v0.0799h0.16v-0.0799zm0.32 0.96zm0-0.88v0.88004h-0.48v-0.88004zm8.4 0zm0-0.08v0.0799h0.16v-0.0799zm0.32 0.96zm0-0.88v0.88004h-0.48v-0.88004zm8.48 0zm0-0.08v0.0799h0.08v-0.0799zm0.24 0.96zm0-0.88v0.88004h-0.4v-0.88004zm8.48 0zm0-0.08v0.0799h0.08v-0.0799zm0.24 0.96zm0-0.88v0.88004h-0.4v-0.88004zm8.48 0zm0-0.08v0.0799h0.08v-0.0799zm0.24 0.96zm0-0.88v0.88004h-0.4v-0.88004zm8.48 0zm0-0.08v0.0799h0.08v-0.0799zm0.24 0.96zm0-0.88v0.88004h-0.4v-0.88004zm8.48 0zm0-0.08v0.0799h0.16v-0.0799zm0.32 0.96zm0-0.88v0.88004h-0.48v-0.88004zm8.4 0zm0-0.08v0.0799h0.16v-0.0799zm0.32 0.96zm0-0.88v0.88004h-0.48v-0.88004zm8.48 0zm0-0.08v0.0799h0.08v-0.0799zm0.24 0.96zm0-0.88v0.88004h-0.4v-0.88004zm8.48 0zm0-0.08v0.0799h0.08v-0.0799zm0.24 0.96zm0-0.88v0.88004h-0.4v-0.88004zm8.48 0zm0-0.08v0.0799h0.08v-0.0799zm0.24 0.96zm0-0.88v0.88004h-0.4v-0.88004zm8.48 0zm0-0.08v0.0799h0.08v-0.0799zm0.24 0.96zm0-0.88v0.88004h-0.4v-0.88004zm15.28 16.32v0.16h0.16v-0.16zm-0.88 0.32v-0.39999h0.88v0.39999zm-5.92-16.64zm0-0.08v0.0799h0.16v-0.0799zm0.24 0.96zm0-0.88v0.88004h-0.4v-0.88004zm6.56 7.68v0.0801h0.16v-0.0801zm-0.88 0.24v-0.40006h0.88v0.40006zm0 11.84v-0.39999h1.28v0.39999zm1.04 0v-0.08m0-0.32v-0.08m-123.52-18.4zm0-1.2v1.2h-0.48v-1.2zm-0.08 0.24h0.08m-0.48 0v-0.08m122.64 1.04h0.32v0.32l0.88-0.88v-0.24l-0.08-0.08h-0.16zm1.12-0.88 0.08 0.08 0.16-0.16h-0.08zm-147.68-10.08zm0-1.2v1.2h-0.48v-1.2zm-0.08 0.24h0.08m-0.48 0v-0.08m-16.4 1.04zm0-1.2v1.2h-0.4v-1.2zm0 0.24v-0.08m-0.4 0.08v-0.08m-71.04 1.04zm0-1.2v1.2h-0.4v-1.2zm0 0.24v-0.08m-0.4 0.08v-0.08m14.88 1.04zm0-1.2v1.2h-0.4v-1.2zm0 0.24v-0.08m-0.4 0.08v-0.08m56.8 59.6h-42.96m193.84 0h-4.88m0.88-1.28h3.6m-151.36 0.32h-42.08m51.76-0.32v-5.2m0.88 0v5.2m-232.24-55.44h-206.56m680 270.8v2.88m-1.2-2.88v2.88m-0.08-20.32 0.08 4.56m1.2-4.56v4.56m0 12.88h-1.2m6.32-0.32-0.16-1.44-0.48-1.36-0.72-1.28-1.12-0.96-1.2-0.72-1.44-0.4m0 6.16h5.12m-5.12-6.48 1.2-0.24 1.12-0.48 0.96-0.72 0.8-0.88 0.56-1.04 0.4-1.2 0.08-1.2m0 0v-0.08m-5.12 0.08h5.12m-5.76 12.56zm0-0.32v0.31998h0.64v-0.31998zm0-6.16zm0-0.32v0.31998h0.64v-0.31998zm0-5.76zm0-0.32v0.31998h0.64v-0.31998zm0.64 0h-1.2m-249.36 21.76v1.68m-6.72-5.12v-1.2m6.72 6.32h-8.32v-1.68m1.6-4.64h5.04v1.2m43.76 3.44v1.68m-6.72-5.12v-2.56m6.72 7.68h-8.4v-1.68m1.68-6h5.04v2.56m43.76 3.44v1.68m-6.72-5.12v-2.56m6.72 7.68h-8.4v-1.68m1.68-6h5.04v2.56m43.76 3.44v1.68m-6.72-5.12v-2.56m6.72 7.68h-8.4v-1.68m1.68-6h5.04v2.56m43.76 3.44v1.68m-6.72-5.12v-2.56m6.72 7.68h-8.4v-1.68m1.68-6h5.04v2.56m43.76 3.44v1.68m-6.72-5.12v-2.56m6.72 7.68h-8.4v-1.68m1.68-6h5.04v2.56m80.24-0.08zm0 2.64v-2.64h2.8v2.64zm0.8-2.4v-0.08h1.12m-1.04 2.08v-0.08h0.4l0.08-0.08v-1.68l-0.16-0.16h-0.32m1.04 2h-1.12m1.04 0v-0.08m0-1.92h-0.32l-0.16 0.16v1.68l0.08 0.08h0.4m0.08-2v0.08m-40.08-0.16h37.2m-42.24 0h-37.04m35.36 3.44h-33.68m-354.48 13.12v-1.84h4.96v1.84h51.52m-101.76 0h21.76m196.4-42.4v4.64h6.8m-132.16-205.04h8v2.96m-14.64-2.96v-0.88m56.96 0h-1.36v0.88h1.36m-16 1.04v0.96m8-2.88v0.88h-7.04v2.96m13.36-3.04zm0-0.8v0.79997h0.32v-0.79997zm-6.32 0.8zm0-0.8v0.79997h0.4v-0.79997zm6.32-6.08-1.36 0.16-1.28 0.48-1.12 0.72-0.96 0.96-0.72 1.12-0.4 1.28-0.08 1.36m5.92 0v-6.08m-54.88 6.88zm0-0.8v0.79997h-0.4v-0.79997zm6.24 0.8zm0-0.8v0.79997h-0.32v-0.79997zm-0.32 0-0.24-1.28-0.48-1.12-0.72-1.04-0.96-0.8-1.12-0.64-1.2-0.4-1.2-0.08m-0.08 0h0.08m-0.08 5.36v-5.36m15.28 6.24v2m-16.88-25.6h18.72m-20 2.64v-2.64m20 0v-0.88m-58.32 265.44h1.28m307.76-291.92-0.08-0.4-0.32-0.32-0.48-0.16-0.4 0.16-0.32 0.32-0.08 0.4 0.08 0.4 0.32 0.32 0.4 0.08 0.48-0.08 0.32-0.32zm0.08 0-0.16-0.48-0.32-0.32-0.48-0.16-0.4 0.16-0.4 0.32-0.08 0.48 0.08 0.48 0.4 0.32 0.4 0.08 0.48-0.08 0.32-0.32zm-42.16 0-0.08-0.4-0.32-0.32-0.4-0.16-0.48 0.16-0.24 0.32-0.16 0.4 0.16 0.4 0.24 0.32 0.48 0.08 0.4-0.08 0.32-0.32zm0.08 0-0.08-0.48-0.4-0.32-0.4-0.16-0.48 0.16-0.32 0.32-0.16 0.48 0.16 0.48 0.32 0.32 0.48 0.08 0.4-0.08 0.4-0.32zm-42.16 0-0.08-0.4-0.32-0.32-0.4-0.16-0.48 0.16-0.24 0.32-0.16 0.4 0.16 0.4 0.24 0.32 0.48 0.08 0.4-0.08 0.32-0.32zm0.08 0-0.08-0.48-0.4-0.32-0.4-0.16-0.48 0.16-0.32 0.32-0.16 0.48 0.16 0.48 0.32 0.32 0.48 0.08 0.4-0.08 0.4-0.32zm-41.28-1.04v2h-22.48m-125.6-2.8v0.8m63.6 266.08h-9.84m7.12 12.16h-7.12m1.6-12.16v12.16m-1.6-12.16v12.16m3.2-12.16v12.16m6.64-11.76v0.4m-71.76-128.08v1.2m237.44-84.72v-0.08h2.48m-2.48 0.08 0.08 0.08m0 2.08h1.12v-2.08h-1.12m0 2.08h-0.08v0.08m2.48 0v0.08h-2.48v-0.08m2.48 0v-0.08h-0.08m0-2.08h-1.12v2.08h1.12m0.08-2.16v-0.08m0 0v0.08l-0.08 0.08m-44.48-0.08v-0.08h2.48m-2.48 0.08 0.08 0.08m0 2.08h1.12v-2.08h-1.12m0 2.08h-0.08v0.08m2.48 0v0.08h-2.48v-0.08m2.48-0.08v-0.08m0-2h-1.12l-0.08 0.08v1.92l0.08 0.08h1.12v0.08m0-2.24v-0.08m0 0v0.16m-44.56-0.08v-0.08h2.48m-2.48 0.08 0.08 0.08m0 2.08h1.12v-2.08h-1.12m0 2.08h-0.08v0.08m2.48 0v0.08h-2.48v-0.08m2.48-0.08v-0.08m0-2h-1.12l-0.08 0.08v1.92l0.08 0.08h1.12v0.08m0-2.24v-0.08m0 0v0.16m207.92-0.08v-0.08h2.48m-2.48 0.08v0.08m0 2.08h1.12l0.08-0.08v-1.92l-0.08-0.08h-1.12m0 2.08v0.08m2.48 0v0.08h-2.48v-0.08m2.48 0v-0.08h-0.08m0-2.08h-1.12v2.08h1.12m0.08-2.16v-0.08m0 0v0.08l-0.08 0.08m39.68-0.08v-0.08h2.48m-2.48 0.08v0.08m0 2.08h1.12l0.08-0.08v-1.92l-0.08-0.08h-1.12m0 2.08v0.08m2.48 0v0.08h-2.48v-0.08m2.4-0.08v-0.08m0-2h-1.12v2.08h1.12l0.08 0.08m-0.08-2.16v-0.08h0.08m0-0.08v0.08m39.92 159.52h-0.16v-2.08m0.16 2.08h0.08v-0.08m1.84 0.08v-0.88l-0.08-0.08h-1.76v0.88m0-2v0.96h1.76l0.08-0.08v-0.88h0.16v2.08h-0.16v-0.08m-1.84-2h-0.08m-0.16 0h0.16m0-37.28h-0.16v-2.08m0.24 2.08v-0.08m1.84-2h0.16v2.08h-0.16v-0.88l-0.08-0.08h-1.76v0.96h-0.08m1.92-2.08v0.08m-1.84 0v0.88h1.76l0.08-0.08v-0.8m-1.84 0v-0.08h-0.08m-0.16 0h0.16m0-37.28h-0.16v-2.08m0.24 2.08v-0.08m1.84-1.92v-0.08h0.16v2.08h-0.16v-0.8l-0.16-0.16h-1.6l-0.08 0.08v0.88h-0.08m0.08-2v0.88l0.08 0.08h1.6l0.16-0.16v-0.88m-1.84 0.08-0.08-0.08m-0.16 0h0.16m0-37.2h-0.16v-2.08m0.24 2v-0.08m1.84 0.08v-0.8l-0.16-0.16h-1.6l-0.08 0.08v0.88l-0.08 0.08m1.92-0.08v0.08m-1.84-2.08v0.88l0.08 0.08h1.6l0.16-0.16v-0.8h0.16v2.08h-0.16m-1.84-2.08h-0.08m-0.16 0h0.16m-0.24-39.44v-0.08h2.48m-2.48 0.08v0.08m0 2.08h1.12l0.08-0.08v-1.92l-0.08-0.08h-1.12m0 2.08v0.08m2.48 0v0.08h-2.48v-0.08m2.48 0v-0.08h-0.08m0-2.08h-1.12v2.08h1.12m0.08-2.16v-0.08m0 0v0.08l-0.08 0.08m0.08 198.8v0.16h-2.48v-0.16h1.12l0.08-0.08v-1.92l-0.16-0.16h-1.04v-0.16h2.48m0 2.32h-0.08m0-2.16h-1.04l-0.08 0.08v2.08h1.12m0.08-2.16v-0.08m0-0.08v0.16h-0.08m-378.72-0.08v0.08h-1.04l-0.08 0.08v2.08h1.12v0.16h-2.4v-0.16h1.12v-2.08l-0.08-0.08h-1.04v-0.08zm-0.24-39.2h0.08v2.08m-0.08-2.08-0.08 0.08m-1.84 0v0.8l0.16 0.16h1.6l0.08-0.08v-0.88m-1.84-0.08v-0.08m0 2.16h-0.08v-2.08h0.08v0.08m0 1.92v-0.08m1.84 0.08v-0.88l-0.08-0.08h-1.6l-0.16 0.16v0.88m1.84-0.08h0.08v0.08m0.08 0h-0.08m0-41.44h0.08v2.08m-0.08-2.08v0.08h-0.08m-1.84 0v0.8l0.16 0.16h1.6l0.08-0.08v-0.88m-1.84 0v-0.08m0 2.08h-0.08v-2.08h0.08m0 2.08v-0.08m1.84 0v-0.88h-1.76l-0.08 0.08v0.8m1.92 0.08v-0.08m0.08 0.08h-0.08l-0.08-0.08m0.08-41.28h0.08v2m-0.08-2h-0.08m0 2v-0.96h-1.76l-0.08 0.08v0.88h-0.08v-2h0.08v0.88l0.08 0.08h1.76v-0.96m0.08 2v-0.08m0.08 0.08h-0.16m0.08-41.36h0.08v2m-0.08-2h-0.08m0 2v-0.96h-1.76l-0.08 0.08v0.88h-0.08v-2h0.08v0.88l0.08 0.08h1.76v-0.96m0.08 2v-0.08m0.08 0.08h-0.16m54.32-78.56h-8.8m8.8-0.88h-8.8m8.8 0.48h-8.8m0-0.48zm0 0.88v-0.88004h-0.32v0.88004zm-0.32-0.96v0.96m35.84 36zm0 4.56v-4.56h4.48v4.56zm-132.24-7.6h12.4m2.56 0.08v0.8h4.96m-7.52-0.88v0.88m22.88 2.96h-22.48m27.12-56.4h-15.04m88.8 1.44h22.48m-95.68-0.8v0.8m55.2-0.8v0.8m0.64-1.44v1.44m-56.4-1.44v1.44m56.4-1.44h17.36m-18 0.64h-55.2m55.84-0.64h-56.4m56.4 1.44v2m0-2h-56.4v2m56.8-1.84h16.48m-73.28 1.84h56.4m-56.88-2.8h-14.08m71.44 0h16.4m-87.84-0.24h14.08m57.28 0h16.96m0 1.04v-1.44m-88.8 3.44v-3.44m88.8 1.44v2m22.24 0v0.48m-110.56-2.32h14.08m-15.2-0.96h-15.84m16.48-0.64h-17.04m17.04 3.44v-0.08m67.04 275.28-1.36-5.36-0.56-0.24 1.12-0.08-0.64-0.32-1.76-5.68m6.08 10.72v-9.76m1.92 9.76v-9.76m1.84 9.76v-9.76m1.92 9.76v-9.76m1.92 9.76v-9.76m1.92 9.76v-9.76m1.84 9.76v-9.76m1.92 9.76v-9.76m1.92 9.76v-9.76m1.84 10v-10m1.92 9.76v-9.76m1.92 9.76v-9.76m1.92 9.76v-9.76m-25.92 10h29.44v-0.24h-29.44m-2.8-10h32.24v0.24h-32.16m197.04-227.52v4.16m-1.92-9.76v9.76m-1.92-9.76v9.76m-1.92-9.76v9.76m-1.84-9.76v9.76m-1.92-9.76v9.76m-1.92-9.76v9.76m-1.84-9.76v9.76m-1.92-9.76v9.76m-1.92-9.76v9.76m-1.92-9.76v9.76m17.36-9.76h-19.36v-0.24h19.28m2.96 10.4-1.28-4.8-0.64-0.24 1.12-0.16-0.56-0.24-1.68-5.12m2.88 10.16h-22.08v0.24h22.16m-197.44-28v1.36m-1.68-12.64v11.12m-1.92-11.12v11.12m-1.92-11.12v11.12m-1.92-11.12v11.12m-1.84-11.12v11.12m-1.92-11.12v11.12m-1.92-11.12v11.12m-1.92-11.12v11.12m-1.84-11.12v11.12m-1.92-11.12v11.12m-1.92-11.12v11.12m-1.84-11.12v11.12m-1.92-11.12v11.12m-7.28-11.28h33.92v0.16h-33.84m3.6 13.12-1.84-7.28-0.64-0.24 1.12-0.16-0.64-0.24-2.24-7.28m3.76 13.36h30.72v-0.16h-30.72m176.32 237.2h-8.88m8.88 0v0.32h3.52v-0.32m-232 42.4v-1.68h5.44v1.68h34.56v-16.56m-95.2 14.72v-11.2h-1.28m0 0v11.2m1.28-9.92v9.92m-1.28-9.92v9.92m185.04-290.64h-0.32m-0.08 6.64v-0.16h-0.72v0.16zm-1.2-6.16zm0-0.48v0.47999h1.28v-0.47999zm1.2 0.56v-0.0799h-0.72v0.0799zm0.08 6.56v-0.47998h-1.28v0.47998zm6-0.64-0.16-1.36-0.48-1.28-0.72-1.12-0.96-0.96-1.12-0.72-1.28-0.48-1.36-0.08m0 6h6.08m-94.24 12.4v-2.72h-2v2.72zm-40.88 34.16v-0.4m-24.96 16h-0.88m0.08-0.4v0.40007h0.8v-0.40007zm0-5.92h-1.2l-1.12 0.32-1.04 0.56-0.88 0.8-0.64 0.96-0.4 1.12-0.08 1.2m0 0.96v-0.96m5.36 0.96h-5.36m5.36-11.92v-0.31999h0.8v0.31999zm-5.36 0v0.08l0.32 1.36 0.56 1.36 0.8 1.12 1.04 0.96 1.28 0.72 1.36 0.4m0-6h-5.36m6.16 12.32v0.88m7.68 0.96h-8.56v-1.84m0.88 0.88h7.68m-7.04-16.48h7.04m-7.04-0.88h7.04m60.88 42.96h-0.64v3.44h0.64v167.92m251.36-199.68 0.08 174.32m-126.32-174.32v174.32m-153.36-190.4h-3.52v-1.04m92.32-33.84v-0.96h1.44m199.04 235.52h2.88v-0.32m-3.84 0h-6.72m-222.24 0h-8.56m8.56 0v0.32h3.52v-0.32m-85.68-253.2v0.8m114.32 9.36h-1.2m23.2-7.04v-3.12m0.56 3.12v-3.76m-127.36 294.56v-11.36h-1.2m0 0v11.36m-111.12-242.64h14m0 0v-0.32h-14m12.16 6.96v-6.64m-1.68 6.64v-6.64m-1.68 6.64v-6.64m398.56-20.4v-38.4m-431.52 6.88h-206.56m208.88 0.32v0.96m24.64-0.96h-24.96v0.96m0-1.28v1.44m-2-1.44v60.96m2-59.52v59.52m108.08 77.2h67.92m-89.12 1.68h17.36m-17.36 1.6h17.36m-18.56-5.68h-1.04m2.24-1.28h-2.24m-0.32 1.12zm0-0.8v0.80005h0.32v-0.80005zm-6.32 0.8zm0-0.8v0.80005h0.4v-0.80005zm6.32-5.36-1.28 0.16-1.2 0.32-1.04 0.64-0.96 0.88-0.72 0.96-0.48 1.12-0.24 1.28m5.92 0v-5.36m0.32 5.04v1.28m-6.64-1.28v1.28m8.88 2.4h17.36m87.68 115.68h-14.64m199.12-222.32h8.4m1.68-20.64v20.64m-2.8-18v18m-144.72-21.04v-0.16008h-0.64v0.16008zm22.88 3.04h121.84m-122.16-2.64h124.96m122.4 242.96h-6.72m-35.36 0h-11.84m-72.32 0h-17.36m-24.72 0h-11.84m-72.24 0h-37.44m-4.64 0h-3.76m214.08 0h-37.44m-210 23.04v2.8m-1.28-2.8v2.8m8.4 0v-2.8h0.96m0 0v2.8m-8.08-25.84v16.4m-1.28-211.36v40m-2.72-0.48h0.64v5.52m0-8h-0.64m2.08-37.04v5.52m-1.44 0.88v30.64m45.76-36.72v-5.52m-163.04 245.84v183.12h-222m679.2-223.2h-4m4 14.48v4.72m-1.92-4.72h-0.16m-130.96 9.2h-33.68m-8.4 0h-33.68m-8.4 0h-33.68m-50.4 0h-39.28m81.28 0h-33.68m202 0h-33.68m125.52 1.2h-7.36v-2.4m7.92-20.56v-5.76m-8.56 27.52v1.76h8.56v-10.96h-1.44m43.76-15.28h-8.56v-3.04h-33.76m39.28-36.16v30.64h3.04v8.48m-50.8 24.56h-33.52m-420 16.4h123.36m-3.44-234.24v38.64m0.08-38.64v38.64m125.28-48.32zm0 4.56v-4.56h4.56v4.56zm0.96-3.68zm0 2.72v-2.72h2.64v2.72zm41.12-3.6zm0 4.56v-4.56h4.56v4.56zm0.96-3.68zm0 2.72v-2.72h2.64v2.72zm-25.92-3.6v4.56h3.6m-2.64-0.96v-2.72m-59.2 0zm0 2.72v-2.72h2.64v2.72zm126.24-27.12v0.88m-6.96 27.2h-5.28m-318 74.32h-21.92m21.92 42.64h-21.92m55.36 0v-42.64m-8.88 0h-20.56m2.56-73.84v8m-6.72 230.88v179.84h-221.68m182.16-416.32h-38.64m78.72-2.4h-22.32m423.12 186.16-1.36 0.16-1.28 0.4-1.12 0.72-0.96 0.96-0.72 1.12-0.4 1.28-0.16 1.36m6 0v-6m-6 6-0.16-1.36-0.4-1.28-0.72-1.12-0.96-0.96-1.12-0.72-1.28-0.4-1.28-0.16m-0.08 0h0.08m-0.08 6v-6m-114.24 0h-0.08l-1.28 0.16-1.28 0.48-1.12 0.64-0.96 0.96-0.72 1.12-0.4 1.28-0.16 1.36m6 0v-6m-6 6-0.16-1.36-0.4-1.28-0.72-1.12-0.96-0.96-1.12-0.64-1.2-0.48-1.36-0.16m0 0v-0.08m0 6.08v-6m-124.24 11.2h0.08l1.2-0.08 1.12-0.4 1.12-0.56 0.88-0.8 0.8-0.96 0.48-1.12 0.32-1.2m-6 0v5.12m-9.04 18.56v-0.08l-0.16-1.28-0.4-1.28-0.72-1.12-0.96-0.96-1.12-0.72-1.28-0.4-1.28-0.16m0 6h5.92m-151.68-190.56v0.32007h-0.8v-0.32007zm5.36 0-0.08-1.28-0.4-1.2-0.64-1.04-0.8-0.96-1.04-0.72-1.12-0.48-1.28-0.24m0 5.92h5.36m-5.36-12.24v-0.32007h-0.8v0.32007zm0 6.32v-0.40007h-0.8v0.40007zm0.08-0.4 1.2-0.24 1.12-0.48 1.04-0.72 0.8-0.96 0.64-1.04 0.4-1.2 0.08-1.28m0 0v-0.08m-5.36 0.08h5.36m-13.92-14zm0 0.88v-0.87996h-0.32v0.87996zm6.32-0.88zm0 0.88v-0.87996h-0.32v0.87996zm-6.32-0.4 0.16 1.36 0.4 1.28 0.72 1.12 0.96 0.96 1.12 0.72 1.28 0.4 1.28 0.16m0.08 0.08-0.08-0.08m0.08-6v6.08m22.56-66zm0 0.8v-0.80005h0.4v0.80005zm0-6.16-1.2 0.08-1.12 0.4-1.04 0.64-0.8 0.88-0.64 1.04-0.4 1.12-0.16 1.2m5.36 0v-5.36m-11.04 5.36zm0 0.8v-0.80005h-0.32v0.80005zm5.68-0.8zm0 0.8v-0.80005h-0.32v0.80005zm-0.32-0.8-0.16-1.2-0.4-1.12-0.56-1.04-0.88-0.88-1.04-0.64-1.12-0.4-1.2-0.08m0 0v-0.08m0 5.44v-5.36m85.36 6.48zm0 0.8v-0.80005h-0.32v0.80005zm6.32-0.8zm0 0.8v-0.80005h-0.32v0.80005zm-0.32-6.16h-0.08l-1.2 0.08-1.2 0.4-1.12 0.64-0.96 0.8-0.72 1.04-0.48 1.12-0.24 1.28m6 0v-5.36m-32.32 4.24zm0 0.8v-0.80005h-0.32v0.80005zm12.24-0.8zm0 0.8v-0.80005h-0.32v0.80005zm-6.32-0.8-0.24-1.28-0.48-1.12-0.72-1.04-0.96-0.8-1.04-0.64-1.2-0.4-1.28-0.08m0 0v-0.08m0 5.44v-5.36m16.88 49.84v0.31999h-0.88v-0.31999zm6 0v-0.08l-0.16-1.36-0.4-1.28-0.72-1.12-0.96-1.04-1.12-0.72-1.28-0.48-1.36-0.24m0 6.32h6m-6-11.92v-0.39999h-0.88v0.39999zm0 5.6 1.28-0.08 1.28-0.4 1.12-0.64 0.96-0.88 0.72-1.12 0.48-1.2 0.16-1.28m0 0v-0.08m-6 0.08h6m19.04-3.92zm0 0.8v-0.80005h0.32v0.80005zm-6-0.8v0.8h-0.32v-0.8m6.32-5.12h-0.08l-1.2 0.08-1.2 0.4-1.04 0.56-0.96 0.8-0.72 0.96-0.48 1.12-0.32 1.2h-0.32m6.32 0v-5.12m96.64-19.36zm0-0.32v0.32007h1.04v-0.32007zm-60.48 36.48zm0-0.8v0.80005h-0.32v-0.80005zm78.56 16.96h-20.64m20.64-1.2h-20.64m20.64 0.56h-20.64m0 0.64v-1.2h-0.4v1.2zm21.04 0v-1.2h-0.4v1.2zm25.52 0h-20.72m20.72-1.2h-20.72m20.72 0.56h-20.72m0 0.64v-1.2h-0.32v1.2zm21.04 0v-1.2h-0.32v1.2zm57.92 0h-20.72m20.72-1.2h-20.72m20.72 0.56h-20.72m21.04 0.64v-1.2h-0.32v1.2zm44.24-43.92v18.16m-0.32-18.48h-122.56m124.16-1.2h-123.76m123.44 0.24h-123.44m-23.44-6.96v-0.16h-0.64v0.16zm0.16 6.16v-0.31998h-1.04v0.31998zm5.76-0.48v-0.08l-0.16-1.28-0.4-1.28-0.72-1.12-0.96-0.88-1.12-0.72-1.28-0.4-1.28-0.08m0 5.84h5.92m-14.72 8.4zm0 0.88v-0.88004h-0.32v0.88004zm6.4-0.88zm0 0.88v-0.88004h-0.32v0.88004zm-0.32-6.96-1.28 0.24-1.28 0.48-1.12 0.72-0.96 0.96-0.72 1.12-0.48 1.28-0.24 1.28m6.08 0v-6.08m188.08 39.76-1.36 0.16-1.28 0.48-1.12 0.72-0.96 0.96-0.64 1.12-0.48 1.28-0.08 1.36m5.92 0v-6.08m0-19.52-0.08-1.36-0.48-1.28-0.64-1.12-0.96-0.96-1.12-0.72-1.28-0.48-1.36-0.16m0 0v-0.08m0 6.16v-6.08m-40.48 14.56 1.36-0.16 1.28-0.48 1.2-0.72 0.96-0.88 0.72-1.2 0.4-1.28 0.16-1.36m0 0v-0.08m-6.08 0.08h6.08m-6.72 6.4zm0-0.32v0.31999h0.64v-0.31999zm0-6.08zm0-0.32v0.31999h0.64v-0.31999zm40.8-1.36zm0-0.72v0.71997h0.32v-0.71997zm6.24 0.72zm0-0.72v0.71997h0.4v-0.71997zm-6.24 26.24zm0-0.64v0.63997h0.32v-0.63997zm6.24 0.64zm0-0.64v0.63997h0.32v-0.63997zm18 194.96zm0-0.64v0.64001h0.32v-0.64001zm12.32 0.64zm0-0.64v0.64001h0.32v-0.64001zm-138.56 0.64zm0-0.64v0.64001h0.4v-0.64001zm12.32 0.64zm0-0.64v0.64001h0.32v-0.64001zm-130.16 0.08zm0-0.64v0.64001h0.32v-0.64001zm-6.32 0.64zm0-0.64v0.64001h0.32v-0.64001zm-132.24-251.92v0.96m-7.76 0v-0.96h8.08v0.96m-7.76 0v-0.96m-12.48 0.96v-0.96m-14.8 0h15.2v0.96m144.24 267.04v1.92h0.96m0 0v-2.88m0 3.2v-0.32003h-0.64v0.32003zm0 6zm0 0.32v-0.31999h-0.64v0.31999zm-8.08-6.64zm0 0.32v-0.32003h-0.72v0.32003zm0 6zm0 0.32v-0.31999h-0.72v0.31999zm-1.28-6.64h1.28m0-2.88h8.08m-8.08 0.96h7.12m240.16 11.36h-37.04m-5.04 0h-37.04m-5.04 0h-37.04m-5.04 0h-37.04m-47.12 0h-40.88m24.08-256.16-0.08 0.16v0.16h0.08v0.24l0.16 0.56h-0.48l0.56 0.24 0.24 0.56h0.24m-0.72-1.92h-0.16l-0.64 1.92h0.24l0.16-0.56h0.64l-0.56-0.24 0.16-0.56v-0.16l0.08-0.08v-0.16m-0.8-0.16h-1.2v1.92h1.2v-0.24h-0.96v-0.64h0.88v-0.24h-0.88v-0.56h0.96m-2.16-0.24h-0.72v1.92h0.24v-0.88h0.72l0.08-0.08h0.08v-0.08h0.08l-0.96-0.08v-0.64h0.96l-0.16-0.16h-0.24m0.4 0.16h-0.48 0.08l0.08 0.08h0.08l0.08 0.08v0.4h-0.08v0.08h-0.72l0.96 0.08v-0.08l0.08-0.08v-0.48h-0.08m-0.4 0.8h-0.32 0.08l0.08 0.08h0.08v0.08h0.08v0.08l0.08 0.08v0.08l0.08 0.08 0.16 0.4h0.32l-0.32-0.56v-0.08h-0.08v-0.08l-0.16-0.16m-1.68-1.04-0.08 0.16v0.16h0.08v0.24l0.16 0.56h-0.48l0.56 0.24 0.24 0.56h0.24m-0.72-1.92h-0.16l-0.64 1.92h0.24l0.16-0.56h0.64l-0.56-0.24 0.16-0.56v-0.16l0.08-0.08v-0.16m-2.08-0.16h-0.72v1.92h0.24v-0.88h0.72l0.08-0.08h0.08v-0.08h0.08l-0.96-0.08v-0.64h0.96l-0.16-0.16h-0.24m0.4 0.16h-0.48 0.08l0.08 0.08h0.08l0.08 0.08v0.4h-0.08v0.08h-0.72l0.96 0.08v-0.08l0.08-0.08v-0.48h-0.08m-0.4 0.8h-0.32 0.08l0.08 0.08h0.08v0.08h0.08v0.08l0.08 0.08v0.08l0.08 0.08 0.16 0.4h0.32l-0.32-0.56v-0.08h-0.08v-0.08l-0.16-0.16m-1.2-1.04h-1.2v1.92h1.2v-0.24h-0.96v-0.64h0.88v-0.24h-0.88v-0.56h0.96m-2.4-0.24h-0.24v1.92h0.24v-0.96m1.04-0.96h-0.24l-0.8 0.96v0.32l0.24-0.32 0.16-0.16m0 0-0.16 0.16 0.56 0.96h0.32m-2.32-2h-0.16l-0.08 0.08h-0.08l-0.08 0.08h-0.08l-0.08 0.08h0.72v0.08h0.08l0.08 0.08v0.08l0.08 0.08v0.08l0.24-0.08-0.08-0.08v-0.08l-0.08-0.08v-0.08l-0.08-0.08h-0.08v-0.08h-0.16v-0.08h-0.16m-0.56 0.24v0.08l-0.08 0.08v0.08l-0.08 0.08v0.24h-0.08v0.4l0.08 0.08v0.24l0.08 0.08v0.08l0.08 0.08v0.08h0.48l-0.08-0.08h-0.16v-0.08h-0.08v-0.08l-0.08-0.08v-0.16h-0.08v-0.64l0.08-0.08v-0.08l0.08-0.08v-0.08l0.08-0.08h0.08l0.08-0.08h0.16m0.4 1.04v0.24l-0.08 0.08v0.08h-0.08v0.08h-0.16l-0.08 0.08h-0.56 0.08v0.08h0.08l0.08 0.08h0.56l0.32-0.32v-0.16h0.08v-0.16m-2.32-1.36h-0.16l-0.08 0.08h-0.08l-0.32 0.32v0.08l-0.08 0.08v0.32l-0.08 0.08v0.24h0.08v0.32h0.08v0.16l0.24 0.24h0.08v0.08h0.64v-0.08h0.08l0.08-0.08h-0.56l-0.08-0.08h-0.08l-0.24-0.24v-0.16l-0.08-0.08v-0.56h0.08v-0.24h0.08v-0.08h0.08v-0.08h0.08l0.08-0.08h0.64l-0.08-0.08h-0.08v-0.08h-0.08l-0.08-0.08h-0.08m0.4 0.24h-0.48 0.16l0.08 0.08h0.08v0.08h0.08v0.16h0.08v0.16l0.08 0.08v0.48h-0.08v0.24h-0.08v0.08l-0.16 0.16h-0.08l-0.08 0.08h-0.08 0.48l0.08-0.08v-0.08h0.08v-0.16l0.08-0.08v-0.32l0.08-0.08-0.08-0.08v-0.4h-0.08v-0.16h-0.08v-0.16m-2.32-0.16h-0.24v1.92h0.96v-0.24h-0.72m326.32 230.96v-2.32m-334.24-194.96v5.52m0.08-5.52v5.52m60.4-4.24h-14.56m13.68-1.28h-4m147.36-0.08v0.4m40.48 0.96h-41.36v-1.36m40.4 0.4h-39.52m48-0.4v0.4m-8.48-0.4v0.4m0.96-0.4v1.36m10-2v2h-3.36v-1.36m3.36 0.4h-2.48m-206.56 194.64v2.96h-4.64v-2.96m88.8 0v2.96h-4.64v-2.96h-37.44v2.96h-4.64v-2.96m130.8 0v2.96h-4.64v-2.96m88.8 0v2.96h-4.64v-2.96m-251.52-0.72zm0 2.8v-2.8h2.8v2.8zm42.08-2.8zm0 2.8v-2.8h2.8v2.8zm42.08-2.8zm0 2.8v-2.8h2.8v2.8zm84.16-2.8zm0 2.8v-2.8h2.8v2.8zm84.16-2.8zm0 2.8v-2.8h2.8v2.8zm46.08 5.44v-7.2m0.88 19.76v10.4m38.4-106v34.4m0-73.76v34.48m0-73.84v34.48m1.44 46.08v30.72m-0.64-31.36v32m0.64-70.72v30.8m-0.64-31.44v32m-0.8-111.52v34.08m1.44 6.72v30.8m-0.64-31.36v31.92m-3.44-74.56v-3.04h5.68v5.44h-3.04m-4.08-3.84v-3.04h8.56v8.56h-3.04v30.56m-3.36-32.72v192.08m0.88-156.24zm0 2.32v-2.3201h2.72v2.3201zm-127.36-65.36h3.36m0 25.84h-3.44m125.84-0.56h-36.64m35.84-0.88h-34.8m34.16-0.56h-33.52m-6.96 1.44h-36.8m35.76-0.88h-34.72m34.16-0.56h-33.52m35.12 1.44v-3.04h5.28v3.04m-6.32-0.88v-3.04h7.36v3.04m-7.92-0.56v-3.04h8.56v3.04m-5.68-0.4zm0 2.8v-2.8h2.8v2.8zm41.36 0.96h-123.12m38.4-1.92h-38.4m37.36-0.88h-36.56m37.6 0.88v-3.04h5.28v3.04m-6.32-0.88v-3.04h7.36v3.04m-7.92-0.56h-35.36m35.36 0v-3.04h8.56v3.04m-5.68-0.4zm0 2.8v-2.8h2.8v2.8zm-633.12 423.44v15.68h-43.2m0-3.04h40.16v-16.32m141.36-419.44v-3.36h-3.36v3.36zm-42.08 0v-3.36h-3.36v3.36zm-42.08 0v-3.36h-3.28v3.36zm-52.16 391.12-0.16-0.88-0.4-0.88-0.72-0.64-0.8-0.48-0.96-0.16-0.96 0.16-0.8 0.48-0.72 0.64-0.4 0.88-0.16 0.88 0.16 0.96 0.4 0.88 0.72 0.64 0.8 0.4 0.96 0.16 0.96-0.16 0.8-0.4 0.72-0.64 0.4-0.88zm0-45.44-0.16-0.96-0.4-0.88-0.72-0.64-0.8-0.4-0.96-0.16-0.96 0.16-0.8 0.4-0.72 0.64-0.4 0.88-0.16 0.96 0.16 0.88 0.4 0.88 0.72 0.64 0.8 0.48 0.96 0.16 0.96-0.16 0.8-0.48 0.72-0.64 0.4-0.88zm0-45.52-0.16-0.96-0.4-0.8-0.72-0.72-0.8-0.4-0.96-0.16-0.96 0.16-0.8 0.4-0.72 0.72-0.4 0.8-0.16 0.96 0.16 0.96 0.4 0.8 0.72 0.72 0.8 0.4 0.96 0.16 0.96-0.16 0.8-0.4 0.72-0.72 0.4-0.8zm0-45.52-0.16-0.88-0.4-0.88-0.72-0.64-0.8-0.48-0.96-0.16-0.96 0.16-0.8 0.48-0.72 0.64-0.4 0.88-0.16 0.88 0.16 0.96 0.4 0.88 0.72 0.64 0.8 0.4 0.96 0.16 0.96-0.16 0.8-0.4 0.72-0.64 0.4-0.88zm0-45.44-0.16-0.96-0.4-0.88-0.72-0.64-0.8-0.4-0.96-0.16-0.96 0.16-0.8 0.4-0.72 0.64-0.4 0.88-0.16 0.96 0.16 0.88 0.4 0.88 0.72 0.64 0.8 0.48 0.96 0.16 0.96-0.16 0.8-0.48 0.72-0.64 0.4-0.88zm0-45.52-0.16-0.96-0.4-0.8-0.72-0.72-0.8-0.4-0.96-0.16-0.96 0.16-0.8 0.4-0.72 0.72-0.4 0.8-0.16 0.96 0.16 0.96 0.4 0.8 0.72 0.72 0.8 0.4 0.96 0.16 0.96-0.16 0.8-0.4 0.72-0.72 0.4-0.8zm0-45.52-0.16-0.88-0.4-0.88-0.72-0.64-0.8-0.48-0.96-0.16-0.96 0.16-0.8 0.48-0.72 0.64-0.4 0.88-0.16 0.88 0.16 0.96 0.4 0.88 0.72 0.64 0.8 0.4 0.96 0.16 0.96-0.16 0.8-0.4 0.72-0.64 0.4-0.88zm0-45.44-0.16-0.96-0.4-0.88-0.72-0.64-0.8-0.4-0.96-0.16-0.96 0.16-0.8 0.4-0.72 0.64-0.4 0.88-0.16 0.96 0.16 0.88 0.4 0.88 0.72 0.64 0.8 0.48 0.96 0.16 0.96-0.16 0.8-0.48 0.72-0.64 0.4-0.88zm0-45.52-0.16-0.96-0.4-0.8-0.72-0.72-0.8-0.4-0.96-0.16-0.96 0.16-0.8 0.4-0.72 0.72-0.4 0.8-0.16 0.96 0.16 0.96 0.4 0.8 0.72 0.72 0.8 0.4 0.96 0.16 0.96-0.16 0.8-0.4 0.72-0.72 0.4-0.8zm420.88 166.72v-0.16m0 0.16h0.08m0 2.16h1.12v-2.08l-0.08-0.08h-1.04m-0.08 2.16v-0.08m0-2.24h2.48v0.16h-1.04l-0.16 0.16v1.92l0.08 0.08h1.12v0.16h-2.48v-0.16h0.08m42-2.16v-0.16m0 0.16h0.08m0 2.16h1.12v-2.08l-0.08-0.08h-1.04m-0.08 2.16v-0.08m0-2.24h2.48v0.16h-1.04l-0.16 0.16v1.92l0.08 0.08h1.12v0.16h-2.48v-0.16h0.08m42-2.16v-0.16m0 0.16h0.08m0 2.16h1.04l0.08-0.08v-1.92l-0.16-0.16h-0.96m-0.08 2.16v-0.08m0-2.24h2.48v0.16h-1.04l-0.16 0.16v1.92l0.08 0.08h1.12v0.16h-2.48v-0.16h0.08m-126.32-2.16v-0.16m0.08 0.16v-0.08m0 2.24h1.12v-2.08l-0.08-0.08h-1.12m0.08 2.16h-0.08m0-2.32h2.48v0.16h-1.04l-0.16 0.16v1.92l0.08 0.08h1.12v0.16h-2.48v-0.16m170.8 0v0.16h-2.48v-0.16h1.12l0.08-0.08v-1.92l-0.16-0.16h-1.04v-0.16m2.48 2.32h-0.08m0-2.16h-1.04l-0.08 0.08v2.08h1.12m0.08-2.16v-0.08m-2.48-0.08h2.48v0.16h-0.08m42.16 2.16v0.16h-2.48v-0.16h1.12l0.08-0.08v-1.92l-0.16-0.16h-1.04v-0.16m2.48 2.32h-0.08m0-2.16h-1.04l-0.08 0.08v2.08h1.12m0.08-2.16v-0.08m-2.48-0.08h2.48v0.16h-0.08m42.16 2.16v0.16h-2.48v-0.16h1.12l0.08-0.08v-1.92l-0.16-0.16h-1.04v-0.16m2.48 2.32h-0.08m0-2.16h-1.04l-0.08 0.08v2.08h1.12m0.08-2.16v-0.08m-2.48-0.08h2.48v0.16h-0.08m42.16 2.16v0.16h-2.48v-0.16h1.12l0.08-0.08v-1.92l-0.16-0.16h-1.04v-0.16m2.4 2.32v-0.08m0-2.08h-1.04l-0.08 0.08v2.08h1.2m-0.08-2.16h0.08m-2.48-0.16h2.48v0.16m-94.4-220.48h-41.36m-218.08 22.48h-25.36m-79.84 80.32h-21.92m46.8 38.08v-13.28m-0.32-24.8h-20.56m20.88 8.64h-45.44m45.44 29.44h-45.44m29.12-105.2h-2m-28.48 4.8v-12.8m345.2-18.96v17.12m0-17.12h1.2v15.2m0-22.56v0.64h-1.2m-310.08 24.56h-4.64m0 8.16h3.68m-3.68 0.96h4.64m-0.96-0.96v-7.2h-3.68m4.64 6.4v-7.36 9.12m151.12-48.72v2.72h2v-2.72zm-46.48 0v2.72h-0.96m4.96 0v-2.72h-2v2.72zm6.08 0v-2.72h-2v2.72zm2 0v-2.72h-2v2.72zm-4 0v-2.72h-2v2.72zm-2 0v-2.72h-2.08v2.72zm30.32-2.72v2.72h-2v-2.72zm6.08 0v2.72h-2.08v-2.72zm2 0v2.72h-2v-2.72zm2 0v2.72h-2v-2.72zm-8.08 0h-2v2.72h2m0-2.72v2.72h2v-2.72zm0 0v2.72m-8.08-2.72v2.72h-2v-2.72zm2 0v2.72h-2v-2.72zm2.08 0v2.72h-2.08v-2.72zm-20.24 0v2.72h-2.08v-2.72zm12.08 2.72v-2.72h-2v2.72zm-10.08 0v-2.72h-2v2.72zm10.08-2.72v2.72h2.08v-2.72zm-4 2.72v-2.72h-2v2.72zm2 0v-2.72h-2v2.72zm-4 0v-2.72h-2.08v2.72zm-2.08 0v-2.72h-2v2.72zm228.64 36.16h-41.36m41.36-1.92h-40.16m46.72 0v1.92m-6.56-1.92v1.92m-388.56 43.36v-10.88h-56.4m58.4 0.24v13.04m84.88-51.12h1.28m6.64 0v-0.88m-7.92 0h1.28m14.8 3.84v0.4h-0.08m0 5.04 1.36-0.24 1.2-0.48 1.04-0.8m-3.6-3.52 3.6 3.52m146.4-0.16h3.6m0 0v-4.56h-3.6m33.28 3.68zm0 0.88v-0.88004h-0.32v0.88004zm-12.56-0.88zm0 0.88v-0.88004h0.32v0.88004zm12.24-6.96-1.36 0.16-1.28 0.48-1.12 0.72-0.88 0.96-0.72 1.12-0.4 1.28-0.08 1.36m5.84 0v-6.08m-5.84 6.08-0.16-1.36-0.4-1.28-0.72-1.2-0.96-0.96-1.2-0.72-1.28-0.4-1.28-0.16m-0.08 0h0.08m-0.08 6.08v-6.08m-4.88 6.08zm0 0.88v-0.88004h-0.32v0.88004zm-12.56-0.88zm0 0.88v-0.88004h0.32v0.88004zm12.24-6.96-1.36 0.16-1.28 0.48-1.12 0.72-0.96 0.96-0.72 1.12-0.48 1.28-0.16 1.36m6.08 0v-6.08m-6.08 6.08-0.08-1.36-0.4-1.28-0.72-1.12-0.88-0.96-1.12-0.72-1.28-0.48-1.28-0.16m-0.08 0h0.08m-0.08 6.08v-6.08m-256.8 33.12v2.88m2-2.88v5.2m-58.4-0.24v-0.08m2-28.16v26.16h54.4m-56.4-28.24v30.32m412.8-79.68v19.44m31.44 1.12h-32.56v-0.64m33.28 0h-33.28m32.56 1.44v-0.8m0.72 0.8v-1.44m7.28 1.44v-0.8m4.16-0.64h-4.8v1.44m4.16-0.8h-3.52m4.16-0.64v25.28m-0.64-24.64v25.2m-42.72-46v19.68m31.92 3.28h-40.16m46.8-1.36v1.28m-6.64-1.28v1.28m-200.4 24.64h-43.04m43.04-5.44h-2m2-11.52v-2.08m-2 16.96v-3.36m-39.04-13.6h-2m17.28 0h25.76m-25.76 17.04h-15.28m41.04-14.96h-2m-21.76 14.88h21.76m-21.76-15.04h21.76m-1.68 1.36-16.16 12m0 0h16.16l-16.16-12m16.16 12v-12h-16.16m0 12v-12m17.84-1.36v0.16m2 16.96v-5.44m-23.76 3.36v-15.04m-2-1.92v17.04m-15.92 8.4h-16.56v-0.88m16.56 0h-16.56m-17.68-34.56v-0.88h0.96m-0.24 74.96v-47.52h-10.16m11.36-39.84v13.28m-6.96 23.6h-3.44m38-49.92v15.12m-0.96-15.12v19.12m50.4-4h-49.44m48.48 1.28h-48.48m5.36 279.6v-16.4m-145.12-180.96v40.24m84.88-97.28h-1.28m17.36 23.52v0.4h-0.08m0 0v-1.12m0 0h0.08v0.56m10 0.16h-10m10-0.16h-10m0-6v0.48h-0.08m0 0v-1.12m0 0h0.08v0.56m10 0.08h-10m10-0.08h-10m-0.08 5.52 1.36-0.16 1.2-0.48 1.04-0.8m-3.6-3.52 3.6 3.52m11.44 37.44h28.56m-32.56 0h3.12m0.88-47.52v47.52m-31.04 0h26.08m-27.36 1.28h60.88m-32.56-48.8v47.52m3.12 0v-47.52m-31.44-26.56v-13.28m70.96 23.28h5.84m-5.84 1.2h5.84m-14.64 0v-1.2m8.8 0v1.2m-88-40.4h-37.44m-133.44-7.44 502.16-0.08m-252.08 283.76h-1.28m-144.48 21.04h21.76m114.24-221.76h5.68m-48.72-15.2h-8.08m-1.28-15.84v60.08m0-72.72h1.28v-2.64m0 22.72v-7.44m0 58.8v-50.48m16.08 15.2v0.4h-0.08m0 0v-0.4m0 5.36 1.36-0.16 1.2-0.48 1.04-0.8m-3.6-3.52 3.6 3.52m-3.52 2.16v0.4h-0.08m0 0v-1.12m0 0h0.08v0.56m10 0.16h-10m10-0.16h-10m-0.08 5.6 1.36-0.24 1.2-0.48 1.04-0.8m-3.6-3.52 3.6 3.52m-3.52 2.16v0.48h-0.08m0 0v-1.12m0 0h0.08v0.56m10 0.08h-10m10-0.08h-10m25.04 0.08v0.48h0.08v-0.56m-0.08 6.08v-0.56m0-4.96-3.52 3.52m-6.48-4h10m-10-0.08h10.08m-3.6 4.08 1.04 0.8 1.2 0.48 1.28 0.16h0.08v1.12m-13.92-57.52h-1.92m15.76 69.52h0.08m-0.08 2.88h0.08m-0.08 1.68v-4.56m0.08 4.56v-4.56m-0.08-12-3.52 3.52m-6.48-3.92h10v0.4h0.08m-10.08-0.56h10m4.16 8.64-1.2-0.8-1.44-0.56-1.52-0.16m0.08-1.6v1.6h-0.08m0.08-1.6h-0.08v1.6m-10-0.88h10m-10-0.16h10m-3.52-2 1.04 0.8 1.2 0.48 1.28 0.16m0 7.04 4.16-3.92m11.52-18.48h-5.68v-0.8m-35.04 27.76v-4.56m0 0h-0.08v4.56m0.08-1.68h-0.08m0-8.32-1.44 0.16-1.44 0.56-1.2 0.8m4.08-8.08v-1.12m0.08 0.56v-0.56m-0.08 0 1.36-0.16 1.2-0.48 1.04-0.8m-3.6-3.52 3.6 3.52m-3.6 1.44h0.08m-0.08 6.08v1.6h0.08m-0.08-1.6h0.08v1.6m-0.08-1.6 1.36-0.16 1.2-0.48 1.04-0.8m-11.52-29.12h-8.08m16.08 25.2v0.4h-0.08m0 0 3.6 3.52m-3.6 8.48-4.08-3.92m14.16-8.48h-10m10-0.16h-10m10 6.24h-10m10-0.16h-10m44.16-51.84h0.64m199.44-8.08v2m51.2-2h-3.2m1.36 1.28h-1.36m1.36 0v22.64h-1.44m-232.72 195.36h-14.32m20.96 1.6v-1.6m-6.64 1.6v-1.6m64.32 27.44h-37.04m37.28-2.56v-20.32m0.88 20.32v-20.32m179.92-4.56h-108.56m113.6 1.6v-1.6m12.64 1.6v-1.6m-138.88 1.6v-1.6m12.64 1.6v-1.6m183.04 21.68v3.2m3.52-15.76h-1.44m-2.08-1.92v1.92h0.16m2.8-6.4v6.4m39.2-199.68v31.84m-2.72 158.72h-96.24m-329.44-248.8v-2m23.68 2h-12.16m102.24 16.16h-2.72m-137.36-19.52-39.2-0.08m6.72 1.44h-6.72m6.72 2h-4.72m37.2-3.36v1.36m12.56 2v-3.44m20.96 0.64v0.8m-0.56 2v-3.44m-6.64 0v1.44m-64.88-0.8v0.8m-0.64 57.12v-58.56m56.08 16.56h26.64m119.12-16.56h-23.84m23.28 0.64h-22.72m-89.36 0.8h-17.04m-100.64 72h-2m2 12.88h-2m-14.56-27.76h5.04m2.64 0v1.68m39.36-56.8v65.2m-2-8h-6.16m-80.72 0.32h38.64m17.76-0.72v13.2m2 222.72v153.36m-2-345.36v343.36m2 2h-136.72v-347.36m127.2-100.72v57.12m-127.2 43.6h134.72m0 345.36h-132.64v-343.36m123.12-100.72v55.12m-123.12 45.6h132.64m524.4 114.72v31.76" fill="none" stroke="#000" stroke-linecap="round" stroke-linejoin="round" stroke-miterlimit="10" stroke-width="1.12"/>
</svg>
