<?xml version="1.0" encoding="UTF-8"?>
<!-- Created with Inkscape (http://www.inkscape.org/) -->
<svg width="1632" height="1056" version="1.1" viewBox="0 0 1632 1056" xmlns="http://www.w3.org/2000/svg">
 <path d="m817.04 250.96 0.08-0.32 0.08-0.08 0.24-0.08h0.24l0.24 0.08 0.08 0.08 0.08 0.32v0.88m0 0h-2v-0.88l0.08-0.32 0.08-0.08 0.24-0.08h0.16l0.32 0.16 0.08 0.32v0.88m-0.96 1.44 0.08 0.24 0.32 0.24 0.48 0.08h0.24l0.48-0.08 0.32-0.24 0.08-0.24v-0.24l-0.08-0.24-0.32-0.24-0.48-0.08h-0.24l-0.48 0.08-0.32 0.24-0.08 0.24zm0.48 2.4h-0.08l-0.24-0.08-0.16-0.32v-0.4l0.08-0.16 0.08-0.08 0.24-0.16h0.16l0.16 0.16 0.32 0.16 0.96 0.96v-1.36m-1.52 3.2h-0.08l-0.24-0.08-0.08-0.08-0.08-0.24v-0.4l0.08-0.16 0.08-0.08 0.24-0.08h0.16l0.48 0.24 0.96 0.96v-1.36m-2 2.32h2m-2 0 1.36 0.96v-1.44m-119.68-109.04v6.32m-39.12-6.32v15.84m2.64-15.84v8m1.6-8v6.32m25.12 6.08h3.28m-1.68-1.68v3.28m-22.72-1.6h3.28m-1.6-1.68v3.28m23.92-1.2v-1.36h0.32l0.08 0.08 0.08 0.16 0.08 0.08 0.08 0.16v0.32l-0.08 0.24-0.08 0.08-0.08 0.16-0.08 0.08zm-0.64-0.72 0.32 0.72m-0.64 0v-1.36h0.4l0.16 0.08v0.08l0.08 0.08v0.16l-0.08 0.08v0.08l-0.16 0.08h-0.4m-0.88 0.32-0.16-0.56-0.32-0.32-0.56-0.16-0.48 0.16-0.32 0.32-0.16 0.56 0.16 0.48 0.32 0.32 0.48 0.16 0.56-0.16 0.32-0.32zm-19.28 0.4v-1.36h0.32l0.24 0.24v0.08l0.08 0.16v0.32l-0.08 0.24v0.08l-0.24 0.24zm-0.64-0.72 0.32 0.72m-0.64 0v-1.36h0.4l0.16 0.08 0.08 0.08v0.32l-0.08 0.08-0.16 0.08h-0.4m-0.88 0.32-0.16-0.56-0.32-0.32-0.48-0.16-0.56 0.16-0.32 0.32-0.16 0.56 0.16 0.48 0.32 0.32 0.56 0.16 0.48-0.16 0.32-0.32zm21.28-6.08v1.68m-2.4-1.68v1.68m-18.64-1.68v1.68m-2.48-1.68v1.68m30.48-1.68h-6.96m-27.92-6.32v-27.36h34.88v27.36m-30.48 6.32h-4.4m25.52 0h-18.64m-8.48-6.32v-28.96m38.16 36.96h-38.16m0-36.96h38.16v28.96m-39.76 15.84v-6.88m0 0h38.8v6.88m-39.84 0h40.8v-7.84m0 0h1.84v-39.6h-42.64v31.6m842.4 84.16-0.08-0.24h-0.4l-0.08 0.24m0 0v1.44l0.08 0.24h0.4l0.08-0.24m0-1.44v1.44m-1.28-0.72 0.16 0.48 0.32 0.4 0.48 0.08 0.56-0.08 0.32-0.4 0.16-0.48-0.16-0.48-0.32-0.4-0.56-0.08-0.48 0.08-0.32 0.4zm1.28 19.2-0.08-0.24-0.24-0.08-0.16 0.08-0.08 0.24m0 0v1.44l0.08 0.16 0.16 0.08 0.24-0.08 0.08-0.16m0-1.44v1.44m-1.28-0.72 0.16 0.48 0.32 0.4 0.48 0.08 0.56-0.08 0.32-0.4 0.16-0.48-0.16-0.48-0.32-0.4-0.56-0.16-0.48 0.16-0.32 0.4zm1.28 18.64-0.08-0.16-0.24-0.08-0.16 0.08-0.08 0.16m0 0v1.52l0.08 0.16 0.16 0.08 0.24-0.08 0.08-0.16m0-1.52v1.52m-1.28-0.72 0.16 0.48 0.32 0.4 0.48 0.08 0.56-0.08 0.32-0.4 0.16-0.48-0.16-0.48-0.32-0.4-0.56-0.16-0.48 0.16-0.32 0.4zm1.28 19.12-0.08-0.16-0.24-0.08-0.16 0.08-0.08 0.16m0 0v1.52l0.08 0.16 0.16 0.08 0.24-0.08 0.08-0.16m0-1.52v1.52m-1.28-0.72 0.16 0.48 0.32 0.32 0.48 0.16 0.56-0.16 0.32-0.32 0.16-0.48-0.16-0.56-0.32-0.32-0.56-0.16-0.48 0.16-0.32 0.32zm1.28 18.64-0.08-0.16-0.24-0.08-0.16 0.08-0.08 0.16m0 0v1.52l0.08 0.16 0.16 0.08 0.24-0.08 0.08-0.16m0-1.52v1.52m-1.28-0.72 0.16 0.48 0.32 0.32 0.48 0.16 0.56-0.16 0.32-0.32 0.16-0.48-0.16-0.56-0.32-0.32-0.56-0.16-0.48 0.16-0.32 0.32zm1.28 19.12-0.08-0.16-0.24-0.08-0.16 0.08-0.08 0.16m0 0v1.52l0.08 0.16 0.16 0.08 0.24-0.08 0.08-0.16m0-1.52v1.52m-1.28-0.8 0.16 0.56 0.32 0.32 0.48 0.16 0.56-0.16 0.32-0.32 0.16-0.56-0.16-0.48-0.32-0.32-0.56-0.16-0.48 0.16-0.32 0.32zm1.28 18.72-0.08-0.16-0.24-0.08-0.16 0.08-0.08 0.16m0 0v1.52l0.08 0.16 0.16 0.08 0.24-0.08 0.08-0.16m0-1.52v1.52m-1.28-0.8 0.16 0.56 0.32 0.32 0.48 0.16 0.56-0.16 0.32-0.32 0.16-0.56-0.16-0.48-0.32-0.32-0.56-0.16-0.48 0.16-0.32 0.32zm1.28 19.2-0.08-0.16-0.24-0.08-0.16 0.08-0.08 0.16m0 0v1.52l0.08 0.16 0.16 0.08 0.24-0.08 0.08-0.16m0-1.52v1.52m-1.28-0.8 0.16 0.48 0.32 0.4 0.48 0.16 0.56-0.16 0.32-0.4 0.16-0.48-0.16-0.48-0.32-0.4-0.56-0.08-0.48 0.08-0.32 0.4zm1.28 18.72-0.08-0.16-0.24-0.08-0.16 0.08-0.08 0.16m0 0v1.44l0.08 0.24 0.16 0.08 0.24-0.08 0.08-0.24m0-1.44v1.44m-1.28-0.72 0.16 0.48 0.32 0.4 0.48 0.16 0.56-0.16 0.32-0.4 0.16-0.48-0.16-0.48-0.32-0.4-0.56-0.08-0.48 0.08-0.32 0.4zm1.28 19.2-0.08-0.24h-0.4l-0.08 0.24m0 0v1.44l0.08 0.24h0.4l0.08-0.24m0-1.44v1.44m-1.28-0.72 0.16 0.48 0.32 0.4 0.48 0.08 0.56-0.08 0.32-0.4 0.16-0.48-0.16-0.48-0.32-0.4-0.56-0.08-0.48 0.08-0.32 0.4zm-105.68-204.32h1.6l-0.88 1.12h0.48l0.24 0.16 0.16 0.16 0.16 0.4v0.32l-0.16 0.4-0.24 0.32-0.48 0.16h-0.4l-0.48-0.16-0.16-0.16-0.08-0.24m-2.48-1.92 0.32-0.16 0.4-0.4v3.04m-2.32-0.32-0.16 0.16 0.16 0.16 0.16-0.16zm-2.88-2.72h2m-0.96 0v3.04m-1.6-2.64-0.32-0.24-0.4-0.16h-0.64l-0.4 0.16-0.32 0.24v0.32l0.16 0.32 0.48 0.24 0.88 0.32 0.24 0.16 0.16 0.08 0.16 0.32v0.4l-0.32 0.32-0.4 0.16h-0.64l-0.4-0.16-0.32-0.32m-24.56 88.08 0.4 0.16 0.16 0.16 0.16 0.24v0.48l-0.16 0.24-0.16 0.16-0.4 0.16h-1.28m0 0v-3.04h1.28l0.4 0.16 0.16 0.16 0.16 0.24v0.32l-0.16 0.24-0.16 0.16-0.4 0.16h-1.28m-2.24-1.44-0.4 0.16-0.32 0.4-0.08 0.72v0.48l0.08 0.72 0.32 0.4 0.4 0.16h0.32l0.4-0.16 0.32-0.4 0.16-0.72v-0.48l-0.16-0.72-0.32-0.4-0.4-0.16zm-2.24 0v3.04m0-3.04-1.52 2h2.24m-4.96-1.28v-0.16l0.16-0.24 0.16-0.16 0.24-0.16h0.64l0.24 0.16 0.16 0.16 0.16 0.24v0.32l-0.48 0.72-1.44 1.44h2.08m-3.52-3.04v3.04m0-3.04-1.44 2h2.16m-117.36 0h1.44m-1.84 1.04 1.12-3.04 1.2 3.04m-4.08-3.04-0.4 0.16-0.32 0.4-0.16 0.72v0.48l0.16 0.72 0.32 0.4 0.4 0.16h0.32l0.4-0.16 0.32-0.4 0.16-0.72v-0.48l-0.16-0.72-0.32-0.4-0.4-0.16zm-2.32 0v3.04m0-3.04-1.44 2h2.16m-4.88-1.28v-0.16l0.16-0.24 0.16-0.16 0.24-0.16h0.56l0.32 0.16 0.16 0.16 0.16 0.24v0.32l-0.48 0.72-1.44 1.44h2.08m-3.52-3.04v3.04m0-3.04-1.44 2h2.16m-396.56-65.04 0.4 0.16 0.16 0.16 0.16 0.24v0.48l-0.16 0.24-0.16 0.16-0.4 0.16h-1.36m0 0v-3.04h1.36l0.4 0.16 0.16 0.16 0.16 0.24v0.32l-0.16 0.32-0.16 0.08-0.4 0.16h-1.36m-1.28 1.28-0.16 0.16 0.16 0.16 0.16-0.16zm-2.56-2.72v3.04h1.68m-4.48 0h1.92m-1.92-1.6h1.2m-1.2 1.6v-3.04h1.92m562.64-12.48v-2l1.36 2v-2m-3.36 2v-2h0.64l0.32 0.08 0.16 0.16 0.16 0.24 0.08 0.24v0.48l-0.08 0.32-0.16 0.16-0.16 0.24-0.32 0.08zm13.44-2 3.04 1.04-3.04 0.96m-8.56-0.96h8.56m-327.36-25.12v-2l1.36 2v-2m-3.36 2v-2h0.64l0.32 0.08 0.16 0.16 0.16 0.24 0.08 0.24v0.48l-0.08 0.32-0.16 0.16-0.16 0.24-0.32 0.08zm-27.2-0.16-3.04-0.96 3.04-1.04m24.88 1.04h-24.88m13.36 9.6 0.32-0.16 0.4-0.48v3.04m-3.6-2.4 0.32-0.16 0.4-0.48v3.04m-2.32-0.24-0.08 0.16 0.08 0.08 0.16-0.08zm-2.88-2.8h2.08m-1.04 0v3.04m-1.6-2.56-0.32-0.32-0.4-0.16h-0.56l-0.48 0.16-0.24 0.32v0.24l0.24 0.48 0.32 0.16 0.88 0.24 0.24 0.16 0.16 0.16 0.16 0.24v0.48l-0.32 0.32-0.4 0.08h-0.56l-0.48-0.08-0.24-0.32m113.04 2.64h9.76m63.52 11.76-1.28 2m0-2 1.28 2m-2.64-2-0.32 0.08-0.16 0.24-0.16 0.48v0.32l0.16 0.48 0.16 0.32 0.32 0.08h0.16l0.32-0.08 0.16-0.32 0.08-0.48v-0.32l-0.08-0.48-0.16-0.24-0.32-0.08zm-1.6 0v2m0-2-0.96 1.28h1.44m-3.2-0.8v-0.16l0.08-0.16 0.08-0.08 0.16-0.08h0.4l0.24 0.08 0.08 0.08 0.08 0.16v0.24l-0.08 0.16-0.24 0.32-0.96 0.96h1.36m-2.32-2v2m0-2-0.96 1.28h1.44m-137.44-17.36-1.36 2m0-2 1.36 2m-3.2-1.52v-0.16l0.08-0.16 0.32-0.16h0.4l0.32 0.16 0.08 0.16v0.24l-0.08 0.16-0.24 0.32-0.96 0.96h1.36m-3.2-1.52v-0.16l0.08-0.16 0.32-0.16h0.4l0.16 0.08 0.24 0.24v0.24l-0.16 0.16-0.16 0.32-0.96 0.96h1.36m-3.2-1.52v-0.16l0.08-0.16 0.32-0.16h0.4l0.16 0.08 0.24 0.24v0.24l-0.16 0.16-0.16 0.32-0.96 0.96h1.36m-2.32-2v2m0-2-0.96 1.28h1.44m140.48-17.36-0.4 0.08-0.32 0.48-0.08 0.72v0.4l0.08 0.72 0.32 0.48 0.4 0.08h0.32l0.48-0.08 0.24-0.48 0.16-0.72v-0.4l-0.16-0.72-0.24-0.48-0.48-0.08zm-3.6 0.72v-0.16l0.16-0.32 0.16-0.16 0.32-0.08h0.56l0.24 0.08 0.16 0.16 0.16 0.32v0.24l-0.16 0.32-0.24 0.4-1.44 1.44h2m-3.52-2.96v2.96m0-2.96-1.44 2h2.16m-3.28 0.72-0.16 0.16 0.16 0.08 0.16-0.08zm-2.72-0.72h1.44m-1.92 0.96 1.2-2.96 1.12 2.96m-4.64-2.96h2.08m-1.04 0v2.96m-23.6 25.52h1.52l-0.8 1.2h0.4l0.32 0.16 0.08 0.16 0.16 0.4v0.32l-0.16 0.4-0.24 0.32-0.48 0.08h-0.4l-0.4-0.08-0.16-0.16-0.16-0.32m-2.64-2.48h1.6l-0.8 1.2h0.4l0.32 0.16 0.08 0.16 0.16 0.4v0.32l-0.16 0.4-0.24 0.32-0.48 0.08h-0.4l-0.48-0.08-0.24-0.48m-2.72-1.68v-0.16l0.08-0.32 0.16-0.16 0.32-0.16h0.56l0.32 0.16 0.24 0.48v0.24l-0.16 0.32-0.24 0.4-1.44 1.44h2m-3.44-3.04v3.04m0-3.04-1.44 2.08h2.16m43.04-3.6-0.08-0.32-0.32-0.32-0.32-0.08h-0.56l-0.32 0.08-0.24 0.32-0.16 0.32-0.16 0.4v0.72l0.16 0.4 0.16 0.32 0.24 0.32 0.32 0.08h0.56l0.32-0.08 0.32-0.32 0.08-0.32m-3.28 0.48-0.16 0.16 0.16 0.08 0.16-0.08zm-2.64-2.72v2.96h1.76m-4.48 0h1.84m-1.84-1.52h1.12m-1.12 1.52v-2.96h1.84m-148.56 105.6h1.44m-1.84 0.96 1.12-3.04 1.12 3.04m-3.44-3.04v3.04m0-3.04-1.44 2.08h2.16m-4.88-1.28v-0.16l0.24-0.48 0.32-0.16h0.56l0.32 0.16 0.16 0.16 0.08 0.32v0.24l-0.08 0.32-0.32 0.4-1.44 1.44h2m-4.72-2.24v-0.16l0.08-0.32 0.16-0.16 0.32-0.16h0.56l0.32 0.16 0.24 0.48v0.24l-0.16 0.32-0.24 0.4-1.44 1.44h2m-3.44-3.04v3.04m0-3.04-1.44 2.08h2.16m59.76 18.72v3.04m0-3.04-1.44 2.08h2.16m-4.88-1.36v-0.08l0.16-0.32 0.16-0.16 0.24-0.16h0.56l0.32 0.16 0.16 0.16 0.16 0.32v0.24l-0.16 0.32-0.32 0.4-1.44 1.44h2.08m-4.8-2.32v-0.08l0.16-0.32 0.16-0.16 0.24-0.16h0.56l0.32 0.16 0.16 0.16 0.16 0.32v0.24l-0.16 0.32-0.32 0.4-1.44 1.44h2m-3.44-3.04v3.04m0-3.04-1.44 2.08h2.16m6.64-91.28v-0.16l0.16-0.24 0.16-0.16 0.24-0.16h0.64l0.24 0.16 0.16 0.16 0.16 0.24v0.32l-0.16 0.32-0.32 0.4-1.44 1.44h2.08m-4.8-2.32v-0.16l0.16-0.24 0.16-0.16 0.24-0.16h0.56l0.32 0.16 0.16 0.16 0.16 0.24v0.32l-0.16 0.32-0.32 0.4-1.44 1.44h2.08m-4.8-2.32v-0.16l0.16-0.24 0.16-0.16 0.24-0.16h0.56l0.32 0.16 0.16 0.16 0.16 0.24v0.32l-0.16 0.32-0.32 0.4-1.44 1.44h2m-3.44-3.04v3.04m0-3.04-1.44 2.08h2.16m15.2 173.44-0.72 0.96m-0.8-0.96 0.8 0.96v1.04m-1.2-1.52-0.08-0.16-0.16-0.24-0.24-0.08h-0.4l-0.16 0.08-0.16 0.24-0.16 0.16-0.08 0.32v0.48l0.08 0.24 0.16 0.24 0.16 0.16 0.16 0.08h0.4l0.24-0.08 0.16-0.16 0.08-0.24m-3.44 0.48v-2l1.36 2v-2m-3.12 1.36h0.96m-1.2 0.64 0.72-2 0.8 2m-3.28 0v-2h0.88l0.24 0.08 0.16 0.16 0.08 0.16v0.32l-0.08 0.16-0.16 0.08-0.24 0.08h-0.88m-2.16-1.04v1.44l0.16 0.32 0.16 0.16 0.32 0.08h0.16l0.32-0.08 0.16-0.16 0.08-0.32v-1.44m-2 0.48-0.08-0.16-0.24-0.24-0.16-0.08h-0.4l-0.16 0.08-0.24 0.24-0.08 0.16-0.08 0.32v0.48l0.16 0.48 0.24 0.16 0.16 0.08h0.4l0.16-0.08 0.24-0.16 0.08-0.24m-2-1.04-0.08-0.16-0.24-0.24-0.16-0.08h-0.4l-0.16 0.08-0.24 0.24-0.08 0.16-0.08 0.32v0.48l0.16 0.48 0.24 0.16 0.16 0.08h0.4l0.16-0.08 0.24-0.16 0.08-0.24m-3.04-1.52-0.16 0.08-0.16 0.24-0.16 0.16-0.08 0.32v0.48l0.08 0.24 0.16 0.24 0.16 0.16 0.16 0.08h0.4l0.24-0.08 0.16-0.16 0.08-0.24 0.16-0.24v-0.48l-0.24-0.48-0.16-0.24-0.24-0.08zm-3.92 0-0.32 0.08-0.16 0.32-0.08 0.48v0.32l0.08 0.48 0.16 0.24 0.32 0.08h0.24l0.24-0.08 0.24-0.24 0.08-0.48v-0.32l-0.08-0.48-0.24-0.32-0.24-0.08zm-1.28 0.32-0.08-0.24-0.24-0.08h-0.24l-0.24 0.08-0.24 0.32-0.08 0.48v0.48l0.08 0.4 0.24 0.16 0.24 0.08h0.08l0.32-0.08 0.16-0.16 0.16-0.32v-0.08l-0.16-0.32-0.16-0.16-0.32-0.08h-0.08l-0.24 0.08-0.24 0.16-0.08 0.32m-2.88 0.48-0.08 0.08 0.08 0.08 0.08-0.08zm-0.8-1.84-1.36 2m0-2 1.36 2m-2.96-0.64h0.96m-1.28 0.64 0.8-2 0.8 2m-3.6 0v-2l0.8 2 0.72-2v2m128.8 16.32-3.04-1.04 3.04-1.04m16.4 1.04h-16.4m-11.2-1.04 3.04 1.04-3.04 1.04m-14.08-1.04h14.08m-17.28 1.12v-2.08l1.36 2.08v-2.08m-3.36 2.08v-2.08h0.64l0.32 0.16 0.32 0.32 0.08 0.32v0.48l-0.08 0.32-0.16 0.16-0.16 0.24-0.32 0.08zm50.64-0.08v-2.08h0.88l0.24 0.16 0.16 0.08 0.08 0.16v0.32l-0.08 0.16-0.16 0.16-0.24 0.08h-0.88m-2.16-1.12v1.52l0.32 0.48 0.32 0.08h0.16l0.32-0.08 0.16-0.24 0.08-0.24v-1.52m-73.52 6.4 0.96-2h-1.36m-1.84 0.48v-0.16l0.24-0.24 0.16-0.08h0.4l0.32 0.16 0.08 0.16v0.24l-0.08 0.16-0.24 0.32-0.96 0.96h1.36m-3.2-1.52v-0.16l0.24-0.24 0.16-0.08h0.4l0.32 0.16 0.08 0.16v0.24l-0.08 0.16-0.24 0.32-0.96 0.96h1.36m-2.32-2v2m0-2-0.96 1.36h1.44m1.04-116.48-0.16-0.24-0.48-0.48h3.04m-2.24 3.92h-0.16l-0.32-0.16-0.16-0.16-0.16-0.24v-0.64l0.16-0.24 0.16-0.16 0.32-0.16h0.24l0.32 0.16 0.4 0.32 1.44 1.44v-2.08m-3.04 3.52h3.04m-3.04 0 2.08 1.44v-2.16m0.72 3.28 0.16 0.16 0.08-0.16-0.08-0.16zm-0.72 2.8v-1.44m0.96 1.84-3.04-1.12 3.04-1.2m-3.04 4.64v-2m0 0.96h3.04m137.84 93.68-0.16-0.24-0.24-0.32-0.32-0.16h-0.56l-0.32 0.16-0.24 0.32-0.16 0.24-0.16 0.48v0.72l0.16 0.4 0.16 0.32 0.24 0.24 0.32 0.16h0.56l0.32-0.16 0.24-0.24 0.16-0.32m-4.16-2.32-0.48 0.16-0.24 0.4-0.16 0.72v0.48l0.16 0.72 0.24 0.4 0.48 0.16h0.32l0.4-0.16 0.32-0.4 0.08-0.72v-0.48l-0.08-0.72-0.32-0.4-0.4-0.16zm-2.32 0v3.04m0-3.04-1.44 2h2.16m-4.88-1.28v-0.16l0.08-0.24 0.16-0.16 0.32-0.16h0.56l0.32 0.16 0.08 0.16 0.16 0.24v0.32l-0.16 0.32-0.24 0.4-1.44 1.44h2m-3.44-3.04v3.04m0-3.04-1.44 2h2.16m-72.8-7.68v3.04m0-3.04-1.44 2h2.16m-4.56-1.44 0.24-0.16 0.48-0.4v3.04m-2.32-0.32-0.16 0.16 0.16 0.16 0.08-0.16zm-2.88-2.72h2m-1.04 0v3.04m-1.6-2.64-0.24-0.24-0.48-0.16h-0.56l-0.4 0.16-0.32 0.24v0.32l0.16 0.24 0.16 0.16 0.24 0.16 0.88 0.32 0.32 0.08 0.16 0.16 0.08 0.32v0.4l-0.24 0.32-0.48 0.16h-0.56l-0.4-0.16-0.32-0.32m-99.28-13.52-0.16-0.32-0.4-0.08h-0.32l-0.4 0.08-0.32 0.48-0.16 0.72v0.72l0.16 0.56 0.32 0.32 0.4 0.16h0.16l0.4-0.16 0.32-0.32 0.16-0.4v-0.16l-0.16-0.48-0.32-0.24-0.4-0.16h-0.16l-0.4 0.16-0.32 0.24-0.16 0.48m-2.88-1.28v-0.16l0.16-0.32 0.16-0.16 0.24-0.08h0.56l0.32 0.08 0.16 0.16 0.16 0.32v0.24l-0.16 0.32-0.32 0.4-1.44 1.52h2.08m-4.8-2.32v-0.16l0.16-0.32 0.16-0.16 0.24-0.08h0.56l0.32 0.08 0.16 0.16 0.16 0.32v0.24l-0.16 0.32-0.32 0.4-1.44 1.52h2m-3.44-3.04v3.04m0-3.04-1.44 2h2.16m-145.68-36.24 0.72 2.96 0.72-2.96 0.72 2.96 0.72-2.96m-5.12 0-0.24 0.08-0.32 0.32-0.16 0.32-0.08 0.4v0.72l0.08 0.4 0.16 0.32 0.32 0.32 0.24 0.08h0.64l0.24-0.08 0.32-0.32 0.16-0.32 0.16-0.4v-0.72l-0.16-0.4-0.16-0.32-0.32-0.32-0.24-0.08zm-3.12 0v2.96h1.68m-4.48 0h1.92m-1.92-1.52h1.2m-1.2 1.52v-2.96h1.92m-3.6 1.44 0.4 0.08 0.16 0.16 0.16 0.32v0.4l-0.16 0.32-0.16 0.16-0.4 0.08h-1.28m0 0v-2.96h1.28l0.4 0.08 0.16 0.16 0.16 0.32v0.24l-0.16 0.32-0.16 0.16-0.4 0.16h-1.28m-5.52-1.44-0.32 0.08-0.24 0.32-0.16 0.32-0.16 0.4v0.72l0.16 0.4 0.16 0.32 0.24 0.32 0.32 0.08h0.56l0.32-0.08 0.24-0.32 0.16-0.32 0.16-0.4v-0.72l-0.16-0.4-0.16-0.32-0.24-0.32-0.32-0.08zm-3.44 0h2m-1.04 0v2.96m-6.8 0v-2.96l2.08 2.96v-2.96m-4.8 2.96h1.84m-1.84-1.52h1.12m-1.12 1.52v-2.96h1.84m-4.88 2.96v-2.96h1.28l0.48 0.08 0.16 0.16 0.08 0.32v0.4l-0.08 0.32-0.16 0.16-0.48 0.08h-1.28m-2.48-1.52-0.24 0.08-0.32 0.32-0.16 0.32-0.08 0.4v0.72l0.08 0.4 0.16 0.32 0.32 0.32 0.24 0.08h0.64l0.24-0.08 0.32-0.32 0.16-0.32 0.08-0.4v-0.72l-0.08-0.4-0.16-0.32-0.32-0.32-0.24-0.08zm25.36-190.08 0.72 3.04 0.72-3.04 0.72 3.04 0.72-3.04m-5.04 0-0.32 0.16-0.24 0.24-0.16 0.32-0.16 0.4v0.72l0.16 0.48 0.16 0.32 0.24 0.24 0.32 0.16h0.56l0.32-0.16 0.24-0.24 0.16-0.32 0.16-0.48v-0.72l-0.16-0.4-0.16-0.32-0.24-0.24-0.32-0.16zm-3.2 0v3.04h1.76m-4.48 0h1.84m-1.84-1.6h1.12m-1.12 1.6v-3.04h1.84m-3.6 1.44 0.48 0.16 0.08 0.16 0.16 0.24v0.48l-0.16 0.24-0.08 0.16-0.48 0.16h-1.28m0 0v-3.04h1.28l0.48 0.16 0.08 0.16 0.16 0.24v0.32l-0.16 0.24-0.08 0.16-0.48 0.16h-1.28m-5.52-1.44-0.24 0.16-0.32 0.24-0.16 0.32-0.08 0.4v0.72l0.08 0.48 0.16 0.32 0.32 0.24 0.24 0.16h0.64l0.24-0.16 0.32-0.24 0.16-0.32 0.08-0.48v-0.72l-0.08-0.4-0.16-0.32-0.32-0.24-0.24-0.16zm-3.44 0h2m-0.96 0v3.04m-6.8 0v-3.04l2 3.04v-3.04m-4.8 3.04h1.92m-1.92-1.6h1.2m-1.2 1.6v-3.04h1.92m-4.88 3.04v-3.04h1.28l0.4 0.16 0.16 0.16 0.16 0.24v0.48l-0.16 0.24-0.16 0.16-0.4 0.16h-1.28m-2.48-1.6-0.32 0.16-0.24 0.24-0.16 0.32-0.16 0.4v0.72l0.16 0.48 0.16 0.32 0.24 0.24 0.32 0.16h0.56l0.32-0.16 0.24-0.24 0.16-0.32 0.16-0.48v-0.72l-0.16-0.4-0.16-0.32-0.24-0.24-0.32-0.16zm-181.52 249.84 0.72 3.04 0.72-3.04 0.72 3.04 0.72-3.04m-5.04 0-0.32 0.16-0.24 0.32-0.16 0.24-0.16 0.48v0.72l0.16 0.4 0.16 0.32 0.24 0.32 0.32 0.08h0.56l0.32-0.08 0.24-0.32 0.16-0.32 0.16-0.4v-0.72l-0.16-0.48-0.16-0.24-0.24-0.32-0.32-0.16zm-3.2 0v3.04h1.76m-4.48 0h1.84m-1.84-1.6h1.12m-1.12 1.6v-3.04h1.84m-3.6 1.44 0.48 0.16 0.24 0.48v0.4l-0.24 0.48-0.48 0.08h-1.28m0 0v-3.04h1.28l0.48 0.16 0.24 0.48v0.24l-0.24 0.48-0.48 0.08h-1.28m18.24-6.32-0.32 0.16-0.32 0.24-0.08 0.32-0.16 0.4v0.72l0.16 0.48 0.08 0.32 0.32 0.24 0.32 0.16h0.56l0.24-0.16 0.32-0.24 0.16-0.32 0.16-0.48v-0.72l-0.16-0.4-0.16-0.32-0.32-0.24-0.24-0.16zm-3.52 0h2m-0.96 0v3.04m-6.8 0v-3.04l2 3.04v-3.04m-4.72 3.04h1.84m-1.84-1.6h1.12m-1.12 1.6v-3.04h1.84m-4.88 3.04v-3.04h1.28l0.4 0.16 0.16 0.16 0.16 0.24v0.48l-0.16 0.24-0.16 0.16-0.4 0.16h-1.28m-2.48-1.6-0.32 0.16-0.24 0.24-0.16 0.32-0.16 0.4v0.72l0.16 0.48 0.16 0.32 0.24 0.24 0.32 0.16h0.56l0.32-0.16 0.24-0.24 0.16-0.32 0.16-0.48v-0.72l-0.16-0.4-0.16-0.32-0.24-0.24-0.32-0.16zm87.04-14.32v2.96m0-2.96-1.44 2h2.16m-4.16-2-0.48 0.08-0.24 0.48-0.16 0.72v0.4l0.16 0.72 0.24 0.48 0.48 0.08h0.24l0.48-0.08 0.24-0.48 0.16-0.72v-0.4l-0.16-0.72-0.24-0.48-0.48-0.08zm-3.6 0.72v-0.16l0.08-0.32 0.16-0.16 0.32-0.08h0.56l0.32 0.08 0.16 0.16 0.08 0.32v0.24l-0.08 0.32-0.32 0.4-1.44 1.44h2m-3.44-2.96v2.96m0-2.96-1.44 2h2.16m-9.68 219.36v2h1.12m-2.88-0.72h0.96m-1.28 0.72 0.8-2 0.8 2m-2-1.52-0.08-0.24-0.16-0.16-0.24-0.08h-0.32l-0.24 0.08-0.16 0.16-0.08 0.24-0.16 0.24v0.48l0.24 0.48 0.16 0.24 0.24 0.08h0.32l0.24-0.08 0.16-0.24 0.08-0.16m-2.08-1.52v2m-2.16 0v-2l1.36 2v-2m-3.04 1.28h0.96m-1.28 0.72 0.8-2 0.72 2m-3.36-1.04h1.36m0-0.96v2m-1.36-2v2m-0.64-1.52-0.08-0.24-0.24-0.16-0.16-0.08h-0.4l-0.16 0.08-0.24 0.16-0.16 0.48v0.48l0.08 0.32 0.08 0.16 0.24 0.24 0.16 0.08h0.4l0.16-0.08 0.24-0.24 0.08-0.16m-3.2 0.48h1.28m-1.28-1.04h0.8m-0.8 1.04v-2h1.28m-3.6 2v-2l0.8 2 0.8-2v2m11.6-6.64h1.44m-1.84 1.04 1.12-3.04 1.2 3.04m-3.52-3.04v3.04m0-3.04-1.44 2h2.16m-4.16-2-0.4 0.16-0.32 0.4-0.16 0.72v0.48l0.16 0.72 0.32 0.4 0.4 0.16h0.32l0.4-0.16 0.32-0.4 0.16-0.72v-0.48l-0.16-0.72-0.32-0.4-0.4-0.16zm-3.6 0.72v-0.16l0.16-0.32 0.16-0.08 0.24-0.16h0.56l0.48 0.24 0.16 0.32v0.32l-0.48 0.72-1.44 1.44h2m-3.44-3.04v3.04m0-3.04-1.44 2h2.16m-71.36-471.6 366.48 55.44m58.32-55.44-95.44 19.2-249.84 33.52-74.24 33.6m121.92 392.8 216.64-419.44m-216.64 14.72 216.64 404.72m-343.84-30.08 81.52-361.84m-81.52 10.96 81.52 350.88m-53.36 30.4h10.56m421.2-208.64v-2.08h0.88l0.24 0.16 0.24 0.24v0.32l-0.24 0.24-0.24 0.16h-0.88m-2.16-1.12v1.44l0.08 0.32 0.24 0.16 0.32 0.16h0.16l0.32-0.16 0.16-0.16 0.08-0.32v-1.44m-2.24 3.04h1.52m-3.04 0 1.52-0.56v1.04m-422.16 202.4v-2l1.36 2v-2m-3.44 2v-2h0.72l0.24 0.08 0.24 0.16 0.16 0.48v0.48l-0.08 0.32-0.08 0.16-0.24 0.24-0.24 0.08zm-0.88 0.96h1.52m-3.04 0 1.52-0.48v0.96m49.44-388.88h-28.24m-2.16 0.4h1.28m-155.92-88.16v65.04h-2.08m-29.44 481.84-0.8-2.32-2.88 1.04 0.8 2.24m177.92-96.72-39.68 8.88m0-8.88 39.68 9.68m385.36-176.08 41.6 14.16m0-14.16-41.6 14.16m-95.68-279.12 3.68 5.76 0.64 0.08-0.96 0.48h0.64l4 5.84m-257.84 112.96h2m-4.96 1.92h4.96m-13.36 247.44 6.56-3.76 0.08-0.64 0.4 1.04 0.08-0.64 6.24-4m-13.36-234.64 6.56-3.76 0.08-0.64 0.4 1.04 0.08-0.64 6.24-3.92m-75.2-136.24v-1.2m360.96 277.28v-0.08m0 0.08v-2.8h-22.16m23.44 2.8v-4.08h-23.44m-217.92 32.4v167.84m-126.8-479.12v-2.08m120.08 84.48h0.96v17.52m-0.96-26.8v2.64h0.96m0 0v-1.68m-0.96 26.8h5.44m0-0.96h-4.48m-0.96-23.76zm0-0.4v0.40007h0.80005v-0.40007zm0 6.64zm0-0.32v0.31999h0.80005v-0.31999zm-6-5.92 0.16 1.28 0.48 1.28 0.72 1.12 0.88 0.96 1.2 0.72 1.2 0.4 1.36 0.16m0-5.92h-6m392.48-79.44v1.52m0-4.16h2v2.64h-0.16v1.52m-3.28 0 1.44-1.52h1.84m-1.84-2.64-1.44-1.44m-78.72 4.08 1.52 1.52m-1.52-4.16 1.52-1.44m-3.36 1.44h-0.16v2.64h0.16m1.84-2.64v-1.44m0 1.44h-1.84v-3.28m0 5.92h1.84m80.16-4.08v1.44m-80.16 4.16v-1.52m0-4.08h80.16m-508.64 92.96v-24m1.44 24v-24m2.08-2.8h2.72m-2.72-1.2h2.72m-9.76-0.64v-5.12h3.12m2.08 397.2h114.24v0.16m-45.76-56.64h1.68m-1.68-1.92h4.96m-4.96-1.92h8.32m-8.32-1.92h11.28m-11.28-1.84h13.04m-13.04-11.68h13.04m-13.04-1.92h13.04m-13.04-1.92h13.04m-13.04-1.92h13.04m-13.04-1.84h13.04m-13.04-1.92h13.04m-13.04-1.92h13.04m-13.04-1.92h13.04m-13.04-1.84h13.04m-13.04-1.92h13.04m0.48-3.92h-0.48m-13.04 2h13.04m-8.24-206.08h8.24m-11.6 1.84h11.6m-13.04 1.92h13.04m-13.04 11.68h13.04m-13.04 1.92h13.04m-13.04 1.92h13.04m-13.04 1.92h13.04m-13.04 1.84h13.04m-13.04 1.92h13.04m-13.04 1.92h13.04m-13.04 1.84h13.04m-13.04 1.92h13.04m-13.04 1.92h13.04m39.76 314.4h1.12m-1.12 0v0.08m1.12 1.2v0.08h-1.12v-0.08h0.4l0.08-0.08v-1.12h-0.48m1.04 1.2v-0.08m0-1.12h-0.48v1.12l0.08 0.08h0.48m-0.08-1.2v-0.08h0.08m0 0v-0.08m-24.48 0.08h1.12m-1.12 0v0.08m1.12 1.2v0.08h-1.12v-0.08h0.4l0.08-0.08v-1.12h-0.48m1.04 1.2v-0.08m0-1.12h-0.48v1.12l0.08 0.08h0.48m-0.08-1.2v-0.08h0.08m0 0v-0.08m-24.48 0.08h1.12m-1.12 0v0.08m1.12 1.2v0.08h-1.12v-0.08h0.4l0.08-0.08v-1.12h-0.48m1.12 1.2h-0.08m0-1.2h-0.48v1.12l0.08 0.08h0.4m0.08-1.28v-0.08m0 0.08-0.08 0.08m-24.4-0.08h1.12m-1.12 0v0.08m1.12 1.2v0.08h-1.12v-0.08h0.4l0.08-0.08v-1.12h-0.48m1.12 1.2h-0.08m0-1.2h-0.48v1.12l0.08 0.08h0.4m0.08-1.28v-0.08m0 0.08-0.08 0.08m402.64-228.48v-0.88m6.64 0v0.88m-94.48-115.6h0.8m56.96-150.8h0.32m238.08 46.16v-1.12h4m0 1.12h-4v9.52m0.64 0v-8.88h3.36m0-12.72h1.28m-323.76 21.92zm0 2.48v-2.48h2.56v2.48zm-0.88-3.36zm0 4.24v-4.2401h4.32v4.2401zm-218.08 2.72h-0.08m-0.16-2.48v2.56h0.24m-0.08-2.56v2.48m0.08 8.24h-0.08m-0.16 2.48v-2.56h0.24m-0.08 2.56v-2.48m542.16-29.12 1.52-0.24 1.36-0.48 1.28-0.8 1.04-1.04 0.8-1.2 0.48-1.44 0.16-1.44m-6.64 0.08 6.64-0.16v0.16m-6.64-0.16v0.16l6.64-0.16m-166.24 2.72v4.16m-508.48-39.92h-0.88v0.88h0.96v-0.88zm0-0.08h-0.8l-0.08 0.08v0.96h0.96v-0.96zm372.4 293.12h51.6m421.28-45.04h3.04v8.56h-8.56v-3.04m5.52-44.64h3.04v8.56h-3.04m0-47.92h3.04v8.56h-3.04m0-47.84h3.04v8.56h-3.04m0-47.92h3.04v8.56h-3.04m-5.52-44.64v-3.04h8.56v8.56h-3.04m-477.44-6.64h0.24m-1.04 0v32.24m0.8-32.24v33.04m224.08-21.28 0.08 177.44m-126.8-194.16v7.68m17.44 0h-17.28v-7.68m2 0v6.48h15.28m-482.4-50.08h6.32m0-1.2h-6.32m4.56 79.92v-78.72m0.72 78.72v-78.72m502.96 45.6h-0.4m0.4 0v0.72h-2v-1.6m2.88 0.88v-0.88h-2.88m2-8.32h-2v-1.6m1.6 0h0.4-2m1.6 9.92v1.6m0-11.52v1.6m-53.6 230.16v-0.4h1.36v0.08h-1.36zm0-3.36v0.32h1.36v-0.08h-1.36zm1.2 2.96v-2.64m-0.08 2.64v-2.64m-0.16 2.64v0.08h0.4v-0.08zm0-2.72v0.08h0.4v-0.08zm9.36 12.64h-10.32v-16.24m6.96-0.88-0.16-1.36-0.4-1.28-0.72-1.12-0.96-0.96-1.12-0.8-1.28-0.4-1.36-0.16m0 0v-0.08m0 6.16v-6.08m-0.32 6.96h-0.64m0.64-0.88h-0.64m0.96 0.88zm0-0.88v0.88h-0.32v-0.88zm6.32 0.88zm0-0.88v0.88h-0.32v-0.88zm4.64 0h-4.64m3.04 0.88h-3.04m-335.76-196.16zm0 1.68v-1.68h1.92v1.68zm0-11.44zm0 1.68v-1.68h1.92v1.68zm385.84-9.04h-0.16m0.16-0.96h-2.48m7.12 0.96v-0.96m-4.64 0.96v-0.96m-1.12 0.96h-2.32m9.04-0.96h-0.96m0 0.96v-0.08m-516.24 44.8h5.28m-5.28-0.96h4.4m0.88 0.96v-12.56m-0.88 11.6v-10.72m213.04-28.4h-37.52m163.92 1.6h-37.68m37.68-1.6h-37.68m-4.56 0h-37.52m37.52 0.08h-37.52m37.52 0.72h-37.52m37.52 0.16h-37.52m0-0.88zm0 0.72v-0.71997h0.40002v0.71997zm37.12-0.4h-36.72m36.72-0.32zm0 0.72v-0.71997h0.4v0.71997zm-41.68-0.8h-37.52m37.52 0.08h-37.52m37.52 0.72h-37.52m37.52 0.16h-37.52m0-0.88zm0 0.72v-0.71997h0.39998v0.71997zm37.12-0.4h-36.72m36.72-0.32zm0 0.72v-0.71997h0.40002v0.71997zm-41.68-0.72h-37.52m37.52 0.72h-37.52m37.52 0.16h-37.52m-30.56 0.64h2.8m23.2 0h-22.24m22.24-1.6h-26m2.8 15.36v-13.76m0.96 0v14.72m26.8-16.24zm0 0.72v-0.71997h0.39999v0.71997zm37.12-0.4h-36.72m36.72-0.32zm0 0.72v-0.71997h0.39998v0.71997zm-40.72-2.56zm0 3.44v-3.44h2.64v3.44zm-0.96-4.32zm0 5.2v-5.2h4.56v5.2zm43.04-4.32zm0 3.44v-3.44h2.64v3.44zm-0.96-4.32zm0 5.2v-5.2h4.56v5.2zm43.04-4.32zm0 3.44v-3.44h2.64v3.44zm-0.96-4.32zm0 5.2v-5.2h4.56v5.2zm43.04-4.32zm0 3.44v-3.44h2.64v3.44zm-0.96-4.32zm0 5.2v-5.2h4.56v5.2zm1.28-2.16h0.88l0.08-0.08v-1.6l-0.16-0.16h-0.8v-0.08m0 1.92v0.08m2 0v0.08h-2v-0.08m2-0.08v-0.08m-2-1.84h2v0.08h-0.88l-0.08 0.08v1.76h0.96v0.08m-44.08-0.08h0.88l0.08-0.08v-1.6l-0.16-0.16h-0.8v-0.08m0 1.92v0.08m2 0v0.08h-2v-0.08m2-0.08v-0.08m-2-1.84h2v0.08h-0.88l-0.08 0.08v1.76h0.96v0.08m-44.08-0.08h0.96v-1.76l-0.08-0.08h-0.88v-0.08m0 1.92v0.08m2 0v0.08h-2v-0.08m2-0.08v-0.08m-2-1.84h2v0.08h-0.88l-0.08 0.08v1.76h0.96v0.08m-44.08-0.08h0.96v-1.76l-0.08-0.08h-0.88v-0.08m0 1.92v0.08m2 0v0.08h-2v-0.08m2-0.08v-0.08m-2-1.84h2v0.08h-0.8l-0.16 0.16v1.6l0.08 0.08h0.88v0.08m315.84 218.88v-9.76m-1.92 9.76v-9.76m-1.84 9.76v-9.76m9.44 9.76v-9.76m-1.84 9.76v-9.76m-1.92 9.76v-9.76m11.36 9.76v-9.76m-1.84 9.76v-9.76m-1.92 9.76v-9.76m-1.92 9.76v-9.76m15.12 9.76v-9.76m-1.92 9.76v-9.76m-1.84 9.76v-9.76m17.04 9.76v-9.76m-1.84 9.76v-9.76m-1.92 9.76v-9.76m-1.92 9.76v-9.76m-1.92 9.76v-9.76m-1.84 9.76v-9.76m-1.92 9.76v-9.76m16.56-0.24v-1.52m0.32 11.52h-22.96m76-20.88h3.68v2.64m-2.72-6.32zm0 2.8v-2.8h2.72v2.8zm-495.2 241.44h-42.48m42.16 0.32h-41.84m41.84 0.32h-41.84m412.32-447.28h2.16m42-7.2h-0.88m-383.28 273.12v4.64h0.96m-120.64-233.84zm0-0.88v0.87996h0.31999v-0.87996zm613.92 167.2h4.24m-4.24-1.6h24.08v2m-517.52-179.84h-4.32m-0.96 26.8v-18.48m-120.48 377.04h13.6v0.8m107.28-11.04h1.04m-1.04 1.36h1.04m-7.36 0 0.32 1.2 0.48 1.2 0.72 0.96 0.88 0.88 1.12 0.64 1.2 0.4 1.28 0.08m0 0v-0.08m0-5.28v5.36m0-6.16v0.80001h0.31999v-0.80001zm-6.32 0v0.80001h0.31999v-0.80001zm6.64 0.8v-1.36m-6.64 1.36v-1.36m-74.24 11.36v-10m-0.32 9.68v-9.68m583.76-197.04v5.68h10.72m-3.04-5.68-6.72 4.72h6.72v-4.72h-6.72v4.72m0-4.72 6.72 4.72m-24.56-6.32v1.6h-5.2v5.68h-8.64m7.68-5.68-6.72 4.72h6.72v-4.72h-6.72v4.72m0-4.72 6.72 4.72m-41.12-4.72v5.68h-11.36m3.68-0.96zm0-4.72v4.72h6.72v-4.72zm-76.56 0v5.68h-12.24m4.64-0.96zm0-4.72v4.72h6.72v-4.72zm-469.04-270.16h-100.24m447.68 467.6h-2m2.88 0v30.96m0.4-30.96v31.44m-0.48-31.44v30.96m-83.92 0.48h84.4m-0.48-0.48h-83.92 84m-251.92 15.2v1.04h-0.32v-1.04m-55.76 1.04h55.76m-42.16-3.36h42.48m-42.48 2.32zm0 1.04v-1.04h0.31999v1.04zm42.48-3.36h27.04m-27.04 1.92h29.04m-71.52 1.44v-3.36m42.48 3.36v-3.36m279.68-196.72zm0 1.2v-1.2h0.4v1.2zm0-0.24v-0.08m0.4 0.08v-0.08m310.4-267.68v0.08m-219.12 250.16v2.64m-95.68 13.76h1.84m-26.48-1.12h22.72m-23.52-0.8 22.24-15.84m-22.16 0 22.16 16.64m316.72-264.32h-17.04v1.92h0.24m-298.64 260.4h3.6v3.12m-3.6-2.16h2.64v2.16m293.6-240h-21.52m-127.04 0.08v-2m149.52 2.96v-1.04m1.44-1.92h-31.52m-118.48 0v-3.52m-0.96 3.52h30.8m-35.44-3.52zm0 0.88v-0.87996h0.4v0.87996zm4.32-0.88-0.4-0.96-0.64-0.88-0.8-0.64-1.04-0.4-1.04-0.08m0 0v-0.08m0 3.04v-2.96m4.24 2.96zm0 0.88v-0.87996h-0.32v0.87996zm30.8 6.56h-7.6m-21.6 0h-9.68m8.08-1.92h-8m31.2 1.92v-2h-21.6m0 2v-2m146.96 2v-2m2.4 0h-1.44m-149.52-1.92v-2.56m127.04 6.48v-2m-275.68-2.48h0.16m183.84 202.8 6.72-4.72m-6.72 0 6.72 4.72m-90.88 0 6.72-4.72m-0.64 0h-6.08l6.72 4.72m-112.16-170.56 4.8-31.36m-4.8 0 4.8 31.36m-21.76-23.84 16-7.52m-12.96 0 12.96 7.52m103.92-21.92 17.44-4.4m-17.44 0 17.52 4.4m303.28 75.04v-1.28h0.32l0.16 0.08 0.08 0.08v0.16l0.08 0.16v0.32l-0.08 0.16v0.16l-0.08 0.16zm-0.64-0.64 0.32 0.64m-0.56 0v-1.28h0.4l0.08 0.08h0.08v0.4l-0.16 0.16h-0.4m1.04 79.36v-1.36h0.24l0.16 0.08 0.08 0.16 0.08 0.08v0.72l-0.08 0.16-0.08 0.08-0.16 0.08zm-0.64-0.72 0.32 0.72m-0.64 0v-1.36h0.4l0.16 0.08v0.08l0.08 0.08v0.16l-0.08 0.16-0.16 0.08h-0.4m-19.12 71.44v-1.36h0.32l0.16 0.08 0.08 0.16 0.08 0.08v0.72l-0.08 0.16-0.08 0.08-0.16 0.08zm-0.56-0.72 0.32 0.72m-0.64 0v-1.36h0.4l0.16 0.16 0.08 0.16v0.08l-0.08 0.16-0.08 0.08h-0.48m-76.08 1.04v-1.36h0.32l0.16 0.08 0.08 0.16v0.08l0.08 0.24v0.24l-0.08 0.24v0.08l-0.08 0.16-0.16 0.08zm-0.56-0.72 0.24 0.72m-0.56 0v-1.36h0.4l0.16 0.16v0.4h-0.08l-0.08 0.08h-0.4m-0.08 1.6h-3.36m1.68-1.68v3.36m0.96-1.68-0.08-0.48-0.4-0.4-0.48-0.16-0.48 0.16-0.4 0.4-0.16 0.48 0.16 0.48 0.4 0.4 0.48 0.08 0.48-0.08 0.4-0.4zm96.24-151.04h-3.36m1.68-1.6v3.28m0.96-1.68-0.08-0.48-0.4-0.4-0.48-0.08-0.48 0.08-0.4 0.4-0.16 0.48 0.16 0.48 0.4 0.4 0.48 0.16 0.48-0.16 0.4-0.4zm-12.8 151.04h-3.28m1.68-1.68v3.36m0.96-1.68-0.16-0.48-0.32-0.4-0.48-0.16-0.56 0.16-0.32 0.4-0.16 0.48 0.16 0.48 0.32 0.4 0.56 0.08 0.48-0.08 0.32-0.4zm14.16-72.32h-3.36m1.68-1.68v3.36m0.96-1.68-0.08-0.48-0.4-0.4-0.48-0.16-0.48 0.16-0.4 0.4-0.16 0.48 0.16 0.48 0.4 0.4 0.48 0.08 0.48-0.08 0.4-0.4zm-856.72-174.96v-1.36h0.32l0.16 0.08 0.08 0.16 0.08 0.08v0.72l-0.08 0.16-0.08 0.08-0.16 0.08zm-0.56-0.72 0.32 0.72m-0.64 0v-1.36h0.4l0.16 0.16 0.08 0.16v0.08l-0.08 0.16-0.08 0.08h-0.48m50.96 2.24v-1.36h0.24l0.16 0.08 0.08 0.16 0.08 0.08v0.72l-0.08 0.16-0.08 0.08-0.16 0.08zm-0.64-0.72 0.32 0.72m-0.64 0v-1.36h0.4l0.16 0.08v0.08l0.08 0.16v0.08l-0.08 0.16-0.16 0.08h-0.4m-3.6 0.32h3.36m-1.68-1.68v3.36m1.04-1.68-0.16-0.48-0.4-0.4-0.48-0.16-0.48 0.16-0.4 0.4-0.08 0.48 0.08 0.48 0.4 0.4 0.48 0.08 0.48-0.08 0.4-0.4zm-49.04 0h-3.36m1.68-1.68v3.36m1.04-1.68-0.16-0.48-0.4-0.4-0.48-0.16-0.48 0.16-0.4 0.4-0.08 0.48 0.08 0.48 0.4 0.4 0.48 0.08 0.48-0.08 0.4-0.4zm682.56 38.48h6m-6-1.92zm0 0.8v-0.79997h0.4v0.79997zm-0.88-4.24zm0 5.36v-5.36h0.88v5.36zm-36.72 0h6.08m0-1.92zm0 0.8v-0.79997h-0.4v0.79997zm0-4.24zm0 5.36v-5.36h0.88v5.36zm91.12 195.28h-25.36m-515.44 193.68h-3.04m3.04 3.04h-3.04m3.04-4h-4m0 0v4.96h4m-3.04-0.96v-3.04m3.04 29.6v-167.2h1.28m-1.28 1.12h-3.04m3.04 3.04h-3.04m3.04-4h-4m0 0v4.96h4m-3.04-0.96v-3.04m3.52-1.12zm0-0.32v0.31999h0.80005v-0.31999zm-0.48 0.32v-40.16h1.28m0 9.44v-9.12m0 19.6v-10.16m0 20.64v-10.16m0 19.68v-9.2m-0.8-21.28v-9.12m0 19.6v-10.16m0 20.64v-10.16m0 19.68v-9.2m0.4-30.4v9.12m0 0.32v10.16m0 0.32v10.16m-0.4-30.4zm0 0.32v-0.31999h0.80005v0.31999zm0 19.6zm0 0.32v-0.31998h0.80005v0.31998zm0.4 10.48v9.12m-0.4-9.44zm0 0.32v-0.31998h0.80005v0.31998zm0-20.96zm0-0.32v0.32002h0.80005v-0.32002zm-0.48-9.44v-5.36h1.28m0 0v5.36m-1.28-4.24h-3.04m3.04 3.12h-3.04m3.04-4h-4m0 0v4.88h4m-3.04-0.88v-3.12m3.52-1.12zm0-0.32v0.31998h0.80005v-0.31998zm-0.48 0.32v-40.16h1.28m0 9.44v-9.12m0 19.6v-10.16m0 20.64v-10.08m0 19.52v-9.04m-0.8-21.36v-9.12m0 19.6v-10.16m0 20.64v-10.08m0 19.52v-9.04m0.4-30.48v9.12m0 0.32v10.16m0 0.4v10.08m-0.4-30.4zm0 0.32v-0.32003h0.80005v0.32003zm0 19.6zm0 0.4v-0.39999h0.80005v0.39999zm0.4 10.48v9.04m-0.4-9.44zm0 0.4v-0.40003h0.80005v0.40003zm0-21.04zm0-0.32v0.31998h0.80005v-0.31998zm-0.48-9.44v-5.28h1.28m0 0v5.28m-1.28-45.52h1.28m-1.28 223.28h-3.04m3.04 3.04h-3.04m3.04-3.92h-4m0 0v4.88h4m-3.04-0.96v-3.04m3.04-45.44h-3.04m3.04 3.04h-3.04m3.04-4h-4m0 0v4.88h4m-3.04-0.88v-3.04m3.04-136.48h-3.04m3.04 3.04h-3.04m3.04-4h-4m0 0v4.88h4m-3.04-0.88v-3.04m3.04-45.52h-3.04m3.04 3.04h-3.04m3.04-4h-4m0 0v4.96h4m-3.04-0.96v-3.04m3.04-45.52h-3.04m3.04 3.12h-3.04m3.04-4h-4m0 0v4.88h4m-3.04-0.88v-3.12m1.2 348.16v-0.08h-0.64v-0.16h1.36v0.16h-0.64v1.52h0.64v0.16h-1.36v-0.16h0.64zm-0.8-28.16-0.08 0.08v0.56h-0.08v-1.28h0.08v0.56l0.08 0.08h1.6l0.16-0.16v-0.48h0.08v1.28h-0.08v-0.48l-0.16-0.16zm0-45.44h-0.08v0.64h-0.08v-1.36h0.08v0.64h1.76l0.08-0.08v-0.56h0.08v1.36h-0.08v-0.56l-0.08-0.08zm0-45.52h-0.08v0.64h-0.08v-1.36h0.08v0.64h1.76l0.08-0.08v-0.56h0.08v1.36h-0.08v-0.56l-0.08-0.08zm0-45.52-0.08 0.08v0.64h-0.08v-1.36h0.08v0.56l0.08 0.08h1.6l0.16-0.16v-0.48h0.08v1.36h-0.08v-0.56l-0.16-0.16zm0-45.44h-0.08v0.64h-0.08v-1.36h0.08v0.64h1.76l0.08-0.08v-0.56h0.08v1.36h-0.08v-0.56l-0.08-0.08zm0-45.52h-0.08v0.64h-0.08v-1.36h0.08v0.64h1.76l0.08-0.08v-0.56h0.08v1.36h-0.08v-0.56l-0.08-0.08zm0-45.52-0.08 0.08v0.64h-0.08v-1.36h0.08v0.56l0.08 0.08h1.6l0.16-0.16v-0.48h0.08v1.36h-0.08v-0.56l-0.16-0.16zm0-90.96h-0.08v0.64h-0.08v-1.36h0.08v0.64h1.76l0.08-0.08v-0.56h0.08v1.36h-0.08v-0.56l-0.08-0.08zm0 45.52h-0.08v0.64h-0.08v-1.36h0.08v0.64h1.76l0.08-0.08v-0.56h0.08v1.36h-0.08v-0.56l-0.08-0.08zm359.12-77.68h-15.28m43.36 3.68v-4.56m30.56 202.08v-2h5.92m-174.64 45.76h52.72m-10.16-0.24h8.4m-10.48 0h1.68m-5.92 0h3.76m-8 0h3.84m-5.92 0h1.68m-5.92 0h3.84m-18.56 0h10.16m0.4 0h3.76m-18.48 0h3.76m-8 0h3.84m-6.4-1.12v1.36m50.96-1.2zm0 1.2v-1.2h0.4v1.2zm0-0.24v-0.08m0.4 0.08v-0.08m-9.2-0.88zm0 1.2v-1.2h0.4v1.2zm0-0.24v-0.08m0.4 0.08v-0.08m-2.56-0.88zm0 1.2v-1.2h0.48v1.2zm0-0.24v-0.08m0.4 0.08h0.08m-4.64-0.96zm0 1.2v-1.2h0.4v1.2zm0-0.24v-0.08m0.4 0.08v-0.08m-4.64-0.88zm0 1.2v-1.2h0.4v1.2zm0-0.24v-0.08m0.4 0.08v-0.08m-2.48-0.88zm0 1.2v-1.2h0.4v1.2zm0-0.24v-0.08m0.4 0.08v-0.08m-4.64-0.88zm0 1.2v-1.2h0.4v1.2zm0-0.24v-0.08m0.4 0.08v-0.08m-4.56-0.88zm0 1.2v-1.2h0.4v1.2zm0-0.24v-0.08m0.4 0.08v-0.08m-10.96-0.88zm0 1.2v-1.2h0.4v1.2zm0-0.24v-0.08m0.4 0.08v-0.08m-4.56-0.88zm0 1.2v-1.2h0.4v1.2zm0-0.24v-0.08m0.4 0.08v-0.08m-6.72-0.88zm0 1.2v-1.2h0.4v1.2zm0-0.24v-0.08m0.4 0.08v-0.08m268.56-45.04h-5.28m30.64 0v1.28m-1.92-1.28v-2h51.76m-200.32 1.6h-6.72m8.32-1.6h-34.48m32.88 1.6v2h24.8m-1.6-3.6v2h-21.6m0-2v2m146.96 0h-21.52m-1.92 0v1.28m-216.48-256.72h4.08m0.4 0h1.68m0.4 0h3.84m0.4 0h10.08m0.48 0h10.08m0.4 0h3.76m0.48 0h1.68m0.4 0h3.76m0.4 0h1.76m0.4 0h3.76m0.4 0h3.84m0.4 0h10.08m0.4 0h1.68m0.48 0h3.76m0.4 0h3.84m0.4 0h10.08m0.4 0h8.24m-88.56 1.04zm0-1.28v1.28h0.4v-1.28zm0 0.24v-0.08m0.4 0.08v-0.08m1.68 1.12zm0-1.28v1.28h0.4v-1.28zm0 0.24v-0.08m0.4 0.08v-0.08m31.6 1.12zm0-1.28v1.28h-0.4v-1.28zm0 0.24v-0.08m-0.4 0.08v-0.08m-1.68 1.12zm0-1.28v1.28h-0.48v-1.28zm0 0.24v-0.08m-0.48 0.08v-0.08m8.48 1.12zm0-1.28v1.28h0.4v-1.28zm0 0.24v-0.08m0.4 0.08v-0.08m3.76 1.12zm0-1.28v1.28h0.4v-1.28zm0 0.24v-0.08m0.4 0.08v-0.08m16.4 1.12zm0-1.28v1.28h0.48v-1.28zm0.08 0.24h-0.08m0.48 0v-0.08m3.76 1.12zm0-1.28v1.28h0.4v-1.28zm0 0.24v-0.08m0.4 0.08v-0.08m-58.88 1.12zm0-1.28v1.28h-0.4v-1.28zm0 0.24v-0.08m-0.4 0.08v-0.08m10.96 1.12zm0-1.28v1.28h-0.48v-1.28zm-0.08 0.24h0.08m-0.48 0v-0.08m10.96 1.12zm0-1.28v1.28h-0.4v-1.28zm0 0.24v-0.08m-0.4 0.08v-0.08m10.88 1.12zm0-1.28v1.28h-0.4v-1.28zm0 0.24v-0.08m-0.4 0.08v-0.08m10.96 1.12zm0-1.28v1.28h-0.4v-1.28zm0 0.24v-0.08m-0.4 0.08v-0.08m10.88 1.12zm0-1.28v1.28h-0.4v-1.28zm0 0.24v-0.08m-0.4 0.08v-0.08m10.96 1.12zm0-1.28v1.28h-0.4v-1.28zm0 0.24v-0.08m-0.4 0.08v-0.08m181.52 0.08h1.68m0.4 0h2.96m-3.36 0h-1.68zm-2.08 1.04zm0-1.28v1.28h0.4v-1.28zm0 0.24v-0.08m0.4 0.08v-0.08m1.68 1.12zm0-1.28v1.28h0.4v-1.28zm0 0.24v-0.08m0.4 0.08v-0.08m-12.64 0.08h1.76m0.4 0h3.76m-5.92 0h1.76m0.4 1.04zm0-1.28v1.28h-0.4v-1.28zm0 0.24v-0.08m-0.4 0.08v-0.08m-1.76 1.12zm0-1.28v1.28h-0.4v-1.28zm0 0.24v-0.08m-0.4 0.08v-0.08m-125.76 0.08h1.68m0.4 0h3.76m99.36 0h3.76m0.4 0h1.68m-81.6 0h3.76m0.48 0h3.76m-29.04 0h3.76m0.48 0h3.76m-3.76 1.04zm0-1.28v1.28h-0.48v-1.28zm-0.08 0.24h0.08m-0.48 0v-0.08m-3.76 1.12zm0-1.28v1.28h-0.4v-1.28zm0 0.24v-0.08m-0.4 0.08v-0.08m-5.92 1.12zm0-1.28v1.28h-0.4v-1.28zm0 0.24v-0.08m-0.4 0.08v-0.08m-1.68 1.12zm0-1.28v1.28h-0.4v-1.28zm0 0.24v-0.08m-0.4 0.08v-0.08m-20.64 0.08h3.76m0.4 0h1.68m-1.68 1.04zm0-1.28v1.28h-0.4v-1.28zm0 0.24v-0.08m-0.4 0.08v-0.08m-3.76 1.12zm0-1.28v1.28h-0.4v-1.28zm0 0.24v-0.08m-0.4 0.08v-0.08m-152.88 0.08h-1.68m5.84 0h-3.76m-21.44 0h-1.68m5.84 0h-3.76m-8.8 0h-3.84m5.92 0h-1.68m2.08 0v-0.08m0 1.6zm0-1.76v1.76h-0.4v-1.76zm-2.48 0.24v-0.08m0.4 0.08v-0.08m0 1.6zm0-1.76v1.76h-0.4v-1.76zm-21.44 0.24h-3.84m8 0h-3.76m5.92 0h-1.68m-0.48 0h-3.76zm0.48 0v-0.08m0 1.6zm0-1.76v1.76h-0.48v-1.76zm-4.64 0.24v-0.08m0.4 0.08v-0.08m0 1.6zm0-1.76v1.76h-0.4v-1.76zm-21.44 0.24h-3.84m8 0h-3.76zm0.48 0v-0.08m0 1.6zm0-1.76v1.76h-0.48v-1.76zm-4.64 0.24v-0.08m0.4 0.08v-0.08m0 1.6zm0-1.76v1.76h-0.39999v-1.76zm-84.56 0.24h-3.76m8 0h-3.84m-42.48 0h-3.76m5.84 0h-1.68m2.16 0v-0.08m0 1.6zm0-1.76v1.76h-0.47999v-1.76zm-2.56 0.24v-0.08m0.4 0.08v-0.08m0 1.6zm0-1.76v1.76h-0.39999v-1.76zm-21.44 0.24h-3.76m8 0h-3.84m4.24 0v-0.08m0 1.6zm0-1.76v1.76h-0.39999v-1.76zm-4.64 0.24v-0.08m0.4 0.08v-0.08m0 1.6zm0-1.76v1.76h-0.39999v-1.76zm-97.12 0.24h-1.68m5.84 0h-3.76m-0.4 0v-0.08m0.4 0.08v-0.08m0 1.6zm0-1.76v1.76h-0.39998v-1.76zm3.76 0.24v-0.08m0.4 0.08v-0.08m0 1.6zm0-1.76v1.76h-0.39998v-1.76zm16.48 0.24h-1.76m5.92 0h-3.76m-0.4 0v-0.08m0.4 0.08v-0.08m0 1.6zm0-1.76v1.76h-0.39999v-1.76zm3.76 0.24v-0.08m0.4 0.08v-0.08m0 1.6zm0-1.76v1.76h-0.40007v-1.76zm-34.08 0.24h-3.76m5.92 0h-1.68m2.08 0v-0.08m0 1.6zm0-1.76v1.76h-0.40006v-1.76zm-2.56 0.24v-0.08m0.48 0.08v-0.08m0 1.6zm0-1.76v1.76h-0.48006v-1.76zm-21.52 0.24h-3.76m8 0h-3.76m4.16 0v-0.08m0 1.6zm0-1.76v1.76h-0.39998v-1.76zm-4.56 0.24h-0.08m0.48 0v-0.08m0 1.6zm0-1.76v1.76h-0.47998v-1.76zm660.72 24.72v7.84m-1.04-14.56v0.39999h1.28v-0.39999zm1.04 0v-0.08m0 0.48v-0.08m-1.04 1.76v0.39999h1.28v-0.39999zm1.04 0v-0.08m0 0.48v-0.08m-265.68-20.16h-10.08m-10.96 0h-10.08m12.16 0h-1.68m5.92 0h-3.76m7.92 0h-3.76m-27.76 0h-3.76m-21.52 0h-3.76m39.52 0h-10.08m-21.44 0h-3.76m16.8 0h3.76m-6.24 0h-10.16m-10.88 0h-3.84m-16.8 0h10.08m-31.12 0h10.08m-10.48 0h-1.68m-8.88 0h-10.08m-10.96 0h-10.08m12.24 0h-1.68m5.84 0h-3.76m8 0h-3.84m-27.76 0h-10.08m14.32 0h-3.76m7.92 0h-3.76m5.92 0h-1.68m-29.92 0h-10.08m14.32 0h-3.76m5.84 0h-1.68m5.92 0h-3.84m-17.2 0h-1.68m-19.36 0h-10.08m20.56 0h-10.08m-17.2 0h-3.84m5.92 0h-1.68m5.84 0h-3.76m-6.72 0h-3.76m-17.28 0h-1.68m2.08 0h10.08m-31.12 0h10.16m-21.04 0h-10.16m14.32 0h-3.76m8 0h-3.84m5.92 0h-1.68m-29.84 0h-10.16m12.24 0h-1.68m5.84 0h-3.76m8 0h-3.76m-27.76 0h-3.84m14.32 0h-10.08m-21.44 0h-3.84m14.32 0h-10.08m-10.96 0h-3.76m-17.28 0h-1.68m2.16 0h10.08m-31.6 0h-8.24m8.72 0h10.08m400.08 0h4.72m-19.84 0v-0.08m0.4 0.08v-0.08m0 1.6zm0-1.76v1.76h-0.4v-1.76zm-4.64 0.24v-0.08m0.48 0.08v-0.08m0 1.6zm0-1.76v1.76h-0.48v-1.76zm-53.04 0.24v-0.08m0.4 0.08v-0.08m0 1.6zm0-1.76v1.76h-0.4v-1.76zm3.84 0.24h-0.08m0.48 0v-0.08m0 1.6zm0-1.76v1.76h-0.48v-1.76zm16.8 0.24v-0.08m-0.4 0.08v-0.08m0 1.6zm0-1.76v1.76h0.4v-1.76zm4.64 0.24v-0.08m-0.48 0.08v-0.08m0 1.6zm0-1.76v1.76h0.48v-1.76zm-94.64 0.24v-0.08m0.4 0.08v-0.08m0 1.6zm0-1.76v1.76h-0.39999v-1.76zm-4.56 0.24v-0.08m0.4 0.08v-0.08m0 1.6zm0-1.76v1.76h-0.40003v-1.76zm-15.12 0.24h-0.08m0.48 0v-0.08m0 1.6zm0-1.76v1.76h-0.47999v-1.76zm-4.64 0.24v-0.08m0.4 0.08v-0.08m0 1.6zm0-1.76v1.76h-0.39999v-1.76zm-19.36 0.24v-0.08m0.4 0.08v-0.08m0 1.6zm0-1.76v1.76h-0.39999v-1.76zm-2.48 0.24v-0.08m0.4 0.08v-0.08m0 1.6zm0-1.76v1.76h-0.39999v-1.76zm-16.8 0.24v-0.08m-0.4 0.08v-0.08m0 1.6zm0-1.76v1.76h0.39998v-1.76zm-3.84 0.24v-0.08m-0.4 0.08v-0.08m0 1.6zm0-1.76v1.76h0.39998v-1.76zm-29.44 0.24v-0.08m0.4 0.08v-0.08m0 1.6zm0-1.76v1.76h-0.39999v-1.76zm-2.48 0.24v-0.08m0.4 0.08v-0.08m0 1.6zm0-1.76v1.76h-0.39999v-1.76zm-48.8 0.24v-0.08m0.4 0.08v-0.08m0 1.6zm0-1.76v1.76h-0.39999v-1.76zm-4.64 0.24v-0.08m0.4 0.08v-0.08m0 1.6zm0-1.76v1.76h-0.39999v-1.76zm-19.28 0.24h-0.08m0.48 0v-0.08m0 1.6zm0-1.76v1.76h-0.47999v-1.76zm-4.64 0.24v-0.08m0.4 0.08v-0.08m0 1.6zm0-1.76v1.76h-0.39999v-1.76zm313.04 0.24v-0.08m0.4 0.08v-0.08m0 1.6zm0-1.76v1.76h-0.4v-1.76zm-10.88 0.24h-0.08m0.48 0v-0.08m0 1.6zm0-1.76v1.76h-0.48v-1.76zm-10.96 0.24v-0.08m0.4 0.08v-0.08m0 1.6zm0-1.76v1.76h-0.4v-1.76zm-389.6 0.24v-0.08m0.48 0.08v-0.08m0 1.6zm0-1.76v1.76h-0.47998v-1.76zm10.08 0.24v-0.08m0.4 0.08v-0.08m0 1.6zm0-1.76v1.76h-0.39998v-1.76zm10.08 0.24v-0.08m0.48 0.08v-0.08m0 1.6zm0-1.76v1.76h-0.47998v-1.76zm10.08 0.24v-0.08m0.4 0.08v-0.08m0 1.6zm0-1.76v1.76h-0.40006v-1.76zm10.08 0.24v-0.08m0.4 0.08h0.08m0 1.52zm0-1.76v1.76h-0.47998v-1.76zm10.08 0.24v-0.08m0.4 0.08v-0.08m0 1.6zm0-1.76v1.76h-0.39998v-1.76zm10.08 0.24v-0.08m0.4 0.08v-0.08m0 1.6zm0-1.76v1.76h-0.39999v-1.76zm10.16 0.24v-0.08m0.4 0.08v-0.08m0 1.6zm0-1.76v1.76h-0.40007v-1.76zm10.08 0.24v-0.08m0.4 0.08v-0.08m0 1.6zm0-1.76v1.76h-0.39999v-1.76zm10.16 0.24v-0.08m0.4 0.08v-0.08m0 1.6zm0-1.76v1.76h-0.39999v-1.76zm10.08 0.24v-0.08m0.4 0.08v-0.08m0 1.6zm0-1.76v1.76h-0.39999v-1.76zm10.16 0.24v-0.08m0.4 0.08v-0.08m0 1.6zm0-1.76v1.76h-0.40007v-1.76zm10.08 0.24v-0.08m0.4 0.08v-0.08m0 1.6zm0-1.76v1.76h-0.39999v-1.76zm10.16 0.24v-0.08m0.4 0.08v-0.08m0 1.6zm0-1.76v1.76h-0.39999v-1.76zm10.08 0.24v-0.08m0.4 0.08v-0.08m0 1.6zm0-1.76v1.76h-0.39999v-1.76zm10.16 0.24h-0.08m0.48 0v-0.08m0 1.6zm0-1.76v1.76h-0.48007v-1.76zm10.08 0.24v-0.08m0.4 0.08v-0.08m0 1.6zm0-1.76v1.76h-0.39999v-1.76zm10.16 0.24h-0.08m0.48 0v-0.08m0 1.6zm0-1.76v1.76h-0.47999v-1.76zm10.08 0.24v-0.08m0.4 0.08v-0.08m0 1.6zm0-1.76v1.76h-0.39999v-1.76zm10.08 0.24v-0.08m0.48 0.08v-0.08m0 1.6zm0-1.76v1.76h-0.47999v-1.76zm10.08 0.24v-0.08m0.4 0.08v-0.08m0 1.6zm0-1.76v1.76h-0.39999v-1.76zm10.08 0.24v-0.08m0.48 0.08v-0.08m0 1.6zm0-1.76v1.76h-0.47999v-1.76zm10.08 0.24v-0.08m0.4 0.08v-0.08m0 1.6zm0-1.76v1.76h-0.40007v-1.76zm10.08 0.24v-0.08m0.4 0.08h0.08m0 1.52zm0-1.76v1.76h-0.48003v-1.76zm10.08 0.24v-0.08m0.4 0.08v-0.08m0 1.6zm0-1.76v1.76h-0.39999v-1.76zm10.08 0.24v-0.08m0.4 0.08h0.08m0 1.52zm0-1.76v1.76h-0.48003v-1.76zm10.08 0.24v-0.08m0.4 0.08v-0.08m0 1.6zm0-1.76v1.76h-0.39999v-1.76zm10.08 0.24v-0.08m0.4 0.08v-0.08m0 1.6zm0-1.76v1.76h-0.39999v-1.76zm10.16 0.24v-0.08m0.4 0.08v-0.08m0 1.6zm0-1.76v1.76h-0.4v-1.76zm10.08 0.24v-0.08m0.4 0.08v-0.08m0 1.6zm0-1.76v1.76h-0.4v-1.76zm10.16 0.24v-0.08m0.4 0.08v-0.08m0 1.6zm0-1.76v1.76h-0.4v-1.76zm10.08 0.24v-0.08m0.4 0.08v-0.08m0 1.6zm0-1.76v1.76h-0.4v-1.76zm10.16 0.24v-0.08m0.4 0.08v-0.08m0 1.6zm0-1.76v1.76h-0.4v-1.76zm10.08 0.24v-0.08m0.4 0.08v-0.08m0 1.6zm0-1.76v1.76h-0.4v-1.76zm10.16 0.24v-0.08m0.4 0.08v-0.08m0 1.6zm0-1.76v1.76h-0.4v-1.76zm10.08 0.24v-0.08m0.4 0.08v-0.08m0 1.6zm0-1.76v1.76h-0.4v-1.76zm10.16 0.24h-0.08m0.48 0v-0.08m0 1.6zm0-1.76v1.76h-0.48v-1.76zm36.64 1.76h-424.48m0.08-1.52v-0.08m0.4 0.08v-0.08m0 1.6zm0-1.76v1.76h-0.39998v-1.76zm423.6 0.24v-0.08m0.4 0.08v-0.08m0 1.6zm0-1.76v1.76h-0.4v-1.76zm187.92 1.28h-0.8m63.68-1.04h3.84m-24.88 0h10.16m0.4 0h3.76m-25.2 0h-10.16m10.56 0h3.76m-24.8 0h3.76m0.48 0h3.76m0.4 0h1.68m-31.12 0h1.68m0.4 0h3.84m0.4 0h3.76m0.48 0h10.08m-41.68 0h10.08m0.48 0h10.08m-31.6 0h-10.08m10.56 0h1.68m-22.72 0h1.68m-22.72 0h10.08m0.4 0h3.84m-24.88 0h3.84m126.16 1.04zm0-1.28v1.28h0.48v-1.28zm0 0.24v-0.08m0.4 0.08h0.08m3.76 1.04zm0-1.28v1.28h0.4v-1.28zm0 0.24v-0.08m0.4 0.08v-0.08m-21.04 1.12zm0-1.28v1.28h-0.4v-1.28zm0 0.24v-0.08m-0.4 0.08v-0.08m-3.76 1.12zm0-1.28v1.28h-0.48v-1.28zm0 0.24v-0.08m-0.48 0.08v-0.08m-18.48 1.12zm0-1.28v1.28h-0.4v-1.28zm0 0.24v-0.08m-0.4 0.08v-0.08m-3.84 1.12zm0-1.28v1.28h-0.4v-1.28zm0 0.24v-0.08m-0.4 0.08v-0.08m-31.52 1.12zm0-1.28v1.28h0.4v-1.28zm0 0.24v-0.08m0.4 0.08v-0.08m3.76 1.12zm0-1.28v1.28h0.48v-1.28zm0 0.24v-0.08m0.4 0.08h0.08m108.4 32.32v-32.56m-1.28 32.56v-31.04m1.04-1.2v9.2m-1.28-8.24h0.24v0.24l0.88-0.88v-0.24h-0.24zm1.12-0.96v0.08l0.16-0.08-0.08-0.08zm-260 0.96h258.88m1.52-1.28h-684.88m508.88 1.28zm0-1.28v1.28h-0.4v-1.28zm0 0.24v-0.08m-0.4 0.08v-0.08m30.08 1.12zm0-1.28v1.28h-0.4v-1.28zm0 0.24v-0.08m-0.4 0.08v-0.08m-10.08 1.12zm0-1.28v1.28h-0.48v-1.28zm0 0.24v-0.08m-0.4 0.08h-0.08m-10.08 1.04zm0-1.28v1.28h-0.4v-1.28zm0 0.24v-0.08m-0.4 0.08v-0.08m31.36 1.12h0.8m-0.16 0zm0-1.28v1.28h-0.48v-1.28zm0 0.24v-0.08m-0.48 0.08v-0.08m21.52 1.12zm0-1.28v1.28h-0.48v-1.28zm0 0.24v-0.08m-0.48 0.08v-0.08m-10.08 1.12zm0-1.28v1.28h-0.4v-1.28zm0 0.24v-0.08m-0.4 0.08v-0.08m21.44 1.12zm0-1.28v1.28h-0.4v-1.28zm0 0.24v-0.08m-0.4 0.08v-0.08m10.96 1.12zm0-1.28v1.28h-0.48v-1.28zm-0.08 0.24h0.08m-0.48 0v-0.08m10.96 1.12zm0-1.28v1.28h-0.4v-1.28zm0 0.24v-0.08m-0.4 0.08v-0.08m10.32 1.12h0.8m10.32 0zm0-1.28v1.28h-0.4v-1.28zm0 0.24v-0.08m-0.4 0.08v-0.08m-10.08 1.12zm0-1.28v1.28h-0.48v-1.28zm-0.08 0.24h0.08m-0.48 0v-0.08m21.44 1.12zm0-1.28v1.28h-0.4v-1.28zm0 0.24v-0.08m-0.4 0.08v-0.08m21.44 1.12zm0-1.28v1.28h-0.4v-1.28zm0 0.24v-0.08m-0.4 0.08v-0.08m-10.08 1.12zm0-1.28v1.28h-0.4v-1.28zm0 0.24v-0.08m-0.4 0.08v-0.08m31.92 1.12zm0-1.28v1.28h-0.4v-1.28zm0 0.24v-0.08m-0.4 0.08v-0.08m-10.08 1.12zm0-1.28v1.28h-0.4v-1.28zm0 0.24v-0.08m-0.4 0.08v-0.08m19.2 13.6v0.39999h1.28v-0.39999zm1.04 0v-0.08m0 0.48v-0.08m-1.04 13.12v-0.8m1.04-5.92v3.84m0-5.92v1.68m0-5.92v3.84m0-8v3.76m-1.04 18.8v0.47999h1.28v-0.47999zm1.04 0v-0.08m0 0.48v0.08m-1.04-8.72v0.39999h1.28v-0.39999zm1.04 0v-0.08m0 0.48v-0.08m-1.04-15.12v0.48007h1.28v-0.48007zm1.04 0.08v-0.08m0 0.48v-0.08m-47.36 264.72v11.76m-1.6-18.56v-12.16m-1.92 12.16v-6.88m3.52 13.68h-3.52m3.28-0.4zm0 0.4v-0.40003h-1.84v0.40003zm0-6.8zm0 0.4v-0.39999h-1.84v0.39999zm5.92 6-0.16-1.36-0.4-1.28-0.72-1.12-0.88-0.96-1.12-0.72-1.28-0.48-1.36-0.08m0 6h5.92m-5.68-6.4h-3.52m-2.96-208.08h-18.08m-267.28 239.92h24.64m261.68-241.44v-0.16h2.48m-2.4 0.16v-0.08m0 2.24h1.04l0.08-0.08v-2l-0.08-0.08h-1.12m0.08 2.16h-0.08m2.48-2.32v0.16h-1.04l-0.16 0.16v1.84l0.16 0.16h1.04v0.16h-2.48v-0.16m-39.6-2.32v0.16h-1.04l-0.16 0.16v1.84l0.16 0.16h1.04v0.16h-2.4v-0.16h1.04l0.08-0.08v-2l-0.08-0.08h-1.04v-0.16zm-42.08 0v0.16h-1.04l-0.08 0.08v2l0.08 0.08h1.04v0.16h-2.4v-0.16h1.04l0.08-0.08v-2l-0.08-0.08h-1.04v-0.16zm-86.24 39.6v0.96h1.76l0.08-0.08v-0.88h0.08v2m-1.92-2h-0.08m0 2h-0.08v-2h0.08m0.08 2v-0.08m1.92 0.08h-0.08v-0.88l-0.08-0.08h-1.76v0.96h-0.08m1.92 37.36v-0.08h0.08v2.08m-1.92-2v0.88l0.08 0.08h1.6l0.16-0.16v-0.88m-1.84 0.08-0.08-0.08m0 2.08h-0.08v-2.08h0.08m0 2.08h0.08v-0.08m1.84 0.08v-0.88l-0.08-0.08h-1.76v0.88m1.92 0.08h-0.08v-0.08m250.24 116v-0.16h2.48m-2.48 0.16h0.08m0 2.16h1.04l0.08-0.08v-2l-0.08-0.08h-1.04m-0.08 2.16v-0.08m2.48-2.24v0.16h-1.04l-0.16 0.16v1.84l0.16 0.16h1.04v0.16h-2.48v-0.16h0.08m-42.16-2.16v-0.16h2.48m-2.48 0.16h0.08m0 2.16h1.04l0.08-0.08v-2l-0.08-0.08h-1.04m-0.08 2.16v-0.08m2.48-2.24v0.16h-1.04l-0.16 0.16v1.84l0.16 0.16h1.04v0.16h-2.48v-0.16h0.08m-42.16-2.16v-0.16h2.48m-2.4 0.16v-0.08m0 2.24h1.04l0.08-0.08v-2l-0.08-0.08h-1.12m0.08 2.16h-0.08m2.48-2.32v0.16h-1.04l-0.16 0.16v1.84l0.16 0.16h1.04v0.16h-2.48v-0.16m-42.08-2.16v-0.16h2.48m-2.4 0.16v-0.08m0 2.24h1.04l0.08-0.08v-2l-0.08-0.08h-1.12m0.08 2.16h-0.08m2.48-2.32v0.16h-1.04l-0.08 0.08v2l0.08 0.08h1.04v0.16h-2.48v-0.16m-39.52 0v0.16h-2.48v-0.16h1.04l0.08-0.08v-2l-0.08-0.08h-1.04v-0.16h2.48m-0.08 2.32v-0.08m0-2.08h-1.04l-0.08 0.08v2l0.08 0.08h1.12m-0.08-2.16h0.08m0-0.16v0.16m-42.08 2.16v0.16h-2.48v-0.16h1.04l0.16-0.16v-1.84l-0.16-0.16h-1.04v-0.16h2.48m-0.08 2.32v-0.08m0-2.08h-1.04l-0.08 0.08v2l0.08 0.08h1.12m-0.08-2.16h0.08m0-0.16v0.16m124.4 28.32h0.48l0.08-0.08v-1.68l-0.16-0.16h-0.4v-0.08h1.12m0 2.08h-1.12m1.04 0v-0.08m0-1.92h-0.32l-0.16 0.16v1.68l0.08 0.08h0.4m0.08-2v0.08m-43.2 1.92h0.48l0.08-0.08v-1.68l-0.16-0.16h-0.4v-0.08h1.12m0 2.08h-1.12m1.04 0v-0.08m0-1.92h-0.32l-0.16 0.16v1.68l0.08 0.08h0.4m0.08-2v0.08m-43.2 0v-0.08h1.12m-1.04 2.08v-0.08h0.4l0.08-0.08v-1.68l-0.16-0.16h-0.32m1.04 2h-1.12m1.04 0v-0.08m0-1.92h-0.32l-0.16 0.16v1.68l0.08 0.08h0.4m0.08-2v0.08m-83.44 18.4v0.16h-2.48v-0.16h1.04l0.16-0.16v-1.84l-0.16-0.16h-1.04v-0.16h2.48m-0.08 2.32v-0.08m0-2.08h-1.04l-0.08 0.08v2l0.08 0.08h1.12m-0.08-2.16h0.08m0-0.16v0.16m-122.48 183.52v-0.08h2m-2 0.08h0.08m0 1.84h0.88v-1.76l-0.08-0.08h-0.8m-0.08 1.92v-0.08m2 0.08v0.08h-2v-0.08l0.08-0.08m1.92 0.08v-0.08m0-1.92v0.08h-0.8l-0.16 0.16v1.6l0.08 0.08h0.88m-43.04 0.08v-0.08h0.88l0.08-0.08v-1.6l-0.16-0.16h-0.8v-0.08h2m0 2v0.08h-2v-0.16m2 0.08v-0.08m0-1.92v0.08h-0.88l-0.08 0.08v1.76h0.96m-181.6-427.28v-0.08m0 1.6v-1.52l0.08-0.08m-0.08 1.6h0.08m1.52-1.52v1.52h-1.52m1.52-1.52v-0.08m-1.52 0h1.52m-1.52 0h-0.08v0.08m0 1.52v-1.52m0 1.52v0.08h0.08m1.52 0h-1.52m1.52 0h0.08v-0.08m0-1.52v1.52m0-1.52v-0.08h-0.08m-1.52 0h1.52m-44.24 0.08v-0.08m0 1.6v-1.52l0.08-0.08m-0.08 1.6h0.08m1.52-1.52v1.52h-1.52m1.52-1.52v-0.08m-1.52 0h1.52m-1.52 0h-0.08v0.08m0 1.52v-1.52m0 1.52v0.08h0.08m1.52 0h-1.52m1.52 0 0.08-0.08m0-1.52v1.52m-0.08-1.6v-0.08m-1.52 0.08h1.52l0.08 0.08m-83.76 0v-0.08m1.52 1.6h-1.52v-1.6m1.6 1.6v-0.08m0-1.44v1.52h-0.08m0.08-1.52-0.08-0.08m-1.52 0h1.52m-1.52 0-0.08 0.08m0 1.52v-1.52m0.08 1.6v-0.08m1.52 0.08h-1.52l-0.08-0.08m1.6 0.08h0.08v-0.08m0-1.52v1.52m0-1.52v-0.08h-0.08m-1.52 0h1.52m-0.08 405.6v-372.16m483.36-49.76h24.88m0.88-0.88h-45.12m2.64 247.52v0.48h2.56m-3.04-1.44h1.68v-1.68m1.36 3.12v-1.68m-345.36 213.76v-15.68h138.88m-140.88-2.56v16.32m3.36 3.36h-30.4m331.2-202.24h1.12m-1.04 0v-0.08m0 2.08h0.32l0.16-0.08v-1.84h-0.48m1.04 0h-0.48l-0.08 0.08v1.68l0.16 0.16h0.4-1.12m1.12-2v-0.08m-57.84 0.08h1.04m0 0.08h-0.48v1.84l0.08 0.08h0.4-1.04 0.4l0.08-0.08v-1.84h-0.48m1.04-0.08v-0.08m-24.48 155.12v-154.96h-2m-338.56-208.8v-0.88m45.52 1.28v4.08h1.28v-4.08m0.56 4.56zm0-6.8v6.8h-2.4v-6.8zm-48.24 1.12h-3.84m4.72-0.88h-4.72m4.72 12.56v-10.96m419.76 210.72h-1.28m0-14.96h29.6m-107.52 16.32h26.48m-3.76-16.32v14.96m-1.28-14.96v13.84m96.72-246.32v7.68m0.96-15.28v0.96m17.44 11.44h-15.28m-430.4 424v-7.04h-8.56m2.08 1.36v4m0.16-4v4m0.4 0v0.40003h-2.24v-0.40003zm0-4.4v0.39999h-2.24v-0.39999zm-2.64-12.64h11.84m-11.84-0.32h11.52m-39.68-11.04h114.24m11.68 29.28h-4.08m-83.12 16.32h13.6m72.88-12.4v15.76m-86.48-1.44h13.6m-51.92-498.8h-2.48m2.08 2.08h0.4m0-1.28h-1.68m-0.32-15.36v14.56m2-15.52v15.76m-3.84 55.44zm0 7.04v-7.04h4.4v7.04zm-0.96-8zm0 8.96v-8.96h6.24v8.96zm3.76-4.72-0.08-0.08h-0.64v-0.16h1.36v0.16h-0.56l-0.08 0.08v1.36l0.08 0.08h0.56v0.16h-1.36v-0.16h0.64l0.08-0.08zm125.76-1.04h0.64m-3.6 4.08h3.6m-2.64-0.96h2.64m-1.68-2.08v-0.08h-0.64v-0.16h1.36v0.16h-0.64v1.52h0.64v0.16h-1.36v-0.16h0.64zm-42.64 0-0.08-0.08h-0.56v-0.16h1.36v0.16h-0.64l-0.08 0.08v1.36l0.08 0.08h0.64v0.16h-1.36v-0.16h0.56l0.08-0.08zm-1.04 2.08h2.08m-43.12 421.68zm0-2.08v2.08h1.6799v-2.08zm306.48-27.6h1.36m77.84-166.8h41.6m-341.44 198.24h137.52m82.32-422.72v34.96m3.04-34.96h-2.96m21.68-3.36h-18.72m116.48 158.64v7.12m0-125.12v117.92m178.72-154.96h-30.16m-148.56 162.16h0.48v1.68h-0.48m0 0v28.24m-11.2-208.8h-0.96v3.28h0.96v148.8m29.04-157.76h-17.44m-11.6 216.4h0.88m22.48-0.4h-1.68m1.68-1.6h-10.56m16.24-214.4h-17.44m18.4 2v-2m-0.96 2v-2m-219.68 441.6h81.12v-28.16m-264.32-391.04h3.84m-0.88-6.24v5.28m0-5.28h-2.08v5.28m503.52 194.56v0.4h3.52v-0.4h1.6v3.04m30.16-4.64v1.6m-152.56 44.64v-0.32002h0.96v0.32002zm0.64-13.2v12.88m0.32 0.32v-13.2m-0.64 0v12.88m-0.32-12.88v-0.32003h0.96v0.32003zm0 0v13.36m-0.64 0.64h-20m0 0.32h20m0-0.64h-20m0-0.32h20.64m-0.64 0zm0 0.96v-0.96h0.4v0.96zm-20.4-0.32h-20.24m0 0.32h20.24m0-0.64h-20.24m0-0.32h20.24m-20.56 0zm0 0.96v-0.96h0.32v0.96zm20.56-0.96zm0 0.96v-0.96h0.4v0.96zm-101.76-3.28v154.96m-81.12 31.44h84.48m-267.68-422.48v-7.2h3.84v7.2m39.76-0.96v-5.28h2v2.16m-2.96 0v-3.12h3.92v2.72m383.04-12.16v-6.64m-386.96 23.28v-4.08m345.44 242.32v1.12h-1.2m43.12-19.68v-1.2h-4.64v1.2h-38.72m80.8-2.32v2.32m4.64 0v-1.2h-3.68m86.24 0h-3.04v1.2m-37.44 0h37.44m-37.44 0v-1.2h-4.64v1.2m-105.68-26.08v-1.6m-18.8-193.76v38.72m209.52 157.04h-7.36m51.76-1.04h-2.32v1.04h-39.28m-2.8 0v-1.04m0 0h2.8v1.04m-167.36-0.4v3.04h-4.64v-3.04m127.12-0.64zm0 5.36v-5.36h2.8v5.36zm-84.08-5.36zm0 5.36v-5.36h2.72v5.36zm-42.08-5.36zm0 2.8v-2.8h2.8v2.8zm-39.44-0.32v0.16h-2.48v-0.16h1.04l0.16-0.16v-1.84l-0.16-0.16h-1.04v-0.16h2.48m-0.08 2.32v-0.08m0-2.08h-1.04l-0.08 0.08v2l0.08 0.08h1.12m-0.08-2.16h0.08m0-0.16v0.16m-42.64 29.76v16.32m1.28-15.12v15.12m-374.48-213.68zm0 2v-2h1.68v2zm75.2-32.16v5.36h2v-3.36h19.6v14.96h-19.6v-0.16h-2v2.16h23.6v-18.96zm218.08 0h4.24m-2.24 395.52h-2m411.52-394.4h-35.44m77.52 0h-33.52m81.12 36.08v-30.56m0 69.92v-30.8m0 70.08v-30.72m0 70.08v-30.8m-81.12 103.12h33.28m-75.36 0h33.52m-75.6 0h33.52m-33.52 0v1.68h-8.56v-1.68h-33.52m84.16 0v1.68h-8.56v-1.68m50.64 0v1.68h-8.56v-1.68m50.48 1.68h-8.64v-1.68m0.24-226.4v-3.04h8.56v3.04m-50.64 0v-3.04h8.56v3.04m-763.92-56.56v52.64m-1.28-53.92v53.92m150.64 20.8h2.8m0.96 0.96h-3.76m362.08-16.4v-4.56m119.76 1.12zm0 5.36v-5.36h4.48v5.36zm0.88-4.4zm0 3.44v-3.44h2.64v3.44zm-85.04-4.4zm0 5.36v-5.36h4.48v5.36zm0.88-4.4zm0 3.44v-3.44h2.72v3.44zm41.2-3.68zm0 4.64v-4.64h4.48v4.64zm0.88-3.68zm0 2.72v-2.72h2.64v2.72zm39.12 224h-33.52m-50.56 0h-33.52m206.96-186v39.2m-1.92-38.24v37.28m1.92 1.12v39.2m-1.92-38.24v37.28m1.92 1.12v39.2m-1.92-38.24v37.28m1.92 1.12v37.84m-1.92-36.96v36.08m-252.56 0v-193.84m0.56 193.84v-36.24m0.4-171.6v-0.31999h-0.64v0.31999zm0 6.32v-0.31999h-0.64v0.31999zm0-0.32 1.36-0.08 1.28-0.48 1.2-0.64 0.96-0.96 0.72-1.12 0.48-1.28 0.24-1.36m0-0.08v0.08m-6.24-0.08h6.24m135.36 207.76h-67.12m-276.72 229.04v1.44m421.28-451.12v1.44m-230.64 183.04v22.56m-23.92-198.72h6.96m-19.04 0h11.76m-23.92 0h11.76m-23.92 0h11.84m-24 0h11.84m-17.76 0h5.6m48.88 0.8h6.96m-19.04 0h11.76m-23.92 0h11.76m-23.92 0h11.84m-24 0h11.84m-17.76 0h5.6m73.6 170.16v27.76m-0.8-40zm0-0.4v0.39998h0.64v-0.39998zm0 12.64zm0-0.32v0.31998h0.64v-0.31998zm-0.96 0.32h1.76m-0.8-15.28h0.88m0 0.32v2m-5.2-157.2zm0-0.64v0.64005h0.32v-0.64005zm-12.24 0.64zm0-0.64v0.64005h0.32v-0.64005zm176 19.04h-5.28m5.28-0.8h-5.28m-1.6 0zm0 0.8v-0.79997h0.32v0.79997zm-36.4-0.8v1.92m7.28-1.92zm0 0.8v-0.79997h-0.32v0.79997zm-110.64 0.16h41.12v-0.8m0.88 1.76h-42m103.36-1.92h-18m-43.36 0.16v1.76m208.4-0.96h-50.8m-96.24 0.96h-22.48m66.08-1.92v1.92m103.44 0h-51.76m3.04-18.56zm0 0.4v-0.39999h-0.64v0.39999zm0-7.36zm0 0.32v-0.31999h-0.64v0.31999zm52.08-3.36v25.2h-1.36m-99.36 196.32v0.63997h-0.4v-0.63997zm-0.4-6.08-1.28 0.24-1.28 0.48-1.04 0.72-0.96 0.96-0.64 1.12-0.48 1.28-0.16 1.28m5.84 0v-6.08m-12.24 6.08v0.63997h0.32v-0.63997zm6.4 0-0.16-1.36-0.4-1.28-0.72-1.12-0.96-0.96-1.12-0.72-1.28-0.48-1.36-0.16m-0.08 0h0.08m-0.08 6.08v-6.08m-123.84 5.84v-0.72002h0.32v0.72002zm-6.32 0v-0.72002h0.32v0.72002zm0.32 6.08h0.08l1.28-0.16 1.28-0.48 1.12-0.72 0.96-0.96 0.72-1.2 0.4-1.2 0.16-1.36m-6 0v6.08m-129.84 192.24v31.44m-84.48-3.28v1.92m374.96-225.04h81.6v-199.44m-87.28 222.72h2.8m-44.8 0h2.72m-86.88-0.08h2.8m-55.28-40.88h0.8m-0.8 3.36zm0-0.32v0.31998h0.64v-0.31998zm0 12.56zm0-0.32v0.31998h0.64v-0.31998zm12.8 11.92 1.36-0.16 1.28-0.4 1.12-0.72 0.96-0.96 0.72-1.12 0.48-1.28 0.16-1.36m0 0v-0.08m-6.08 0.08h6.08m-125.04 39.76v151.68m25.6-151.92h1.68m-1.76-0.96h51.04m-78.64-46.08h2.96v4.56h-2.96m16.8-40.8zm0-0.64v0.64001h0.32v-0.64001zm-12.32 0.64zm0-0.64v0.64001h0.32v-0.64001zm0-0.16h-1.52m19.12-68.96zm0 0.32v-0.31999h0.64v0.31999zm0.64 0h-0.8m0.16-12.96zm0 0.4v-0.39991h0.64v0.39991zm0.64-1.2h-10.56m9.76-23.36h0.8m-0.64 12.24zm0 0.32v-0.31999h0.64v0.31999zm0-12.56zm0 0.32v-0.32007h0.64v0.32007zm-5.2-21.84h4.8m-104.08 391.44h-135.52m-1.28-258.8v-40.24m1.28 30.72v9.12m0-19.6v10.16m0-20.64v10.16m0-19.52v9.04m-0.8 21.28v9.12m0-19.6v10.16m0-20.64v10.16m0-19.52v9.04m0.4 30.4v-9.04m0-0.4v-10.16m0-0.32v-10.16m-0.4 30.48zm0-0.4v0.39998h0.80005v-0.39998zm-4.56-163.04h-38.16m38.16-0.88h-38.16m-2.16 31.2h0.88v-0.88m0-26.4v26.08m-0.88-26.08v26.08m-28.56 0.32h28.24m-28.24 0.48h28.24m-28.56 0.4zm0-0.88v0.87996h0.32007v-0.87996zm28.56 0.88zm0-0.88v0.87996h0.31999v-0.87996zm-31.28 0.88v-0.88h0.32v0.88m-44.96 0h44.96m-44.96-0.88h44.64m295.12 170.24v39.44m0-78.8v34.8m0-74.16v34.88m0-74.24v34.88m0-74.16v34.8m-0.32-38.4zm0 2.64v-2.64h2.4v2.64zm0.4-3.6h2.96v4.56h-2.96m-0.4 35.76zm0 2.64v-2.64h2.4v2.64zm0.4-3.6h2.96v4.48h-2.96m-0.4 35.76zm0 2.64v-2.64h2.4v2.64zm0.4-3.52h2.96v4.48h-2.96m-0.4 35.76zm0 2.64v-2.64h2.4v2.64zm0.4-3.52h2.96v4.48h-2.96m-0.4 35.76zm0 2.64v-2.64h2.4v2.64zm203.2 23.68h2.72m0.96 0.32h37.44m-126.24-27.6h1.76m-0.8 0.88zm0 5.36v-5.36h2.72v5.36zm-0.96-6.24v7.2m42.08-5.68h-21.52m150.8 24.88v-5.52m-168 8.64h38.4v1.68h5.28v-1.68h36.8v1.68h5.28v-1.68h36.8v1.68h5.28v-1.68h36.8v1.68h5.28v-10.32m-133.12 10.08h-33.76m33.76 0v1.68h8.56v-1.68m33.52 0v1.68h8.56v-1.68m33.44 0h-33.44m33.44 0v1.68h8.56v-1.68m33.52 0v1.68h8.56m80.88-251.92v25.84m-212.72 220.64v2.8h2.8v-2.8m39.28 0.08v2.72h2.72v-2.72m39.36 0v2.72h2.72v-2.72m39.28 0v2.72h2.8v-2.72m-158.08-25.76v-1.6m71.2 7.28v19.2m-0.96-1.12v-23.76m-179.68 29.44h1.28m-242.8-209.84h-5.28m333.36 122.48v2m0.4-2.32zm0 0.32v-0.31999h-0.8799v0.31999zm-0.88 0v2m-85.52-57.84 1.36-0.16 1.2-0.4 1.12-0.72 0.96-0.96 0.64-1.2 0.4-1.2 0.08-1.36m0 0v-0.08m-5.76 0.08h5.76m0 12.24v-0.08l-0.08-1.28-0.4-1.28-0.64-1.2-0.96-0.96-1.04-0.72-1.28-0.48-1.36-0.24m0 6.24h5.76m-26.64-87.44v-0.08m0 0.08v-0.08h-0.08m0-1.84h-0.88v1.84h0.88m0.08-1.84v-0.08m-2 1.92h0.88l0.08-0.08v-1.68l-0.08-0.08h-0.88v-0.08h2v0.08h-0.08m-1.92 1.84v0.08m2 0h-2m0 196.72h-0.08m0.16 0v-0.08m0-1.92v0.96h1.76l0.08-0.08v-0.88h0.08v2h-0.08v-0.88l-0.08-0.08h-1.76v0.96h-0.08m0.08-2h-0.08m-0.08 2v-2h0.08m0-37.36h-0.08m0.16 0v-0.08m1.84-1.92h0.08v2h-0.08v-0.88h-0.08l-0.08-0.08h-1.6l-0.08 0.08v0.88h-0.08m1.92-2v0.08m-1.84 0v0.88h1.76l0.08-0.08v-0.8m-1.84 0v-0.08h-0.08m-0.08 2v-2h0.08m0-37.28h-0.08m0.16-0.08v-0.08m1.84 0.08v-0.8l-0.16-0.16h-1.6l-0.08 0.08v0.88l-0.08 0.08m1.92-0.08v0.08m0-2.08h0.08v2.08h-0.08m0-2.08v0.08m-1.84 0v0.88l0.08 0.08h1.6l0.16-0.16v-0.8m-1.84 0v-0.08h-0.08m-0.08 2.08v-2.08h0.08m0-37.28h-0.08m0.08 0h0.08v-0.08m1.84 0.08v-0.88l-0.08-0.08h-1.76v0.88m1.84-1.92v-0.08h0.08v2.08h-0.08v-0.08m-1.84-1.92v0.88l0.08 0.08h1.6l0.16-0.16v-0.88m-1.84 0.08-0.08-0.08m-0.08 2.08v-2.08h0.08m0-37.28h-0.08m0.16 0v-0.08m0-1.92v0.96h1.76l0.08-0.08v-0.88h0.08v2h-0.08v-0.88l-0.08-0.08h-1.76v0.96h-0.08m0.08-2h-0.08m-0.08 2v-2h0.08m-292.72-93.68-0.08-0.48-0.32-0.32-0.4-0.08-0.4 0.08-0.32 0.32-0.16 0.48 0.16 0.4 0.32 0.32 0.4 0.08 0.4-0.08 0.32-0.32zm0.08 0-0.08-0.48-0.32-0.32-0.48-0.16-0.48 0.16-0.32 0.32-0.08 0.48 0.08 0.4 0.32 0.32 0.48 0.16 0.48-0.16 0.32-0.32zm42 0-0.08-0.48-0.32-0.32-0.4-0.08-0.4 0.08-0.32 0.32-0.16 0.48 0.16 0.4 0.32 0.32 0.4 0.08 0.4-0.08 0.32-0.32zm0.08 0-0.08-0.48-0.4-0.32-0.4-0.16-0.48 0.16-0.32 0.32-0.16 0.48 0.16 0.4 0.32 0.32 0.48 0.16 0.4-0.16 0.4-0.32zm42 0-0.08-0.48-0.32-0.32-0.4-0.08-0.48 0.08-0.24 0.32-0.16 0.48 0.16 0.4 0.24 0.32 0.48 0.08 0.4-0.08 0.32-0.32zm0.08 0-0.08-0.48-0.4-0.32-0.4-0.16-0.48 0.16-0.32 0.32-0.16 0.48 0.16 0.4 0.32 0.32 0.48 0.16 0.4-0.16 0.4-0.32zm42 0-0.08-0.48-0.32-0.32-0.4-0.08-0.48 0.08-0.32 0.32-0.08 0.48 0.08 0.4 0.32 0.32 0.48 0.08 0.4-0.08 0.32-0.32zm0.08 0-0.16-0.48-0.32-0.32-0.4-0.16-0.48 0.16-0.32 0.32-0.16 0.48 0.16 0.4 0.32 0.32 0.48 0.16 0.4-0.16 0.32-0.32zm42 0-0.08-0.48-0.32-0.32-0.4-0.08-0.48 0.08-0.32 0.32-0.08 0.48 0.08 0.4 0.32 0.32 0.48 0.08 0.4-0.08 0.32-0.32zm0.08 0-0.16-0.48-0.32-0.32-0.4-0.16-0.48 0.16-0.32 0.32-0.16 0.48 0.16 0.4 0.32 0.32 0.48 0.16 0.4-0.16 0.32-0.32zm42 0-0.08-0.48-0.32-0.32-0.48-0.08-0.4 0.08-0.32 0.32-0.08 0.48 0.08 0.4 0.32 0.32 0.4 0.08 0.48-0.08 0.32-0.32zm0.08 0-0.16-0.48-0.32-0.32-0.48-0.16-0.4 0.16-0.32 0.32-0.16 0.48 0.16 0.4 0.32 0.32 0.4 0.16 0.48-0.16 0.32-0.32zm42 0-0.16-0.48-0.24-0.32-0.48-0.08-0.4 0.08-0.32 0.32-0.08 0.48 0.08 0.4 0.32 0.32 0.4 0.08 0.48-0.08 0.24-0.32zm0.08 0-0.16-0.48-0.32-0.32-0.48-0.16-0.4 0.16-0.4 0.32-0.08 0.48 0.08 0.4 0.4 0.32 0.4 0.16 0.48-0.16 0.32-0.32zm42 0-0.16-0.48-0.32-0.32-0.4-0.08-0.4 0.08-0.32 0.32-0.08 0.48 0.08 0.4 0.32 0.32 0.4 0.08 0.4-0.08 0.32-0.32zm0.08 0-0.16-0.48-0.32-0.32-0.48-0.16-0.4 0.16-0.4 0.32-0.08 0.48 0.08 0.4 0.4 0.32 0.4 0.16 0.48-0.16 0.32-0.32zm42 0-0.08-0.48-0.32-0.32-0.48-0.16-0.48 0.16-0.32 0.32-0.08 0.48 0.08 0.4 0.32 0.32 0.48 0.16 0.48-0.16 0.32-0.32 0.08-0.4-0.16-0.48-0.32-0.32-0.4-0.08-0.4 0.08-0.32 0.32-0.08 0.48 0.08 0.4 0.32 0.32 0.4 0.08 0.4-0.08 0.32-0.32zm38.56 0-0.08-0.48-0.32-0.32-0.48-0.16-0.4 0.16-0.4 0.32-0.08 0.48 0.08 0.4 0.4 0.32 0.4 0.16 0.48-0.16 0.32-0.32 0.08-0.4-0.16-0.48-0.32-0.32-0.4-0.08-0.4 0.08-0.32 0.32-0.08 0.48 0.08 0.4 0.32 0.32 0.4 0.08 0.4-0.08 0.32-0.32zm80.64 0-0.08-0.48-0.32-0.32-0.48-0.16-0.48 0.16-0.32 0.32-0.08 0.48 0.08 0.4 0.32 0.32 0.48 0.16 0.48-0.16 0.32-0.32 0.08-0.4-0.16-0.48-0.32-0.32-0.4-0.08-0.4 0.08-0.32 0.32-0.08 0.48 0.08 0.4 0.32 0.32 0.4 0.08 0.4-0.08 0.32-0.32zm42.08 0-0.08-0.48-0.32-0.32-0.48-0.16-0.48 0.16-0.32 0.32-0.08 0.48 0.08 0.4 0.32 0.32 0.48 0.16 0.48-0.16 0.32-0.32 0.08-0.4-0.16-0.48-0.32-0.32-0.4-0.08-0.4 0.08-0.32 0.32-0.08 0.48 0.08 0.4 0.32 0.32 0.4 0.08 0.4-0.08 0.32-0.32zm42 0-0.08-0.48-0.32-0.32-0.4-0.08-0.4 0.08-0.32 0.32-0.16 0.48 0.16 0.4 0.32 0.32 0.4 0.08 0.4-0.08 0.32-0.32zm0.08 0-0.08-0.48-0.32-0.32-0.48-0.16-0.48 0.16-0.32 0.32-0.08 0.48 0.08 0.4 0.32 0.32 0.48 0.16 0.48-0.16 0.32-0.32zm42 0-0.08-0.48-0.32-0.32-0.4-0.08-0.4 0.08-0.32 0.32-0.16 0.48 0.16 0.4 0.32 0.32 0.4 0.08 0.4-0.08 0.32-0.32zm0.08 0-0.08-0.48-0.32-0.32-0.48-0.16-0.48 0.16-0.32 0.32-0.08 0.48 0.08 0.4 0.32 0.32 0.48 0.16 0.48-0.16 0.32-0.32zm42 0-0.08-0.48-0.32-0.32-0.4-0.08-0.48 0.08-0.24 0.32-0.16 0.48 0.16 0.4 0.24 0.32 0.48 0.08 0.4-0.08 0.32-0.32zm0.08 0-0.08-0.48-0.4-0.32-0.4-0.16-0.48 0.16-0.32 0.32-0.16 0.48 0.16 0.4 0.32 0.32 0.48 0.16 0.4-0.16 0.4-0.32zm-212.24 213.52v-0.08m0.08 0.08v-0.08m1.84-1.6h0.08v1.68h-0.08v-0.64l-0.08-0.16h-1.76v0.8h-0.08m1.92-1.68v0.08m-1.84 0v0.72h1.76l0.08-0.08v-0.64m-1.84 0v-0.08h-0.08m0 1.68v-1.68m0-37.68v-0.08m0.08 0.08v-0.08m1.84-1.52v-0.08h0.08v1.68h-0.08v-0.64l-0.16-0.16h-1.6l-0.08 0.08v0.72h-0.08m0.08-1.6v0.72l0.08 0.08h1.6l0.16-0.16v-0.72m-1.84 0.08-0.08-0.08m0 1.68v-1.68m41.84 104.8v-0.16m0 2.32v-0.08h1.12l0.08-0.08v-1.92l-0.08-0.08h-1.12v-0.08m2.48 2.24v0.08h-2.48v-0.16m2.48 0.08h-0.08v-0.08m0-2.08h-1.12v2.08h1.12m0-2.08 0.08-0.08m-2.48-0.08h2.48v0.08m210-63.52v-0.88l-0.08-0.08h-1.6l-0.08 0.08h-0.08v0.88h-0.08m1.92 0h0.08m0-2v2m0-2h-0.08v0.08m-1.84 0v0.8l0.08 0.08h1.76v-0.88m-1.84-0.08v-0.08m-0.08 2.08v-2h0.08v0.08m0-37.36h-0.08m0.08-0.08v-0.08m1.84 0.08v-0.88l-0.08-0.08h-1.6l-0.16 0.16v0.88m1.84-0.08 0.08 0.08m0-2.08v2.08m0-2.08h-0.08v0.08m-1.84 0v0.8l0.16 0.16h1.6l0.08-0.08v-0.88m-1.84-0.08v-0.08m-0.08 2.16v-2.08h0.08v0.08m0-37.36h-0.08m0.08 0v-0.08m1.84 0v-0.88h-1.76l-0.08 0.08v0.8m1.84 0v0.08h0.08m0-2.08v2.08m-0.08-2v-0.08m-1.84 0.08v0.8l0.16 0.16h1.6l0.08-0.08v-0.88l0.08-0.08m-1.92 0.08v-0.08m-0.08 2.08v-2.08h0.08m1.84-37.28v-0.96h-1.76l-0.08 0.08v0.88h-0.08m1.92 0h0.08m0-2v2m-0.08-2v-0.08m-1.92 2.08v-2h0.08v0.88l0.08 0.08h1.76v-0.96h0.08m-351.52-7.44v20.72m0.8 24.16h-11.44v-11.6h11.44m-0.8 93.2v-68.64m-4.8 69.44h91.12m-0.96-5.2v4.4m0.96-175.44v3.68m11.84 222.32v0.31998h0.96v-0.31998zm0-6.32v0.31998h0.96v-0.31998zm-120.16-195.36h16m0.96-7.52v31.36m11.44-48.08h1.12m-1.12 0.88h0.24m-0.56 0v-0.88004h0.32v0.88004zm-5.44 0v-0.88004h0.32v0.88004zm0.32-0.88v-5.12h0.24v5.12zm5.12 0-0.08-1.12-0.4-1.04-0.56-0.96-0.8-0.8-0.88-0.64-1.04-0.4-1.12-0.16m5.44 8.32h-6v-3.2m6.88 0v4.08m-6.88-3.2h0.32m6.56 3.2h-7.76v-4.08m8.16 0v0.80005h-0.4v-0.80005zm-8.16 0h0.88m6 0.88v2.32m-28.64 22h16m0-8.48v32.16m324.24-57.12h34.64m-821.76 25.6v-73.6m671.76 74.64zm0 0.8v-0.79997h-0.4v0.79997zm0 0v-0.88m19.2 0.08zm0 0.8v-0.79997h-0.32v0.79997zm-13.92 0h-5.28v-0.88m5.28 0.08h-5.28m0 0.4h5.28m13.6-6.48h-0.08l-1.36 0.16-1.28 0.4-1.12 0.72-0.96 0.96-0.72 1.2-0.4 1.28-0.16 1.36m6.08 0v-6.08m-6.08 6.08-0.16-1.36-0.4-1.28-0.64-1.12-0.96-0.96-1.12-0.8-1.28-0.4-1.28-0.16m-0.08 0h0.08m-0.08 6.08v-6.08m36 6.08zm0 0.8v-0.79997h0.32v0.79997zm-19.2-0.8zm0 0.8v-0.79997h0.32v0.79997zm19.2-0.4h-5.28m-7.52-0.4-0.16-1.36-0.4-1.28-0.72-1.2-0.96-0.96-1.12-0.72-1.28-0.4-1.36-0.16m-0.08 0h0.08m-0.08 6.08v-6.08m12 0h-0.08l-1.36 0.16-1.2 0.4-1.12 0.8-0.96 0.96-0.64 1.12-0.48 1.28-0.08 1.36m5.92 0v-6.08m-524.4 132.72v-97.44m0.48 97.44v-97.44m-6.64 266.32v-2.08l1.36 2.08v-2.08m-3.36 2.08v-2.08h0.64l0.32 0.16 0.16 0.16 0.08 0.16 0.08 0.32v0.48l-0.08 0.32-0.08 0.16-0.16 0.16-0.32 0.16zm48.48-297.52v0.87996h0.31999v-0.87996zm23.76 15.52-16.16-12m0 0h16.16l-16.16 12m16.16-12v12h-16.16m0-12v12m539.04-29.76v14.88m0-14.88h-1.28v16.8m0-24.16h1.28m-542.08 165.92zm0-0.32v0.31998h0.80005v-0.31998zm-44-113.68zm0-0.32v0.31999h-0.87996v-0.31999zm-0.48-25.76v25.76m0.48-26.08zm0 0.32v-0.31999h-0.87996v0.31999zm0.96-4.24v0.87996h0.31999v-0.87996zm38.48 0.48h-38.16m381.28-12.64h-0.96m0.96 6.64h-0.96m0.96-12.96v4.4m-0.96-5.28v7.2m-98.48 79.84v7.76m-0.64-7.76v7.76m-0.72-7.76v7.76m-0.72-7.76v7.76m-0.64-7.76v7.76m-0.72-7.76v7.76m-0.72-7.76v7.76m-0.64-7.76v7.76m-0.72-7.76v7.76m-0.72-7.76v7.76m-0.72 0h7.68m0 0v-7.76h-7.68m0 0v7.76m9.28 1.12h5.04l-0.24-1.28-0.48-1.2-0.8-1.04-1.04-0.8-1.2-0.48-1.28-0.16m0 0 1.28-0.16 1.2-0.56 1.04-0.72 0.8-1.04 0.48-1.2 0.24-1.28m-5.04 0h5.04m-15.6 0v9.92m8.96-4.96h87.04m-452.88-145.2h-104.24v17.12m464.88 88.96h6.56m270.08 167.52v10.08m-129.44-207.92h-25.84m25.76-4.96h-1.92m-41.28-10.32h17.52m-17.52-0.96h17.52m23.76 14.64v-3.36m2-13.68h-25.84m-17.28 18.64h-1.12m42.24-1.6h-21.84m21.84-15.04h-21.84m3.92 1.36 16.24 12m0 0h-16.24l16.24-12m-16.24 12v-12h16.24m0 12v-12m1.68-1.36v0.16m2 16.48v-4.96m-23.84 3.36v-15.04m-2-2v18.64m26.4-67.36v3.28m-83.84-3.28h83.84-2.96m-80.88 7.44v-1.52m-62.72 218.24h90.16m-102.8 0.8h-1.52m105.28-11.6-1.36 0.16-1.28 0.4-1.12 0.72-0.96 0.96-0.72 1.12-0.48 1.28-0.16 1.36m0 0.08v-0.08m6.08 0.08h-6.08m0-11.92 0.16 1.36 0.48 1.2 0.72 1.12 0.96 0.96 1.12 0.72 1.28 0.4 1.36 0.08m0-5.84h-6.08m6.08 55.6v29.04m0.4-44.24v2.32m0.4-2.72zm0 0.4v-0.39999h-0.8v0.39999zm-0.8 0v2.32m0.8-2.32v2.32m-6.88 0.64 0.16 1.36 0.48 1.28 0.72 1.12 0.96 0.88 1.12 0.72 1.28 0.4 1.36 0.08m0-5.84h-6.08m6.08 5.84-1.36 0.16-1.28 0.48-1.12 0.72-0.96 0.96-0.72 1.12-0.48 1.28-0.16 1.36m0 0v-0.08m6.08 0.08h-6.08m6.88-12.56zm0 0.32v-0.31999h-0.8v0.31999zm-25.04-201.36h-11.76m12.08-0.4v0.80005h-0.32v-0.80005zm0 0v0.8h-0.32v-0.8zm-61.6 175.36v-68.64m0-13.76v0.8m0-10.72h-10.56m-7.36 98.88h0.08l1.36-0.08 1.2-0.4 1.2-0.72 0.96-0.88 0.72-1.12 0.4-1.2 0.16-1.36m-6.08 0v5.76m6.08-5.76 0.16 1.28 0.4 1.28 0.72 1.12 0.88 0.88 1.12 0.72 1.28 0.4 1.28 0.08m0.08 0h-0.08m0.08-5.76v5.76m-12.32-6.56v0.8m18-172.08v11.44m-0.8 0v-11.44m0 11.76v-0.31999h0.8v0.31999zm0.4-11.36v11.04m-0.4 0zm0 0.32v-0.31999h0.8v0.31999zm0.8-11.76zm0 0.4v-0.39999h-0.8v0.39999zm-0.8 11.04zm0 0.32v-0.31999h0.8v0.31999zm0.8-11.76zm0 0.4v-0.39999h-0.8v0.39999zm-5.36 171.68v-0.8m5.6-93.2v0.88m5.76-1.2-0.08-1.36-0.4-1.28-0.64-1.12-0.96-0.96-1.12-0.72-1.2-0.48-1.36-0.16m0 6.08h5.76m-5.76-6.08 1.36-0.08 1.2-0.4 1.12-0.72 0.88-0.96 0.72-1.12 0.4-1.2 0.08-1.36m0 0v-0.08m-5.76 0.08h5.76m-5.76-54.08v53.76m96.72 157.52v16.24m-97.76-243.36v-8.56m87.44 222.88v11.92m0-67.92zm0-0.32v0.32006h-0.8799v-0.32006zm0-158.08v155.76m-73.68-155.28h-5.6m79.28-0.48h-0.88m-0.32 0.48h-3.36m3.68-0.48v0.87996h-0.32v-0.87996zm-0.32 0.88h-3.36m3.36-0.88h-3.36m-0.64-5.84-1.36 0.16-1.28 0.4-1.12 0.8-0.88 0.96-0.72 1.12-0.4 1.28-0.08 1.36m5.84 0v-6.08m-5.84 6.08-0.16-1.36-0.48-1.28-0.72-1.2-0.96-0.96-1.12-0.72-1.28-0.4-1.36-0.16m0 0v-0.08m0 6.16v-6.08m-56.24 5.92v0.80005h-0.32v-0.80005zm11.84 0.4h-11.84m0-0.4v0.80005h-0.32v-0.80005zm24 0.4h-11.84m12.16-0.4v0.80005h-0.32v-0.80005zm-12.16 0v0.80005h-0.32v-0.80005zm-0.32 0.4h-11.84m0-0.4v0.80005h-0.32v-0.80005zm36.08 0.4h-11.76m-0.32 0h-11.84m24.32-0.4v0.80005h-0.4v-0.80005zm-12.16 0v0.80005h-0.32v-0.80005zm-12.16 0v0.80005h-0.32v-0.80005zm43.36 0.4h-6.96m-12.08-0.4v0.80005h-0.4v-0.80005zm32.32-0.08v0.87996h-0.32v-0.87996zm-12.88 0.08v0.80005h-0.4v-0.80005zm-92.96 15.84v240.56m22.64-240.56v-24.08m-3.84-11.92v11.6m-2.08-11.6v11.6m-2-11.6v11.6m-2-11.6v11.6m-2-11.6v11.6m-2.08-11.6v11.6m-2-11.6v11.6m-12.16-11.6v11.6m-2-11.6v10.4m-2-10.4v7.52m-2.08-7.52v4.32m-2-4.32v1.12m7.12 10.8h29.12m-29.28-0.32h29.6m-37.28-11.6h95.6m-95.76-0.24h95.44m159.12 234.32h-24.64m-12.32 26.08h-37.44m-43.36-221.44v193.76m0 13.92v13.76m202.32-222.96h48.16m1.92 1.92h-51.36m49.36 0v37.36m-49.36-61.28v-1.92h51.36m-50.08 1.68v-0.4h48.16m0 0v22.64m1.84 1.92v38.24m-350.88-41.36h-19.52m77.04-36v-19.12m-0.32 18.88v-19.2m260.96 46.4v10.24m-6.32-10.24v-12.4m20.24 18.8v3.84m-2-6.96v6.96m-2.16-10.4 3.04 4.8h0.64l-1.04 0.48 0.64 0.08 3.52 5.04m-6.64-10.08v10.08m-2-10.24v10.24m-1.92-10.24v10.24m-2-10.24v10.24m-2-10.24v10.24m-8.32-10.24h16.16m-690 40.32h44.32m755.92 168.56h33.68m-36.4-3.36h38.56m-35.84 32.72v-29.36m-2.72 24.32v-27.68m36.4-195.36h-33.52m39.04 193.2v-30.56m-3.36 32.72v-192h-122.4m-81.6 219.68h165.44m-676.32-90.08v-9.04m-0.4 9.36zm0-0.32v0.31998h0.80005v-0.31998zm0 20.96zm0 0.32v-0.31999h0.80005v0.31999zm0-30.72zm0 0.4v-0.39999h0.80005v0.39999zm-0.48-106.08v105.68m1.28-105.68v105.68m-45.2 4.56h-0.48m-6.16 0.72v-2l1.36 2v-2m-3.36 2v-2h0.64l0.32 0.08 0.16 0.24 0.08 0.16 0.08 0.32v0.48l-0.16 0.48-0.16 0.16-0.32 0.08zm-4.88-34.48v242.64m-0.32-242.48v242.64m0.32-211.04h13.04m0.48 266.4v-96.8m-0.48 96.8v-96.8m405.44-84.56v-2.08m0.24 1.84v-1.52m-0.24-0.32h49.04v2.08m-48.8-1.76h48.48m-24.4 11.76h-24.32m24.24-0.24h-24.24m21.52-9.76h-21.52m21.44-0.24h-21.2m-0.24 10.24v-0.24m45.44 0v-9.76m3.6 10v-0.24m-27.76-10.64 1.36 5.28 0.64 0.24-1.12 0.16 0.56 0.24 1.76 5.6m-1.36-11.52 1.44 5.6 0.64 0.24-1.12 0.16 0.56 0.24 1.68 5.28m22.4-10.88h-25.44m25.76 0.24h-25.68m25.68 10h-22.88m-513.12 172.88h114.24m-116.32-452.64v53.92m358 699.12h-2m-461.68-670.48 3.84 2.24 0.88-0.48v2l0.88-0.48 3.84 2.16m-8.56 370.24 3.44-2 0.88 0.48v-2l0.88 0.48 3.36-1.92m50.24-390.08 0.4 0.16 0.08 0.08 0.16 0.24v0.4l-0.16 0.24-0.08 0.16-0.4 0.08h-1.04m0 0v-2.56h1.04l0.4 0.16 0.08 0.08 0.16 0.24v0.24l-0.16 0.24-0.08 0.16-0.4 0.08h-1.04m-1.36 1.36v-2.56m0 0-1.2 1.68h1.84m-3.04 0.88v-2.56m0 0-1.2 1.68h1.76m-3.84-1.2 0.24-0.08 0.4-0.4v2.56m-2.16 0v-2.56m0 0-1.2 1.68h1.76m-57.12 217.28h-1.52m0.96-1.28h-0.96m0 1.28v-2.56h1.52m-4.08 0 0.96 2.56 0.96-2.56m-3.6 0-0.24 0.16-0.24 0.24-0.08 0.24-0.16 0.4v0.56l0.16 0.4 0.08 0.24 0.24 0.24 0.24 0.08h0.48l0.24-0.08 0.24-0.24 0.16-0.24 0.08-0.4v-0.56l-0.08-0.4-0.16-0.24-0.24-0.24-0.24-0.16zm-2.08 1.28 0.4 0.08 0.08 0.16 0.16 0.24v0.32l-0.16 0.24-0.08 0.16-0.4 0.08h-1.04m0 0v-2.56h1.04l0.4 0.16 0.08 0.16 0.16 0.24v0.24l-0.16 0.24-0.08 0.08-0.4 0.16h-1.04m-0.96 0.48h-1.2m-0.4 0.8 0.96-2.56 0.96 2.56m3.52-4.08 1.68-2.56m0 2.56-1.68-2.56m-1.92 0-0.24 0.16-0.24 0.24-0.16 0.24-0.08 0.32v0.64l0.08 0.32 0.16 0.24 0.24 0.24 0.24 0.16h0.48l0.24-0.16 0.24-0.24 0.16-0.24 0.08-0.32v-0.64l-0.08-0.32-0.16-0.24-0.24-0.24-0.24-0.16zm-2.08 1.2 0.4 0.16 0.08 0.08 0.16 0.24v0.4l-0.16 0.24-0.08 0.08-0.4 0.16h-1.04m0 0v-2.56h1.04l0.4 0.16 0.08 0.08 0.16 0.24v0.24l-0.16 0.24-0.08 0.16-0.4 0.08h-1.04m11.28-4.88-0.24-0.24-0.32-0.16h-0.48l-0.4 0.16-0.24 0.24v0.24l0.16 0.24 0.08 0.08 0.24 0.16 0.96 0.32 0.16 0.16 0.08 0.24v0.32l-0.24 0.24-0.32 0.16h-0.48l-0.4-0.16-0.24-0.24m-0.72-1.76-0.24-0.24-0.32-0.16h-0.48l-0.4 0.16-0.24 0.24v0.24l0.16 0.24 0.08 0.08 0.24 0.16 0.96 0.32 0.16 0.16 0.08 0.24v0.32l-0.24 0.24-0.32 0.16h-0.48l-0.4-0.16-0.24-0.24m-0.56 0.4h-1.6m0.96-1.36h-0.96m0 1.36v-2.56h1.6m-2.4 2.56-0.88-1.36m-0.88 1.36v-2.56h1.12l0.48 0.24 0.16 0.24v0.24l-0.16 0.24-0.16 0.16-0.32 0.08h-1.12m-2.48 1.36v-2.56h1.04l0.4 0.16 0.08 0.08 0.16 0.24v0.4l-0.16 0.24-0.08 0.08-0.4 0.16h-1.04m104.72 19.36 0.72 3.04 0.72-3.04 0.72 3.04 0.72-3.04m-5.04 0-0.24 0.16-0.32 0.31999-0.16 0.24-0.16 0.48v0.72l0.16 0.4 0.16 0.32 0.32 0.24 0.24 0.16h0.64l0.24-0.16 0.32-0.24 0.16-0.32 0.08-0.4v-0.72l-0.08-0.48-0.16-0.24-0.32-0.31999-0.24-0.16zm-3.12 0v3.04h1.68m-2.56 0h-1.92m1.2-1.6h-1.2m0 1.6v-3.04h1.92m-3.6 1.44 0.4 0.16 0.16 0.16 0.16 0.24v0.48l-0.16 0.32-0.16 0.08-0.4 0.16h-1.36m0 0v-3.04h1.36l0.4 0.16 0.16 0.16 0.16 0.23999v0.32l-0.16 0.32-0.16 0.08-0.4 0.16h-1.36m18.24-6.32-0.32 0.16-0.24 0.24-0.16 0.32-0.16 0.4v0.72l0.16 0.48 0.16 0.24 0.24 0.32 0.32 0.16h0.56l0.32-0.16 0.24-0.32 0.16-0.24 0.16-0.48v-0.72l-0.16-0.4-0.16-0.32-0.24-0.24-0.32-0.16zm-1.44 0h-2m0.96 3.04v-3.04m-6.8 3.04v-3.04l2.08 3.04v-3.04m-2.96 3.04h-1.84m1.12-1.6h-1.12m0 1.6v-3.04h1.84m-4.88 3.04v-3.04h1.28l0.48 0.16 0.16 0.08 0.08 0.32v0.4l-0.08 0.32-0.16 0.16-0.48 0.16h-1.28m-2.48-1.6-0.24 0.16-0.32 0.24-0.16 0.32-0.08 0.4v0.72l0.08 0.48 0.16 0.24 0.32 0.32 0.24 0.16h0.64l0.24-0.16 0.32-0.32 0.16-0.24 0.08-0.48v-0.72l-0.08-0.4-0.16-0.32-0.32-0.24-0.24-0.16zm-67.36 72.32v-16.72m0-142.4v-16.72m44.08-69.52v-2l1.36 2v-2m-3.36 2v-2h0.72l0.24 0.08 0.24 0.24 0.08 0.16 0.08 0.32v0.48l-0.16 0.48-0.24 0.16-0.24 0.08zm-1.6 2.8v-7.44m0 3.76h-37.44m-3.04 0 3.04-1.04v2m41.04 53.44v-2l1.36 2v-2m-3.36 2v-2h0.72l0.24 0.08 0.24 0.24 0.08 0.16 0.08 0.32v0.48l-0.16 0.48-0.24 0.16-0.24 0.08zm-1.6 2.8v-7.44m0 3.76h-37.44m-3.04 0 3.04-1.04v2m32.32 33.68h-2.48m7.6 0h-2.56m6.16 4.64v-2.08l1.36 2.08v-2.08m-3.36 2.08v-2.08h0.72l0.48 0.32 0.08 0.16 0.08 0.32v0.48l-0.08 0.32-0.08 0.16-0.48 0.32zm-1.6 2.72v-7.36m0 3.68h-37.44m-3.04 0 3.04-1.04v2.08m41.04 41.04v-2.08l1.36 2.08v-2.08m-3.36 2.08v-2.08h0.72l0.48 0.32 0.08 0.16 0.08 0.32v0.48l-0.08 0.32-0.08 0.16-0.24 0.24-0.24 0.08zm-1.6 2.72v-7.36m0 3.68h-37.44m-3.04 0 3.04-1.04v2.08m41.04 50.64v-2l1.36 2v-2m-3.36 2v-2h0.72l0.24 0.08 0.24 0.16 0.16 0.48v0.48l-0.08 0.32-0.08 0.16-0.24 0.24-0.24 0.08zm-1.6 2.8v-7.44m0 3.68h-37.44m-3.04 0 3.04-0.96v2m32.56-27.84h-4.08m8.96-6.56h-8.96m12.56 75.44v-2l1.36 2v-2m-3.36 2v-2h0.72l0.24 0.08 0.24 0.16 0.16 0.48v0.48l-0.08 0.32-0.08 0.16-0.24 0.24-0.24 0.08zm-1.6 2.8v-7.44m0 3.68h-37.44m-3.04 0 3.04-0.96v2m41.04 38.24v-2l1.36 2v-2m-3.36 2v-2h0.72l0.24 0.08 0.24 0.24 0.08 0.16 0.08 0.32v0.48l-0.16 0.48-0.24 0.16-0.24 0.08zm-1.6 2.8v-7.44m0 3.76h-37.44m-3.04 0 3.04-1.04v2m41.04 53.28v-2l1.36 2v-2m-3.36 2v-2h0.72l0.24 0.08 0.24 0.24 0.08 0.16 0.08 0.32v0.48l-0.16 0.48-0.24 0.16-0.24 0.08zm-1.6 2.8v-7.44m0 3.76h-37.44m-3.04 0 3.04-1.04v2m13.28-358.8h-1.44l-0.16 1.28 0.16-0.16 0.4-0.16h0.48l0.4 0.16 0.32 0.32 0.16 0.4v0.32l-0.16 0.4-0.32 0.32-0.4 0.16h-0.48l-0.4-0.16-0.16-0.16-0.16-0.32m-1.44 0.64v-3.04m0 0-1.44 2h2.16m-4.56-1.44 0.24-0.16 0.48-0.4v3.04m-2.64 0v-3.04m0 0-1.44 2h2.16m57.36 4.4v-3.04m0 0-1.44 2h2.16m-3.6 1.04v-3.04m0 0-1.44 2h2.16m-4.64-1.44 0.32-0.16 0.4-0.4v3.04m-2.56 0v-3.04m0 0-1.44 2h2.16m-15.92 12.08h1.68m54.8 1.04h-1.6v-1.68h1.6m-0.08 47.2h-2.56v-1.68h2.56m-1.52 229.28v43.76m0-89.28v43.76m0-90.96v-43.84m0-1.68v-43.84m0 227.52v61.68m1.28-333.04v325.76m-1.28-283.6v-43.84m0-1.68v-43.84m1.52 47.2v-47.2m-0.24 91.04h-2.32v-1.68h2.32m0 47.2h-2.32v-1.68h2.32m-0.88 69.6v10.96m-4.32-10.96v10.96m0-11.92v-10.24m4.32 10.24v-10.24m0 23.12h-4.32m4.32-0.96h-4.32m4.32-23.12h-4.32m4.32 0.96h-4.32m4.32 11.2h-4.32m4.32-0.96h-4.32m0 12.88v10.24m0-34.32v-10.96m4.32 35.04v9.52m0-33.6v-10.24m-4.32 44.56h2.88m-2.88-45.28h2.88m-3.84-0.96h3.84m-3.84 0v47.2h3.84m-38.24-228.64h-8m8-0.96h-8m-5.92 0h-1.68m56.16 229.6h-2.32v-1.68h2.32m0-43.84h-2.32v-1.68h2.32m0 92.72h-2.32v-1.76h2.32m0 47.2h-2.32v-1.68h2.32m10.4 53.12-9.84 2.16m-43.52-402.24v4.64m-0.72-4.64v5.28m-21.12 6.64v-3.04m0 17.92v-8.24m-0.8 8.24v-8.24m0-6.32zm0-0.32v0.31999h0.80006v-0.31999zm0 6.64zm0-0.4v0.39999h0.80006v-0.39999zm0-5.92-1.36 0.16-1.28 0.4-1.12 0.72-0.96 0.96-0.72 1.12-0.4 1.28-0.16 1.28m0 0v-0.08m6 0.08h-6m6-6.24h0.8m3.28-11.52v-0.4m-41.76-0.24h41.76m-41.76 0.64h41.76m-37.36 25.84-5.12-17.12m5.68 18.96-0.48-1.6m-5.28-17.6-0.48-1.6m6.56 19.04-0.16-0.32-0.72 0.24 0.08 0.24zm-5.28-17.36-0.08-0.32-0.72 0.24 0.08 0.24zm4.48 17.52 1.2-0.32 0.24 0.64m-5.92-19.6 0.4 1.28-1.2 0.4m102.96 17.92h-0.16m0.16-22.4v24m-34-28v-0.4m-1.2 1.6v-1.6m31.68-0.24h-30.48m31.28 1.84h-32.48m32.48-1.2h-31.28m-68.16 1.2h37.68m0.8 0h4.48v-1.6m55.68-0.24v-0.88m-38.32 5.76h13.6v-3.04m-5.76-1.6v-1.28m-3.76 27.76h37.76m-42.56-21.2h15.04v-3.68m-32.88-1.6v-1.28m62.08 403.52h13.6v0.8m-74.32-404.32v-3.52l12-1.44 11.68 1.44v3.52m-25.04 0v-4.72l13.2-1.6 13.2 1.6v4.72m74.72 442.24h-0.32m-67.12-414.48v1.28m-6.64 0h6.88m26-0.56h-25.92m28.08 375.04v-3.04m28.8 21.6h-0.24v-0.4h0.16m0-4h-0.16v-0.4h0.16m-0.56-12.64h0.48m-0.48-0.32h0.48m10.08 34.56h0.32m-0.32 1.92h0.32m-101.76-411.44h-36.16m32.64 0h-30.32m41.84 5.92 1.36-0.08 1.28-0.48 1.12-0.8 0.8-1.04 0.56-1.28 0.16-1.28m-5.28 0v4.96m0-5.76v0.80005h-0.31998v-0.80005zm5.6 0v0.80005h-0.31998v-0.80005zm-5.92-0.16v0.96m5.92-0.96v0.96m-17.04-27.44v10.32m-32.88 14.16-5.12-17.04m103.92-5.6h-3.2v-4.24m3.2 5.2h-4.16v-5.36m4.16 2.24h-1.12v-0.16h0.64l0.08-0.08v-1.36m0 0v1.36l0.08 0.08h0.32m-0.96-1.52h-0.16m0.72 0.08h-0.08m0.16 77.6h0.24m-1.36-49.52h-26.72m-68.16 0.32h-1.52m62.4-28.08h-26.4m1.36-1.28h23.68m-61.12 27.44-5.28-17.68m4.72 17.52-5.12-17.04m43.76 18.8v-0.96h-37.84m42.56-11.68 1.36-0.16 1.28-0.48 1.12-0.8 0.96-0.96 0.72-1.2 0.4-1.28 0.16-1.36m-6 0v6.24m15.92-6.24h-9.6m8.72-0.8h-8.72m-6.64 0h-9.68m9.68 0.8h-9.68m10-0.8v0.80005h-0.31998v-0.80005zm6.32 0v0.80005h-0.31998v-0.80005zm-6.64 0v0.8m16.24 18.88v-1.28m0-17.6v-3.6m-0.88 2.8v-2.8m-25.04-3.68v6.48m12.96-8.08h-0.32zm50.72 27.6h-26.4m25.92-0.8h-25.92m25.92 0.8zm0-0.8v0.79997h0.31999v-0.79997zm-26.24 0.8zm0-0.8v0.79997h0.31999v-0.79997zm-32.32-28.08 23.68-3.52m0 3.52-23.68-3.52m-16.16 350.88-0.48 0.16-0.24 0.4-0.16 0.72v0.48l0.16 0.72 0.24 0.4 0.48 0.16h0.24l0.48-0.16 0.24-0.4 0.16-0.72v-0.48l-0.16-0.72-0.24-0.4-0.48-0.16zm-2.88 0-0.48 0.16-0.24 0.4-0.16 0.72v0.48l0.16 0.72 0.24 0.4 0.48 0.16h0.24l0.48-0.16 0.24-0.4 0.16-0.72v-0.48l-0.16-0.72-0.24-0.4-0.48-0.16zm-3.52 0h1.6l-0.88 1.12h0.48l0.24 0.16 0.16 0.16 0.16 0.4v0.32l-0.16 0.48-0.32 0.24-0.4 0.16h-0.4l-0.48-0.16-0.16-0.16-0.08-0.24m5.36-275.2-0.48 0.16-0.24 0.4-0.16 0.72v0.48l0.16 0.72 0.24 0.4 0.48 0.16h0.24l0.48-0.16 0.24-0.4 0.16-0.72v-0.48l-0.16-0.72-0.24-0.4-0.48-0.16zm-2.88 0-0.48 0.16-0.24 0.4-0.16 0.72v0.48l0.16 0.72 0.24 0.4 0.48 0.16h0.24l0.48-0.16 0.24-0.4 0.16-0.72v-0.48l-0.16-0.72-0.24-0.4-0.48-0.16zm-3.52 0h1.6l-0.88 1.2h0.48l0.24 0.08 0.16 0.16 0.16 0.48v0.24l-0.16 0.48-0.32 0.24-0.4 0.16h-0.4l-0.48-0.16-0.16-0.16-0.08-0.24m11.12 143.84-0.4 0.16-0.32 0.4-0.16 0.72v0.48l0.16 0.72 0.32 0.4 0.4 0.16h0.32l0.4-0.16 0.32-0.4 0.16-0.72v-0.48l-0.16-0.72-0.32-0.4-0.4-0.16zm-2.88 0-0.4 0.16-0.32 0.4-0.16 0.72v0.48l0.16 0.72 0.32 0.4 0.4 0.16h0.32l0.4-0.16 0.32-0.4 0.08-0.72v-0.48l-0.08-0.72-0.32-0.4-0.4-0.16zm-3.44 0h1.52l-0.8 1.2h0.4l0.32 0.08 0.08 0.16 0.16 0.48v0.24l-0.16 0.48-0.24 0.24-0.48 0.16h-0.4l-0.4-0.16-0.16-0.08-0.16-0.32m46.72 160.24v-2h-3.36m-16.64-172.64v-2h0.8l0.32 0.08 0.16 0.32v0.32l-0.08 0.16-0.08 0.08-0.32 0.08h-0.8m-2.16-1.04v1.44l0.08 0.32 0.24 0.16 0.24 0.08h0.24l0.24-0.08 0.24-0.16 0.08-0.32v-1.44m-3.44 0.72h-5.44m-3.04 0 3.04-1.04v2.08m-9.44-3.84 0.16 1.28 0.4 1.2 0.72 1.12 0.88 0.88 1.12 0.64 1.2 0.4 1.28 0.16m-5.76-5.76v0.08zm5.76 0-5.76 0.16v-0.16m5.76 0.16v-0.16l-5.76 0.16m5.92 5.6h-0.16m0.16-5.76h-0.16m0 6.16v-0.4m0.16 0.4v-0.4m-0.16-5.76v-0.4m0.16 0.4v-0.4m-41.44 53.92h17.2m-17.2 0v-91.68h17.2m0 91.68v-91.68m26.4 44.32v-6.56m-1.68 6.56v-6.56m3.36 6.56v-6.56m1.76 6.56v-6.56m1.68 6.56v-6.56m2.64 0h-0.96v6.56m-33.2-6.56h24.24m-24.24 6.56h24.24m-209.6-38.24 0.72 3.04 0.8-3.04 0.72 3.04 0.72-3.04m-5.12 0-0.24 0.16-0.32 0.24-0.16 0.32-0.08 0.4v0.72l0.08 0.48 0.16 0.24 0.32 0.32 0.24 0.16h0.64l0.24-0.16 0.32-0.32 0.16-0.24 0.08-0.48v-0.72l-0.08-0.4-0.16-0.32-0.32-0.24-0.24-0.16zm-3.12 0v3.04h1.68m-2.56 0h-1.92m1.2-1.6h-1.2m0 1.6v-3.04h1.92m-3.6 1.44 0.4 0.16 0.16 0.16 0.16 0.24v0.48l-0.16 0.24-0.16 0.16-0.4 0.16h-1.36m0 0v-3.04h1.36l0.4 0.16 0.16 0.08 0.16 0.32v0.32l-0.16 0.24-0.16 0.16-0.4 0.16h-1.36m-5.44-1.44-0.32 0.16-0.24 0.24-0.16 0.32-0.16 0.4v0.72l0.16 0.48 0.16 0.24 0.24 0.32 0.32 0.16h0.56l0.32-0.16 0.24-0.32 0.16-0.24 0.16-0.48v-0.72l-0.16-0.4-0.16-0.32-0.24-0.24-0.32-0.16zm-1.44 0h-2.08m1.04 3.04v-3.04m-6.8 3.04v-3.04l2 3.04v-3.04m-2.88 3.04h-1.84m1.12-1.6h-1.12m0 1.6v-3.04h1.84m-4.88 3.04v-3.04h1.28l0.48 0.16 0.08 0.08 0.16 0.32v0.48l-0.16 0.24-0.08 0.16-0.48 0.16h-1.28m-2.48-1.6-0.24 0.16-0.32 0.24-0.16 0.32-0.16 0.4v0.72l0.16 0.48 0.16 0.24 0.32 0.32 0.24 0.16h0.56l0.32-0.16 0.32-0.32 0.16-0.24 0.08-0.48v-0.72l-0.08-0.4-0.16-0.32-0.32-0.24-0.32-0.16zm318.56 244.48h0.08l0.24 0.08 0.08 0.08 0.08 0.16v0.4l-0.08 0.24-0.08 0.08-0.24 0.08h-0.16l-0.16-0.08-0.32-0.24-0.96-0.96v1.36m2-2.64-0.08-0.32-0.32-0.24-0.48-0.08h-0.24l-0.48 0.08-0.32 0.24-0.08 0.32v0.16l0.08 0.32 0.32 0.16 0.48 0.08h0.24l0.48-0.08 0.32-0.16 0.08-0.32zm0-2.32v1.04l-0.72-0.56v0.24l-0.16 0.24-0.08 0.08-0.24 0.08h-0.24l-0.24-0.08-0.24-0.24-0.08-0.24v-0.32l0.08-0.24 0.08-0.16 0.24-0.08m-0.24-0.72-0.08-0.16-0.08 0.16 0.08 0.08zm0.48-0.88v-0.96m-0.64-0.32 2 0.8-2 0.72m2-1.68v-1.36m-2 0.64h2m-47.52-16.4v-9.44m-4.88-184.48-0.16-0.48-0.4-0.24-0.72-0.16h-0.48l-0.72 0.16-0.4 0.24-0.16 0.48v0.24l0.16 0.48 0.4 0.24 0.72 0.16h0.48l0.72-0.16 0.4-0.24 0.16-0.48zm0-2.96-0.16-0.4-0.4-0.32-0.72-0.08h-0.48l-0.72 0.08-0.4 0.32-0.16 0.4v0.32l0.16 0.4 0.4 0.32 0.72 0.16h0.48l0.72-0.16 0.4-0.32 0.16-0.4zm0-3.44v1.6l-1.2-0.88v0.48l-0.08 0.24-0.16 0.16-0.48 0.16h-0.24l-0.48-0.16-0.24-0.32-0.16-0.4v-0.48l0.16-0.4 0.16-0.16 0.24-0.16m-0.24-1.12-0.16-0.16-0.16 0.16 0.16 0.16zm0.72-1.28v-1.44m-1.04-0.48 3.04 1.2-3.04 1.12m3.04-2.56v-2.08m-3.04 1.04h3.04m-399.36 237.44 337.28-479.36m0 535.2-337.28-479.28m404.08 112.08v-1.04m2.16 54v-43.2m-2 43.2v-43.2m-17.92 43.2v-16.24m0-29.28v-9.04m0-36.8v-16.72m0-7.44h-0.96m0.96 7.44h-0.96m0.96 46.08h-0.96m0.96 7.44h-0.96m0.96 30.96h-0.96m0.96 7.36h-0.96m0.96-45.76v-26.4m-0.96 42.88v-9.04m0-7.44v-26.4m0.96 64.8v-19.6m-0.96 43.2v-16.24m0-7.36v-19.6m0.96 60.72v-15.2m-0.96 36.24v-13.68m0-7.36v-15.2m20.88-93.68v-42.48m-2 42.48v-42.48m2 79.84v-34.4m-2 34.4v-34.4m-24-27.12h-2.48m0 0v7.44h2.48m5.12-7.44h-2.56v7.44m2.56 0h-2.56m-2.56 46.08h-2.48m7.6 0h-2.56m-2.56 7.44h-2.48m7.6 0h-2.56m-2.56 30.96v-112.32m-2.48 81.36v-7.44m5.04 7.44v-7.44m-12.64-53.52h-2.56m0 0v7.44h2.56m5.04-7.44h-2.48v7.44m2.48 0h-2.48m-2.56 46.08h-2.56m7.6 0h-2.48m-2.56 7.44h-2.56m7.6 0h-2.48m-2.56 12.24v-93.6m5.04 93.6v-93.6m-7.6 81.36v-7.44m5.12 7.44v-7.44m-12.64-53.52h-2.56m0 0v7.44h2.56m5.04-7.44h-2.56v7.44m2.56 0h-2.56m-2.48 46.08h-2.56m7.6 0h-2.56m-2.48 7.44h-2.56m7.6 0h-2.56m-2.48 12.24v-93.6m5.04 93.6v-93.6m-7.6 81.36v-7.44m5.04 7.44v-7.44m52.08 0.4 1.04-3.04 1.04 3.04m-9.52 12.32h8.48v-12.32m3.68-5.6h-2.24m2.24 1.6h-5.04m5.04 1.6h-7.36m7.36 1.6h-7.36m7.36 1.6h-7.36m7.36 1.6h-7.36m7.36 1.6h-7.36m7.36 1.6h-7.36m-4.8 10.48v-7.44m1.6 7.44v-7.44m1.6 7.44v-7.44m1.6 7.44v-7.44m-1.04-1.04h-6.88m7.92 1.04h-7.92m16.32 8.4h-13.2m-32 19.92v-16.72m1.04 17.76v-18.72m10.08 178.8v-19.68m0-25.84v-15.28m0-37.12v-13.68m0-7.36h-0.96m0.96 7.36h-0.96m0.96 43.36h-0.96m0.96 7.44h-0.96m0.96 33.68h-0.96m0.96 7.44h-0.96m0.96-7.44v-16m-0.96 43.12v-19.68m0-7.44v-16m20.88 43.12v-43.12m-2 43.12v-43.12m2-2.4v-42.8m-2 42.8v-42.8m-17.92 20.08v-20.08m-0.96 42.8v-15.28m0-7.44v-20.08m0 68.64h-2.56m-2.56 0h-2.48m2.48-133.04h-2.48m7.6 0h-2.56m-5.04 0v-7.36m5.04 7.36v-7.36m-2.56 41.12h-2.48m7.6 0h-2.56m-2.56 7.36h-2.48m7.6 0h-2.56m-5.04 0v-7.36m5.04 7.36v-7.36m-2.56 58.16h-2.48m0 0v-7.44h2.48m5.12 0h-2.56v7.44m2.56 0h-2.56m-5.04 41.12v-7.44h2.48m5.12 0h-2.56v7.44m-2.56 0v-140.4m-10.08 7.36h-2.56m7.6 0h-2.48m-5.12 0v-7.36m5.12 7.36v-7.36m-2.56 41.12h-2.56m7.6 0h-2.48m-2.56 7.36h-2.56m7.6 0h-2.48m-5.12 0v-7.36m5.12 7.36v-7.36m-2.56 58.16h-2.56m0 0v-7.44h2.56m5.04 0h-2.48v7.44m2.48 0h-2.48m-5.12 41.12v-7.44h2.56m5.04 0h-2.48v7.44m-2.56 0v-140.4m5.04 140.4v-140.4m-15.12 7.36h-2.56m7.6 0h-2.56m-5.04 0v-7.36m5.04 7.36v-7.36m-2.48 41.12h-2.56m7.6 0h-2.56m-2.48 7.36h-2.56m7.6 0h-2.56m-5.04 0v-7.36m5.04 7.36v-7.36m-2.48 58.16h-2.56m0 0v-7.44h2.56m5.04 0h-2.56v7.44m2.56 0h-2.56m-5.04 41.12v-7.44h2.56m5.04 0h-2.56v7.44m-2.48 0v-140.4m5.04 140.4v-140.4m39.12 68.72v-42.8m2 42.8v-42.8m-19.92-117.84v-18.32m-0.96 42.48v-16.72m0-7.44v-18.32m-10.16 362.72v-93.36m1.04 0v-18.72m10.08 64.88v-26.56m-0.96 26.56v-26.56m0-7.44v-8.8m-2.56 8.8h2.56m0.96 0h-0.96m-12.64 0h2.48m2.56 0h2.48m2.56 7.44h2.56m0.96 0h-0.96m-12.64 0h2.48m2.56 0h2.48m-7.52 0v-7.44m5.04 7.44v-7.44m5.04 7.44v-7.44m-20.24 0h2.56m-7.6 0h2.56m2.48 7.44h2.56m-7.6 0h2.56m2.48 0v-7.44m-5.04 7.44v-7.44m12.64 7.44h-2.56v-7.44m0 0h2.56m33.92-1.44v1.04m2.16 34.4v-34.4m-2 34.4v-34.4m-17.92 0.4v-8.8m20.88 0v7.36m1.6-7.36v7.36m1.6-7.36v7.36m1.6-7.36v7.36m7.36 14.24h-2.24m2.24-1.6h-5.04m5.04-1.6h-7.36m7.36-1.6h-7.36m7.36-1.6h-7.36m7.36-1.6h-7.36m7.36-1.6h-7.36m7.36-1.6h-7.36m8.4-11.44h-13.2m-3.12 8.4h7.92m-25.68 38.48v16.32m-0.96-16.32v16.32m0.96 7.44h-0.96v18.72m0.96-26.16h-0.96m-2.56 0h2.56m-2.56 0v7.44h2.56m56 9.28h-37.12m-26.48-16.72h2.48m-2.48 0v7.44h2.48m0 20.4v-112.08m-7.52 84.24h2.48m-7.6 0h2.56m2.56 7.44h2.48m-7.6-7.44v7.44h2.56m2.56 0v-7.44m2.48-66.56v-16.72m-5.04 111.12v-93.36m-7.6 65.52h2.56m-7.6 0h2.56m2.48 7.44h2.56m-7.6-7.44v7.44h2.56m2.48 0v-7.44m2.56 27.84v-93.36m-5.04 93.36v-93.36m26.24 72.96v18.72m17.92-42.48v33.04m2-33.04v31.04m35.12 24.32h1.04m-1.04 5.2h1.04m-0.48-5.2v5.2m0 6.8v5.2m-0.56 0h1.04m-1.04-5.2h1.04m0-0.4 1.36-0.08 1.28-0.48 1.12-0.72 0.96-0.88 0.72-1.2 0.48-1.28 0.16-1.28m0-0.08v0.08zm-6.08 0.16 6.08-0.16v0.16m-6.08-0.16v0.16l6.08-0.16m-7.12 6h1.04m0-11.92v5.92h-1.04m1.04 6v5.92m-444.56-437.84v453.76m442.88-14.72h-6.08m-0.64 0h-6.08m-0.72 0h-6m-0.72 0h-6.08m47.36 9.12v-8.64m-94.72-0.8h6.08m-12.8 0h6.08m-12.8 0h6m-12.8 0h6.08m-12.8 0h6.08m-332.64-437.36h-6.08m12.8 0h-6m12.8 0h-6.08m-14.16 0h-6.08m12.8 451.12h-6.08m12.8 0h-6m12.8 0h-6.08m-14.16 0h-6.08m324.64-232.72-0.4 0.16-0.32 0.48-0.16 0.72v0.4l0.16 0.72 0.32 0.4 0.4 0.16h0.32l0.4-0.16 0.32-0.4 0.08-0.72v-0.4l-0.08-0.72-0.32-0.48-0.4-0.16zm-2.88 0-0.48 0.16-0.24 0.48-0.16 0.72v0.4l0.16 0.72 0.24 0.4 0.48 0.16h0.24l0.48-0.16 0.24-0.4 0.16-0.72v-0.4l-0.16-0.72-0.24-0.48-0.48-0.16zm-2.32 3.04v-3.04m0 0-1.44 2.08h2.16m34.08-57.84h-2.48m2.48 41.12h-2.48m2.48-7.36h-2.48m2.48 58.16h-2.48m2.48-7.44h-2.48m0 48.56v-7.44h2.48m-7.52 7.44v-7.44m5.04-33.68v-7.44m-5.04 7.44v-7.44m5.04-43.36v-7.36m-5.04 7.36v-7.36m5.04-33.76v-7.36m-5.04 7.36v-7.36m2.48 48.48h-2.48m2.48-7.36h-2.48m2.48 50.72h-2.48m2.48 7.44h-2.48m2.48 33.68h-2.48m2.48-125.6h-2.48m28.8 133.04h-31.36m31.36-140.4h-31.36m2.56 232.08h2.48m-2.48-7.44h2.48m5.04-45.92h-2.48m2.48-7.44h-2.48m0 60.8v-7.44m-5.04 7.44v-7.44m5.04-45.92v-7.44m-5.04 7.44v-7.44m5.04 53.36h2.48m-2.48 7.44h2.48m-5.04-53.36h-2.48m2.48-7.44h-2.48m28.8-12.16h-31.36m0 93.36h35.6m-25.52-283.44h-2.48m2.48-7.44h-2.48m2.48-46.08h-2.48m2.48-7.44h-2.48m0 60.96v-7.44m-5.04 7.44v-7.44m5.04-46.08v-7.44m-2.56 7.44h-2.48v-7.44m2.48 0h-2.48m2.48 53.52h-2.48m2.48 7.44h-2.48m33.04-81.36h-35.6m31.36 93.6h-31.36m-7.6-115.04h2.08m-311.6 429.52v-0.08m0-0.48h-27.76m27.04 0v1.2m0.72 0h-27.76m20.96-1.2v1.2m-0.72-1.2v1.2m-6-1.2v1.2m-0.72-1.2v1.2m-6.08-1.2v1.2m-0.64-1.2v1.2m-6.8 0.72h-2.16m2.88-1.92v1.2m29.04-24.24h-2m0 9.84h-27.76m27.76 13.76v-23.6m0-426.88h-27.76m27.76-1.12h-27.76m27.04 1.12v-1.12m-6.08 1.12v-1.12m-0.72 1.12v-1.12m-6 1.12v-1.12m-0.72 1.12v-1.12m-6.08 1.12v-1.12m-0.64 1.12v-1.12m-6.08 1.12v-1.12m-0.72 361.52h1.76v2.24h-1.76m0-47.76h1.76v2.24h-1.76m0-47.76h1.76v2.24h-1.76m0-47.76h1.76v2.24h-1.76m0-47.68h1.76v2.16h-1.76m0-47.68h1.76v2.16h-1.76m0-47.68h1.76v2.16h-1.76m344.88 223.28v95.44h35.6m-30.56-1.04v-93.36m5.04 93.36v-93.36m20.24-1.04h-30.32m30.32-16.72h-30.32m35.6-254.64h-35.6m10.08 253.68v-140.4m-10.08 141.36v-142.4m5.04 141.44v-140.4m25.28-17.76h-30.32m30.32 16.72h-30.32m10.08-17.68v-93.6m-5.04 93.6v-93.6m-5.04 94.56v-95.52m-7.76 370.72v-374.24m0.16-16.96v-63.6m2.08 63.6v-65.04m-280.16 546.88 0.88-2.32 2.8 1.04-0.8 2.24m-34.32-9.76v-43.52m2 42.08v-65.68m-29.76-428.8v453.76m27.76-438.56h-27.76m29.76 9.76h-2v-23.6m390.72 312.56 0.32-0.08 0.4-0.48v3.04m-2.32-0.24-0.08 0.08 0.08 0.16 0.16-0.16zm-0.8-2.8h-2.08m1.04 3.04v-3.04m-1.6 0.48-0.32-0.32-0.4-0.16h-0.56l-0.48 0.16-0.24 0.32v0.24l0.24 0.48 0.32 0.08 0.88 0.32 0.24 0.16 0.16 0.16 0.16 0.24v0.48l-0.32 0.24-0.4 0.16h-0.56l-0.48-0.16-0.24-0.24m-7.36 11.52h6.88m8.4-8.4h-12.16m-3.6 3.92h2l-2 1.28h2m-2-3.36h2v0.72l-0.08 0.24-0.24 0.24-0.16 0.08-0.32 0.08h-0.48l-0.48-0.16-0.16-0.24-0.08-0.24zm13.12 14.24-1.04 3.04-1.04-3.04m-7.44-12.4h8.48v12.4m-3.68-8.72v11.28m8.4-19.68v24.56m-1.04-23.52v22.96m-8.4-14.56v9.68m0 0 3.84 2.24v0.96l1.76-0.96v0.96l3.84 2.24m20.96 89.28v5.92m-39.28-394.48v3.04h6.0801v-3.04zm-15.6 0v3.04h-6v-3.04zm15.6 45.52v2.96h6.0801v-2.96zm-15.6 0v2.96h-6v-2.96zm32.88 45.84h-12.16m3.76-18.16 3.84-2.16v-1.04l1.76 1.04v-1.04l3.84-2.24m0 24.56v-24.56m-1.04 23.6v-22.96m-7.36 15.52v-11.28m-1.04 10.24v-9.68m-24.48 108.8h-6m21.6-90.64v2.32h5.12v-2.32zm-20.64 0v2.32h5.04v-2.32zm20.64 45.52v2.32h5.12v-2.32zm-20.64 0v2.32h5.04v-2.32zm5.04 45.12v3.04h-6v-3.04zm15.6 0v3.04h6.0801v-3.04zm0 45.84v2.4h5.12v-2.4zm-20.64 0v2.4h5.04v-2.4zm0 45.52v2.4h5.04v-2.4zm20.64 0v2.4h5.12v-2.4zm-10.64 89.04v3.44m-0.96-4.4v4.4m0.96 0h9.68m-10.64 0h-4m4.96-3.44h9.68m-10.64-0.96h11.6m-0.96 0.96v3.44m0.96-47.28v3.04h6.0801v-3.04zm-15.6 0v3.04h-6v-3.04zm15.6 42.88v2.64m-15.6 2.72h15.6m-64.8 20.96h2.08m13.52 7.04v1.04m0.72-1.04v1.04m6.72-1.04v1.04m-0.72-1.04v1.04m-12.8-1.04v1.04m-0.64-1.04v1.04m-6.08-1.04v1.04m33.68-1.04v1.04m-0.64-1.04v1.04m-6.08-1.04v1.04m-0.64-1.04v1.04m-27.04-1.04h37.6m-37.6 1.04h37.6m-3.2-0.48h2.48m0-0.56v1.04m30.4-1.04v-27.68m34.08 28.08v0.96m-6.08-0.96v0.96m-0.64-0.96v0.96m-6.08-0.96v0.96m-0.72-0.96v0.96m-6-0.96v0.96m20.16-0.96h-29.76m29.76 0.96h-29.76m8.88-0.96v0.96m-6.08-0.96v0.96m-0.64-0.96v0.96m-1.44-0.96v0.96m1.44-0.48h-1.44m-34 4.32v-3.84m-1.36 5.04v-6.4m1.36 1.36h31.92m-31.92 3.84 16 1.92m-17.36-0.72 17.36 2.08m15.92-3.28-15.92 1.92m17.28-0.72-17.28 2.08m15.92-3.28v-3.84m1.36 5.04v-6.4m59.76-19.52v19.2m-1.28-17.84v17.84m-13.92-17.84v4.88m-13.52-6.24h28.72m10.56 19.2h-10.56m-27.52 1.68h2.56m0 0v-1.68h-5.04m11.76 0v1.68m-6.4-1.36v1.04m6.08-1.04v1.04m-6.4-1.04h0.32m6.08 0h0.32m-6.72 1.04h0.32m0.08 6.08 1.36-0.16 1.28-0.48 1.12-0.72 0.96-0.96 0.72-1.12 0.4-1.28 0.16-1.36h0.32m-6.4 6.08h0.08zm0-6.08 0.16 6.08h-0.16m0.16-6.08h-0.16l0.16 6.08m21.6 12.48v-2.88m-10.16 2.88v-18.24m1.76 8.64v-8.64m-6.96 0h26.48m-102.64-1.36h34.64m29.76 1.36h0.16m-0.16-19.52h13.52m-1.76 17.84h1.76m16.96 11.28h1.68m-5.04-0.96v-8.64m1.68 8.64v-8.64m1.68 8.64v-8.64m1.68 18.24v-18.24m-1.68 18.24v-8.64m-1.68 8.64v-5.76m11.76 8.08v-22.24m-2.32 19.92v-18.24m-6.08 0v18.24m-17.36-32.88h-1.28m1.28 8.08h-1.28m0-12.96v4.88m1.28 8.08v4.88m-1.28-4.88v4.88m12.4-7.92h-1.44m-0.48 0.96 1.2-3.04 1.12 3.04m-3.2-0.24-0.16 0.08 0.16 0.16 0.16-0.16zm-2.56-2.8v3.04h1.68m-2.56 0h-1.92m1.2-1.6h-1.2m0 1.6v-3.04h1.92m-19.68 10v1.68m22.08 8.64v-8.64m1.68 8.64v-8.64m1.68 8.64v-8.64m-11.44 4.96h2l-2 1.36h2m-2-3.36h2v0.64l-0.08 0.32-0.24 0.16-0.16 0.16-0.32 0.08h-0.48l-0.24-0.08-0.24-0.16-0.16-0.16-0.08-0.32zm-0.24 10.88v-3.04m0 0-1.44 2h2.16m-3.36 0.72-0.08 0.16 0.08 0.16 0.16-0.16zm-0.88-2.72h-2m1.04 3.04v-3.04m-1.6 0.4-0.32-0.32-0.4-0.08h-0.56l-0.48 0.08-0.24 0.32v0.32l0.08 0.24 0.16 0.16 0.32 0.16 0.88 0.24 0.24 0.16 0.16 0.16 0.16 0.32v0.4l-0.32 0.32-0.4 0.16h-0.56l-0.48-0.16-0.24-0.32m-3.2 4.88v-18.24m-2.32 20.56v-20.56m16.8 8.64h15.2m-6.72 9.6 2.08-3.52h0.96l-0.96-1.76h0.96l2-3.36m1.12 5.04-3.04-1.04 3.04-0.96m-14.64-8.24h18.8v9.2h-4.16m-29.12 4.64h35.76m-38.08 2.32h40.4m-12.56-23.6-12.56-15.84m0 15.84v-15.84h12.56v15.84zm0 0 12.56-15.84m-218.48-491.36 86.4 30m-74.56-25.92-0.8 2.32-2.88-0.96m0.8-2.32-0.8 2.32m-134.64-5.44h-8.24m134.72 0h-8.16v-2.4m-118.32 0v2.4m37.36-2.4v2.4h3.04v-2.4m37.44 0v2.4h3.04v-2.4m109.04 24.4-0.8 2.32-2.88-0.96 0.8-2.32m-67.2 578.64 95.12-33.04m-88.48 28.56 86.4-30m-29.44 10.24-0.8-2.32-2.88 1.04 0.8 2.24m-28.32 9.84-0.8-2.32-2.88 1.04 0.8 2.32m-214.56-567.52 0.88 2.32 2.8-0.96-0.8-2.32m28.32-9.84 0.8 2.32 2.88-1.04-0.8-2.24m-2.88 578.24 0.8-2.32 2.88 1.04-0.8 2.32m31.12 10.4v-2.48h-8.24m126.56 2.48v-2.48h8.16m-48.64 2.48v-2.48h3.04v2.48m-43.52 0v-2.48h3.04v2.48m-164.8-483.2h1.76v2.16h-1.76m244.24-121.12 95.12 33.04m-311.6 0 95.12-33.04m-93.12 34.48 86.4-30m-86.4 565.2 86.4 30m-88.4-28.56 95.12 33.04m119.84-602.08h-118.32m293.28 210.56h1.6l-0.88 1.2h0.4l0.32 0.08 0.16 0.16 0.16 0.48v0.24l-0.16 0.48-0.32 0.24-0.4 0.16h-0.48l-0.4-0.16-0.16-0.16-0.16-0.24m-1.12 0.24-0.16 0.16 0.16 0.16 0.16-0.16zm-0.88-2.72h-2m0.96 3.04v-3.04m-1.52 0.48-0.32-0.32-0.4-0.16h-0.64l-0.4 0.16-0.32 0.32v0.24l0.16 0.32 0.16 0.16 0.24 0.08 0.88 0.32 0.32 0.16 0.16 0.16 0.16 0.24v0.48l-0.32 0.24-0.4 0.16h-0.64l-0.4-0.16-0.32-0.24m-6.96-8.72h2l-2 1.36h2m-2-3.36h2v0.64l-0.08 0.32-0.16 0.16-0.24 0.16-0.24 0.08h-0.48l-0.32-0.08-0.16-0.16-0.24-0.16-0.08-0.32zm-1.68 278.08v3.04h6.0801v-3.04zm27.92 10.32 0.24-0.16 0.48-0.48v3.04m-3.2-3.04-0.4 0.16-0.32 0.48-0.16 0.72v0.4l0.16 0.72 0.32 0.48 0.4 0.08h0.32l0.4-0.08 0.32-0.48 0.16-0.72v-0.4l-0.16-0.72-0.32-0.48-0.4-0.16zm-3.44 0h1.6l-0.88 1.2h0.4l0.32 0.16 0.16 0.16 0.16 0.4v0.32l-0.16 0.4-0.32 0.32-0.4 0.08h-0.48l-0.4-0.08-0.16-0.16-0.16-0.32m-1.12 0.32-0.16 0.16 0.16 0.08 0.16-0.08zm-1.28-0.72h-1.52m-0.4 0.96 1.12-3.04 1.2 3.04m-2.64-3.04h-2m1.04 3.04v-3.04m-31.68-9.68v3.04h-6v-3.04zm69.68 30.4h13.92m-13.92-17.84h13.92m-132.8 74.48v-63.36m-94.56 95.84h-118.32m-94.64-567.68v65.68m-2-67.12v43.52m-27.76-1.36h-2.16m341.52 495.92v-64.8m-95.12 97.84h-121.36m121.36-604.16h-121.36" fill="none" stroke="#000" stroke-linecap="round" stroke-linejoin="round" stroke-miterlimit="10" stroke-width=".48"/>
</svg>
