<?xml version="1.0" encoding="UTF-8"?>
<!-- Created with Inkscape (http://www.inkscape.org/) -->
<svg width="1632" height="1056" version="1.1" viewBox="0 0 1632 1056" xmlns="http://www.w3.org/2000/svg">
 <defs>
  <clipPath id="clipPath526">
   <path d="m1486 938.25v-887.04h-1416.6v887.04h1416.6" stroke-width=".16"/>
  </clipPath>
 </defs>
 <path id="map" d="m390.16 753.77 0.64-0.32 0.8-0.8v5.6m-4.8-5.6v5.6m0-5.6-2.72 3.68h4m-6.56-3.68v5.6m0-5.6-2.72 3.68h4m-7.2-8.48h22.08m-22.08 1.6h22.08m226.24-171.04v3.84h2.08m-5.28-1.28h1.76m-2.24 1.28 1.44-3.84 1.44 3.84m-3.52-2.88-0.96-0.96h-0.64l-0.48 0.32-0.32 0.32-0.16 0.32-0.16 0.48v0.96l0.16 0.48 0.16 0.32 0.32 0.32 0.48 0.32h0.64l0.96-0.96m-4-2.88v3.84m-3.84 0v-3.84l2.56 3.84v-3.84m-5.76 2.56h1.76m-2.24 1.28 1.44-3.84 1.44 3.84m-6.24-2.08h2.4m0-1.76v3.84m-2.4-3.84v3.84m-1.28-2.88-0.16-0.32-0.64-0.64h-0.8l-0.64 0.64-0.16 0.32-0.16 0.48v0.96l0.16 0.48 0.16 0.32 0.64 0.64h0.8l0.64-0.64 0.16-0.32m-5.76 0.96h2.24m-2.24-2.08h1.44m-1.44 2.08v-3.84h2.24m-6.4 3.84v-3.84l1.28 3.84 1.44-3.84v3.84m-61.44-10.56-0.16 0.32 0.16 0.16 0.16-0.16-0.16-0.32m-4-1.44h2.4m0-1.76v3.68m-2.4-3.68v3.68m-1.28-2.88-0.16-0.32-0.32-0.32-0.32-0.16h-0.8l-0.32 0.16-0.32 0.32-0.16 0.32-0.16 0.48v0.96l0.16 0.48 0.16 0.32 0.32 0.48 0.32 0.16h0.8l0.32-0.16 0.32-0.48 0.16-0.32m-5.76 0.96h2.24m-2.24-1.92h1.44m-1.44 1.92v-3.68h2.24m-6.56 3.68v-3.68l1.44 3.68 1.44-3.68v3.68m-44.8-3.68v3.68h2.08m-5.28-1.28h1.76m-2.4 1.28 1.44-3.68 1.44 3.68m-3.52-2.88-0.16-0.32-0.32-0.32-0.32-0.16h-0.8l-0.32 0.16-0.32 0.32-0.16 0.32-0.16 0.48v0.96l0.16 0.48 0.16 0.32 0.32 0.48 0.32 0.16h0.8l0.32-0.16 0.32-0.48 0.16-0.32m-3.84-2.72v3.68m-3.84 0v-3.68l2.4 3.68v-3.68m-5.6 2.4h1.76m-2.24 1.28 1.28-3.68 1.44 3.68m-6.08-1.92h2.4m0-1.76v3.68m-2.4-3.68v3.68m-1.28-2.88-0.16-0.32-0.32-0.32-0.48-0.16h-0.64l-0.32 0.16-0.32 0.32-0.16 0.32-0.32 0.48v0.96l0.32 0.48 0.16 0.32 0.32 0.48 0.32 0.16h0.64l0.48-0.16 0.32-0.48 0.16-0.32m-5.76 0.96h2.24m-2.24-1.92h1.28m-1.28 1.92v-3.68h2.24m-6.56 3.68v-3.68l1.44 3.68 1.44-3.68v3.68m81.92-10.4 2.56-5.6h-3.68m-2.56 0v5.6m0-5.6-2.72 3.84h4m-6.56-3.84v5.6m0-5.6-2.72 3.84h4m-56.16-3.68-0.32-0.48-0.8-0.16h-0.48l-0.8 0.16-0.48 0.8-0.32 1.28v1.44l0.32 0.96 0.48 0.64 0.8 0.16h0.32l0.8-0.16 0.48-0.64 0.32-0.8v-0.16l-0.32-0.8-0.48-0.64-0.8-0.16h-0.32l-0.8 0.16-0.48 0.64-0.32 0.8m-2.88-3.68v5.44m0-5.44-2.72 3.68h4m-6.56-3.68v5.44m0-5.44-2.72 3.68h4m-40.64 148.16 2.08-1.6m-3.68 0 2.4 2.4m-2.4 0h3.68m-3.68 3.04h3.68v-2.08m-1.28 5.28v-1.76m1.28 2.24-3.68-1.44 3.68-1.44m-3.68 6.88 3.68-0.8-3.68-0.96 3.68-0.8-3.68-0.96m0 6.56v-2.4m0 1.12h3.68m-1.28 3.84v-1.76m1.28 2.4-3.68-1.44 3.68-1.44m-2.88 3.52-0.32 0.16-0.32 0.32-0.16 0.48v0.64l0.16 0.32 0.64 0.64 0.64 0.16h0.8l0.64-0.16 0.64-0.64 0.16-0.32v-0.64l-0.16-0.48-0.32-0.32-0.32-0.16m-0.8-93.92v5.6m0-5.6-2.72 3.68h4m-6.56-3.68v5.6m0-5.6-2.72 3.68h4m-6.56-3.68v5.6m0-5.6-2.72 3.68h4m1.92-72.64v10.4m4-86.56v-0.64m90.56 157.44h1.76m-1.76 0.32h1.76m-76.32-51.84h3.84m-4.16 0.16h3.84m-4 0.16h3.84m-4 0.16h3.84m-4.8 0.96h3.84m-4.16 0.32h3.84m-1.92 6.56h3.84m-4.16-0.32h3.84m-4-0.16h3.84m-4-0.16h3.84m-4.8-0.96h3.84m-4.16-0.32h3.84m-1.92-6.4v-19.36m0 67.52v-39.84m-0.32-8.16v-19.36m0 67.04v-39.84m-0.16-7.68v-19.36m0 66.88v-40m-0.16-7.36v-19.2m0 66.56v-40.16m-1.12 40.16v-14.4m0.16-32v-19.2m-0.32 19.52v-19.2m0.32 50.88v-26.72m-0.32 41.44v-41.76m0-5.28v-18.56m0 65.28v-41.12m-17.12-107.04h4.16v-1.92h-1.12m128.96 1.92h-0.64v11.04h0.64v-11.04m-11.195-0.16214c0.1837 5.8507 4.6398 10.635 10.39 11.155m-10.235-12.113v0.48-0.48m11.04 0h-0.16v0.48h0.16v-0.48m-11.04 1.12h-0.64v-1.6h0.64v1.6m11.04 0h0.64v-1.6h-0.64v1.6m-127.2 0v2.08m14.08-1.6v-0.48m0.16 0.32v-0.32m-1.92 0v2.08m62.4-1.6v-0.48m-0.16 0.32v-0.32m1.92 0v2.08m12.32-2.08v152.16m-76.48-150.08h64.16m-62.24 78.88h-16.8v-78.88h2.56m18.08 106.56v-8.32m-5.6-100.32v1.92h63.68v-1.92m-62.24 81.12h-16.64v-79.2h2.56v-1.92m17.92 108.32v-7.84m-4.96-100.48v1.76h63.2v-1.76m-62.24 81.28h-16.8v-79.52h2.72v-1.76m17.92 108.16v-7.52m-4.64-100.64v1.6h62.88v-1.6m-62.24 81.6h-16.8v-80h2.72v-1.6m17.92 108v-7.2m-3.36-100.32h60.64m-60.48-0.16h60.32m-78.72 82.24v-82.24m-0.32 82.56v-82.56m17.12 82.24h-16.8m16.48 0.32h-16.8m20.96 24.16v-5.28m-0.32 4.96v-4.64m76.16-102.08h-3.52m-76.48 82.88h-16.8v-82.56m93.28 147.84h-76.48m78.24-147.84v151.84m-90.56-154.08v1.92m12.32-1.92v1.92m-11.68-1.6h0.64v-11.04h-0.64v11.04m10.875 2e-3c-0.18376-5.8507-4.6398-10.635-10.39-11.155m10.555 12.273h-0.16v-0.48h0.16v0.48m-11.04 0h0.16v-0.48h-0.16v0.48m11.04-1.12h0.64v1.6h-0.64v-1.6m-11.04 0h-0.64v1.6h0.64v-1.6m91.52 1.6v150.56m-0.16 0.16v-150.72m-1.12 151.84v-151.84 146.88m1.44 3.52v-150.4m-15.84 0v-1.92m12.32 1.92v-1.92m-0.64 0.32h-0.64v-11.04h0.64v11.04m-0.81035-10.994c-5.8307 0.51757-10.352 5.2396-10.543 11.01m0.15362 1.1036h0.16v-0.48h-0.16v0.48m11.2 0h-0.16v-0.48h0.16v0.48m-11.2-1.12h-0.48v1.6h0.48v-1.6m11.2 0h0.64v1.6h-0.64v-1.6m-11.68-0.32v1.92m12.8 0v151.84m-0.16-151.84v151.84m-0.16-151.84v151.84m1.44 0v-151.84m0.16 152.16v-152.16m1.6 150.56h37.44m-115.36-3.68h74.56m3.2 3.84h37.6m-115.36-3.68h74.56m2.08 4.8h38.72m-113.44-3.68h72.64-74.56m78.08 2.24h37.28m-115.36-4h74.56m-74.56 0.32h74.56m39.04-146.72h1.76m-14.08-1.92v1.92m12.32-1.92v1.92m-39.04 0h26.72m-120 0.32h4.48m11.68-0.32h64.8m-81.28 0h5.44m88.16-1.92h26.72m-103.2 0h64.16m-78.24 0h1.76m102.08 286.08-2.4 3.68m0-3.68 2.4 3.68m-3.68-3.2-0.16-0.32-0.64-0.16h-0.32l-0.48 0.16-0.32 0.64-0.16 0.8v0.96l0.16 0.64 0.32 0.32 0.48 0.16h0.16l0.64-0.16 0.32-0.32 0.16-0.48v-0.16l-0.16-0.64-0.32-0.32-0.64-0.16h-0.16l-0.48 0.16-0.32 0.32-0.16 0.64m-3.2-1.76 0.8-0.8v3.68m-3.04-3.68v3.68m0-3.68-1.76 2.56h2.56m142.56-294.88-2.56 3.68m0-3.68 2.56 3.68m-3.68-3.2-0.16-0.32-0.64-0.16h-0.32l-0.48 0.16-0.32 0.48-0.32 0.8v0.96l0.32 0.64 0.32 0.48 0.48 0.16h0.16l0.48-0.16 0.48-0.48 0.16-0.48v-0.16l-0.16-0.48-0.48-0.48-0.48-0.16h-0.16l-0.48 0.16-0.64 0.96m-3.2-2.4h1.92l-1.12 1.28h0.48l0.48 0.16 0.16 0.32 0.16 0.48v0.32l-0.16 0.48-0.48 0.48-0.48 0.16h-0.48l-0.48-0.16-0.32-0.32-0.16-0.32m-1.76-2.88v3.68m0-3.68-1.76 2.4h2.72m-107.2 191.84 1.44 5.44 1.28-5.44 1.28 5.44 1.28-5.44m-9.12 0-0.64 0.16-0.48 0.48-0.32 0.64-0.16 0.8v1.28l0.16 0.8 0.32 0.48 0.48 0.64 0.64 0.16h0.96l0.64-0.16 0.48-0.64 0.16-0.48 0.32-0.8v-1.28l-0.32-0.8-0.16-0.64-0.48-0.48-0.64-0.16h-0.96m-5.92 0v5.44h3.2m-8.16 0h3.36m-3.36-2.88h2.08m-2.08 2.88v-5.44h3.36m-6.56 2.56 0.8 0.32 0.32 0.16 0.16 0.64v0.8l-0.16 0.48-0.32 0.32-0.8 0.16h-2.4v-5.44h2.4l0.8 0.16 0.32 0.32 0.16 0.48v0.48l-0.16 0.64-0.32 0.16-0.8 0.32h-2.4m-9.92-2.56-0.64 0.16-0.48 0.48-0.32 0.64-0.16 0.8v1.28l0.16 0.8 0.32 0.48 0.48 0.64 0.64 0.16h0.96l0.48-0.16 0.64-0.64 0.16-0.48 0.32-0.8v-1.28l-0.32-0.8-0.16-0.64-0.64-0.48-0.48-0.16h-0.96m-6.4 0h3.68m-1.76 0v5.44m15.2-8.96v-5.6l3.68 5.6v-5.6m-8.64 5.6h3.36m-3.36-2.88h2.08m-2.08 2.88v-5.6h3.36m-8.96 5.6v-5.6h2.4l0.8 0.32 0.32 0.32 0.16 0.48v0.8l-0.16 0.48-0.32 0.32-0.8 0.32h-2.4m-4.48-3.04-0.48 0.32-0.48 0.48-0.32 0.64-0.32 0.8v1.28l0.32 0.8 0.32 0.48 0.48 0.48 0.48 0.32h1.12l0.48-0.32 0.48-0.48 0.32-0.48 0.32-0.8v-1.28l-0.32-0.8-0.32-0.64-0.48-0.48-0.48-0.32h-1.12m247.04-80.32v-3.68l1.44 3.68 1.28-3.68v3.68m-5.76-3.68-0.32 0.16-0.32 0.32-0.16 0.32-0.32 0.48v0.96l0.32 0.48 0.16 0.32 0.32 0.48 0.32 0.16h0.64l0.48-0.16 0.32-0.48 0.16-0.32 0.16-0.48v-0.96l-0.16-0.48-0.16-0.32-0.32-0.32-0.48-0.16h-0.64m-3.84 0-0.32 0.16-0.48 0.32-0.16 0.32-0.16 0.48v0.96l0.16 0.48 0.16 0.32 0.48 0.48 0.32 0.16h0.64l0.32-0.16 0.48-0.48 0.16-0.32 0.16-0.48v-0.96l-0.16-0.48-0.16-0.32-0.48-0.32-0.32-0.16h-0.64m-3.36 1.76 1.28 1.92m-2.56 0v-3.68h1.6l0.48 0.16 0.32 0.16 0.16 0.32v0.32l-0.16 0.32-0.32 0.16-0.48 0.32h-1.6m-1.12-1.28-0.48-0.32-0.48-0.16h-0.64l-0.64 0.16-0.32 0.32v0.32l0.16 0.32 0.16 0.16 0.48 0.16 1.28 0.64 0.48 0.48v0.48l-0.48 0.48-0.48 0.16h-0.64l-0.64-0.16-0.32-0.48m-0.96-2.56-0.48-0.32-0.48-0.16h-0.64l-0.64 0.16-0.32 0.32v0.32l0.16 0.32 0.16 0.16 0.48 0.16 1.28 0.64 0.48 0.48v0.48l-0.48 0.48-0.48 0.16h-0.64l-0.64-0.16-0.32-0.48m-3.04-0.64h1.76m-2.24 1.28 1.44-3.68 1.44 3.68m-5.28-3.68v3.68h2.08m-3.36-2.88-0.16-0.32-0.32-0.32-0.48-0.16h-0.64l-0.32 0.16-0.32 0.32-0.16 0.32-0.32 0.48v0.96l0.32 0.48 0.16 0.32 0.32 0.48 0.32 0.16h0.64l0.48-0.16 0.32-0.48 0.16-0.32m-326.72-138.72h2.56m-3.36 1.76 2.08-5.44 2.08 5.44m-5.76-0.48-0.32 0.32 0.32 0.16 0.16-0.16-0.16-0.32m-4.8-4.96v5.44h3.2m-8.16 0h3.36m-3.36-2.88h2.08m-2.08 2.88v-5.44h3.36m25.92-26.08h22.08m1.92 0v46.88m-1.92-46.88v48.8m20.32-48.8h-18.4m-69.28 0h39.68m48 3.68v-3.68m6.24-1.44v-3.68h-2.4m-86.88 232 35.2 11.04m0-11.04-35.2 11.04m401.12-108.32v-3.68l2.4 3.68v-3.68m-5.76 3.68h2.24m-2.24-1.92h1.28m-1.28 1.92v-3.68h2.24m-6.56 3.68v-3.68l1.44 3.68 1.44-3.68v3.68m-5.76-3.68-0.48 0.16-0.32 0.48-0.16 0.32-0.16 0.48v0.96l0.16 0.48 0.16 0.32 0.32 0.32 0.48 0.16h0.64l0.32-0.16 0.32-0.32 0.16-0.32 0.32-0.48v-0.96l-0.32-0.48-0.16-0.32-0.32-0.48-0.32-0.16h-0.64m-5.6 0 0.96 3.68 0.8-3.68 0.96 3.68 0.8-3.68m-26.08-17.92v-3.68l2.56 3.68v-3.68m-5.92 3.68h2.4m-2.4-1.92h1.44m-1.44 1.92v-3.68h2.4m-6.56 3.68v-3.68l1.44 3.68 1.28-3.68v3.68m-22.4-1.92-0.16-0.32-0.64-0.48h3.84m-3.84 3.84 0.32 0.48 0.48 0.32 0.8 0.32h0.64l0.8-0.32 0.48-0.32 0.32-0.48v-0.32l-0.32-0.64-0.48-0.32-0.8-0.16h-0.64l-0.8 0.16-0.48 0.32-0.32 0.64v0.32m0 2.88h3.84m-3.84 0 2.56 1.76v-2.72m-289.6 234.24v-3.68l2.56 3.68v-3.68m-6.24 3.68v-3.68h1.28l0.48 0.16 0.32 0.48 0.16 0.32 0.32 0.48v0.96l-0.32 0.48-0.16 0.32-0.32 0.32-0.48 0.16h-1.28m-15.04-16.8h6.56m-6.56 1.92h6.56m-28.64 0v-1.92m22.08 1.92v-1.92m236.48-257.6h21.76m-19.68 5.28h-12.8v-3.36m10.72-0.32h0.64m1.44 0.32h28.96m-30.4 1.76h-9.92v-3.68m11.36 1.92v3.36m-1.44-3.68v2.08m-0.64-2.08v-1.6h2.08m-12.32 0h0.96m9.1187-0.0883c0.0407-2.4235-0.89362-4.7618-2.5931-6.4901-1.6995-1.7282-4.0218-2.7016-6.4456-2.7016m0.08 0h-0.16 0.16m-0.16 9.28h0.32l-0.32-9.28zm0.32 0-0.32-9.28h0.32zm-124.64 287.2h2.24m-2.24-1.6h0.64m-9.68 10.72c2.4238 0 4.7462-0.97338 6.4456-2.7016 1.6995-1.7282 2.6337-4.0666 2.5931-6.4901m-8.9587 9.3517h-0.16 0.16m0.16-9.28h-0.32l0.32 9.28zm-0.32 0 0.32 9.28h-0.32zm9.12 0v-1.6m-9.12 1.6v-1.6m-6.56-2.08h-52.96m58.56 2.08h0.96m9.76 0v-2.08m1.6 3.68v-3.68m-12.32 3.68h0.96m-120.8-217.28h22.24m-22.88 0.96v-1.76m0.64 1.76v-1.76m22.24 1.76v-1.76m0.48 1.76v-1.76m2.24 41.28v-19.2m0 39.52v-19.2m0.96 19.84h-1.92m1.92-0.64h-1.92m1.92-19.2h-1.92m1.92-1.12h-1.92m1.92-19.2h-1.92m1.92-0.64h-1.92m32.64 41.92v-22.08m-0.96-0.64h1.92m-1.92 0.64h1.92m-1.92 22.08h1.92m-1.92 0.64h1.92m-0.96-30.56v-12.8m-0.96 13.44h1.92m-1.92-0.64h1.92m-1.92-12.8h1.92m-1.92-0.64h1.92m-79.84-168.32h11.2m243.04 360.8-174.4-125.6m0 125.6 174.4-125.6m86.56 84.96h1.76-1.76m1.76 11.04h-1.76m1.6866-2e-3c2.9331 0.0411 5.7602-1.0954 7.8489-3.155 2.0887-2.0591 3.2645-4.87 3.2645-7.8034m0.16 0.08v-0.16 0.16m-11.2-0.16v0.32l11.2-0.32zm0 0.32 11.2-0.32v0.32zm-0.0734-46.401c2.9331 0.0411 5.7602-1.0954 7.8489-3.155s3.2645-4.8706 3.2645-7.8039m0.16 0.08v-0.16 0.16m-11.2-0.16v0.32l11.2-0.32zm0 0.32 11.2-0.32v0.32zm0 10.72h-1.76m0-11.04h1.76-1.76m-24-45.6h1.76-1.76m1.76 11.04h-1.76m1.6866-2e-3c2.9331 0.0411 5.7602-1.0954 7.8489-3.155 2.0887-2.0591 3.2645-4.87 3.2645-7.8034m0.16 0.08v-0.16 0.16m-11.2-0.16v0.32l11.2-0.32zm0 0.32 11.2-0.32v0.32zm22.24-12h1.76-1.76m1.76 11.04h-1.76m1.6866-2e-3c2.9331 0.0411 5.7602-1.0954 7.8489-3.155 2.0887-2.0591 3.2645-4.87 3.2645-7.8034m0.16 0.08v-0.16 0.16m-11.2-0.16v0.32l11.2-0.32zm0 0.32 11.2-0.32v0.32zm-1.76-57.76h1.76-1.76m1.6866 11.039c2.9331 0.0411 5.7602-1.0954 7.8489-3.155s3.2645-4.8706 3.2645-7.8039m0.16 0.08v-0.16 0.16m-11.2-0.16v0.16l11.2-0.16zm0 0.16 11.2-0.16v0.16zm0 10.88h-1.76m1.76-29.6h-1.76m1.76 11.04h-1.76m12.8-0.24c0-2.9334-1.1759-5.7443-3.2645-7.8039-2.0887-2.0596-4.9158-3.196-7.8489-3.155m11.273 11.04v0.16-0.16m-11.2-0.16v0.32l11.2-0.32zm0 0.32 11.2-0.32v0.32zm-31.36 221.92v-1.92m-10.4 1.92v-1.92m10.16-10.56c-2.7636 0-5.4118 1.1084-7.3514 3.0771-1.9396 1.9686-3.0086 4.633-2.9675 7.3963m10.399-10.313h0.16-0.16m-0.16 10.4h0.32l-0.32-10.4zm0.32 0-0.32-10.4h0.32zm-201.28-353.92h310.08m-318.08-6.24h5.6v2.56m-20.96 2.24h9.28m-9.28 1.76h9.28m-0.96-1.76v1.76m-7.36-1.76v1.76m0-0.96h7.36m-8.32-3.04v5.12m9.28-5.12v5.12m6.08-7.68v2.56h-21.6v-2.56h-5.44m-27.04 2.56v-2.56h5.44v2.56h21.6v-2.56m-42.56 2.56v3.68m0.96-1.44v1.76m-0.96-4v5.12m8.32-2.88v1.76m0.96-4v5.12m-8.32-2.08h7.36m-8.32-0.8h9.28m-9.28 1.76h9.28m113.28 2.08h-7.04m-1.92 0.96v-1.92m1.92 1.92v-1.92m7.04 1.92v-1.92m1.28 3.68v-5.12m-17.28 3.36v-1.92m-1.28 3.68v-5.12m18.56 3.36h-18.56m18.56-1.92h-18.56m8.32 0.96h-7.04m136.16 2.72v-5.12m-1.28 3.36v-1.92m-17.28 3.68v-5.12m8.32 2.4h-7.04m0 0.96v-1.92m8.96 1.92v-1.92m-1.92 1.92v-1.92m10.24 0h-18.56m17.28 0.96h-7.04m8.32 0.96h-18.56m54.56 1.76v-5.12m-1.28 3.36v-1.92m-17.12 3.68v-5.12m8.32 2.4h-7.2m0 0.96v-1.92m8.96 1.92v-1.92m-1.76 1.92v-1.92m10.08 0h-18.4m17.12 0.96h-7.04m8.32 0.96h-18.4m44.32 0v-1.92m1.76 1.92v-1.92m-8.8 1.92v-1.92m16 1.92v-1.92m-8.96 0.96h-7.04m17.12 0.96h-18.4m17.28-0.96h-7.2m8.32-0.96h-18.4m0 3.68v-5.12m18.4 5.12v-5.12m-144.32 2.4h7.2m0 0.96v-1.92m1.76 1.92v-1.92m-19.2 3.68v-5.12m8.32 3.36v-1.92m1.92 1.92v-1.92m-9.12 1.92v-1.92m0 0.96h7.2m19.36 2.72v-5.12m-1.28 3.36v-1.92m-26.4 0h27.68m-27.68 1.92h27.68m-8.48-0.96h7.2m195.84 13.6h5.28m-3.36 8.32h1.76m-1.76 1.76h1.76m-1.76-8.96h1.76m-0.96 7.2v-7.2m-2.72 17.28h5.28m-3.36-1.12h1.76m-1.76 1.12v-18.4m1.76 18.4v-18.4m-0.96 17.28v-7.2m12.96 131.68v7.2m-0.96 0h1.92m-1.92 1.92h1.92m-3.68-19.36h5.28m-3.52 8.48h1.92m-1.92 1.76h1.92m-1.92-8.96h1.92m-0.96 0v7.2m-2.72 19.2h5.28m-3.52-1.12h1.92m0-26.56v27.68m-1.92-27.68v27.68m0.96-8.32v7.2m0 37.28v-7.2m-0.96 0h1.92m-1.92 8.96h1.92m-1.92-1.76h1.92m-3.68-8.32h5.28m-3.52 17.28h1.92m-3.68 1.12h5.28m-2.56-1.12v-7.2m0.96 8.32v-18.4m-1.92 18.4v-18.4m-25.44 231.04h9.12m-9.12 1.92h9.12m-8.32-0.96h7.52m0.8-2.88v5.28m-9.12-5.28v5.28m0.8-3.36v1.92m7.52-1.92v1.92m-28.96-1.92h9.12m-8.32 0.96h7.52m-8.32 0.96h9.12m-0.8-1.92v1.92m-7.52-1.92v1.92m-0.8-3.84v5.28m9.12-5.28v5.28m-447.84-13.92h5.44v5.6m-10.72 1.44h3.68v3.68m484.96 3.2h-60.8m-165.12-378.56-0.16-0.64-0.8-0.16h-0.64l-0.8 0.16-0.48 0.8-0.16 1.28v1.44l0.16 0.96 0.48 0.64 0.8 0.16h0.32l0.8-0.16 0.48-0.64 0.32-0.8v-0.16l-0.32-0.8-0.48-0.64-0.8-0.16h-0.32l-0.8 0.16-0.48 0.64-0.16 0.8m-4-3.68-0.8 0.16-0.48 0.8-0.32 1.28v0.8l0.32 1.44 0.48 0.8 0.8 0.16h0.48l0.8-0.16 0.48-0.8 0.32-1.44v-0.8l-0.32-1.28-0.48-0.8-0.8-0.16h-0.48m-4.32 0v5.44m0-5.44-2.56 3.68h4m-6.08 1.28-0.32 0.32 0.32 0.16 0.16-0.16-0.16-0.32m-5.12-1.28h2.72m-3.52 1.76 2.24-5.44 2.08 5.44m-8.48-5.44h3.68m-1.92 0v5.44m218.4-41.12-0.8 0.32-0.32 0.48v0.64l0.32 0.48 0.48 0.32 1.12 0.16 0.8 0.32 0.48 0.48 0.16 0.48v0.8l-0.16 0.64-0.32 0.16-0.8 0.32h-0.96l-0.8-0.32-0.32-0.16-0.32-0.64v-0.8l0.32-0.48 0.48-0.48 0.8-0.32 1.12-0.16 0.48-0.32 0.32-0.48v-0.64l-0.32-0.48-0.8-0.32h-0.96m-6.08 0h2.88l-1.6 2.24h0.8l0.48 0.16 0.32 0.32 0.16 0.8v0.48l-0.16 0.8-0.48 0.48-0.8 0.32h-0.8l-0.8-0.32-0.32-0.16-0.32-0.64m-2.56-4.48v5.6m0-5.6-2.72 3.68h4m-37.6 1.92 2.72-5.6h-3.68m-4.8 0h2.88l-1.6 2.24h0.8l0.64 0.16 0.16 0.32 0.32 0.8v0.48l-0.32 0.8-0.48 0.48-0.8 0.32h-0.8l-0.8-0.32-0.32-0.16-0.16-0.64m-2.72-4.48v5.6m0-5.6-2.56 3.68h4m-36.16-2.88-0.32-0.48-0.8-0.32h-0.48l-0.8 0.32-0.64 0.8-0.16 1.28v1.28l0.16 1.12 0.64 0.48 0.8 0.32h0.16l0.8-0.32 0.64-0.48 0.16-0.8v-0.32l-0.16-0.8-0.64-0.48-0.8-0.16h-0.16l-0.8 0.16-0.64 0.48-0.16 0.8m-5.12-3.68h3.04l-1.6 2.24h0.8l0.48 0.16 0.32 0.32 0.16 0.8v0.48l-0.16 0.8-0.64 0.48-0.8 0.32h-0.8l-0.8-0.32-0.16-0.16-0.32-0.64m-2.56-4.48v5.6m0-5.6-2.72 3.68h4m-28.32-3.68h-2.56l-0.32 2.4 0.32-0.16 0.8-0.32h0.8l0.8 0.32 0.48 0.48 0.32 0.8v0.48l-0.32 0.8-0.48 0.48-0.8 0.32h-0.8l-0.8-0.32-0.32-0.16-0.16-0.64m-4.8-4.48h2.88l-1.6 2.24h0.8l0.48 0.16 0.32 0.32 0.32 0.8v0.48l-0.32 0.8-0.48 0.48-0.8 0.32h-0.8l-0.8-0.32-0.32-0.16-0.16-0.64m-2.72-4.48v5.6m0-5.6-2.56 3.68h3.84m-47.04-3.68v5.6m0-5.6-2.56 3.68h4m-8.8-3.68h2.88l-1.6 2.24h0.8l0.64 0.16 0.16 0.32 0.32 0.8v0.48l-0.32 0.8-0.48 0.48-0.8 0.32h-0.8l-0.8-0.32-0.16-0.16-0.32-0.64m-2.72-4.48v5.6m0-5.6-2.56 3.68h4m-39.04-3.68h2.88l-1.6 2.24h0.8l0.48 0.16 0.32 0.32 0.16 0.8v0.48l-0.16 0.8-0.64 0.48-0.8 0.32h-0.64l-0.8-0.32-0.32-0.16-0.32-0.64m-4.64-4.48h2.88l-1.6 2.24h0.8l0.48 0.16 0.32 0.32 0.16 0.8v0.48l-0.16 0.8-0.64 0.48-0.8 0.32h-0.64l-0.8-0.32-0.32-0.16-0.32-0.64m-2.56-4.48v5.6m0-5.6-2.72 3.68h4m-19.04-2.24v-0.32l0.16-0.48 0.32-0.32 0.48-0.32h1.12l0.48 0.32 0.32 0.32 0.16 0.48v0.48l-0.16 0.64-0.64 0.64-2.56 2.72h3.68m-8.48-5.6h2.88l-1.6 2.24h0.8l0.64 0.16 0.16 0.32 0.32 0.8v0.48l-0.32 0.8-0.48 0.48-0.8 0.32h-0.8l-0.8-0.32-0.16-0.16-0.32-0.64m-2.72-4.48v5.6m0-5.6-2.56 3.68h4m-29.76-2.56 0.64-0.32 0.8-0.8v5.6m-6.88-5.6h2.88l-1.6 2.24h0.8l0.48 0.16 0.32 0.32 0.32 0.8v0.48l-0.32 0.8-0.48 0.48-0.8 0.32h-0.8l-0.8-0.32-0.32-0.16-0.32-0.64m-2.56-4.48v5.6m0-5.6-2.72 3.68h4m221.92 267.2v21.92h1.6m-3.2-21.92v21.92m-118.08-242.88h75.84m-191.52 156v125.6m-29.92-239.2h2.56m-3.36 1.92 2.08-5.6 2.08 5.6m-5.76-5.6h-2.72l-0.16 2.4 0.16-0.32 0.8-0.16h0.8l0.8 0.16 0.48 0.64 0.32 0.8v0.48l-0.32 0.8-0.48 0.48-0.8 0.32h-0.8l-0.8-0.32-0.16-0.16-0.32-0.64m-2.72-4.48v5.6m0-5.6-2.56 3.68h4m-6.72-3.68v5.6m0-5.6-2.56 3.68h4m33.28 70.72h2.72m-3.52 1.92 2.24-5.6 2.08 5.6m-6.4-5.6v5.6m0-5.6-2.56 3.68h3.84m-6.56-3.68v5.6m0-5.6-2.56 3.68h3.84m-6.56-3.68v5.6m0-5.6-2.56 3.68h3.84m-17.12-16 0.8 0.32 0.16 0.16 0.32 0.64v0.8l-0.32 0.48-0.16 0.32-0.8 0.16h-2.4m0 0v-5.44h2.4l0.8 0.16 0.16 0.32 0.32 0.48v0.48l-0.32 0.64-0.16 0.16-0.8 0.32h-2.4m-2.4-2.56h-2.72l-0.16 2.24 0.16-0.16 0.8-0.32h0.8l0.8 0.32 0.64 0.48 0.16 0.8v0.48l-0.16 0.8-0.64 0.64-0.8 0.16h-0.8l-0.8-0.16-0.16-0.32-0.32-0.48m-2.56-4.48v5.44m0-5.44-2.72 3.68h4m-6.56-3.68v5.44m0-5.44-2.72 3.68h4m-6.88-31.04v1.92m-1.76-12.32v-43.84m44.32 70.56v1.6m-1.76-1.6v2.72m-14.88-15.36v2.24h1.92v-4m-1.92 14.4h1.92m-12.48-10.48c0 5.7879 4.6921 10.48 10.48 10.48m0.08-10.4h-10.4m27.04 0h-1.76m1.76 10.4h-1.76m-40.8-26.72h-1.76m1.76 10.4h-1.76m12.16-0.08c0-5.788-4.692-10.48-10.48-10.48m0.08 10.56h10.56m47.04 20.96h-17.76v-1.92h0.96m-11.52 1.92v-1.92m-0.08 12.32c5.788 0 10.48-4.6921 10.48-10.48m-10.4 0.08v10.4m28.32 35.2h-16.8v1.92h18.72m-29.28-1.92v1.92m10.4-2c0-5.788-4.692-10.48-10.48-10.48m0.08 10.56v-10.4m-4.4066 16.161c-2.9331-0.0411-5.7602 1.0954-7.8489 3.155s-3.2645 4.8706-3.2645 7.8039m0.16 0.08v0.16-0.16m11.04 0.16v-0.32l-11.04 0.32zm0-0.32-11.04 0.32v-0.32zm1.92-10.72h-1.92m1.92 11.04h-1.92m1.92-11.04v-4m-1.92 4v-4m1.92 0h2.4m32.96 16.32h20v2.08m1.6 0v-3.68h-21.6m196.16-174.4h-12.32v-11.68h9.12m-10.72 11.68v-13.28h13.92v-29.92m140.8 112v-0.16l0.32-0.64 0.32-0.16 0.48-0.32h1.12l0.48 0.32 0.32 0.16 0.16 0.64v0.48l-0.16 0.48-0.64 0.8-2.56 2.72h3.68m-7.36-5.6-0.8 0.32-0.64 0.8-0.16 1.28v0.8l0.16 1.28 0.64 0.8 0.8 0.32h0.48l0.8-0.32 0.48-0.8 0.32-1.28v-0.8l-0.32-1.28-0.48-0.8-0.8-0.32h-0.48m-4.32 0v5.6m0-5.6-2.56 3.68h4m-28.32-24-0.8 0.32-0.48 0.8-0.32 1.28v0.8l0.32 1.28 0.48 0.8 0.8 0.32h0.64l0.8-0.32 0.48-0.8 0.32-1.28v-0.8l-0.32-1.28-0.48-0.8-0.8-0.32h-0.64m-5.28 0-0.8 0.32-0.48 0.8-0.32 1.28v0.8l0.32 1.28 0.48 0.8 0.8 0.32h0.64l0.8-0.32 0.48-0.8 0.32-1.28v-0.8l-0.32-1.28-0.48-0.8-0.8-0.32h-0.64m-4.16 0v5.6m0-5.6-2.72 3.68h4m-58.72-0.8v-26.08m-1.76 25.92v-24m0 41.28h1.76m8.48-0.24c0-2.2541-0.9059-4.4136-2.5141-5.993s-3.7836-2.4463-6.0373-2.4056m8.7114 8.4786v0.16-0.16m-8.64-0.16v0.32l8.64-0.32zm0 0.32 8.64-0.32v0.32zm-0.0714-8.8014c2.2537 0.0406 4.4292-0.82622 6.0373-2.4057 1.6082-1.5794 2.5141-3.7389 2.5141-5.993m0.16 0.08v-0.16 0.16m-8.64-0.16v0.32l8.64-0.32zm0 0.32 8.64-0.32v0.32zm-1.76-0.32h1.76m53.92-16.16h-0.32m0.32-1.44v1.44m-0.32-1.44v1.44m8.32 7.76c0-2.1272-0.85573-4.165-2.3745-5.6545-1.5187-1.4895-3.5728-2.3054-5.6996-2.264m8.0741 7.9985v0.16-0.16m-8-0.16v0.32l8-0.32zm0 0.32 8-0.32v0.32zm0-0.16v1.6m0-1.6h-0.32m0.32 0v1.6m0-1.6h-0.32m0 0v1.92m0.32 0h18.24m0-0.32h-18.24m0 0h18.24m0 0.32h-18.56m-9.12 11.04h7.36v-1.6m27.68 16.96h7.36m-13.28 0h4.32m1.6-37.6h16.64m-22.56 0h4.32m-5.76 37.6v-37.6m1.44 37.6v-37.6m4.32 37.6v-37.6m1.6 37.6v-37.6m7.36 39.52v-1.92m-64.64-28.96v-12.32m1.76 12.32v-6.4m10.4 16.72c0-2.7636-1.1084-5.4118-3.0771-7.3514-1.9686-1.9396-4.633-3.0086-7.3963-2.9675m10.633 10.399v0.16-0.16m-10.56-0.16v0.32l10.56-0.32zm0 0.32 10.56-0.32v0.32zm0-10.56h-1.76m1.76 10.56h-1.76m1.76 1.44v-1.6m0 4.16v-0.96m-1.76 0.96v-4m22.24 18.4h27.68m-37.76-4.24c0-2.7636-1.1084-5.4118-3.0771-7.3514-1.9686-1.9396-4.633-3.0086-7.3963-2.9675m10.633 10.399v0.16-0.16m-10.56-0.16v0.32l10.56-0.32zm0 0.32 10.56-0.32v0.32zm0-10.4h-1.76m1.76 10.4h-1.76m22.24 4v-15.36m-1.92 15.36v-15.36m-4.96-1.6v-9.44h1.6v9.44h12.64m-27.84 0h13.6m-13.6 1.6h18.56m-18.56 12.32v-0.96m-33.28-64h9.28m-9.28 22.08h9.28m-9.28-20.32h-1.76m1.6883 9.1187c2.4235 0.0407 4.7618-0.8936 6.4901-2.5931 1.7282-1.6995 2.7016-4.0218 2.7016-6.4456m0.16 0.08v-0.16 0.16m-9.28-0.16v0.32l9.28-0.32zm0 0.32 9.28-0.32v0.32zm9.12 18c0-2.4238-0.97336-4.7462-2.7016-6.4456-1.7282-1.6995-4.0666-2.6337-6.4901-2.5931m9.3517 9.1187v0.16-0.16m-9.28-0.16v0.32l9.28-0.32zm0 0.32 9.28-0.32v0.32zm0 0h-1.76m1.76-18.56v-1.76m-1.76 1.76v-1.76m1.76 22.08v-1.76m-1.76 1.76v-1.76m-247.84 7.84-0.32-0.48-0.64-0.16h-0.32l-0.64 0.16-0.48 0.64-0.16 1.12v1.12l0.16 0.8 0.48 0.48 0.64 0.16h0.16l0.64-0.16 0.48-0.48 0.16-0.64v-0.16l-0.16-0.64-0.48-0.48-0.64-0.16h-0.16l-0.64 0.16-0.48 0.48-0.16 0.64m-1.92 0.96-0.16 0.32 0.16 0.16 0.16-0.16-0.16-0.32m-4.32-4h3.04m-1.44 0v4.48m-2.4-3.84-0.32-0.48-0.64-0.16h-0.96l-0.64 0.16-0.32 0.48v0.48l0.32 0.64 0.48 0.16 1.28 0.48 0.48 0.16 0.16 0.16 0.16 0.48v0.64l-0.32 0.48-0.64 0.16h-0.96l-0.64-0.16-0.32-0.48m13.92 3.68v-11.04m-14.24 0-2.24 4 0.96 1.6h-3.68l0.8 1.6-2.24 3.84m5.44-9.44v-1.6m-1.44 5.6v-5.6m-1.6 5.6v-5.6m-1.6 9.6v-9.6m-1.44 11.04v-11.04m-1.6 11.04v-11.04m-1.6 11.04v-11.04m-1.44 11.04v-11.04m-1.6 11.04v-11.04m-1.44 11.04v-11.04m-1.6 11.04v-11.04m-1.6 11.04v-11.04m362.72-15.68v-16.64m-3.52 16.64v-16.64m6.88 16.64h-11.36v-16.64h31.04m-32.96 14.72v-15.68m-14.24-35.84h47.2m-96.16 0h47.2m1.76 5.6h47.2m-34.88 28.32h34.88m-34.88 1.92h1.92m-14.24-1.92h1.92m10.4-0.24c0-5.788-4.692-10.48-10.48-10.48m0.08 10.56v-10.4m10.4 10.4v2.08m-10.4-2.08v2.08m12.32 15.68h-40.96m1.76 1.92h41.12m-59.52-17.6h-5.6m5.6-1.92h-5.6m3.68-33.92v33.92m1.92-0.16v2.08m10.4-2.08v2.08m0-2.16c0-5.788-4.692-10.48-10.48-10.48m0.08 10.56v-10.4m-5.6 10.56v-33.92m22.24 35.84h-6.24m6.24-1.92h-6.24m-37.12 9.28h19.36m-19.36 1.92h10.08m-22.4-45.12v43.2m12.32-0.16v2.08m-10.4-2.08v2.08m10.4-2.16c0-5.788-4.692-10.48-10.48-10.48m0.08 10.56v-10.56m-30.56 12.64h30.56m-30.56-1.92h9.28m-21.6-43.2v43.2m1.92-0.16v2.08m10.4-2.08v2.08m0-2.16c0-5.788-4.692-10.48-10.48-10.48m0.08 10.56v-10.56m-14.88 12.64h14.88m-14.88-1.92h7.52m-5.6-43.2v43.2m-1.92-0.16v2.08m-10.4-2.08v2.08m10.32-12.64c-5.7879 0-10.48 4.692-10.48 10.48m10.56 0.08v-10.56m-60.96 10.72h7.36m-7.36-0.16v2.08h50.56m-60.96-2.08v2.08m10.32-12.64c-5.7879 0-10.48 4.692-10.48 10.48m10.56 0.08v-10.56m1.92-32.48v43.2m-39.52 1.92h27.2m-27.2-1.92h13.6m-24-0.16v2.08m10.4-2.08v2.08m0-2.16c0-5.788-4.692-10.48-10.48-10.48m0.08 10.56v-10.56m-1.92-32.48v43.2m-12.96 1.92h14.88m-14.88-1.92h7.52m-5.6-42.56v42.56m-1.92-0.16v2.08m-10.4-2.08v2.08m10.32-12.64c-5.7879 0-10.48 4.692-10.48 10.48m10.56 0.08v-10.56m174.08-32.48h35.36m-35.36 43.2h5.6m-46.56 0h5.6m29.44 24h0.96m-74.88 1.92h73.44m-76.16 0h1.28m55.84 154.56h0.64m-3.68-2.4v-1.28m-51.36-150.88v149.44h52.64m-52.64 1.44h51.36m-104.8-176.8h11.68m-43.2 0h5.6m118.24-43.2h39.2m-100.16 43.2h41.28m-41.28-43.2h59.2m-90.56 0h29.44m-60.96 0h29.6m-42.56 0h11.2m-53.6-3.68v4.32h-5.6v-4.32m-39.68-3.04v3.04m12.64-8.32v3.2h19.2m12.8 39.04h22.88m-64.96 0v-33.92m45.6 12.96h-2.56l-0.32 2.4 0.32-0.16 0.8-0.32h0.8l0.8 0.32 0.48 0.48 0.32 0.8v0.48l-0.32 0.8-0.48 0.48-0.8 0.32h-0.8l-0.8-0.32-0.32-0.16-0.32-0.64m-3.68-4.48-0.8 0.32-0.48 0.8-0.32 1.28v0.8l0.32 1.28 0.48 0.8 0.8 0.32h0.64l0.8-0.32 0.48-0.8 0.32-1.28v-0.8l-0.32-1.28-0.48-0.8-0.8-0.32h-0.64m-4.16 0v5.6m0-5.6-2.72 3.84h4m-6.08 1.28-0.16 0.16 0.16 0.32 0.32-0.32-0.32-0.16m-4.96-1.28h2.56m-3.36 1.76 2.08-5.6 2.08 5.6m-8.32-5.6h3.68m-1.92 0v5.6m374.56 19.04v-33.92m-47.2 33.92v-33.92m-1.76 33.92v-33.92m-47.2 45.12v-9.28m-1.76 7.36v-43.2m-35.36 43.2v-43.2m-1.76 43.2v-8m-39.2 8v-43.2m-1.76 43.2v-43.2m-59.2 43.2v-43.2m-1.92 43.2v-43.2m-31.36 43.2v-44.96m1.92 44.96v-44.96m-31.52 44.96v-43.2m-1.76 43.2v-43.2m-96.408 69.921c-2.4235-0.0407-4.7618 0.8936-6.4901 2.5931-1.7282 1.6995-2.7016 4.0218-2.7016 6.4456m0 0.08v0.16-0.16m9.28 0.16v-0.32l-9.28 0.32zm0-0.32-9.28 0.32v-0.32zm0-8.8h1.76m0 9.12h-1.76v0.96m1.76-0.96v0.96m0-11.04v0.96m-1.76 0v-6.56h3.68m38.4-32.64v-0.64m2.4 366.4h15.52m123.04-175.36h51.36m-54.08 0h1.28m-2.88 0v-152.16m222.72-74.24v77.6m7.68 58.24v-52.96m-7.68-5.28h12.96m-18.24 5.28h12.96m-81.92 35.36h15.36m-18.56 1.92h62.88m-320.16-71.84h11.68m-13.6 1.92h13.6m-73.44 22.08h38.08m-50.4-79.2h17.44m-17.44 5.28h4.8m-19.84 0h3.84m11.2-5.28v5.28m-11.2-5.28v5.28m11.039-5.3666c0.041-2.9331-1.0954-5.7602-3.155-7.8489s-4.8706-3.2645-7.8039-3.2645m0.08 0.16h-0.16 0.16m-0.16 11.04h0.32l-0.32-11.04zm0.32 0-0.32-11.04h0.32zm-34.4 24.64v18.24m113.92 140.48v-19.04m-31.68-1.6v2.72h1.44m-1.44 1.92h1.44m13.28-3.04h16.96m-61.28-83.2h42.56m1.76 0v71.2m-1.76-58.24v58.24m-40.8-26.56v10.24m0-41.92v27.36m-1.76-29.28h42.56m-40.8 1.92h40.8m-12.96 118.88h2.4m29.28 1.92v-27.2m-1.92 25.28v-45.6m-29.76 65.92v-3.36m-24.16 3.36h22.24v-3.36m1.92-16.96v-45.6m-1.92 45.6v-50.24m-25.92-14.4h27.84m-27.84 1.76h25.92m32.96 83.2h-31.04m9.6 1.92h196.48m-233.92-22.24h25.92m-27.68 1.92h27.68m-25.6 31.36v-11.04m0 22.72v-9.76m0 22.08v-1.76m0 12.96v-9.28m0 66.56v22.08m0-61.6v37.6m26.88-80.64h2.88l-1.44 2.08h0.64l0.64 0.32 0.16 0.32 0.32 0.8v0.48l-0.32 0.8-0.48 0.48-0.8 0.32h-0.8l-0.8-0.32-0.16-0.32-0.32-0.48m-2.72-4.48v5.6m0-5.6-2.56 3.68h4m-6.72-3.68v5.6m0-5.6-2.56 3.68h4m15.36 12.32v64.64m-37.12-78.88v-22.72m0 64v61.6m1.92-102.88h-1.92m1.92 10.56h-1.92m1.84-0.16c5.788 0 10.48-4.6921 10.48-10.48m-10.4 0.08h10.4m-10.4-11.68h35.2m-35.2 1.92h35.2m-35.2 22.08h35.2m-35.2 1.92h35.2m-35.2 64.64h6.56m-6.56 1.92h6.56m360.64-178.24h2.88l-1.6 2.24h0.8l0.48 0.16 0.32 0.32 0.16 0.8v0.48l-0.16 0.8-0.64 0.48-0.64 0.32h-0.8l-0.8-0.32-0.32-0.16-0.32-0.64m-3.68-4.48-0.8 0.32-0.48 0.8-0.32 1.28v0.8l0.32 1.28 0.48 0.8 0.8 0.32h0.64l0.64-0.32 0.64-0.8 0.16-1.28v-0.8l-0.16-1.28-0.64-0.8-0.64-0.32h-0.64m-4.16 0v5.6m0-5.6-2.72 3.68h4m9.28 63.36v5.6m0-5.6-2.72 3.68h4m-7.68-3.68-0.8 0.32-0.48 0.8-0.32 1.28v0.8l0.32 1.28 0.48 0.8 0.8 0.32h0.64l0.64-0.32 0.64-0.8 0.16-1.28v-0.8l-0.16-1.28-0.64-0.8-0.64-0.32h-0.64m-4.16 0v5.6m0-5.6-2.72 3.68h4m9.76 56h-2.56l-0.32 2.4 0.32-0.32 0.8-0.16h0.8l0.64 0.16 0.64 0.48 0.16 0.8v0.64l-0.16 0.8-0.64 0.48-0.64 0.32h-0.8l-0.8-0.32-0.32-0.32-0.32-0.48m-3.68-4.48-0.8 0.32-0.48 0.8-0.32 1.28v0.8l0.32 1.28 0.48 0.8 0.8 0.32h0.64l0.64-0.32 0.64-0.8 0.16-1.28v-0.8l-0.16-1.28-0.64-0.8-0.64-0.32h-0.64m-4.16 0v5.6m0-5.6-2.72 3.68h4m10.08 52.64-0.32-0.48-0.8-0.16h-0.48l-0.8 0.16-0.48 0.8-0.32 1.28v1.44l0.32 0.96 0.48 0.64 0.8 0.16h0.32l0.64-0.16 0.64-0.64 0.16-0.8v-0.16l-0.16-0.8-0.64-0.64-0.64-0.16h-0.32l-0.8 0.16-0.48 0.64-0.32 0.8m-4-3.68-0.8 0.16-0.48 0.8-0.32 1.28v0.8l0.32 1.44 0.48 0.8 0.8 0.16h0.64l0.64-0.16 0.64-0.8 0.16-1.44v-0.8l-0.16-1.28-0.64-0.8-0.64-0.16h-0.64m-4.16 0v5.44m0-5.44-2.72 3.68h4m19.68 43.84v48.64m-141.76-116.96h55.04m-56.96-86.4v86.4m1.92-87.52v87.52m42.24 40.64h-41.6m52-1.92h1.92m3.68-36.96v36.96m-60.8-36.96v36.96m0-38.72h0.64m-2.4-86.88v125.6m1.76-125.12v86.4m0 1.76h60.8m25.76-194.08v-2.72m-1.76 2.72v-8.64m0 27.2v-7.52h1.76m0 7.52v-3.84m0 61.28v-3.84m-1.76 3.84v-46.4m1.76-14.88h85.12m-85.12-1.76h85.12m-85.12 59.2h85.12m-85.12-1.92h85.12m-85.12 59.2h85.12m-85.12-1.92h85.12m-85.12 57.28h85.12m-85.12 1.92h85.12m-32.96 57.28h32.96m-32.96 12.64v2.24h7.36m0 0v1.76h-7.36m-10.56 22.08-0.8 0.16-0.16 0.64v0.48l0.16 0.48 0.64 0.32 0.96 0.32 0.8 0.16 0.64 0.64 0.16 0.48v0.8l-0.16 0.48-0.32 0.32-0.8 0.32h-1.12l-0.8-0.32-0.16-0.32-0.32-0.48v-0.8l0.32-0.48 0.48-0.64 0.8-0.16 1.12-0.32 0.48-0.32 0.32-0.48v-0.48l-0.32-0.64-0.8-0.16h-1.12m-4.96 0-0.8 0.16-0.48 0.8-0.32 1.44v0.8l0.32 1.28 0.48 0.8 0.8 0.32h0.48l0.8-0.32 0.64-0.8 0.16-1.28v-0.8l-0.16-1.44-0.64-0.8-0.8-0.16h-0.48m-4.16 0v5.6m0-5.6-2.72 3.68h4m-22.24-27.52h16.64m-16.8 1.76h7.52m-5.6 0v46.24m12.96-46.24v46.24m12.32-46.24v-1.76m-10.4 1.76v-1.76m0.08 12.16c2.7636 0 5.4118-1.1084 7.3514-3.0771 1.9396-1.9686 3.0086-4.633 2.9675-7.3963m-10.239 10.633h-0.16 0.16m0.16-10.56h-0.32l0.32 10.56zm-0.32 0 0.32 10.56h-0.32zm-27.199-0.0734c-0.0411 2.7633 1.0279 5.4276 2.9675 7.3963 1.9396 1.9686 4.5877 3.0771 7.3514 3.0771m0.08 0.16h0.16-0.16m0.16-10.56h-0.32l0.32 10.56zm-0.32 0 0.32 10.56h-0.32zm-10.24 0v-1.76m10.56 1.76v-1.76m40.64 50.4h27.36m-47.68-2.4v2.4m-12.96-2.4h-29.6m31.36-46.24h7.52m24 0v48.64m-1.92-48.64v48.64m-31.36-48.64v46.24m1.76-46.24v46.24m-414.72-93.12h-5.28m5.28 29.28h-5.28m3.52-10.72v10.72m-1.76-10.72v10.72m3.52-10.72h-5.28m5.28-7.84h-5.28m112.64-15.52v22.08m371.84-160.8v-55.52m-85.12 186.72v16.16m90.4-116.16h15.52m-387.84-188.96h-12.48m368.16 65.6v1.6m0-1.6h0.32m-0.32 1.92h-18.24m0-0.32h18.24m-18.24 0.32h18.56m-0.32-0.32h-18.24m-79.52 108v-95.04m-1.76 95.04v-95.04m-115.2 110.88v-1.28m-1.44 1.28v-152.16m58.4 102.88v4.32h-4.32v-4.32h4.32m0 46.24v4.32h-4.32v-4.32h4.32m-262.4-224.96v3.04m27.84 39.52h9.92m-15.36-5.6v5.6m4.96-4.96v4.32h-4.32v-4.32h4.32m37.12 0v4.32h-4.32v-4.32h4.32m5.28 33.28v4.32h-4.32v-4.32h4.32m-42.4 0v4.32h-4.32v-4.32h4.32m0.48 45.28v4.32h-4.16v-4.32h4.16m-3.68 28.64v33.28m0 7.36v-0.64h1.92m-1.92 12.16h3.52v-14.56m-1.6 12.96h-1.92v-0.64m1.92-9.92v10.56m-3.68-9.92h3.04v9.28h-3.04m0 5.28v1.44m3.68-6.08v-10.56m61.28 39.52v4.32h-4.32v-4.32h4.32m0-46.24v4.32h-4.32v-4.32h4.32m206.4 157.44-0.8 0.16-0.48 0.8-0.32 1.44v0.8l0.32 1.28 0.48 0.8 0.8 0.32h0.64l0.64-0.32 0.64-0.8 0.16-1.28v-0.8l-0.16-1.44-0.64-0.8-0.64-0.16h-0.64m-4.16 0v5.6m0-5.6-2.72 3.68h4m-6.56-3.68v5.6m0-5.6-2.72 3.68h4m-240.48-32.64v-0.32l0.32-0.48 0.16-0.32 0.64-0.16h0.96l0.64 0.16 0.16 0.32 0.32 0.48v0.64l-0.32 0.48-0.48 0.8-2.72 2.56h3.84m-6.4-5.44v5.44m0-5.44-2.72 3.68h4m-6.56-3.68v5.44m0-5.44-2.72 3.68h4m-37.92 66.88v7.52m-1.76-7.52v7.52m-46.24-5.6h46.24m0-1.92h1.76m-1.92-10.4h1.92m-1.84-0.16c-5.7879 0-10.48 4.692-10.48 10.48m10.56 0.08h-10.56m10.56-53.6v43.2m25.92-81.92h-1.92m1.92 10.4h-1.92m1.84 0c5.788 0 10.48-4.6921 10.48-10.48m-10.4 0.08h10.4m24.8-40.64v22.08m18.4 84.64-0.8 2.88-0.96-2.88zm-0.8-2.72v2.72m3.52 3.52v2.4-2.4h-7.36v2.4m-11.84 0h20.16m-40.48 0h18.4m-18.24 1.92h6.88m13.28-127.52v125.6m-1.92-125.6v11.04m203.2 114.56h41.76m70.56-276v-17.92m-3.52 17.92v-17.92m-3.36 17.92v-19.36m10.24 19.36v-17.92m-56.8 163.36v4.32h-4.32v-4.32h4.32m-1.12 4.32v15.36m0 50.24v21.92m0-70.24v44m-174.72 64.96h52.96m-111.52 0h52.96m64.16 0h52.96m64.96-132.32v132.32m-0.64-64.96v4.32h-4.32v-4.32h4.32m28.48 76.16h81.28m-85.12-229.28v-1.92m0 59.2v-11.68m0 107.52v-21.76m0 40.48v-14.4m-1.76-37.12v-46.24m1.76 46.24v-3.84m85.12 0v55.36m-85.12-57.28v-22.72m0 137.44h1.92v-6.24m-1.92-18.4h3.84m-3.84 18.4v6.24m-1.76 1.76h52m-74.56 14.88h25.28m-25.28 1.76h11.84m-24.16 0v46.24m12.32-46.24v-1.76m-10.4 1.76v-1.76m0.08 12.16c2.7636 0 5.4118-1.1084 7.3514-3.0771 1.9396-1.9686 3.0086-4.633 2.9675-7.3963m-10.239 10.633h-0.16 0.16m0.16-10.56h-0.32l0.32 10.56zm-0.32 0 0.32 10.56h-0.32zm-48.16-1.76h16.64m-27.04 1.76h-11.68m24 0v46.24m12.96-46.24v46.24m-14.88-46.24v-1.76m-10.4 1.76v-1.76m2e-3 1.6866c-0.0411 2.7633 1.0279 5.4276 2.9675 7.3963 1.9391 1.9686 4.5873 3.0771 7.3509 3.0771m0.08 0.16v0m0-10.56h-0.16l0.16 10.56zm-0.16 0 0.16 10.56h-0.16zm92 23.84-0.32 0.8-0.48 0.64-0.8 0.16h-0.32l-0.8-0.16-0.48-0.64-0.32-0.8v-0.16l0.32-0.8 0.48-0.64 0.8-0.16h0.32l0.8 0.16 0.48 0.64 0.32 0.96v1.44l-0.32 1.28-0.48 0.8-0.8 0.32h-0.48l-0.8-0.32-0.32-0.48m-4-4.8-0.8 0.16-0.48 0.8-0.32 1.44v0.8l0.32 1.28 0.48 0.8 0.8 0.32h0.64l0.8-0.32 0.48-0.8 0.16-1.28v-0.8l-0.16-1.44-0.48-0.8-0.8-0.16h-0.64m-4.16 0v5.6m0-5.6-2.72 3.68h4m-87.84-2.4v-0.32l0.32-0.48 0.16-0.32 0.64-0.16h0.96l0.48 0.16 0.32 0.32 0.32 0.48v0.64l-0.32 0.48-0.48 0.8-2.72 2.72h3.68m-8.16-4.64 0.64-0.16 0.8-0.8v5.6m-4.8-5.6v5.6m0-5.6-2.72 3.68h4m-11.04-25.76h-11.68m106.08 46.24h-29.6m-62.88 0h29.6m64.64-46.24v48.16m-1.76-48.16v48.16m-29.6-48.16v46.24m-1.92-46.24v46.24m-31.36-46.24v46.24m1.76-46.24v46.24m-31.36-46.24v48.16m-1.92-48.16v48.16m-239.2-49.92h1.28m26.24-205.28v4.32h-4.16v-4.32h4.16m244.96 207.04h7.36m46.72 22.08-0.8 0.16-0.48 0.8-0.32 1.44v0.8l0.32 1.28 0.48 0.8 0.8 0.32h0.64l0.64-0.32 0.64-0.8 0.16-1.28v-0.8l-0.16-1.44-0.64-0.8-0.64-0.16h-0.64m-6.08 0.96 0.64-0.16 0.8-0.8v5.6m-4.8-5.6v5.6m0-5.6-2.72 3.68h4m25.92-84.96v42.56m53.92 12.64h-1.92m1.92-10.4h-1.92m1.8466 10.399c2.7633 0.0411 5.4276-1.0279 7.3963-2.9675 1.9686-1.9396 3.0771-4.5877 3.0771-7.3514m0 0.08v-0.16 0.16m-10.4-0.16v0.32l10.4-0.32zm0 0.32 10.4-0.32v0.32zm-52.16-17.28v2.4m0-11.68v-0.64h1.92m-1.92 9.92v2.4h1.92m1.92 10.56v-24.64m-1.92 14.08v-12.32m-3.68 0.64h2.4v9.28h-2.4m1.76-9.92v0.64m52.16 24v2.4m-52.16-27.04h1.92m48.32 39.52v-2.24m23.434-296.64c-2.1268-0.0414-4.1809 0.77452-5.6996 2.264s-2.3745 3.5273-2.3745 5.6545m0.16 0.08v0.16-0.16m8 0.16v-0.32l-8 0.32zm0-0.32-8 0.32v-0.32zm-0.0859 2.2415c-2.1268-0.0414-4.1809 0.77452-5.6996 2.264s-2.3745 3.5273-2.3745 5.6545m0.16 0.08v0.16-0.16m8 0.16v-0.32l-8 0.32zm0-0.32-8 0.32v-0.32zm-421.76-102.4h-77.76m29.92 339.36h-1.76m1.76 18.72h-1.76m1.76-1.28h-1.76m1.76-7.84h-1.76m1.76-1.28h-1.76m0.96-8.32v8.32m0.8 18.56h-1.76m0.96-8.16v8.16m0.8-28v10.72m-1.76-10.72v10.72m471.36-255.84h-18.24m0 0.32h18.24m0 9.12v1.6m0-1.6h0.32m0 0v1.92m-0.32-20v0.16m0.32-0.16v0.16m-0.32 0h0.32m-0.32 10.08h0.32m-0.32-2.24h0.32m-0.32 0v0.64m0.32-0.64v2.24m-0.32-1.28v1.28m-18.24-1.6h18.24m0 0.32h-18.24m-379.52 116.16v-68.48m-22.08-83.84v25.28m-1.76-35.68v-7.36m0 53.6v7.36m-0.16-7.36h1.92v16.64m-1.92-27.2h1.92m-2 0c-5.7879 0-10.48 4.692-10.48 10.48m10.56 0.08h-10.56m10.56-35.84h1.92m-1.92-10.4h1.92m-12.48-0.08c0 5.7879 4.6921 10.48 10.48 10.48m0.08-10.4h-10.56m397.12 336.48h11.68m-11.68 1.76h11.68m-124.48-234.08-0.32 0.8-0.48 0.64-0.8 0.16h-0.32l-0.64-0.16-0.64-0.64-0.16-0.8v-0.16l0.16-0.8 0.64-0.48 0.64-0.32h0.32l0.8 0.32 0.48 0.48 0.32 0.96v1.44l-0.32 1.28-0.48 0.8-0.8 0.32h-0.48l-0.8-0.32-0.32-0.48m-4.96-4.8h2.88l-1.6 2.08h0.8l0.48 0.32 0.32 0.16 0.32 0.8v0.64l-0.32 0.8-0.48 0.48-0.8 0.32h-0.8l-0.8-0.32-0.32-0.32-0.16-0.48m-2.72-4.48v5.6m0-5.6-2.56 3.68h3.84m22.56-115.36v4.32h-4.32v-4.32h4.32m-5.28 33.28v4.32h-4.16v-4.32h4.16m152.16 240.32v55.52m-454.4-354.08v-3.68l2.4 3.68v-3.68m-6.08 3.68v-3.68h1.28l0.48 0.16 0.32 0.32 0.32 0.96v0.8l-0.16 0.64-0.16 0.32-0.32 0.32-0.48 0.16h-1.28m-16-12.64v18.24m3.36-18.24v18.24m3.36-18.24v18.24m3.36-18.24v18.24m3.36-18.24v37.6m-20.32-12.48v12.48m-6.72-37.6v18.24m3.36-18.24v18.24m3.36-18.24v18.24m3.36-18.24v18.24m-13.44-18.24v37.6m3.36-18.24v18.24m3.36 0v-18.24l3.68 6.24h1.76l-1.76 3.2h1.76l5.12 8.8m-17.28-19.36h30.4m-30.4 1.12h29.28m-25.28 5.92 5.6 1.92-5.6 1.92zm26.4-14.88h-37.44v16.8h11.04m-26.08-12.16h-1.76m4-0.8h-5.12m2.88 8.32h-1.76m4 0.8h-5.12m1.12-9.12v9.12m1.76-9.12v9.12m-0.8-8.32v7.52m106.56 185.12v-10.72m3.68-16.64v-2.24m42.08 276.16v1.92m0.96-3.84v5.28m-8.32-3.36v1.92m-0.96-3.84v5.28m0.96-2.4h7.36m-8.32-0.96h9.28m-9.28 1.92h9.28m16.8 1.44v-20.96m-42.88 20.96v-21.76m-46.24-144.96v11.68m0-43.04v11.68m0-43.2v7.36m0-38.72v11.68m0-43.2v11.68m0-43.04v7.36m-46.24-38.88v29.6m0-60.96v29.6m0-55.52h46.24m-46.24 49.92h46.24m-46.24 12.96h46.24m-19.04-53.44-0.8 0.16-0.64 0.8-0.16 1.28v0.8l0.16 1.44 0.64 0.8 0.8 0.16h0.48l0.8-0.16 0.48-0.8 0.32-1.44v-0.8l-0.32-1.28-0.48-0.8-0.8-0.16h-0.48m-6.4 0h2.88l-1.6 2.08h0.8l0.64 0.16 0.16 0.32 0.32 0.8v0.48l-0.32 0.8-0.48 0.64-0.8 0.16h-0.8l-0.8-0.16-0.32-0.32-0.16-0.48m-2.72-4.48v5.44m0-5.44-2.56 3.68h4m8.16 24.16-0.16 0.8-0.64 0.48-0.8 0.32h-0.16l-0.8-0.32-0.64-0.48-0.16-0.8v-0.32l0.16-0.8 0.64-0.48 0.8-0.32h0.16l0.8 0.32 0.64 0.48 0.16 1.12v1.28l-0.16 1.28-0.64 0.8-0.8 0.32h-0.48l-0.8-0.32-0.32-0.48m-5.28-3.52v-0.16l0.32-0.64 0.32-0.16 0.48-0.32h1.12l0.48 0.32 0.32 0.16 0.16 0.64v0.48l-0.16 0.48-0.64 0.8-2.56 2.72h3.68m-6.4-5.6v5.6m0-5.6-2.56 3.68h4m136.64 328.8 2.72-5.6h-3.68m-4.48 0.96 0.48-0.16 0.8-0.8v5.6m-4.8-5.6v5.6m0-5.6-2.56 3.68h3.84m36.96-2.88-0.32-0.64-0.8-0.16h-0.48l-0.8 0.16-0.64 0.8-0.16 1.44v1.28l0.16 1.12 0.64 0.48 0.8 0.32h0.16l0.8-0.32 0.64-0.48 0.16-0.8v-0.32l-0.16-0.8-0.64-0.48-0.8-0.32h-0.16l-0.8 0.32-0.64 0.48-0.16 0.8m-4.8-2.72 0.48-0.16 0.8-0.8v5.6m-4.64-5.6v5.6m0-5.6-2.72 3.68h4m46.72-3.68h-2.72l-0.16 2.4 0.16-0.32 0.8-0.32h0.8l0.8 0.32 0.48 0.48 0.32 0.8v0.64l-0.32 0.8-0.48 0.48-0.8 0.32h-0.8l-0.8-0.32-0.16-0.32-0.32-0.48m-4.48-3.52 0.48-0.16 0.8-0.8v5.6m-4.8-5.6v5.6m0-5.6-2.56 3.68h4m34.08-3.68v5.6m0-5.6-2.72 3.68h4m-8.48-2.72 0.64-0.16 0.8-0.8v5.6m-4.8-5.6v5.6m0-5.6-2.72 3.68h4m44.64-3.68h2.88l-1.6 2.08h0.8l0.48 0.32 0.32 0.16 0.32 0.8v0.64l-0.32 0.8-0.48 0.48-0.8 0.32h-0.8l-0.8-0.32-0.32-0.32-0.16-0.48m-4.64-3.52 0.64-0.16 0.8-0.8v5.6m-4.8-5.6v5.6m0-5.6-2.56 3.68h3.84m70.08-2.72 0.64-0.16 0.8-0.8v5.6m-6.72-4.64 0.64-0.16 0.64-0.8v5.6m-4.64-5.6v5.6m0-5.6-2.72 3.68h4m-264.8-134.72v-12.96m-22.24 49.92v52.32m0-119.52v25.28m-1.76-25.28v11.68m0 24v7.36m1.76-7.36v20.96m-1.76 10.56v7.36m1.76-200.32v20.96m-1.76-20.96v11.68m0 19.68v11.84m1.76-11.84v25.28m0 10.56v20.96m-1.76-20.96v7.36m1.76 24v16.64m-1.76-16.64v7.52m0-155.36v11.68m0-13.6v-11.68m-46.24 13.6h46.24m-46.24-1.92h46.24m-46.24 31.52h46.24m-46.24 1.76h46.24m13.44 281.12h18.4m-18.4 1.76h1.12m-66.24 50.72h97.92m-31.68-50.72v45.6m1.92-45.6v45.6m331.36-205.76v-13.44m0 79.04v-21.76m3.2 87.36v4.32h-4.32v-4.32h4.32m47.04 12.32v2.24m-50.24-59.52v3.68m3.2-24.32v4.32h-4.32v-4.32h4.32m0-65.6v4.32h-4.32v-4.32h4.32m-3.2-46.24v-24.64m3.2 24.64v4.32h-4.32v-4.32h4.32m0-61.92v4.32h-4.32v-4.32h4.32m0-36.64v4.32h-4.32v-4.32h4.32m-4.96 234.72v-46.08m-24-43.84v-1.76m25.76-143.68h72.16m0 2.72v2.24m0-40.96v36m-68.96 2.72h44.96m-48.16-3.68v0.96m3.84-36.96h23.04m-23.04-1.92h19.36m-345.12 240.96v1.92m-1.92-1.92v1.92m-22.24-248.96v12.32m-1.76 55.36v7.52m347.84-31.2h-1.76m1.76-18.4h-1.76m1.76 6.4h-1.76m1.76-5.6h-1.76m0.96 5.6v-5.6m-0.96-2.72v9.28h1.76m0-7.36v7.36m11.04 10.8c0-2.9334-1.1759-5.7443-3.2645-7.8039-2.0887-2.0596-4.9158-3.196-7.8489-3.155m11.273 11.039v0.16-0.16m-11.2-0.16v0.32l11.2-0.32zm0 0.32 11.2-0.32v0.32zm63.04-22.88h-0.32l-0.48-0.16-0.32-0.32-0.16-0.48v-1.12l0.16-0.48 0.32-0.32 0.48-0.32h0.64l0.48 0.32 0.8 0.48 2.56 2.72v-3.68m-0.48 5.76 0.32 0.32 0.16-0.32-0.16-0.32-0.32 0.32m-4.96 5.28v-3.68m0 1.92h5.44m-4.64 2.88-0.64 0.48-0.16 0.8v1.12l0.16 0.8 0.64 0.48h0.48l0.48-0.32 0.32-0.16 0.32-0.64 0.48-1.6 0.32-0.48 0.16-0.32 0.64-0.16h0.64l0.64 0.48 0.16 0.8v1.12l-0.16 0.8-0.64 0.48m-372.64 11.68 5.6 1.92-5.6 1.76zm-7.36 1.92h7.36m323.04-10.4v-3.68l2.56 3.68v-3.68m-6.24 3.68v-3.68h1.28l0.48 0.16 0.32 0.32 0.16 0.32 0.16 0.48v0.96l-0.16 0.48-0.16 0.32-0.32 0.48-0.48 0.16h-1.28m22.4 8.16v-17.92m3.36 17.92v-17.92m3.36 17.92v-17.92m3.36 17.92v-17.92m3.52 17.92v-17.92m3.36 17.92v-36m-30.56 18.08h30.56m-370.72 21.6v-3.68h1.6l0.48 0.16 0.16 0.16 0.16 0.32v0.64l-0.16 0.32-0.16 0.16-0.48 0.16h-1.6m-3.84-1.92v2.72l0.16 0.48 0.32 0.32 0.48 0.16h0.32l0.64-0.16 0.32-0.32 0.16-0.48v-2.72m365.28-26.4v-1.28m1.76 2.4-5.6-1.92 5.6-1.76zm-25.44 18.4h36.32v-20.32h-10.88m37.76 172.64v-16.96m-339.76 187.52c2.7636 0 5.4118-1.1084 7.3514-3.0771 1.9396-1.9686 3.0086-4.633 2.9675-7.3963m-10.239 10.633h-0.16 0.16m0.16-10.56h-0.32l0.32 10.56zm-0.32 0 0.32 10.56h-0.32zm10.56 0v-1.76m-10.56 1.76v-1.76m10.56 1.76h11.68m-11.68-1.76h25.12m2e-3 1.6866c-0.0411 2.7633 1.0279 5.4276 2.9675 7.3963 1.9391 1.9686 4.5873 3.0771 7.3509 3.0771m0.08 0.16h0.16-0.16m0.16-10.56h-0.32l0.32 10.56zm-0.32 0 0.32 10.56h-0.32zm-10.24 0v-1.76m10.56 1.76v-1.76m-10.56 1.76h-11.68m22.24-1.76h16.64m0.08 12.16c2.7636 0 5.4118-1.1084 7.3514-3.0771 1.9396-1.9686 3.0086-4.633 2.9675-7.3963m-10.239 10.633h-0.16 0.16m0.16-10.56h-0.32l0.32 10.56zm-0.32 0 0.32 10.56h-0.32zm10.4 0v-1.76m-10.4 0v1.76h-7.36m17.76-1.76h25.28m-74.56 1.76v46.24m-1.76-46.24v46.24m31.36-46.24h-7.36m-53.6 0h7.36m55.52 0v46.24m-1.92-46.24v46.24m31.52-46.24h-11.84m25.281-0.0734c-0.0411 2.7633 1.0279 5.4276 2.9675 7.3963 1.9396 1.9686 4.5877 3.0771 7.3514 3.0771m0.08 0.16h0.16-0.16m0.16-10.56h-0.32l0.32 10.56zm-0.32 0 0.32 10.56h-0.32zm-10.24 0v-1.76m10.56 1.76v-1.76m-10.56 1.76h-11.68m22.24-1.76h16.64m0.08 12.16c2.7636 0 5.4118-1.1084 7.3514-3.0771 1.9396-1.9686 3.0086-4.633 2.9675-7.3963m-10.239 10.633h-0.16 0.16m0.16-10.56h-0.32l0.32 10.56zm-0.32 0 0.32 10.56h-0.32zm10.4 0v-1.76m-10.4 0v1.76h-7.52m17.92-1.76h25.28m-76.32 1.76v48.16m1.76-48.16v48.16m22.24-48.16h7.36v46.24m1.76-46.24v46.24m61.12-46.24h-7.52m-118.24 46.24h-29.6m-31.36 0h29.6m101.6-46.24v46.24m-12.96-46.24v46.24m-49.92-46.24v46.24m-12.96-46.24v46.24m196-46.24h11.68m-67.12 10.4c2.7636 0 5.4118-1.1084 7.3514-3.0771 1.9396-1.9686 3.0086-4.633 2.9675-7.3963m-10.239 10.633h-0.16 0.16m0.16-10.56h-0.32l0.32 10.56zm-0.32 0 0.32 10.56h-0.32zm10.56 0v-1.76m-10.56 1.76v-1.76m10.56 0h20.96m-7.36 1.76h7.52m-9.44 0h-11.68m87.52 46.24h-11.2m-94.24 0h29.6m-115.84 0v5.28m-1.28-3.36v1.76m-7.2-1.76v1.76m-1.76-1.76v1.76m-7.2-1.76v1.76m-1.92-1.76v1.76m9.12-0.96h-7.2m-10.24-2.72v5.28m1.28-3.36v1.76m7.04-0.96h-7.04m25.12 0h-7.2m8.48 0.96h-27.68m27.68-1.76h-27.68m89.28 0.8h-7.2m7.2-0.8v1.76m-8.96-1.76v1.76m1.76-1.76v1.76m8.48-3.68v5.28m-19.36-2.56h-7.2m0-0.8v1.76m7.2-1.76v1.76m1.92-1.76v1.76m-10.24-3.68v5.28m27.68-3.36h-27.68m27.68 1.76h-27.68m17.44-0.96h-7.2m59.04 0h7.04m-17.28-0.8h18.56m-18.56 1.76h18.56m-17.28-0.96h7.04m1.92-0.8v1.76m-1.92-1.76v1.76m-7.04-1.76v1.76m-1.28-3.68v5.28m17.28-3.36v1.76m1.28-3.68v5.28m44.32-5.28v5.28m-1.28-3.36v1.76m-17.12-3.68v5.28m1.12-3.36v1.76m7.2-1.76v1.76m1.76-1.76v1.76m-8.96-0.96h7.2m-8.32 0.96h18.4m-18.4-1.76h18.4m-8.32 0.8h7.04m-254.72 2.56h283.36m63.2-177.44v7.2m-0.96-7.2h1.92m-1.92 8.96h1.92m-1.92-1.76h1.92m-3.68-8.48h5.28m-2.56 19.36v7.04m-0.96 0h1.92m-1.92-7.04h1.92m-1.92-1.92h1.92m-3.68 10.24h5.28m-3.52-27.68v27.68m1.92-27.68v27.68m-0.96-17.44v7.2m0 42.08v7.04m-0.96-7.04h1.92m-1.92 8.96h1.92m-1.92-1.92h1.92m-3.68-8.32h5.28m-2.56 19.36v7.04m-0.96 0h1.92m-1.92-7.04h1.92m-1.92-1.92h1.92m-3.68 10.24h5.28m-3.52-27.68v27.68m1.92-27.68v27.68m-0.96-17.44v7.2m0 42.08v7.04m-0.96-7.04h1.92m-1.92 8.96h1.92m-1.92-1.92h1.92m-3.68-8.32h5.28m-2.56 19.36v7.04m-0.96 0h1.92m-1.92-7.04h1.92m-1.92-1.92h1.92m-3.68 10.24h5.28m-3.52-27.68v27.68m1.92-27.68v27.68m-0.96-17.44v7.2m2.56-312.64v357.44h-4.96m-210.88-65.6v-0.32l0.32-0.48 0.16-0.32 0.64-0.16h0.96l0.48 0.16 0.32 0.32 0.32 0.48v0.64l-0.32 0.48-0.48 0.8-2.72 2.56h3.68m-7.36-5.44-0.8 0.16-0.48 0.8-0.32 1.44v0.8l0.32 1.28 0.48 0.8 0.8 0.16h0.48l0.8-0.16 0.64-0.8 0.16-1.28v-0.8l-0.16-1.44-0.64-0.8-0.8-0.16h-0.48m-4.16 0v5.44m0-5.44-2.72 3.68h4m-6.08 1.28-0.32 0.32 0.32 0.16 0.32-0.16-0.32-0.32m-4.96-1.28h2.56m-3.36 1.76 2.08-5.44 2.08 5.44m-8.48-5.44h3.68m-1.76 0v5.44m134.08-150.56-0.16-0.48-0.8-0.8h5.44m-5.44 5.92 0.16 0.64 0.8 0.64 1.44 0.16h0.8l1.28-0.16 0.8-0.64 0.16-0.64v-0.64l-0.16-0.8-0.8-0.48-1.28-0.32h-0.8l-1.44 0.32-0.8 0.48-0.16 0.8v0.64m0 4.16h5.44m-5.44 0 3.68 2.56v-3.84m1.28 6.08 0.32 0.16 0.16-0.16-0.16-0.32-0.32 0.32m-1.28 4.96v-2.72m1.76 3.52-5.44-2.08 5.44-2.08m-5.44 8.32v-3.68m0 1.92h5.44m-16 114.72v22.24m27.84-346.4v5.6h-5.6v-5.6h5.6m-147.52 191.04v-152.16m-3.84 281.6h-52.96m-92.96-318.56h6.56v1.76m-7.52 0h7.52m27.84 187.36h113.76m-159.92 116.96c-2.7636 0-5.4118 1.1084-7.3514 3.0771-1.9396 1.9686-3.0086 4.633-2.9675 7.3963m10.399-10.313h0.16-0.16m-0.16 10.4h0.32l-0.32-10.4zm0.32 0-0.32-10.4h0.32zm-10.4 0v1.92m10.4-1.92v1.92m-13.6 0h3.2m-3.2-1.92h3.2m288.32-108.96v44m101.92 114.08 2.72-5.6h-3.68m-3.68 0-0.8 0.32-0.48 0.64-0.32 1.44v0.8l0.32 1.28 0.48 0.8 0.8 0.32h0.48l0.8-0.32 0.48-0.8 0.32-1.28v-0.8l-0.32-1.44-0.48-0.64-0.8-0.32h-0.48m-4.32 0v5.6m0-5.6-2.56 3.68h4m-96.8-45.28h-1.92m-57.6 0h-52.96m-122.72 0h-31.68m381.44 70.88v-59.84m0-171.84v55.36m-5.6 181.76v-5.44h5.6m-109.12-72.8v5.6h-5.44v-5.6h5.44m-59.52 0v5.6h-5.44v-5.6h5.44m-58.4 0v5.6h-5.6v-5.6h5.6m-58.56 0v5.6h-5.6v-5.6h5.6m-137.76-158.24h5.6m-5.6 0 3.68 2.72v-4m-3.68 7.68 0.32 0.8 0.8 0.48 1.28 0.32h0.8l1.28-0.32 0.8-0.48 0.32-0.8v-0.64l-0.32-0.8-0.8-0.48-1.28-0.32h-0.8l-1.28 0.32-0.8 0.48-0.32 0.8v0.64m0 4.16h5.6m-5.6 0 3.68 2.72v-4m1.44 6.08 0.16 0.16 0.32-0.16-0.32-0.32-0.16 0.32m-1.44 4.96v-2.56m1.92 3.36-5.6-2.08 5.6-2.08m-5.6 8.48v-3.84m0 1.92h5.6m19.04 148.64h2.88l-1.6 2.24h0.8l0.64 0.16 0.16 0.32 0.32 0.8v0.48l-0.32 0.8-0.48 0.48-0.8 0.32h-0.8l-0.8-0.32-0.32-0.16-0.16-0.64m-3.68-4.48-0.8 0.32-0.64 0.8-0.16 1.28v0.8l0.16 1.28 0.64 0.8 0.8 0.32h0.48l0.8-0.32 0.48-0.8 0.32-1.28v-0.8l-0.32-1.28-0.48-0.8-0.8-0.32h-0.48m-4.32 0v5.6m0-5.6-2.56 3.68h4m-6.08 1.44-0.32 0.16 0.32 0.32 0.16-0.32-0.16-0.16m-5.12-1.44h2.72m-3.52 1.92 2.24-5.6 2.08 5.6m-8.48-5.6h3.68m-1.92 0v5.6m11.04-13.92h-22.24m30.24 24h-15.36m25.76 0h7.52m-99.84 0h53.12m69.6-6.08h2.88l-1.6 2.08h0.8l0.48 0.32 0.32 0.16 0.16 0.8v0.48l-0.16 0.8-0.48 0.64-0.8 0.16h-0.8l-0.8-0.16-0.32-0.32-0.32-0.48m-2.08 0.48-0.16 0.32 0.16 0.16 0.32-0.16-0.32-0.32m-5.28-4.96h3.68m-1.76 0v5.44m-2.88-4.64-0.64-0.64-0.8-0.16h-0.96l-0.8 0.16-0.64 0.64v0.48l0.32 0.48 0.32 0.32 0.48 0.32 1.6 0.48 0.48 0.32 0.32 0.16 0.32 0.48v0.8l-0.64 0.64-0.8 0.16h-0.96l-0.8-0.16-0.64-0.64m-22.88 22.56-0.8 0.16-0.16 0.64v0.48l0.16 0.48 0.64 0.32 0.96 0.32 0.8 0.16 0.64 0.64 0.16 0.48v0.8l-0.16 0.48-0.32 0.32-0.8 0.16h-1.12l-0.8-0.16-0.16-0.32-0.32-0.48v-0.8l0.32-0.48 0.48-0.64 0.8-0.16 1.12-0.32 0.48-0.32 0.32-0.48v-0.48l-0.32-0.64-0.8-0.16h-1.12m-5.76 0.96 0.48-0.16 0.8-0.8v5.44m-4.64-5.44v5.44m0-5.44-2.72 3.68h4m31.2-9.76v-3.68l2.56 3.68v-3.68m-6.24 3.68v-3.68h1.28l0.48 0.16 0.32 0.32 0.32 0.96v0.8l-0.16 0.64-0.16 0.32-0.32 0.32-0.48 0.16h-1.28m17.6 28.32 1.92-5.6 1.76 5.6zm-14.88-26.4v37.6h16.8v-11.2m-7.84 4.16v-29.28m11.68 15.68h3.84m-15.52 6.72 6.24-3.52v-1.92l3.2 1.92v-1.92l6.08-3.52m-32.32-14.72h32.32m-32.32 3.36h15.52m7.04 16.96h9.76m-15.52 3.36h15.52m-32.32-16.8h15.52m-15.52 3.36h15.52m-15.52 3.36h15.52m-15.52 3.36h15.52m-15.52 3.36h15.52m-15.52 3.36h15.52m1.28 3.52h15.52m-32.32 0h15.52m0 3.36v-30.56m-15.52 30.56h32.32m-34.08-75.2v6.08m1.76-6.08v6.08m37.28-8v5.6h-5.6v-5.6h5.6m-59.52 0v5.6h-5.44v-5.6h5.44m-5.44-79.36v5.44h5.44v-5.44h-5.44m0-51.84h5.44v5.6m-5.44 0h5.44m-48.64-113.12-0.8 0.16-0.32 0.48v0.64l0.32 0.48 0.48 0.32 1.12 0.16 0.8 0.32 0.48 0.48 0.32 0.64v0.8l-0.32 0.48-0.16 0.32-0.8 0.16h-1.12l-0.8-0.16-0.32-0.32-0.16-0.48v-0.8l0.16-0.64 0.64-0.48 0.8-0.32 0.96-0.16 0.64-0.32 0.16-0.48v-0.64l-0.16-0.48-0.8-0.16h-1.12m-6.4 1.28v-0.32l0.32-0.48 0.32-0.32 0.48-0.16h1.12l0.48 0.16 0.32 0.32 0.16 0.48v0.48l-0.16 0.64-0.64 0.8-2.56 2.56h3.68m-6.4-5.44v5.44m0-5.44-2.56 3.68h4m5.76 32.8 2.72-5.6h-3.68m-5.12 1.44v-0.32l0.32-0.48 0.32-0.32 0.48-0.32h1.12l0.48 0.32 0.32 0.32 0.16 0.48v0.48l-0.16 0.64-0.64 0.8-2.56 2.56h3.68m-6.4-5.6v5.6m0-5.6-2.56 3.68h4m9.92 23.36-0.16-0.64-0.8-0.16h-0.64l-0.8 0.16-0.48 0.8-0.32 1.44v1.28l0.32 0.96 0.48 0.64 0.8 0.16h0.32l0.8-0.16 0.48-0.64 0.32-0.8v-0.16l-0.32-0.8-0.48-0.48-0.8-0.32h-0.32l-0.8 0.32-0.48 0.48-0.32 0.8m-5.28-2.4v-0.32l0.32-0.48 0.32-0.32 0.48-0.16h1.12l0.48 0.16 0.32 0.32 0.16 0.48v0.64l-0.16 0.48-0.64 0.8-2.56 2.56h3.68m-6.4-5.44v5.44m0-5.44-2.56 3.68h4m10.56 28.16h-2.56l-0.32 2.24 0.32-0.16 0.8-0.32h0.8l0.64 0.32 0.64 0.48 0.16 0.8v0.48l-0.16 0.8-0.64 0.64-0.64 0.16h-0.8l-0.8-0.16-0.32-0.32-0.32-0.48m-4.96-3.2v-0.32l0.32-0.48 0.16-0.32 0.64-0.16h0.96l0.48 0.16 0.32 0.32 0.32 0.48v0.48l-0.32 0.64-0.48 0.8-2.72 2.56h3.68m-6.24-5.44v5.44m0-5.44-2.72 3.68h4m10.08 32.96v5.44m0-5.44-2.56 3.68h4m-9.12-2.4v-0.32l0.32-0.48 0.32-0.32 0.48-0.16h1.12l0.48 0.16 0.32 0.32 0.16 0.48v0.64l-0.16 0.48-0.64 0.8-2.56 2.56h3.68m-6.4-5.44v5.44m0-5.44-2.56 3.68h4m7.52 23.52h2.88l-1.6 2.08h0.8l0.48 0.32 0.32 0.16 0.16 0.8v0.64l-0.16 0.64-0.64 0.64-0.8 0.16h-0.64l-0.8-0.16-0.32-0.32-0.32-0.48m-4.96-3.2v-0.32l0.32-0.48 0.16-0.32 0.64-0.16h0.96l0.48 0.16 0.32 0.32 0.32 0.48v0.64l-0.32 0.48-0.48 0.8-2.72 2.56h3.68m-6.24-5.44v5.44m0-5.44-2.72 3.68h4m7.36 28.16v-0.32l0.16-0.48 0.32-0.32 0.48-0.32h1.12l0.48 0.32 0.32 0.32 0.32 0.48v0.48l-0.32 0.64-0.48 0.8-2.72 2.56h3.68m-8.64-4.16v-0.32l0.16-0.48 0.32-0.32 0.48-0.32h1.12l0.48 0.32 0.32 0.32 0.32 0.48v0.48l-0.32 0.64-0.48 0.8-2.72 2.56h3.68m-6.24-5.6v5.6m0-5.6-2.72 3.68h4m7.68 42.72-0.8 0.16-0.48 0.8-0.32 1.44v0.8l0.32 1.28 0.48 0.8 0.8 0.16h0.48l0.8-0.16 0.64-0.8 0.16-1.28v-0.8l-0.16-1.44-0.64-0.8-0.8-0.16h-0.48m-6.56 1.28v-0.32l0.32-0.48 0.16-0.32 0.64-0.16h0.96l0.48 0.16 0.32 0.32 0.32 0.48v0.64l-0.32 0.48-0.48 0.8-2.72 2.56h3.68m-6.24-5.44v5.44m0-5.44-2.72 3.68h4m21.12 57.92-0.32 0.8-0.48 0.64-0.8 0.16h-0.16l-0.8-0.16-0.64-0.64-0.16-0.8v-0.16l0.16-0.8 0.64-0.64 0.8-0.16h0.16l0.8 0.16 0.48 0.64 0.32 0.96v1.44l-0.32 1.28-0.48 0.8-0.8 0.16h-0.48l-0.8-0.16-0.32-0.48m-4.64-3.84 0.48-0.16 0.8-0.8v5.44m-4.8-5.44v5.44m0-5.44-2.56 3.68h3.84m-58.24-398.08h5.44m-5.44 0 3.68 2.56v-4m1.28 6.08 0.32 0.32 0.16-0.32-0.16-0.16-0.32 0.16m-4.96 5.28v-3.68m0 1.92h5.44m-4.64 2.88-0.64 0.48-0.16 0.8v1.12l0.16 0.8 0.64 0.48h0.48l0.48-0.16 0.32-0.32 0.32-0.48 0.48-1.6 0.16-0.64 0.32-0.16 0.48-0.32h0.8l0.64 0.48 0.16 0.8v1.12l-0.16 0.8-0.64 0.48m98.72 93.28v-1.76m-28.64-103.04v7.52m-0.8 0h1.76m-1.76-7.52h1.76m-1.76-0.8v9.12h1.76v-9.12m-1.8466 9.1211c-2.9331-0.041-5.7602 1.0954-7.8489 3.155s-3.2645 4.8706-3.2645 7.8039m0 0.08v0.16-0.16m11.2 0.16v-0.32l-11.2 0.32zm0-0.32-11.2 0.32v-0.32zm0 0.32h1.92m-13.12-31.44c0 2.9334 1.1759 5.7443 3.2645 7.8039 2.0887 2.0596 4.9158 3.196 7.8489 3.155m-11.113-10.879v-0.16 0.16m11.2 0.16v-0.32l-11.2 0.32zm0-0.32-11.2 0.32v-0.32zm0 11.2h1.76m-0.16-11.2h-1.6v-3.04m-77.76 37.6h77.76v-3.04m32.16 10.08 25.76 22.08m0-22.08-25.76 22.08v-22.08h25.76v22.08h-25.76m6.24-26.08h0.96m14.24 0 0.96-1.76m-18.24 1.76-1.12-1.76m15.2 3.68h9.92m-9.92-1.92h0.96m-12.96 0-2.08-3.68h-12.32m27.36 3.68 2.24-3.68m-3.2 5.6v-1.92m-11.04 1.92v-1.92m-10.4 31.52h38.08m-37.6-29.6v27.68h30.88m1.92 0v-28.32m-1.92 28.32v-27.68m11.04 27.68h-9.12m-38.24-27.68h3.68m-3.68 187.36v-5.6m-70.08-184.8h46.24m29.28 1.12h6.88m-6.88-1.76h5.76m-7.52 3.68v27.68m1.76-31.36v1.76m-112.32-45.92v48.16m5.12-42.88v37.6m107.2 192.32h31.84m-63.84 205.92v-5.12m-28.16 5.12v-5.12m28.16 1.76h-28.16m26.88 0.8h-7.84m9.12 0.96h-28.16m26.88 0v-1.76m-25.76 1.76v-1.76m17.92 1.76v-1.76m-1.76 1.76v-1.76m-6.56 1.76v-1.76m-1.92 1.76v-1.76m0 0.8h-7.68m16.16 0h-6.56m-31.36-184.32h5.28m-5.28 18.88h5.28m-4.16-17.6h1.76m-1.76 16.32h1.76m-1.76-17.6v18.88m1.76-18.88v18.88m0-10.24h-1.76m1.76 1.92h-1.76m0.96-9.28v7.36m0 1.92v7.04m166.88 168.48h9.28m-9.28-1.76h9.28m-8.32 0v1.76m7.36-1.76v1.76m-8.32-3.68v5.28m9.28-5.28v5.28m-8.32-2.56h7.36m-25.92 0.96h9.28m-9.28-1.76h9.28m-8.32 0v1.76m7.36-1.76v1.76m-8.32-3.68v5.28m9.28-5.28v5.28m-8.32-2.56h7.36m-159.52-142.88v9.28m1.92-9.28v9.28m0-8.32h-1.92m1.92 7.36h-1.92m5.12-8.32h-6.72m6.72 9.28h-6.72m2.56-8.32v7.36m-1.12-144.8h5.28m-5.28 18.72h5.28m-4.16-17.6h1.76m-1.76 16.48h1.76m-1.76-17.6v18.72m1.76-18.72v18.72m0-10.08h-1.76m1.76 1.76h-1.76m0.96-9.28v7.52m0 1.76v7.2m79.68 261.12h7.36m0.96-2.72v5.12m-9.28-5.12v5.12m8.32-3.36v1.92m-7.36-1.92v1.92m-0.96-1.92h9.28m-9.28 1.92h9.28m-88.96-227.04v7.36m4.16 0.96h-6.72m6.72-9.28h-6.72m3.52 8.32h-1.92m1.92-7.36h-1.92m1.92-0.96v9.28m-1.92-9.28v9.28m2.4-155.36v7.52m2.72 0.8h-5.28m5.28-9.12h-5.28m3.52 8.32h-1.76m1.76-7.52h-1.76m1.76-0.8v9.12m-1.76-9.12v9.12m0.8 8.32v7.52m2.72 0.8h-5.28m5.28-9.12h-5.28m3.52 8.32h-1.76m1.76-7.52h-1.76m1.76-0.8v9.12m-1.76-9.12v9.12m-1.6 37.12v9.12m1.92-9.12v9.12m0-8.32h-1.92m1.92 7.52h-1.92m5.12-8.32h-6.72m6.72 9.12h-6.72m2.56-8.32v7.52m371.2 115.84h1.28m0-1.92h-3.2v47.84m-366.24-317.44v19.68m1.12 44.8v29.44m35.52 40.72c0 5.7879 4.6921 10.48 10.48 10.48m0.08-10.4h-10.56m10.56 10.4h1.92m-1.92-10.4h1.92m-48 29.44h46.24m-10.72 1.84c0 5.7879 4.6921 10.48 10.48 10.48m0.08-10.4h-10.56m10.56 10.4h1.92m-1.92-10.4h1.92m-48 48h46.24m-0.24-12.32c-5.7879 0-10.48 4.692-10.48 10.48m10.56 0.08h-10.56m10.56 0h1.92m-1.92-10.56h1.92m-48 56.8h46.24m-0.16 1.76h1.92m-1.92 10.56h1.92m-12.48-10.64c0 5.7879 4.6921 10.48 10.48 10.48m0.08-10.4h-10.56m-35.52-14.72h46.24m-0.16-12.32h1.92m-1.92 10.4h1.92m-2-10.56c-5.7879 0-10.48 4.692-10.48 10.48m10.56 0.08h-10.56m-35.52 64.8h46.24m-0.16-12.32h1.92m-1.92 10.4h1.92m-2-10.56c-5.7879 0-10.48 4.692-10.48 10.48m10.56 0.08h-10.56m-35.52 33.28h46.24m-0.24-12.32c-5.7879 0-10.48 4.692-10.48 10.48m10.56 0.08h-10.56m10.56 0h1.92m-1.92-10.56h1.92m-48 25.28h46.24m2.88 57.2c0 5.7879 4.6921 10.48 10.48 10.48m0.08-10.4v10.56m-58.08-10.56v40m47.68-41.76v1.76m10.4-1.76v1.76m18.24 0.72c0 5.7879 4.6921 10.48 10.48 10.48m0.08-10.4v10.4m0-12.96h7.52m-17.92 0v2.56m12.32-0.8v45.6m-1.92-47.36v2.56m42.56-10.08v6.24m-34.24-6.24v6.24m33.28-6.24h1.92m-1.92 6.24h1.92m-36 0h1.76m-1.76-6.24h1.76m21.12-12.4c0 6.1414 4.9786 11.12 11.12 11.12m0.08-11.04h-11.04m-21.36 11.04c6.1414 0 11.12-4.9786 11.12-11.12m-11.04 0.08h11.04m-12.8 11.2v8.64m1.76-8.64v77.6m32.32 0v-77.6h1.92v8.64m-1.92-19.84h1.92m-36 11.2h1.76m-1.76-11.2h1.76m39.84 21.6v46.24m-5.6-48h7.36m-7.36 1.76v46.24m-36-46.24v45.6m34.08-69.6v2.4m64.8 67.84h29.6m1.76 0h29.6m1.76 0h29.6m-287.2-297.6v29.6m0 1.76v29.6m0 1.92v29.6m0 1.76v29.6m0 1.92v29.44m0 1.92v29.6m0-188.64h46.24m-46.24 1.92h46.24m-48.64 29.6h48.64m-48.64 1.76h48.64m-46.24 29.6h46.24m-46.24 1.92h46.24m-46.24 29.6h46.24m-46.24 1.76h46.24m-48.64 29.6h48.64m-48.64 1.92h48.64m-46.24 29.44h46.24m-46.24 1.92h46.24m-46.24 31.36v61.12m0-62.88h46.24m-46.24 1.76h46.24m85.76 38.88v2.4m-69.28 67.2h33.28m-94.4 0h59.2m423.68-200.48h15.84m-81.6 206.4v2.4m7.2-5.28h18.4m35.2 2.88v2.4m-381.76 13.28h32.32m-37.6 5.28h42.88m-140.64-317.12v56.96m0 27.2v57.6m0 27.04v69.44m0-335.84v70.56m-0.16-137.44v18.72m-31.36 0h88.32m-88.32 48.16h31.52m-7.68 70.56v6.08m0 14.88h6.24m-6.24-14.88h6.24m-6.24-6.08h7.68m-7.68 20.96v6.08m6.24-20.96v14.88m-6.24 6.08h7.68m-1.44 148v14.72m0-99.52v14.72m-6.24 0v6.24m0 57.6v6.24m0-91.04h7.68m-7.68 6.24h6.24m-6.24 14.72h6.24m-6.24 6.24h7.68m-7.68 78.56v6.08m0-27.04h7.68m-7.68 6.24h6.24m6.72 94.88h46.24m-59.2-185.92v6.24m0 99.52h6.24m-6.24 6.08h7.68m-3.84 69.44h3.84m1.44 6.4v40m-5.28-46.4v53.44m423.68-312.32v-16.96h-20.48v-18.4h3.2v-2.24h44.96v37.6h-27.68m35.04-37.6v39.52h-55.52v15.68h85.12v-52.96h-12.96v-2.24h-16.64" clip-path="url(#clipPath526)" fill="none" stroke="#000" stroke-linecap="round" stroke-linejoin="round" stroke-miterlimit="10"/>
</svg>
