<?xml version="1.0" encoding="UTF-8"?>
<!-- Created with Inkscape (http://www.inkscape.org/) -->
<svg width="1632" height="1056" version="1.1" viewBox="0 0 1632 1056" xmlns="http://www.w3.org/2000/svg" xmlns:xlink="http://www.w3.org/1999/xlink">
 <defs>
  <clipPath id="clipPath52455">
   <path d="m607 624h5544v8854h-5544v-8854"/>
  </clipPath>
 </defs>
 <path id="map" transform="matrix(0 -.16 -.16 0 1594.7 1037.3)" d="m1760 7473 2-4 5-5h-35m35 30h-35m35 0-23 17v-25m23 41h-35m35 0-23 17v-25m53 45v-138m-10 138v-138m1069-1414h-24v-13m8 33v-11m-8 14 24-9-24-9m18 22 6 6v4l-2 3-2 2-2 1-3 1h-6l-3-1-2-1-2-2-2-3v-4l6-6m18 25h-24m0 24h24l-24-16h24m-16 36v-11m-8 14 24-9-24-9m13 39v-15m11 0h-24m24 15h-24m18 8 2 1 4 4v5l-4 4-2 1-3 1h-6l-3-1-2-1-4-4v-5l4-4 2-1m-6 36v-14m13 14v-9m-13 9h24v-14m-24 40h24l-24-8 24-9h-24m66 384-2 1-1-1 1-1 2 1m9 25v-15m11 0h-23m23 15h-23m18 8 2 1 2 2 1 2v5l-1 2-2 2-2 1-3 1h-6l-3-1-2-1-3-2-1-2v-5l1-2 3-2 2-1m-6 36v-14m12 14v-9m-12 9h23v-14m-23 41h23l-23-9 23-9h-23m23 280h-23v-13m8 33v-11m-8 15 23-9-23-9m18 22 2 1 2 2 1 2v5l-1 2-2 2-2 1-3 1h-6l-3-1-2-1-3-2-1-2v-5l1-2 3-2 2-1m17 24h-23m0 24h23l-23-15h23m-15 35v-11m-8 14 23-8-23-9m12 38v-15m11 0h-23m23 15h-23m18 8 2 1 2 2 1 3v4l-1 2-2 2-2 1-3 2h-6l-3-2-2-1-3-2-1-2v-4l1-3 3-2 2-1m-6 36v-14m12 14v-8m-12 8h23v-14m-23 41h23l-23-9 23-9h-23m65-512 35-16v23m0 16h-35m35 0-24 17v-25m24 41h-35m35 0-24 17v-25m23 351 3 2 1 5v3l-1 5-5 3-8 2h-9l-6-2-4-3-1-5v-2l1-5 4-3 5-2h1l5 2 4 3 1 5v2l-1 5-4 3-5 2m23 18h-34m34 0-23 17v-25m23 41h-34m34 0-23 17v-25m-926 254 10-13m0 23-15-15m0 15v-23m-19 23v-23h13m-33 8h11m-14-8 9 23 9-23m-43 23 5-23 6 23 5-23 6 23m-41 0h15m-7 0v-23m-24 8h11m-15-8 9 23 9-23m-22 18-1 2-2 2-3 1h-4l-2-1-4-4-1-4v-5l1-4 4-4 2-1h4l3 1 2 2 1 2m587 5h-35m35 0-23 17v-25m23 41h-35m35 0-23 17v-25m23 41h-35m35 0-23 17v-25m454-12h-65m541-25h4m-984-566v-11m-2 11v-11m324 477v-24m-1 26v-24m-1 25v-24m-1 25v-24m-6 30v-24m-2 26v-24m-41 12v-24m2 26v-24m1 25v-24m1 25v-24m6 30v-24m2 26v-24m40 12h121m-422 0h249m51 2h121m-419 0h249m48 1h121m-418 0h250m46 1h120m-416 0h251m-251 7h90m200-1h120m-122 2h120m-318-2h167m-259 2h261m33 0h116m-408 0h257m669 107v-26h12v7m-12-806v4h-69v-4h69m1.0134 69.972c-36.567-1.1481-66.467-28.998-69.718-64.94m75.705 63.968h-3 3m0-69v1h-3v-1h3m-7 69v4h10v-4h-10m0-69v-4h10v4h-10m0 795h-13m10-88h3m-2-1h2m0 12h-13m10-390h3m-2 1h2m0-12h-13m13-77h-951m938 478v-401m-493 389v105h493v-16m-666-113h52m627 35h-12v-398h12m-507 389v104h495v-16h12m-677-112h49m628 31h-11v-395h11m-508 389v105h497v-17h11m-676-112h47m629 29h-10v-393h10m-510 389v105h500v-17h10m-675-112h45m627 21v-379m1 378v-377m-514 492h514m-516 2h516m-514-107v105m-2-103v105m-151-131h33m-31 2h29m638-476v22m-518 478v105h516m-924-583v478m924-489h-949m963 566h-12m12-77h-12m10 73v-4h69v4h-69m-0.013-67.972c36.567 1.1485 66.466 28.999 69.718 64.94m-76.705-65.968v1h3v-1h-3m0 69v-1h3v1h-3m7-69v-4h-10v4h10m0 69v4h-10v-4h10m-10-572h-941m-1 1h942m-949 7h949-918m-22-9h940m0 99h12m-12-77h12m-2 4v4h69v-4h-69m68.713 5.0647c-3.2348 36.442-32.747 64.702-68.816 65.895m-6.8976-0.9601v-1h3v1h-3m0-70v1h3v-1h-3m7 70v3h-10v-3h10m0-70v-4h-10v4h10m2 73h-12m0-80h-949m949 1h-949m949 1h-949m0-9h949m-951-1h951m-941-10v-234m23 721v-466m-24-20v-235m23 721v-466m-30-13v-242m23 709v-454 466m-14-488v-233m25 721v-466m-2 466v-466m917-244v-11m12 88h-12m12-77h-12m0 244v-167m-2 750v-28m2-73v-405m0 508v-34m12-551v-167m0 645v-401m0 489v-11m-1788-638-23 15m23 0-23-15m20 23 2 1 1 4v2l-1 3-4 2-5 1h-6l-4-1-2-2-1-3v-1l1-4 2-2 3-1h1l4 1 2 2 1 4v1l-1 3-2 2-4 1m11 20 5-5h-23m23 19h-23m23 0-16 11v-16m1843-891-23 16m23 0-23-16m20 23 2 1 1 4v2l-1 3-3 2-5 2h-6l-4-2-3-2-1-3v-1l1-3 3-3 3-1h1l3 1 3 3 1 3v1l-1 3-6 4m15 20v-12l-8 7v-3l-1-3-2-1-3-1h-2l-3 1-3 3-1 3v3l1 3 2 2 2 1m18 11h-23m23 0-15 11v-17m-1199 670-34-9 34-8-34-8 34-8m0 57-1 4-3 3-4 2-5 1h-8l-5-1-3-2-4-3-1-4v-6l1-4 4-3 3-1 5-2h8l5 2 4 1 3 3 1 4v6m0 37h-34v-20m0 51v-21m18 21v-13m-18 13h34v-21m-16 41-2-5-1-2-4-1h-5l-3 1-2 2-1 5v15h34v-15l-1-5-2-2-3-1h-3l-4 1-1 2-2 5v15m16 62-1 4-3 3-4 2-5 1h-8l-5-1-3-2-4-3-1-4v-6l1-3 4-4 3-1 5-2h8l5 2 4 1 3 4 1 3v6m0 40v-23m0 11h-34m56-95h35l-35-23h35m-35 54v-21m18 21v-13m-18 13h35v-21m-35 56h35v-15l-2-5-2-2-3-1h-5l-3 1-2 2-2 5v15m19 28-2 3-3 3-4 2-5 2h-8l-5-2-3-2-3-3-2-3v-7l2-3 3-3 3-2 5-2h8l5 2 4 2 3 3 2 3v7m502-1544h23l-23-9 23-8h-23m23 36-1 2-2 2-2 1-3 2h-6l-3-2-2-1-3-2-1-2v-4l1-3 3-2 2-1 3-1h6l3 1 2 1 2 2 1 3v4m0 24-1 2-2 3-2 1-3 1h-6l-3-1-2-1-3-3-1-2v-4l1-2 3-3 2-1 3-1h6l3 1 2 1 2 3 1 2v4m-11 21-12-8m0 16h23v-10l-1-3-1-2-2-1h-2l-2 1-1 2-2 3v10m8 7 2 3 1 3v4l-1 4-2 2h-2l-2-1-1-1-1-3-4-8-3-3h-3l-3 3-1 3v4l1 4 3 2m16 6 2 3 1 3v4l-1 4-2 2h-2l-2-1-1-1-1-3-4-8-3-3h-3l-3 3-1 3v4l1 4 3 2m4 19v-11m-8 14 23-9-23-9m23 33h-23v-13m18 21 2 1 2 2 1 3v4l-1 2-2 2-2 1-3 2h-6l-3-2-2-1-3-2-1-2v-4l1-3 3-2 2-1m867 2042v-16m-11 21 34-13-34-13m3 36-2 2-1-2 1-1 2 1m31 30h-34v-20m0 51v-21m18 21v-13m-18 13h34v-21m163-162v-138m0-12h-293m293 12h-305m305-127v115m0 433v-248m-23-300h23m9-39h23v15m-1450 543-69-220m69 0-69 220m677-2507h23l-23-15h23m-23 36v-14m12 14v-8m-12 8h23v-14m-23 41h23l-23-9 23-9h-23m23 36-1 3-3 2-2 1-3 1h-6l-3-1-2-1-2-2-1-3v-4l1-2 2-2 2-1 3-2h6l3 2 2 1 3 2 1 2v4m0 35-23-6 23-5-23-6 23-5m112 163h23l-23-16h23m-23 37v-15m12 15v-9m-12 9h23v-15m-23 41h23l-23-9 23-8h-23m12 140 2 1 3 4v-24m-24 24-3-2-2-3-2-5v-4l2-5 2-3 3-2h2l4 2 2 3 1 5v4l-1 5-2 3-4 2h-2m-18 0v-24m0 24-11-16h17m-1464 1810h23l-23-16h23m-23 39h23v-8l-1-3-3-2-2-1-3-2h-6l-3 2-2 1-2 2-1 3v8m105 94v-41m-12 41v-41m0 179h12m-12-138h12m1610-1478v-136m-33 123v80h21m2-67v-4m-2-9v-181m-11 190v62h23m-12-71h-21m23 9h-13m13 4h10v-13m0 77v-6m0.5521-56.992c15.147-0.2541 29.761 5.5851 40.563 16.207 10.802 10.622 16.885 25.136 16.885 40.285m0-0.5v1-1m-58 1v-2l58 2zm0-2 58 2v-2zm-1795 779v-14m10 14v-4m-67 60.5c0-15.149 6.0836-29.664 16.885-40.285 10.802-10.622 25.416-16.461 40.563-16.207m-58.448 55.992v1-1m58-1v2l-58-2zm0 2-58-2v2zm0-57h10m-10 57h10m13 41v331m-13-366v-6m0-61h13m-23-10h23m-23 77v-6m1358 755v-139m-6 143h11m-11-4h11m-11-139h11m-11-3h11m-258-14h120m-247 0h120m-124-6v12m4-12v12m120-12v12m7-12v12m120-12v12m4-12v12m-262-204h138m4 6v-12m-4 12v-12m-138 12v-12m-4 12v-12m191 6h80m-84 6v-12m4 12v-12m80 12v-12m4 12v-12m1052 499v-70m-2255-1519 785 1090m-785 0 785-1090m-531-541v-11 11m-69-11v11m0.01-10.541c-0.2566-18.332 6.846-36.001 19.719-49.055 12.869-13.054 30.438-20.403 48.771-20.403m-0.5-1h1-1m1 70h-2l2-70zm-2 0 2-70h-2zm290.01 0.4588c-0.2566-18.332 6.846-36.001 19.719-49.055 12.873-13.054 30.441-20.403 48.775-20.403m-0.5-1h1-1m1 70h-2l2-70zm-2 0 2-70h-2zm-67 0v11m69 0v-11 11m285 150v-11 11m-69-11v11m0.01-10.541c-0.2566-18.332 6.846-36.001 19.719-49.055 12.869-13.054 30.438-20.403 48.771-20.403m-0.5-1h1-1m1 70h-2l2-70zm-2 0 2-70h-2zm75-139v-11 11m-69-11v11m0.01-10.541c-0.2566-18.332 6.846-36.001 19.719-49.055 12.869-13.054 30.438-20.403 48.771-20.403m-0.5-1h1-1m1 70h-2l2-70zm-2 0 2-70h-2zm361 11v-11 11m-68.993-10.541c-0.2566-18.332 6.846-36.001 19.719-49.055 12.873-13.054 30.441-20.403 48.775-20.403m-0.5-1h1-1m1 70h-1l1-70zm-1 0 1-70h-1zm-68 0v11m185-11v11m-69-11v11m1.5-80c18.334 0 35.902 7.3492 48.775 20.403 12.873 13.054 19.975 30.724 19.719 49.055m-68.993-70.459h-1 1m1 70h-2l2-70zm-2 0 2-70h-2zm-1387 196h12m-12 65h12m66-63.5c0 17.273-6.9278 33.824-19.232 45.946-12.304 12.122-28.956 18.804-46.227 18.547m64.458-64.993v-1 1m-65 1v-2l65 2zm0-2 65 2v-2zm2212 1258v-1938m39 1988v-35h-16m-14 131v-58m-11 58v-58m11 6h-11m11 46h-11m6 0v-46m19 52h-32m32-58h-32m48-38h-16v135h16v34m-16 169h16v-34h-16v-135h16m-16 266h-23m9-6h-11m25 6h-32m18-52h-11m25-6h-32m13 52v-46m5 52v-58m-11 58v-58m-13-708v44m-6 12h12m-12-12h12m-12-44h12m-23-8h32m-21 108h12m-23 8h32m-21-116v116m12-116v116m-6-52v44m-17-851h32m-21 8h12m-23 108h32m-15-52v44m-6 0h12m-12-56h12m-12 12h12m0-64v116m-6-108v44m-6-52v116m-11-341h32m-21 8h12m-23 107h32m-15-52v45m-6 0h12m-12-56h12m-12 11h12m0-63v115m-6-107v44m-6-52v115m0-277h12m-12-11h12m-12 55h12m-12-100h12m-6 56v44m-6-107v115m6-108v45m6-52v115m-23 0h32m-32-115h32m-15 902v-45m-6 0h12m-12-11h12m-23 120h32m-21-52h12m-12-12h12m-12 57h12m-6 0v-45m-17-121h32m-21 8h12m0 165v-173m-12 173v-173m6 53v-45m-85-1224v-33m-52 21v-11m-11 11v-11m56 11v-11m-45 6h45m-108 17v-33m7 21v-11m-7 11h115m-115-11h115m-108 6h45m-823-81h-45m0 6v-12m-12 12v-12m121 23v-33m-53 22v-12m-11 12v-12m56 12v-12m0 6h-45m-120 17v-33m7 22v-12m166 0h-173m173 12h-173m52-6h-45m-233 0h45m0 6v-12m-56 12v-12m11 12v-12m52 23v-33m-108 22v-12m-7 23v-33m7 16h45m-52-6h115m-115 12h115m-1444 159v-57m-12 57v-57m6 52v-47m18-5h-33m33 57h-33m21-5h-12m12-47h-12m12 181v-57m-6 52v-47m-6 52v-57m12 5h-12m12 47h-12m24 5h-33m33-57h-33m87 2799v-34h-35m-9 67v-23h-23m-20-3031v380m2366 1032 4 1 1 5v4l-1 5-5 3-8 1h-9l-6-1-4-3-1-5v-2l1-5 4-3 5-2h1l5 2 4 3 1 5v2l-1 5-4 3-5 1m23 25-1 5-5 3-8 2h-5l-9-2-5-3-1-5v-3l1-5 5-3 9-2h5l8 2 5 3 1 5v3m0 27h-34m34 0-23 16v-25m-8 38-2 2-1-2 1-1 2 1m8 32v-17m-11 22 34-14-34-13m34 53v-23m0 12h-34m257-1365-2 5-3 2h-4l-3-2-2-3-1-7-2-5-3-3-3-1h-5l-4 1-1 2-2 5v6l2 5 1 2 4 2h5l3-2 3-3 2-5 1-7 2-3 3-2h4l3 2 2 5v6m0 38v-18l-14 10v-5l-1-3-2-2-5-1h-3l-5 1-3 3-2 5v5l2 5 1 2 4 2m28 16h-35m35 0-23 17v-25m-12 235 35-17v23m0 30v-18l-14 10v-5l-1-4-2-1-5-2h-3l-5 2-3 3-2 5v5l2 5 1 2 4 1m28 17h-35m35 0-23 16v-25m18 226 3 2 2 5v3l-2 5-5 4-8 1h-8l-7-1-3-4-2-5v-1l2-5 3-4 5-1h2l5 1 3 4 1 5v1l-1 5-3 4-5 1m23 32v-19l-14 10v-5l-1-3-2-2-5-1h-3l-5 1-3 4-2 5v5l2 5 1 1 4 2m28 16h-35m35 0-23 17v-25m23 177v16l-15 2 1-2 2-5v-5l-2-5-3-3-5-2h-3l-5 2-3 3-2 5v5l2 5 1 2 4 1m28 30v-18l-14 10v-5l-1-3-2-2-5-2h-3l-5 2-3 3-2 5v5l2 5 1 2 4 1m28 17h-35m35 0-23 16v-24m23 294h-35m35 0-23 16v-25m23 55v-18l-14 10v-5l-1-4-2-1-5-2h-3l-5 2-3 3-2 5v5l2 5 1 1 4 2m28 17h-35m35 0-23 16v-25m23 244v-18l-14 10v-5l-1-3-2-2-5-1h-3l-5 1-3 4-2 5v4l2 5 1 2 4 2m28 29v-18l-14 10v-5l-1-3-2-2-5-1h-3l-5 1-3 4-2 5v4l2 5 1 2 4 2m28 16h-35m35 0-23 17v-25m14 119h2l3-1 2-2 2-3v-7l-2-3-2-2-3-1h-3l-4 1-4 4-17 16v-23m35 53v-18l-14 10v-5l-1-4-2-1-5-2h-3l-5 2-3 3-2 5v5l2 5 1 1 4 2m28 17h-35m35 0-23 16v-25m16 186 2-4 5-5h-35m35 43v-18l-14 10v-5l-1-3-2-2-5-2h-3l-5 2-3 3-2 5v5l2 5 1 2 4 2m28 16h-35m35 0-23 17v-25m-1670-1387h-137v-10m137 20h-137m1518 738v-474m-975 1197h-785m1495 187v-16m-12 21 35-13-35-13m35 36v17l-15 1 2-1 1-5v-5l-1-5-4-3-5-2h-3l-5 2-3 3-2 5v5l2 5 1 1 4 2m28 17h-35m35 0-23 16v-25m23 42h-35m35 0-23 16v-25m-442-208v-17m-12 22 35-14-35-13m35 40h-35m35 0-23 16v-24m23 41h-35m35 0-23 16v-24m23 41h-35m35 0-23 16v-24m100 107-2-5-1-1-4-2h-5l-3 2-2 1-1 5v15m0 0h34v-15l-1-5-2-1-3-2h-3l-4 2-1 1-2 5v15m16 15v17l-14 1 1-1 2-5v-5l-2-5-3-4-5-1h-3l-5 1-4 4-1 5v5l1 5 2 1 3 2m28 16h-34m34 0-23 17v-25m23 41h-34m34 0-23 17v-25m194 43h-12m77 11h274m-441-277h-10m10 11h-17m96 93h-14v-12h25m-90 12v-12m65.5 78c-36.175 0-65.5-29.325-65.5-65.5m65-0.5v65m0-169v11m-65-11v11m167 255v11m-65-11v11m0.5-76c36.175 0 65.5 29.325 65.5 65.5m-66-0.5v-66m-131-294v111h12v-6m-12 72h12m-77 0.5c0-36.175 29.325-65.5 65.5-65.5m-0.5 65h-65m-220-177v105h-12v-117m12 183h-12m12.5-65c36.175 0 65.5 29.325 65.5 65.5m-66-0.5h65m-101.01 27.541c0.2566 18.332-6.846 36.001-19.719 49.055-12.873 13.054-30.441 20.403-48.775 20.403m-0.5-1h-1 1m-1-69h2l-2 69zm2 0-2 69h2zm67-12v12m-69-12v12m69-12h25m-25 12h25m0-12v-15m-102-206v-125h-13m0-10h23v135m1090-1226v77h73v-57m-73 67h83v-87h187m-700-880h1l4-2 1-2 2-3v-7l-2-3-1-2-4-1h-3l-3 1-5 4-17 16v-23m35 46-2 5-5 4-8 1h-5l-8-1-5-4-2-5v-3l2-5 5-3 8-2h5l8 2 5 3 2 5v3m0 27h-35m35 0-23 16v-25m150 177-2 5-5 3-8 2h-5l-8-2-5-3-2-5v-4l2-5 5-3 8-2h5l8 2 5 3 2 5v4m0 33-2 5-5 3-8 2h-5l-8-2-5-3-2-5v-4l2-5 5-3 8-2h5l8 2 5 3 2 5v4m0 26h-35m35 0-23 17v-25m5 367h163m-162 11h150m-258 0v-11m1.5-53c14.088 0 27.585 5.6619 37.456 15.713 9.8714 10.051 15.289 23.648 15.035 37.733m-52.992-54.446h-1 1m1 54h-2l2-54zm-2 0 2-54h-2zm55.008 0.4462c-0.2539-14.086 5.1639-27.682 15.035-37.733 9.8714-10.051 23.368-15.713 37.456-15.713m-0.5-1h1-1m1 54h-2l2-54zm-2 0 2-54h-2zm2 11v-11m101-337v2m9-2h-9m9 2h-9m-48.5-52c13.295 0 26.032 5.3483 35.341 14.84 9.3092 9.4921 14.409 22.33 14.15 35.623m-49.991-50.463h-1 1m1 50h-2l2-50zm-2 0 2-50h-2zm1 0h-10m10 0v2m0-2h-10m10 0v2m0 0h-12m0-2v-114m2 0v114m0 0v-114m-2 0v116m-69 57v-46h10m-106-173v-46m0 83v-27m235-10v-104m0 141v-27m-235 36h235m-235-9h235m-235-27h235m-235-10h235m-247-46h12m181 404h77m-77-11h40m-104.5-65c17.273 0 33.824 6.9278 45.946 19.232 12.122 12.304 18.804 28.956 18.547 46.227m-64.993-66.458h-1 1m1 66h-2l2-66zm-2 0 2-66h-2zm66 0v11m-66-11v11m-9-11h10m-26 0h6m-6 11h25m-115-139v-173m26.5 236c17.273 0 33.824 6.9278 45.946 19.232 12.122 12.304 18.804 28.956 18.547 46.227m-64.993-66.458h-1 1m1 66h-2l2-66zm-2 0 2-66h-2zm65 0v11m-65-11v11m-25-139h96m-96 12h96m10 31h59v-10h-59v-79m0 174v-85m-10 85v-116m-77 116h6m400 208v-58m-138 58v-58m127 58v11m-56.992-10.552c-0.2542-15.147 5.585-29.761 16.207-40.563 10.622-10.802 25.136-16.885 40.285-16.885m-0.5-1h1-1m1 58h-2l2-58zm-2 0 2-58h-2zm-112.5-57c15.149 0 29.664 6.0835 40.285 16.885 10.622 10.802 16.461 25.416 16.207 40.563m-56.992-58.448h-1 1m1 58h-2l2-58zm-2 0 2-58h-2zm0 0v11m116-11h11m-11 11h11m-138-11h11m-11 11h11m-49 1549 3 2 1 4v2l-1 4-4 3-7 1h-7l-5-1-3-3-1-4v-1l1-4 3-3 4-1h1l4 1 3 3 1 4v1l-1 4-3 3-4 1m-6 12-2 1-1-1 1-1 2 1m25 27v-19m0 9h-28m24 15 3 2 1 4v6l-1 4-3 2h-3l-4-2-1-3-3-8-1-3-1-1-3-1h-4l-3 2-1 4v6l1 4 3 2m-23-87h69m0 89-25 14-10-6v23l-10-5-24 14m59-34h10m-35 9h35m-35 10h35m-60 10h60m-69 9h69m-69 10h69m-69 10h69m-69 9h69m-69 10h69m-69 9h69m-69 10h69m-69 10h69m98-2267h104m-104 22h104m-104-43v71h104v-194m-92 206h98m224 89v-295m0 601v-295m-35-11v-295m-177 218v-218m-12 218v-12m12 89v-12m1.5-65c36.175 0 65.5 29.325 65.5 65.5m-66-0.5h65m-65-65h-13m13 65h-13m-98-77v256m-12-11v-257m110 372v35m12-35v35m212-23h-212m1-12h-13m13-65h-13m13.5 0c36.175 0 65.5 29.325 65.5 65.5m-66-0.5h65m-66 35h212m-224-139v39m12-39v39m-58 232v-121m-12 121v-63m282 140h-270m1-77h-13m13 65h-13m13.5-65c36.175 0 65.5 29.325 65.5 65.5m-66-0.5h66m-79 191v-191m12 191v-58m270 135h-270m1-12h-13m13-65h-13m13.5 0c36.175 0 65.5 29.325 65.5 65.5m-66-0.5h66m-79 93v-93m12 93v-47m270 35h-270m1 12h-13m13 65h-13m79-64.5c0 36.175-29.325 65.5-65.5 65.5m-0.5-66h66m-67 381v-46m1 46h-13v-316m13 381h-13m79-64.5c0 36.175-29.325 65.5-65.5 65.5m-0.5-66h66m203-12h-270m-12 247v-170m12 170v-85m1 150h-13m13-65h-13m13.5 0c36.175 0 65.5 29.325 65.5 65.5m-66-0.5h66m203 12h-270m-12 81v-93m12 93v-47m266 35h-266m1 12h-13m13 65h-13m79-64.5c0 36.175-29.325 65.5-65.5 65.5m-0.5-66h66m203-1088v-221m-270 221v-35m0 291v-35m-150-184v-6m-12 468v-459m0 476v-8m-966-349v-4m15 23h8m943 321h-934v-329m-9 329v-321m1105 655v-73m0 270v-35m270-739v-245m-270 626v-258m270 258v-370m0 566v-184m0 381v-185m0 266v-70m23 335h-27v35h27m19 248h-19m52-79h-20v-120m-244-80v-143m0 406h212m-81-285v16l-15 2 1-2 2-5v-5l-2-5-3-3-5-2h-3l-5 2-3 3-2 5v5l2 5 1 2 4 2m28 23-2 5-5 3-8 2h-5l-8-2-5-3-2-5v-4l2-5 5-3 8-2h5l8 2 5 3 2 5v4m0 26h-35m35 0-24 17v-25m-8 38-1 1-2-1 2-2 1 2m8 31v-16m-11 21 35-13-35-13m35 52v-23m0 12h-35m-119-2341h212m-212 295h212m-212 11h212m-282 295h58m-46 11h270m-270 221h270m-270 11h50m-50 245h270m-270 11h270m-270 370h270m-270 12h270m-270 196h281m-281-12h281m-281 197h270m-270 11h270m-437.01 602.55c0.2542 15.147-5.585 29.761-16.207 40.563-10.622 10.801-25.136 16.885-40.285 16.885m-0.5 0h-1 1m-1-58h2l-2 58zm2 0-2 58h2zm55 0v-11m-57 0v11h-6m6-11h-6m69 0h-6m0 11h41v-23m204-240h4m-2290-15v-97m1096-769v-321m0 338v-8m0 18h951m464-1392h-485m-364-48h331m33 48v-81m-33 114v-81m-221 512v-96m-12 116v-393m449 2001v-73m-12 85v-85m-138 459v-238m495 315v-109m-33 109v-30m0 124v-24m33-70h-33m33 70h-33m33.541-68.993c18.332-0.2566 36.001 6.846 49.055 19.719 13.054 12.873 20.403 30.441 20.403 48.775m-1-0.5v1-1m-69 1v-2l69 2zm0-2 69 2v-2zm-154 215h-114m-878-712h119m10 198h-17v-9m-12 9v-9m19-83v-106m520 383v-266m0-11h-445m364 11h-364m166 255h-64m262 0h-171m183 11v-266m-12 255v-255m-743 81v-15m-12-183h170m-158 12h285m-412 186h21m-21 151v-139h21m106-12h285m-285 12h314m90 162v-174m-11 174v-162m-520-206v194m-12-60v-1228m139 1462v-162m-12 173v-173m-196 160h69m-142 0h61m-138 0h11m-81 0h58m-416 0h-138m385 0h-235m504-168v-18l-13 9v-4l-2-4-2-1-5-2h-3l-5 2-3 3-2 5v5l2 5 2 1 3 2m28 17h-35m35 0-23 16v-25m23 42h-35m35 0-23 16v-25m-77-96h-404m493 232h142m-400 0h-385m643-12v12m-66-12v12m1-11.5c0-36.175 29.325-65.5 65.5-65.5m-0.5 65v-65m73 65v-220m-12 220v-220m-138 220v-220m-12 220v-220m-404 220v-41m-12 41v-41m1114-2254v-18l-14 10v-5l-1-3-2-2-5-1h-3l-5 1-3 4-2 4v5l2 5 1 2 4 2m28 23-2 5-5 3-8 2h-5l-8-2-5-3-2-5v-4l2-4 5-4 8-1h5l8 1 5 4 2 4v4m0 26h-35m35 0-23 17v-25m-396-58h-35m35 0-23 17v-25m23 48-2 5-5 3-8 2h-5l-8-2-5-3-2-5v-4l2-4 5-4 8-1h5l8 1 5 4 2 4v4m0 26h-35m35 0-23 17v-25m-350-61v16l-15 2 2-2 1-5v-5l-1-4-3-4-5-1h-4l-5 1-3 4-2 4v5l2 5 2 2 3 2m28 23-2 5-5 3-8 2h-5l-8-2-5-3-2-5v-4l2-4 5-4 8-1h5l8 1 5 4 2 4v4m0 26h-35m35 0-23 17v-25m-329-63 3 2 1 5v3l-1 5-5 3-8 2h-9l-6-2-4-3-1-5v-2l1-4 4-4 5-1h1l5 1 4 4 1 4v2l-1 5-4 3-5 2m23 25-1 5-5 3-8 2h-5l-9-2-5-3-1-5v-4l1-4 5-4 9-1h5l8 1 5 4 1 4v4m0 26h-34m34 0-23 17v-25m-274-123h-304m731 886v-344m540 356h-540m547-12h-547m-254-264v260m12-325v-12m231-23h-231m231 380h-231m242 0v-4m543 15h-785m782-11h-540m-11 0v-380m1213-161h17m-17 11h54m-170 0h47v-11m-47 0h24m-383 0h24m-24 11h290m93-11v-532m11 532v-532m-370 532v-532m12 532v-532m-370 532v-532m12 532v-532m-358 532v-532m-12 532v-532m-358 206v-206m-79 206h-14v-46m0 0h-11v46m-138 66-1 5-4 1h-3l-3-1-2-4-2-6-1-5-4-4-3-1h-5l-3 1-2 2-2 5v7l2 5 2 1 3 2h5l3-2 4-3 1-5 2-7 2-3 3-2h3l4 2 1 5v7m0 31-1 5-5 3-9 2h-5l-8-2-5-3-2-5v-3l2-5 5-4 8-1h5l9 1 5 4 1 5v3m0 26h-35m35 0-23 17v-25m172 139v-104m-11 105v-47m0 35h-289m289-81h-289m289-77h11m-11 65h11m-76-0.5c0-17.273 6.9278-33.824 19.232-45.946 12.304-12.122 28.956-18.804 46.227-18.547m-66.458 63.993v1-1m66-1v2l-66-2zm0 2-66-2v2zm0.4585 169.99c-17.271 0.2567-33.923-6.4244-46.227-18.547-12.304-12.122-19.232-28.673-19.232-45.946m-1-0.5v-1 1m66-1v2l-66-2zm0 2-66-2v2zm0 64h11m-11-66h11m-315-254v-171m15 298h-15m15 81v185m289-196v-47m0-150h-304m304 12h-304m304 196h-289m289-11h-289m582 2592v33m-183-33v33m67-22h-67m67 11h-67m67-22v33m49-33v33m97-704h-138m1005-2324h347m-1167 532h-101m726-565v-97m1181 2424v78m-410-2301h-10m10 0v-2m-12 2v114m2 0v-114m-2 114v-116m2 2v114m-675 497h594m-594 11h594m-693 720h8m-8 9h951m-643-365h-27v27h27v-27m-289 0h-27v27h27v-27m1406 1640h-19m-247-174v-62m35 96h-35m31-31h-27v27h27v-27m0-232h-27v27h27v-27m-208-33h-27v27h27v-27m0 265h-27v27h27v-27m-283-3h-27v26h27v-26m-179 23h-208m-46 0h4v-12m-76 12v-22h91m-81 10v12h4m62-12h-66m62 23v-19h-58v19m-33 0h-9m38-23h66m-247-383h-27v27h27v-27m289 0h-27v27h27v-27m-984-1290-1 5-5 3-9 2h-5l-8-2-5-3-2-5v-4l2-4 5-4 8-1h5l9 1 5 4 1 4v4m0 26h-35m35 0-23 17v-25m23 41h-35m35 0-23 17v-25m204 1503h2l3-2 2-1 1-4v-6l-1-4-2-1-3-2h-4l-3 2-5 3-16 17v-24m34 40h-34m34 0-23 17v-25m23 41h-34m34 0-23 17v-25m-418 237h-47m47 11h-47m35 289v-289m12 0v-11m65 12v-12m1 11.5c0 36.175-29.325 65.5-65.5 65.5m-0.5-66v66m335-66h-270m512-162v12m-65-12v12m0-11.5c0-36.175 29.325-65.5 65.5-65.5m-0.5 65v-65m254-155h-138m-529-115-18 5 18 6zm17 5h-17m-22-22h-15 15v46h-15m0 74v-126m0 253v-115m-12 114v-43m797-83h-785m785 12h-69m-716-1270v-261m1725-441h112m-112 22h112m-112 21h121m-121-64h112m-1021 355h-27v27h27v-27m-27 7h-96m-314 0h-137m439 0h-275m-406 1092v-331m0 697v-331m0-401v-331m827-406h-827m406 4h-27v27h27v-27m-476-178v-508m1433 532h12m-370 0h73m-672 0h136m-253 0h90m232 11h289m-289-11h24m0-532h-346m358 532h142m-859 0v-12h39m115 12v-24m-115 24h-39m-11 11v-325m-93 466v-158m-11 158v-74m0 151h-289m289-77h11m-11 65h11m-76-0.5c0-17.273 6.9278-33.824 19.232-45.946 12.304-12.122 28.956-18.804 46.227-18.547m-66.458 63.993v1-1m66-1v2l-66-2zm0 2-66-2v2zm11 301v-104m-11 169v73m0-150h-289m289-81h-289m289 93h11m-11 65h11m-10.542-0.01c-17.271 0.2567-33.923-6.4244-46.227-18.547-12.304-12.12-19.232-28.67-19.232-45.943m-1-0.5v0m66 0v1l-66-1zm0 1-66-1v1zm-149-575-5 2-4 3-1 5v2l1 5 4 3 5 2h1l5-2 4-3 1-5v-2l-1-5-4-3-6-2h-9l-8 2-5 3-2 5v3l2 5 3 2m30 25-1 5-5 3-9 2h-5l-8-2-5-3-2-5v-4l2-5 5-3 8-1h5l9 1 5 3 1 5v4m0 26h-35m35 0-23 17v-25m15 549h2l3-2 2-1 1-4v-6l-1-3-2-2-3-2h-4l-3 2-5 3-17 17v-23m29 51 1-4 5-5h-35m35 30h-35m35 0-23 17v-25m161 69v73m-289-663v185m0 393v-185m289-404h-301m301 11h-301m301 185h-289m289 12h-289m289 196h-289m289-11h-289m289 196h-301m301 12h-301m312 1495v-8m1283-164h-27v26h27v-26m-1294-1531v-46m-138-292-1 5-5 3-9 2h-5l-8-2-5-3-2-5v-4l2-4 5-4 8-1h5l9 1 5 4 1 4v4m-6 38 1-4 5-5h-35m35 30h-35m35 0-23 17v-25m531-162h-266m-79-337v12m65-12v12m-64.993-11.542c-0.2566-17.271 6.4244-33.923 18.547-46.227 12.122-12.304 28.673-19.232 45.946-19.232m-0.5 0h1-1m1 65h-2l2-65zm-2 0 2-65h-2zm108 326h-15m73 0h4v-12m-62 12h-15v-12m-66-12h154m-88 12h77m-4 23v-15h-58v15m62-11h-4m-150-326h-15m169 326v-12m-247-302h14m1854-146.46c0.2588 13.293-4.8407 26.131-14.15 35.623s-22.046 14.84-35.341 14.84m-0.5-1h-1 1m-1-50h2l-2 50zm2 0-2 50h2zm-14.009 0.5367c0.2588 13.293-4.8407 26.131-14.15 35.623s-22.046 14.84-35.341 14.84m-0.5-1h-1 1m-1-50h2l-2 50zm2 0-2 50h2zm640 2636v486m-2121-187v11m-117-11v11m8-11v11m49-11v11m8-11v11m52-6h-52m-116-5v11m51-6h-51m175-5h-67m67 11h-67m1599-2946v114m-2 0v-114m-57 0h-10m10 0v-2m0 0h-12m125 2h-1m1-2h-1m0 2v-2m-63 2v-2m14 2v-2m0 2h-4m4-2h-14m8 2h-8m10 114v-114m-2 0v114m-726 2372h428m524 138h-158m223 11h46m-335 0h-46m46 1v-12h-104m170 12v-12m0 12.5c0 36.175-29.325 65.5-65.5 65.5m-0.5-66v66m224-66v-12m65 12v-12m0.5 78c-36.175 0-65.5-29.325-65.5-65.5m65-0.5v66m-2103-2482v-73m-11 73v-73m1463 778-5 2-4 3-1 5v2l1 4 4 4 5 1h1l5-1 3-4 2-4v-2l-2-5-3-3-6-2h-9l-8 2-5 3-2 5v3l2 5 3 2m30 31v-18l-13 10v-5l-2-3-1-2-5-2h-4l-5 2-3 3-2 5v5l2 5 2 2 3 1m28 17h-35m35 0-23 16v-24m721-141h-27v27h27v-27m-208 33h-27v26h27v-26m-1502-951h-347m2213 2840h23l-23-15h23m-23 38h23v-8l-1-3-2-2-6-2h-5l-4 1-2 1-2 2-1 3v8m79 100h-114m114-21h-114m114-21h-114m114-21h-114m114-21h-235m78 127h-78m235 42h-114m114-21h-114m114-21h-114m114-21h-114m114 84h-235m114-21h-114m0-21h114l-39-23v-11l-20 11v-11l-55-32m121 108v-190m-7 190v-183m-37 158-12-35-12 35zm93-165v234h-105v-69m76 163v11m5-25v32m-52-18v11m-5-25v32m57-7h-57m57-11h-57m52 5h-47m-1157-666h67m104-23h14m-1726-263h-12m24-6h-33m21 52h-12m24 6h-33m15-6v-46m6 52v-58m-12 58v-58m-9-105h131m-131 268h136m906 289h-73m269 0h-73m270 0h-46m242 0h-73m270 0h-73m269 0h-46m243 289h-185m381 0h-185m347 0v-289m-312 289v-289m-81 289v-289m334 119-1 5-5 4-8 1h-5l-9-1-5-4-1-5v-3l1-5 5-3 9-2h5l8 2 5 3 1 5v3m0 40v-18l-13 10v-5l-1-4-2-1-5-2h-3l-5 2-4 3-1 5v5l1 5 2 2 3 1m28 17h-34m34 0-23 16v-25m-151-51-5 1-3 4-2 5v1l2 5 3 4 5 1h2l5-1 3-4 2-5v-1l-2-5-3-4-7-1h-8l-8 1-5 4-2 5v3l2 5 3 2m22 33h1l4-2 1-2 2-3v-7l-2-3-1-2-4-1h-3l-3 1-5 4-17 16v-23m35 40h-35m35 0-23 16v-25m-2055-854 35-17v23m-6 28 1-3 5-5h-35m35 30h-35m35 0-23 16v-24m18-231 4 2 1 5v3l-1 5-5 4-9 1h-8l-7-1-3-4-2-5v-1l2-5 3-4 5-1h2l5 1 3 4 2 5v1l-2 5-3 4-5 1m17 30 1-3 5-5h-35m35 29h-35m35 0-23 17v-25m23-292v17l-15 1 2-1 2-5v-5l-2-5-3-3-5-2h-4l-5 2-3 3-2 5v5l2 5 2 1 3 2m22 28 1-3 5-5h-35m35 30h-35m35 0-23 16v-25m23-213h-35m35 0-23 17v-25m17 53 1-4 5-5h-35m35 30h-35m35 0-23 17v-25m23-279v-18l-13 10v-5l-2-3-1-2-5-2h-4l-5 2-3 3-2 5v5l2 5 2 2 3 1m22 29 1-4 5-5h-35m35 30h-35m35 0-23 16v-24m17-438 1-4 5-5h-35m29 42 1-4 5-4h-35m35 29h-35m35 0-23 17v-25m842 1655h81m-312 139h-327m747 0h-158m158 11h-73m-150 0h-46m46-11h-131m-66 11h-46m1252-11h-131m131 11h-73m-123 0h-74m74-11h-158m-66 0h-131m131 11h-46m-150-11h-104m104 11h-47m971 0h-73m85 0h73m-85 289v-289m12 289v-289m-197 289v-289m-11 289v-289m-1757-84v-115m-11 115v-7m-317 414v-612m317 198h-285m285-12h-285m1286-2071h84m-494 0h136m-546-20h-27v27h27v-27m-77-294h-14m372 314h-23m152-20h-27v27h27v-27m410 0h-27v27h27v-27m289 20h154m-154-20h-27v27h27v-27m387 0h-27v27h27v-27m229 0h-27v27h27v-27m-1467 31h288m274 150h11m898-161v-451m-17 0h-14m256 0h-225m-17 431v-281m23 301h-6m231-24v-144m12 144v-121m-1506 2157h-12m12 12h-12m1556 139h-77m-346 11h-47m195-2174v11m115-11v11m-40-11v11m35-11v11m-35-6h35m17 6h-58v-11m46 0h-46m-67.5-69c18.334 0 35.902 7.3492 48.775 20.403 12.873 13.054 19.975 30.724 19.719 49.055m-68.993-70.459h-1 1m1 70h-2l2-70zm-2 0 2-70h-2zm143-394v2l1 3 2 2 3 1h7l3-1 2-2 2-3v-4l-2-3-3-5-17-16h23m-36 3-2-2 2-1 2 1-2 2m-33 31h23m-12 0v-34m-18 29-3 4-5 1h-7l-5-1-3-4v-3l2-3 1-2 4-2 10-3 3-2 2-1 1-4v-4l-3-4-5-1h-7l-5 1-3 4m-73 2329-12-35-11 35zm-12 46v-46m65-2019h23l-23-16h23m-23 39h23v-8l-1-3-2-2-2-1-3-1h-6l-3 1-2 1-3 2-1 3v8m-51-140h112m-112-21h112m-112-21h112m-112-21h112m-112-22h112m-112-21h225m-113 191v-191m-135 2317h23v-10l-1-3-1-1-2-1h-4l-2 1-1 1-1 3v10m12 24h-17l-3-1-2-2-1-3v-2l1-4 2-2 3-1h17m165-2283h8m-15-11 12 35 11-35zm-115 159v-227h127v68m-1079-236h106m-1172 2123.5c0-17.273 6.9278-33.824 19.232-45.946 12.304-12.122 28.956-18.804 46.227-18.547m-66.458 63.993v1-1m66-1v2l-66-2zm0 2-66-2v2zm0-66h11m-11 66h11m-11-66v-73m11 73v-157m-10.542-0.01c-17.271 0.2567-33.923-6.4244-46.227-18.547-12.304-12.12-19.232-28.67-19.232-45.943m-1-0.5v-1 1m66-1v2l-66-2zm0 2-66-2v2zm0 64h11m-11-66h11m-11 66v73m11-139v-104m-76-0.5c0-17.273 6.9278-33.824 19.232-45.946 12.304-12.122 28.956-18.804 46.227-18.547m-66.458 63.993v1-1m66-1v2l-66-2zm0 2-66-2v2zm0-65h11m0 65h-11v46m11-111v-158m-11 466h-289m289 11h-289m289-196v46m0 335v-46m0-347h-289m289 12h-289m289-197v74m0.4585-158.01c-17.271 0.2567-33.923-6.4244-46.227-18.547-12.304-12.122-19.232-28.673-19.232-45.946m-1-0.5v-1 1m66-1v2l-66-2zm0 2-66-2v2zm0 64h11m-11-66h11m-11 66v73m11-139v-104m-76-0.5c0-17.273 6.9278-33.824 19.232-45.946 12.304-12.122 28.956-18.804 46.227-18.547m-66.458 63.993v1-1m66-1v2l-66-2zm0 2-66-2v2zm0-65h11m0 65h-11v47m11-112v-158m-11 477h-301m301-11h-301m301-139v-46h-289m289-11h-289m289-382v47m-289 739v185m0 196v-185m289-635h-289m289 81h-289m289 312h-289m289 81h-289m289-1225v-73m-65 419.5c0-17.273 6.9278-33.824 19.232-45.946 12.304-12.122 28.956-18.804 46.227-18.547m-66.458 63.993v1-1m66-1v2l-66-2zm0 2-66-2v2zm0-66h11m-11 66h11m0-66v-131m-11 46v-47m0 59v73m-289-547v70m0 589v-185m0 724h-33m21 8h-11m11 45h-11m11 11h-11m11 45h-11m11 12h-11m6-57v45m17 64h-33m21-8h-11m6-44v44m0-157v45m-6-53v173m11-173v173m-5-558v45m5-45h-11m11 56h-11m11-11h-11m23-53h-33m16 121v45m5 0h-11m11-45h-11m11-12h-11m23 64h-33m21-173v173m-11-173v173m6-109v45m0-369v-44m5 108v-116m-11 116v-116m6 108v-44m5-12h-11m11 12h-11m11 44h-11m23 8h-33m21-108h-11m23-8h-33m33-277h-33m21 8h-11m23 107h-33m21-7h-11m11-45h-11m11-11h-11m6 56v-45m-6 52v-115m11 115v-115m-5 52v-44m-16 1592v-1771m1109-395h-45m45 6v-12m-56 12v-12m11 12v-12m53 23v-33m-121 16h-44m0 6v-12m44 12v-12m12 12v-12m-64 23v-33m173 22h-173m173-12h-173m109 6h-45m-263 0h-44m44 6v-12m-56 12v-12m12 12v-12m52 23v-33m-121 16h-44m0 6v-12m44 12v-12m12 12v-12m-64 23v-33m173 22h-173m173-12h-173m109 6h-45m-263 0h-44m44 6v-12m-56 12v-12m12 12v-12m52 23v-33m-121 16h-44m0 6v-12m44 12v-12m12 12v-12m-64 23v-33m173 22h-173m173-12h-173m109 6h-45m1954-16h-2234v31m410 1318h2l3-2 2-1 1-4v-6l-1-3-2-2-3-2h-4l-3 2-5 3-16 17v-23m34 46-1 5-5 3-9 2h-5l-8-2-5-3-1-5v-3l1-5 5-4 8-1h5l9 1 5 4 1 5v3m0 26h-34m34 0-23 17v-25m-8 38-2 2-1-2 1-2 2 2m8 31v-16m-11 21 34-13-34-13m34 53v-23m0 11h-34m941-838 3 1 5 5v-34m-37 34-4-1-4-5-1-9v-5l1-8 4-5 4-1h4l5 1 3 5 2 8v5l-2 9-3 5-5 1h-4m-26 0v-34m0 34-16-23h24m-38-8-1-2 1-1 2 1-2 2m-31 8h17m-22-11 13 34 13-34m-52 34h23m-12 0v-34m-717 100h-139m2165-174h-35v35h35v-35m-1194 922h951m-1760 24v331m1991 581v-41h-11m0 47v-47m-1171-174v-711m-731 999.5c0 17.273-6.9278 33.824-19.232 45.946-12.304 12.122-28.956 18.804-46.227 18.547m64.458-64.993v-1 1m-65 1v-2l65 2zm0-2 65 2v-2zm0 65h-12m12-65h-12m0 85v-20m12 20v-20m681-1802h-275m-713-637 35-17v23m0 23-2 5-4 3-9 2h-5l-8-2-5-3-2-5v-3l2-5 5-3 8-2h5l9 2 4 3 2 5v3m0 27h-35m35 0-23 16v-25m283 605v12m0 360v331m0 767v198m-443-2384h374m1074 0h-346m-1136 35h34v-35m455 682h-35v34h35v-34m0 372h-35v34h35v-34m0 365h-35v35h35v-35m0 366h-35v35h35v-35m989 861v-35m0 35-17-23h25m-48 23-5-2-3-5-2-8v-5l2-8 3-5 5-2h4l5 2 3 5 2 8v5l-2 8-3 5-5 2h-4m-26 0v-35m0 35-17-23h25m-38-9-1-1 1-2 2 2-2 1m-31 9h16m-21-12 13 35 13-35m-53 35h24m-12 0v-35m-929-119v-18l-14 10v-5l-1-4-2-1-5-2h-3l-5 2-3 3-2 5v5l2 5 1 2 4 1m28 23-2 5-5 4-8 1h-5l-8-1-5-4-2-5v-3l2-5 5-3 8-2h5l8 2 5 3 2 5v3m0 27h-35m35 0-23 16v-25m-9 38-1 2-2-2 2-1 1 1m9 32v-17m-12 22 35-14-35-13m35 53v-23m0 12h-35m87-69v139m-150-189v96m0-161v-47m0 624v-332m38-435v-18l-13 10v-5l-2-3-1-2-5-1h-3l-5 1-4 3-1 5v5l1 5 2 2 3 2m-3 13-2 1-1-1 1-2 2 2m31 33v-23m0 11h-34m29 18 4 4 1 5v6l-1 5-4 4h-3l-3-2-2-2-2-3-3-10-2-3-1-2-3-2h-5l-4 4-1 5v6l1 5 4 4m-141 143-1 5-4 1h-3l-3-1-2-4-2-6-1-5-4-4-3-1h-5l-3 1-2 2-1 5v7l1 5 2 1 3 2h5l3-2 4-3 1-5 2-7 2-3 3-2h3l4 2 1 5v7m-6 36 1-3 5-5h-34m34 29h-34m34 0-23 17v-25m61-195h23l-23-16h23m-23 39h23v-8l-1-3-2-2-6-2h-5l-4 1-2 1-2 2-1 3v8m-177-110 35-12-35-11zm165 93h-235v-105h70m-26 49h183m-98-73v-24m-42 97 22-39h12l-12-20h12l22-38m92 202v-202m-21 202v-97m-106-44v-61m-21 97v-97m105 202v-97m-21 97v-97m-21 97v-97m-21 97v-97m-21 97v-97m-21 97v-97m-22-8v-97m0 202v-97m-21 0h191m-191 97v-202m470 213h-38m38-11h-38m50-233h-35v35h35v-35m0 372h-35v34h35v-34m496 34h-34v-34h34v34m324 0v-34h-35m0 34v-34m707 304-1 5-3 2h-4l-3-2-2-3-1-7-2-5-3-3-4-2h-5l-3 2-2 1-1 5v7l1 5 2 2 3 1h5l4-1 3-4 2-5 1-6 2-4 3-1h4l3 1 1 5v7m-8 40h2l3-2 2-2 1-3v-7l-1-3-2-2-3-1h-3l-4 1-5 4-16 16v-23m34 40h-34m34 0-23 16v-25m-205-36 35-17v23m-9 32h2l3-2 2-2 2-3v-7l-2-3-2-2-3-1h-3l-4 1-5 4-16 16v-23m35 40h-35m35 0-23 16v-25m-146-62 4 1 1 5v4l-1 5-5 3-9 2h-8l-6-2-4-3-1-5v-2l1-5 4-3 5-2h1l5 2 3 3 2 5v2l-2 5-3 3-5 2m15 33h2l3-2 2-2 1-3v-7l-1-3-2-2-3-1h-4l-3 1-5 4-16 16v-23m34 40h-34m34 0-23 16v-25m-176-66v16l-14 2 1-2 2-5v-5l-2-4-3-4-5-1h-3l-5 1-4 4-1 4v5l1 5 2 2 3 2m20 31h2l3-2 2-1 1-4v-6l-1-3-2-2-3-2h-3l-4 2-5 3-16 17v-23m34 39h-34m34 0-23 17v-25m-206-63h-34m34 0-23 16v-25m15 57h2l3-2 2-2 1-3v-7l-1-3-2-2-3-1h-4l-3 1-5 4-16 16v-23m34 40h-34m34 0-23 16v-25m-147-47v-18l-13 10v-5l-2-3-1-2-5-1h-4l-4 1-4 4-1 5v4l1 5 2 2 3 2m20 31h2l3-2 2-1 1-4v-6l-1-3-2-2-3-2h-4l-3 2-5 3-16 17v-23m34 39h-34m34 0-23 17v-25m-176-46h2l3-1 2-2 2-3v-7l-2-3-2-2-3-2h-3l-4 2-5 3-16 17v-23m26 54h2l3-1 2-2 2-3v-7l-2-3-2-2-3-2h-3l-4 2-5 3-16 17v-23m35 39h-35m35 0-23 17v-25m-267-48-1 5-5 3-9 2h-5l-8-2-5-3-1-5v-3l1-5 5-4 8-1h5l9 1 5 4 1 5v3m-8 41h2l3-2 2-1 1-4v-6l-1-3-2-2-3-2h-4l-3 2-5 3-16 17v-23m34 39h-34m34 0-23 17v-25m-362-132-5 2-4 3-1 5v1l1 5 4 4 5 1h1l5-1 4-4 1-5v-1l-1-5-4-3-6-2h-9l-8 2-5 3-1 5v3l1 5 3 2m24 29 1-3 5-5h-34m34 30h-34m34 0-23 16v-24m2488 364v-34m0 34-16-23h25m-38-8-2-2 2-1 1 1-1 2m-33 31h23m-12 0v-34m-18 29-3 4-5 1h-7l-5-1-3-4v-3l1-3 2-2 3-2 10-3 4-1 1-2 2-3v-5l-3-4-5-1h-7l-5 1-3 4m-583-617h11m644 179h-47m0 5v-11m47 11v-11m5 11h-57v-11h57m-57.007 11.541c0.2566 18.332-6.846 36.001-19.719 49.055-12.873 13.054-30.441 20.403-48.775 20.403m-0.5 0h-1 1m-1-70h2l-2 70zm2 0-2 70h2zm-2 0v-12m196.5 82c-18.334 0-35.902-7.3492-48.775-20.403-12.873-13.054-19.975-30.724-19.719-49.055m67.993 69.459h1-1m-1-70h2l-2 70zm2 0-2 70h2zm-70 0v-11m70 1v10h19m-235 486v-486h19m-63-201-138-161m138 0-138 161h138v-161h-138v161m163-39v-6m0-89 11-6m-11 114 11 7m-23-95v-62m12 62v-6m0 81 23 13v77m-23-171 23-14m-35 20h12m-12 69h12m-197 65v-238m185 235h-173v-193m0-12h177m-177 12h173m-173-69v57m173 239v-23m-1171 23h35m1155 438v-289m-7-183v-43m11 43v-36m-23 47h-173m196-11h-11m287 702h-301m268-32h-235m-1202-670v-199m-1287 399h32m-32 176h32m-11-176v176m-5-168v49m-6-57v176m0-168h11m-11 161h11m-11-112h11m-11 11h11m-11 41h11m-11 12h11m-5 0v48m0-101v41m1152 196v-33m-118 33v-33m110 26v-11m-102 11v-11m110 11h-118m118-11h-118m64 0v11m-12-11v11m58-6h-46m-12 0h-44m-1053-1043v-58m11 58v-58m0 52h-11m11-46h-11m23 52h-33m33-58h-33m16 52v-46m-6 162v-58m11 58v-58m0 52h-11m11-46h-11m23 52h-33m33-58h-33m16 52v-46m893 997h-58m58-12h-58m52 0v12m-46-12v12m52-32v42m-58-42v42m52-16h-46m905 7v-33m-117 33v-33m110 26v-11m-103 11v-11m110 11h-117m117-11h-117m63 0v11m-11-11v11m58-6h-47m-11 0h-45m-1632-498v-46m17-6h-32m32 58h-32m21-52h-12m12 46h-12m12 6v-58m-12 58v-58m1419 556h-46m-6-26v42m58-42v42m-52-22v12m46-12v12m6-12h-58m58 12h-58m971-15h-47m-5-17v33m57-33v33m-52-22v11m47-11v11m5-11h-57m57 11h-57m-52-5h-47m-5-17v33m57-33v33m-52-22v11m47-11v11m5-11h-57m57 11h-57m-232 10h-57m57-12h-57m52 0v12m-47-12v12m52-32v42m-57-42v42m52-16h-47m-724-2320v-8m12 0v20h-299m1984 2289h-123m-280-7h-184m-254.5-222c-36.175 0-65.5-29.325-65.5-65.5m65-0.5v66m-65-66v-12m65 12v-12m-184 300v-289m-11.5 67c-36.175 0-65.5-29.325-65.5-65.5m65-0.5v66m-65-66v-12m65 12v-12m-300 300v-289m77 1.5c0 36.175-29.325 65.5-65.5 65.5m-0.5-66v66m0-66v-12m66 12v-12m-355 300v-289m-11 1v-12m-66 12v-12m66.5 78c-36.175 0-65.5-29.325-65.5-65.5m65-0.5v66m92 222v-289m77 1v-12m-65 12v-12m66 12.5c0 36.175-29.325 65.5-65.5 65.5m-0.5-66v66m-405 222v-289m77 1v-12m-65 12v-12m66 12.5c0 36.175-29.325 65.5-65.5 65.5m-0.5-66v66m-208 222v-289m77 1.5c0 36.175-29.325 65.5-65.5 65.5m-0.5-66v66m0-66v-12m66 12v-12m-158 300v-289m-357.5-18c-36.175 0-65.5-29.325-65.5-65.5m65-0.5h-66m66 363h-250m261-298h-11m11-65h-11m-4.5-114c-36.175 0-65.5-29.325-65.5-65.5m65-0.5h-65m81 0v-47m0 112h-16m5-77h-285m296 12h-16m63-266h-39m39 214h-39m39-208v-12m-39 12v-12m0 225v-11m39 11v-11m77.5-132c-38.384 0-69.5-31.116-69.5-69.5m69-0.5v69m-69 133.5c0-38.384 31.116-69.5 69.5-69.5m-0.5 69v-69m-70 80h-54m54-11h-485m0-202h485v-12h-54m124 12v-12m-70 225v-11m70 11v-11m-135-249h-289m300 35v-46m-11 46h-289m289 225h-285m435-213h-15m-424-405v-185m0-11v-185m0-11v-185m1860 1795h-185m-11 0h-185m-12 0h-185m-11 0h-185m-12 0h-184m-12 0h-185m1179 0v-289m-12 289v-289m-185 304v-304m-11 304v-304m-185 289v-289m-12 289v-289m-185 289v-289m-11 289v-289m-185 304v-304m-12 304v-304m-184 289v-289m-12 289v-289m-196 289h-382m393 0v-289m-11 289v-289m-243-536h-15m-420 433v-208m0 590v-370m1253-2648v-99m-1290 510h-15m33-45v-115m-18-220h-15m-83 2386v-202m-33 235v-268m1982 879h-356m-170 0h-360m-169 0h-434m2099 0h-441m859 1h-117m0 196v-552m-301 552v-197m-441 48h-38m-93 0v-39m93 39v-39m38 39v-48m-131 48h-38m131-39h-93m-38 39v-48m-925 9h-92m622 0h-92m0 39h-39m-360 0h-39m569 0v-48m-39 48v-39m-92 39v-39m-39 39v-48m-491 48h-38m169 0v-48m-39 48v-39m-593-42v-289m1162 370h-39m-622 0v-39m-38 39v-48m-434 24v-24m-40-9h-250m290 33h-334m1952-2648h106v128h115v-20h14v-281h-235v173m235-219h-247v347h-98v-532h331v81h14v104" clip-path="url(#clipPath52455)" fill="none" stroke="#280b0b" stroke-linecap="round" stroke-linejoin="round" stroke-miterlimit="10" stroke-width="6.25"/>
</svg>
