<?xml version="1.0" encoding="UTF-8"?>
<!-- Created with Inkscape (http://www.inkscape.org/) -->
<svg width="1632" height="1056" version="1.1" viewBox="0 0 1632 1056" xmlns="http://www.w3.org/2000/svg">
 <defs>
  <clipPath id="clipPath366751">
   <path d="m607 259h5544v9219h-5544v-9219"/>
  </clipPath>
 </defs>
 <path id="map" transform="matrix(0 -.16 -.16 0 1693.9 1086.9)" d="m3529 3926v-51m0 385v-301m8 301v-393m1257 4087v-19l-13 10v-5l-1-3-2-2-5-1h-3l-5 1-4 4-1 5v5l1 5 2 1 3 2m28 30v-19l-13 10v-5l-1-3-2-2-5-1h-3l-5 1-4 4-1 5v5l1 5 2 1 3 2m20 31h2l3-1 2-2 1-3v-7l-1-3-2-2-3-2h-3l-4 2-5 3-16 17v-23m50-423h-69m0 0.5c0-38.384 31.116-69.5 69.5-69.5m-0.5 69v-70m0 79h12m-139 0h58m69-9h12m-139 0h58m-484-36-5-1-4-5-1-9v-5l1-8 4-5 5-1h3l5 1 3 5 2 8v5l-2 9-3 5-5 1h-3m-38-6 3 1 5 5v-34m-45 26v2l2 3 2 2 3 1h7l3-1 2-2 1-3v-4l-1-3-4-5-16-16h23m-36 3-2-2 2-1 1 1-1 2m-32 8h17m-22-11 13 34 14-34m-53 34h23m-12 0v-34m-38-2994h-15v27h15v-27m23-299h-15v27h15v-27m0-334h-15v27h15v-27m0-335h-15v27h15v-27m0-334h-15v27h15v-27m-27-349v-177m37 65h-12m12-11h-12m12-46h-12m18-8h-43m31 54v-46m0 104v-47m0 104v-46m6-11h-12m12 11h-12m12 46h-12m18 8h-43m37 0v-177m-12 177v-177m-25 511v-177m37 65h-12m12-11h-12m12-46h-12m18-8h-43m31 54v-46m0 104v-47m0 104v-46m6-11h-12m12 11h-12m12 46h-12m18 8h-43m37 0v-177m-12 177v-177m-25 511v-177m37 66h-12m12-12h-12m12-46h-12m18-8h-43m31 54v-46m0 104v-46m0 104v-47m6-11h-12m12 11h-12m12 47h-12m18 7h-43m37 0v-177m-12 177v-177m-313 1016.5c0-38.384 31.116-69.5 69.5-69.5m-0.5 69v-70m-360.5-525c-38.384 0-69.5-31.116-69.5-69.5m69-0.5h-69m686 383h-12m12-12h-12m12-46h-12m6 46v-46m0 104v-46m0 104v-47m6-11h-12m12 11h-12m12 47h-12m18 7h-43m37 0v-177m-12 177v-177m-214 1510-1 1-1-1 1-1 1 1m18 9 2 2 1 4v4l-1 3-2 3h-2l-2-2-2-1-1-2-3-9-1-1-2-1h-4l-2 2-1 4v4l1 3 2 3m-1 8-1 1-1-1 1-1 1 1m21 22v-15m0 8h-23m2 14-1 1-1-1 1-1 1 1m21 10h-23m-62-334-29 19m29 0-29-19m29 33h-29m29 0-19 14v-21m19 45v-15l-11 8v-4l-2-4-5-1h-2l-4 1-3 3-2 4v4l3 6 3 1m16 26h2l3-1 2-4v-6l-1-3-1-1-3-1h-3l-3 1-4 3-14 14v-20m162 170-14 11m14 11-14-11h-15m29 22h-29m29 0-19 14v-21m19 46v-15l-11 8v-4l-2-3-1-1-4-2h-3l-4 2-3 2-1 5v4l1 4 2 1 2 2m17 26h1l3-2 1-1 2-3v-5l-2-3-1-1-3-2h-2l-3 2-4 2-14 14v-19m-87.541-145.01c-18.332 0.2566-36.001-6.846-49.055-19.719s-20.403-30.441-20.403-48.775m0-0.5v-1 1m69-1v2l-69-2zm0 2-69-2v2zm23-9h-15m0 77h-8m8-70h-8m23-15h-23m-2241 1440-29 20m29 0-29-20m0 42 29-14v19m-6 23 6-6h-29m22 37h1l3-2 1-1 2-3v-5l-2-3-1-1-3-2h-3l-2 2-4 2-14 14v-19m48.5-98c-31.756 0-57.5-25.744-57.5-57.5m57-0.5h-58m66-11h27m-35 69h8m-8-58h8m-8-18h35m-27 18v-11m0 87v-18m-8-58v-18m0 94v-18m161 355-14-10m24 0-16 15m16 0h-24m24 19h-24v-13m8 33v-11m-8 14 24-9-24-9m24 43-24-5 24-6-24-5 24-6m0 41v-16m0 8h-24m8 24v-11m-8 15 24-9-24-9m18 22 2 1 2 2 2 3v4l-6 6-3 1h-6l-3-1-6-6v-4l2-3 2-2 2-1m8-1319-14-10m24 0-16 16m16 0h-24m24 18h-24v-13m8 33v-11m-8 15 24-9-24-9m24 43-24-6 24-5-24-6 24-5m0 41v-16m0 8h-24m8 24v-11m-8 14 24-8-24-9m18 22 2 1 4 4v5l-4 4-2 1-3 1h-6l-3-1-2-1-4-4v-5l4-4 2-1m-64 1352-1-3-1-2-3-1h-3l-2 1-1 2-1 3v10m0 0h23v-10l-1-3-1-2-3-1h-2l-2 1-1 2-1 3v10m11 10v11l-10 1 1-1 1-4v-3l-1-3-2-2-3-2h-3l-3 2-2 2-1 3v3l1 4 1 1 2 1m19 11h-23m23 0-16 11v-17m10 38h1l3-1 1-1 1-3v-4l-1-2-1-1-3-1h-2l-2 1-3 2-11 11v-16m4-1689v-11m-8 14 23-8-23-9m23 24v11l-10 1 1-1 1-3v-4l-1-3-2-2-3-1h-2l-4 1-2 2-1 3v4l1 3 1 1 2 1m19 11h-23m23 0-15 11v-16m10 37h1l2-1 1-1 1-2v-5l-1-2-1-1-2-1h-2l-3 1-3 2-11 11v-15m714 658-34-8 34-9-34-8 34-8m0 58-1 3-4 3-3 2-5 2h-8l-5-2-3-2-4-3-1-3v-7l1-3 4-3 3-2 5-2h8l5 2 3 2 4 3 1 3v7m0 36h-34v-20m0 51v-21m18 21v-13m-18 13h34v-21m-16 41-2-5-2-1-3-2h-5l-3 2-2 1-1 5v15h34v-15l-1-5-2-1-3-2h-4l-3 2-2 1-1 5v15m16 63-1 3-4 3-3 2-5 2h-8l-5-2-3-2-4-3-1-3v-7l1-3 4-3 3-2 5-2h8l5 2 3 2 4 3 1 3v7m0 39v-23m0 12h-34m0 77h34l-34-23h34m-34 55v-22m18 22v-13m-18 13h34v-22m-34 56h34v-14l-1-5-2-2-3-2h-5l-4 2-1 2-2 5v14m18 28-1 4-4 3-3 2-5 1h-8l-5-1-3-2-4-3-1-4v-6l1-3 4-4 3-1 5-2h8l5 2 3 1 4 4 1 3v6m45-676 718 934m-718-12 718-934m419-115-4 2-2 2-1 3v1l1 3 2 3 4 1h1l3-1 2-3 1-3v-1l-1-3-2-2-4-2h-6l-5 2-4 2-1 3v2l1 4 3 1m19 21v-13l-8 7v-3l-2-2-1-2-3-1h-2l-3 1-3 3-1 3v3l1 4 1 1 3 1m13 21h1l2-1 2-4v-4l-1-2-3-3h-2l-2 2-4 2-11 11v-16m16 1075-4 1-2 2-1 3v2l1 3 2 2 4 1h1l3-1 2-2 1-3v-2l-1-3-2-2-4-1h-6l-5 1-4 2-1 3v3l1 3 3 1m19 21v-12l-8 6v-3l-3-3-3-1h-2l-3 1-3 2-1 3v4l1 3 1 1 3 1m13 21h1l2-1 1-1 1-2v-5l-1-2-1-1-2-1h-2l-6 3-11 11v-15m-206-605-5 2-3 3-2 5v2l2 5 3 3 5 2h2l5-2 3-3 2-5v-2l-2-5-3-3-7-2h-8l-8 2-5 3-2 5v3l2 5 3 2m30 31v-18l-14 10v-5l-1-3-2-2-5-1h-3l-5 1-3 4-2 4v5l2 5 1 2 4 2m19 31h2l3-2 2-1 2-4v-6l-2-3-2-2-3-2h-3l-4 2-4 3-17 17v-23m236-56-2 5-5 3-8 2h-5l-8-2-5-3-2-5v-3l2-5 5-3 8-2h5l8 2 5 3 2 5v3m0 27h-35m35 0-23 16v-25m15 57h1l4-2 1-2 2-3v-7l-2-3-1-2-4-1h-3l-3 1-5 4-17 16v-23m-693-923h-23v-13m7 33v-11m-7 14 23-9-23-8m17 22 3 1 2 2 1 2v4l-1 3-2 2-6 2h-5l-4-1-2-1-2-2-1-3v-4l1-2 2-2 2-1m18 24h-23m0 24h23l-23-15h23m-16 35v-11m-7 14 23-9-23-9m12 39v-15m11 0h-23m23 15h-23m17 8 3 1 2 2 1 2v5l-1 2-2 2-6 2h-5l-4-1-2-1-2-2-1-2v-5l1-2 2-2 2-1m-5 36v-14m12 14v-9m-12 9h23v-14m-23 40h23l-23-8 23-9h-23m-377 154v-371m11 371v-337m0 1469v223m0 10v104m208-517h24l-24-16h24m-24 39h24v-8l-4-6-2-1-3-1h-6l-3 1-2 1-4 6v8m28 6-35 20m7 21h24v-10l-2-3-1-1-2-1h-3l-2 1-1 1-2 3v10m13 24h-17l-3-1-2-2-2-3v-3l2-3 2-2 3-1h17m-9 94 17 4-11-14zm-12-14 15 9m5-1021h23l-23-15h23m-23 38h23v-7l-1-4-2-2-2-1-4-1h-5l-6 2-2 2-1 4v7m28 7-36 20m8 21h23v-10l-1-3-1-2-2-1h-4l-2 1-1 2-1 3v10m12 24h-16l-4-1-2-2-1-4v-2l1-3 2-2 4-1h16m-25-162 11-15-17 5zm-18 4 15-9m-890 1413h23l-23-15h23m-23 38h23v-7l-1-4-2-2-2-1-3-1h-6l-3 1-2 1-3 2-1 4v7m-99-7h23l-23-15h23m-23 38h23v-8l-1-3-2-2-2-1-4-1h-5l-6 2-2 2-1 3v8m54-11 17-6-17-6zm-17-6h17m34-44-6-17-6 17zm-6 17v-17m-103-1567h23l-23-15h23m-23 38h23v-8l-1-3-2-2-2-1-3-1h-6l-3 1-2 1-3 2-1 3v8m28 7-35 20m7 21h23v-10l-1-4-1-1-2-1h-3l-3 1-1 1-1 4v10m12 24h-16l-3-1-3-3-1-3v-2l1-3 3-3 3-1h16m-8 58-17 6 17 6zm17 6h-17m1739-49v2l-11 2m11-3-12 1m214 1167-8 46-3-1 8-45m-29 116-2-1 2-2v-1h4v-1l4 1v1l4 1v4h-1m10-124h-1v4l4 1v1l4 1v-2l4 1v-1l1-2 1-1h-2m-20 118 1-5 68 12-1 5-68-12m12.174-67.285c34.856 7.7183 58.905 39.662 56.685 75.293m-48.859-1189-8-45h-3l8 46m3-1-3 1m-8 5h-1v-4h4v-1l4-1v1l4-1v1l1 2 1 1h-2m2 0-1-1m-145.19 955.25c-16.372 70.348-36.607 139.74-60.614 207.86m63.014-204.29c-16.266 69.468-36.3 138-60.014 205.29m62.132-201.54c-16.233 69.508-36.378 138.04-60.341 205.28m70.43-191.46c-3.2843 13.701-6.7202 27.365-10.307 40.99m11.987-52.436c-16.183 69.356-36.238 137.75-60.071 204.87m155.97-192.81-3 18m-4-8 1 1v2h-1v-3m0 7 2-11 4 1-2 11-4-1m0.6108 0.3266c-7.3377 36.146-41.633 60.265-78.131 54.947m11.52-75.274h-1v3h1v-3m-12 75-4-1 14-68 4 1-14 68m10-69 2-11-4-1-2 12h4m0-18-4 18m2-8-21-5m131 27-35-7m-75-16-20-5m130 27-35-7m-75-17-20-4m130 27-34-7m-76-17-31-6m141 29-34-7m-78-6-20-4m131 27-35-7m-76-14-21-5m131 27-34-7m1.1033 195.69c-55.027-38.96-94.43-96.197-111.18-161.51m110.81 163.69c-54.874-38.576-94.473-95.182-111.9-159.95m113.65 151.38c-55.772-40.263-94.67-99.742-109.2-166.98m109.31 165.82c-55.985-40.597-94.794-100.63-108.82-168.35m33.228-49.802-34-7m144 29-34-7m-75-18-38-7m147 29-34-7m0-893-3-18m-4 8h1v-3h-1v3m0-7 2 11h4l-2-12-4 1m-77.52-54.274c36.498-5.3175 70.793 18.802 78.131 54.947m6.3892-185.67h-2l1 1 1 2v1l4-1v1l4-1v-1l4-1v-3h-1m-84 207-1 1v-3h1v2m-12-75-4 1 14 68 4-1-14-68m10 69 2 11-4 1-2-11 4-1m0 18-4-17m-36 15 2 9m-60.301-208.53c23.158 65.553 42.823 132.29 58.913 199.92m37.388-7.3905-21 4m130-26-34 7m-75 16-20 4m130-26-35 6m-75 17-20 4m130-26-34 7m-76 16-31 7m141-29-34 7m-78 5-20 4m130-26-34 7m-76 14-21 4m131-26-34 7m-110.08-34.188c16.752-65.309 56.154-122.55 111.18-161.51m-112.27 157.77c17.425-64.773 57.024-121.38 111.9-159.95m-107.45 175.55c14.497-67.082 53.253-126.45 108.83-166.71m-108.35 169.24c13.999-67.564 52.666-127.49 108.46-168.08m-181.23 16.886 1 9m10.007-10.488c24.236 68.374 44.669 138.04 61.207 208.67m33.786-7.1798-34 7m144-28-34 6m-75 18-38 7m147-28-34 6m-97 13-11 2m-60.009-203.85c23.942 67.178 44.074 135.65 60.3 205.1m-1.1437-54.377c3.5851 13.618 7.0193 27.275 10.302 40.969m-9.3348-41.224c3.587 13.625 7.0229 27.289 10.307 40.99m-58.391-193.42c23.771 66.941 43.784 135.16 59.946 204.33m-1017-27.521v-1h-1v1m113.84-24.686c-35.06 16.681-73.471 25.119-112.29 24.669m85.05-25.537c-28.514 10.304-58.695 15.215-89.004 14.483m89.986-13.775c-28.809 10.502-59.331 15.513-89.986 14.776m111.23-15.945c-34.853 15.996-72.892 23.844-111.23 22.947m112.77-22.558c-35.284 16.404-73.872 24.464-112.77 23.558m114.96-23.114c-34.702 16.352-72.662 24.614-111.02 24.166m-1.535 923.02v0m-2-926v2h-33v-5m35 6h-36v-6m36 7h-37v-7h35m2 929h1v0m-27 7h12v63m14-70h-37v7m11-936h-11m38.548 929.02c38.823-0.4504 77.234 7.9878 112.29 24.669m-5.8419 9.3143 5-10m-15-976h-1m9-3 3 7m-2-7 3 7m-2-8 4 9m-4-10 5 10m-4.6662-9.6151c-3.4308 1.6283-6.8992 3.1764-10.402 4.6432m9.9795-3.3378c-4.3885 2.0623-8.8373 3.9941-13.34 5.7929m-10.571-22.483v8-3l-1-1h-13l-1 1v3-8 3l1 1h13l1-1v-3m0 1019v-7 2l-1 1h-13l-1-1v-2 7-3l1-1h13l1 1v3m-86.407-35.929c30.309-0.7324 60.491 4.1788 89.004 14.483m11.334 4.4177c3.5029 1.4668 6.9713 3.0149 10.402 4.6432m652.67-837.62 16 84m4-88 16 84m4-88 16 85m12-91 16 87m4-91 16 87m4-91 16 88m11-94 17 90m3-95 17 92m-116 18-40 7m108-18-40 7m109-18-41 7m-112-70-40 8m108-22-40 8m304-310-10 1 2 14m6-5-1-10m3 11-2-11m3 12-2-12m3 13-2-13m-9 11 7-1m-6 3 8-2m-8 3 9-2m-9 3 10-2m-2 1319-10-2 2-13m7 5-2 9m3-10-2 10m3-11-2 12m3-13-2 13m-8-11 7 1m-7-2 8 1m-8-2 9 1m-9-2 10 1m-97-499-8 86m28-84-11-1m-6-1h-3m12 88h-1l-10-1m2-87-9 87-2-1m28-80-17-2m18-2-18-2m-8 83 17 2m-18 2 18 1m3.7231-81.845c-2.2592 26.296-4.8906 52.559-7.8925 78.781m5.8999-78.866c-2.2578 26.287-4.887 52.54-7.887 78.752m15.156-82.822-9 86m0.1219 0.5927c-0.1128 0.7076-0.2363 1.4134-0.3705 2.1171m-0.6889-1.5443c-0.1849 1.0881-0.3763 2.175-0.5742 3.2608m-9.7805-4.6722c-0.6424 4.6431-1.2991 9.2842-1.9705 13.923m1.3633-14.348c-0.6721 4.879-1.3606 9.7558-2.065 14.63m0.5296-14.72c-0.728 5.3144-1.4756 10.626-2.2422 15.935m-5.2292-15.89c-1.0273 7.5891-2.0984 15.172-3.2137 22.749m9.1853-22.819c-0.7508 5.7335-1.5545 11.46-2.4112 17.178m-0.2498-17.337c-0.8642 6.6588-1.8016 13.308-2.8124 19.946m0.408-502 8 86m20-1h-11m-6 1h-3m21.768-1.5429c1.2992 14.346 2.4236 28.707 3.373 43.08m-5.1411-42.537 3 41m-14-41 3 32m-4-32 3 31m-4-30 2 29m-9-29 2 22m4-22 2 28m-5-28 2 25m7-113h-1l-10 1m2 87-9-86h-2m28 81-17 1m18 2-18 2m-8-82 17-2m-18-2 18-2m-4.1694 5.0646c3.0019 26.222 5.6333 52.485 7.8925 78.781m-9.8796-78.667c3 26.212 5.6292 52.466 7.887 78.752m-1.7305-83.931 9 86m-9.2486-87.71c0.1342 0.7038 0.2577 1.4096 0.3705 2.1172m-1.6336-2.8336c0.1979 1.0858 0.3893 2.1727 0.5742 3.2608m-12.325-13.512c0.6714 4.639 1.3281 9.2801 1.9705 13.923m-2.6722-14.205c0.7044 4.8744 1.3929 9.7512 2.065 14.63m-3.7776-15.845c0.7666 5.309 1.5142 10.621 2.2422 15.935m-10.685-21.794c1.1153 7.5767 2.1864 15.16 3.2137 22.749m3.5604-18.109c0.8567 5.7186 1.6604 11.445 2.4112 17.178m-5.4734-19.788c1.0108 6.6381 1.9482 13.287 2.8124 19.946m10.596 107.06v0m-631-450 13-6m-14 4 14-6m231 4 11-2-11 2m11-4-11 2m470-58 1 5 68-12-1-5-68 12m68.86-6.0081c2.2199 35.631-21.83 67.575-56.685 75.294m-159.17 541.71 16-1m-16 5 17-1m-3-70-16 2m-1-4h-3m-0.8562-20.245c0.5176 6.9431 0.9648 13.891 1.3418 20.843m19.514-2.5982-17 2m85-9-78 7m79-5-86 7m74-18-68 5m67-6-68 6m66-7-67 5m60-12-68 6m74 0-68 5m65-8-68 6m7.1623 6.2908c0.2532 3.8941 0.4938 7.789 0.7219 11.685m-1.788-12.665c0.2781 4.2403 0.5413 8.4816 0.7897 12.724m-1.8564-13.703c0.3073 4.6442 0.5967 9.2896 0.8683 13.936m-2.9199-15.211c0.3336 5.0308 0.6465 10.063 0.9386 15.096m-3.1223-17.701c0.4044 5.9565 0.7797 11.915 1.1257 17.875m13.08 104.67h1m-1 1h-1m133-274 1 3m0 2h1m-1-31h13m-12 1h12m-11 2h9m-8 1h8m-7 1h7m-11 26v-31m1 32v-31m1 32v-30m1 31v-30m1 31v-30m7 29v-31m2 30v-33m-14 573 1-3m0-2h1m33-537v13l-107 11m-2-1 109-11m-21-10 21-2m-120 13 97-10 23-2m-121 11 90-9m-92 8 91-9m-99 3 96-10m-92 13 93-10m-90 12 91-9m-62 381-3 44m2-43-3 42m-8-32-3 31m2-30-3 30m1-29-2 29m-5-23-2 22m8-27-2 28m-1-26-2 25m-373-738-2-8m-351 53 42-19m-43 17 42-19m-43 18 43-19m-118 4-24-38m25 37-24-38m22 40-25-38m202 15-3-8m245 5v-4l-1-5m-340 1130 42 18m-120-2-25 39m202-16-2 5 13 6v-7m231 4-1 4m13-7-2 9m-10-10v4m0 2 11 1-11-1m288 45v3-2m-12 0 1-9m4 10-14-3m21 1-11-2m11 4-12-2m225-666v-4h9v4h-9m0 69v-4h9v4h-9m-12-507-10-57m9 57-10-57m23 124-22-124m12 1 7-1m-7 0 8-1m-8 0 9-2m-10 1 11-2m-797 1086v-44m11-20v69m246 29v6m-7-12v5m46 1h-39m39-6h-46m-53 6v6m7-12v5m-39 1v6m-7-12v5m39 1h-32m39-6h-46m92 5h-46m-99 1v6m7-12v5m-40 1v7m86-8h-46m-7 1h-33m40-6h-47m132 12h60m-152 0h60m92-1183v-6m-7 13v-6m46-1h-39m39 7h-46m-53-7v-6m7 13v-6m-39-1v-6m-7 13v-6m39-1h-32m39 7h-46m92-6h-46m-99-1v-6m7 13v-6m-40-1v-7m-7 14v-11m93 5h-46m-7-1h-33m40 7h-47m132-13h60m-152 0h60m-400 1088v4h-27m256-24v20m17-3v20m-17-37h327m-310 17h323m-569 3h229m-256 17h273m-246-1004v-4h-27m846 1131-3-1m213-901v-137m-3 137v-137m3 0-8-47m5 47-8-46m-937-126-1-1v0m-2 0 1-1m2 3-2 1v0l-1-2v0m3 0v0m0-2 1 2m-2-1v0m-2 0 1-1m-1 2v0m0 2-1-2m2 2v0m2-1-1 1m1-2v0m0 1 17 26m-18-25 16 26m3 0 1 2m-4-1 2-1v0m-1 1v0m0 2-1-2m4 1-2 1v0m1-1v0m0-2 1 1m-2-1v0m-2 0 2-1m-1 2v0m0 2-1-1m2 1v0m2 0-2 1m1-2v0m-17-38-45 28 24 40 46-29-25-39m9-11-118 75m115-80-115 73m146-24-2 1m8-12-17 10m83 19-56 24m154-68-55 25m-46 12-50 23m149-66-56 25m-93 41-21-33m18 41-27-43m201-43 15-6h189l3 6m-207 0h207m-391 33-16 10m79 11 3 8m39-27 4 8m573-79-265 42m266-35-265 42m-456 1178-114-73m115 81-115-73m218 6-56-25m154 68-55-25m-99-43-27 43m743-447-3-1m77 140 107 11m-708 347h189m-204-7h207m-326-57 1-4m41 22 2-4m614.49-446.6c-0.377 6.9521-0.8242 13.9-1.3418 20.843m195.86-91.245v370l-22 124m22-903v336m11-347h-11v-21l-22-125m11-2 22 126m-23-125 22 125m-23-123 22 123m-23-122 21 122m4 33h-11m7 333h-7m9 1h-9m10 1h-10m11-335v336h-11m11-369v22m-1 11v335m0-368v22m-1 11v334m0-367v22m-2 11v333m0-366v22m0 424h-7m9-2h-9m10-1h-10m11-1h-11m-21 491 7 1m-7 0 8 2m-8-1 9 2m-10-1 11 2m22-125v-371m-1 371v-370m-1 370v-369m-2 369v-367m-18 492 22-125m-23 124 22-124m-23 123 22-123m-23 121 21-121m-1089-939v45m1-45v46m7-46v43m2-43v43m1-43v42m1-42v41m-12 1022v-45m12 35v-30m0 40v-2m1059-260v-13m-797-810v43m-6 38v-21m17 3v-69m-17 87h327m-310-18h323m-569-3h229m-256-17h273m286.58-76.732c12.634 32.154 24.228 64.706 34.766 97.607m430.65 789.13h13m-12-1h12m-11-1h9m-8-1h8m-7-1h7m-11-27v31m1-31v30m1-31v30m1-32v31m1-31v30m7-30v32m2-30v32m18-30v136m-3-137v137m-219 227-265-42m266 35-265-42m-462-6-1 2v0m-1 0-1-1v0m0-1 1-1v0m2 0-2-1m2 2v0m0 2 1-2m-2 2v0m-1 0-1-1v0m0-3-1 2m2-1v0m2 0-1-1m1 2v0m0-1 17-26m-18 25 16-26m3 1 1-2m-2 1v0m-2 0 2 1m-1-2v0m0-2-1 2m2-1v0m2 0-2-1m1 2v0m0 2 1-2m-2 1v0m-2 0 2 1m-1-2v0m0-2-1 2m2-1v0m2 0-2-1m1 2v0m-17 37-45-28 24-39 46 28-25 39m43-1149-10 6-28-46m9-6 29 46m-37 1166-1 1m942-198-8 47m5-47-8 47m-1952-1056v2h-5v-1m3 1v30m-3 0v1m5-1v2m0-34v2m0 30h-5m2-30v30m3-32v2m-14-1h14m-14-1h14m0 33h-14m14 1h-14m99 1388h2v5h-1m1-3h31m0 3h1m-1-5h2m-35 0h2m31 0v5m-25 41v2h-5v-1m2 1v30m1-30v30m-3 0v1m5-1v2m0-34v2m-26-1h26m-26-1h26m0 32h-5m5 1h-26m26 1h-26m20-77h31m0-3h2m-35 0h2m-1 14v-14m-1 14v-14m34 0v14m1-14v14m1668-795h16m-16-4h17m151 427-2 11m-1875 176h-12m1790-401 109 11m-21 10 21 2m-120-14 97 10 23 3m-121-12 90 9m-92-8 91 10m-99-4 96 10m-92-12 93 9m-90-12 91 10m-431.65 223.13c-10.537 32.9-22.132 65.453-34.766 97.607m-297.58-1152.7-6-10m-1153 11 49-24-49-25m49 49v-49h-49v49h49m20 1395v-185m1723-544-16-1m16 5-17-1m85 8-78-7m79 6-86-7m74 18-68-6m67 7-68-6m66 7-67-6m60 12-68-6m71 8v0m3-7-68-6m65 8-68-5m-38-503-40 9m-27.834-246.05c28.01 77.624 50.697 157.07 67.905 237.78m-138.29-226.44c29.025 78.568 52.36 159.12 69.825 241.04m-139.45-230.23c30.161 79.596 54.221 161.37 71.97 244.62m-40.126 690.29 16-83m4 87 16-84m4 88 16-85m12 91 16-86m4 91 16-88m4 92 16-89m11 95 17-90m3 94 17-91m4 95 17-92m-137-22-40-6m108 17-40-6m109 17-41-6m-112 69-40-8m108 23-40-9m108 23-41-8m-1626 462h312v93m416-394h-35v35h35v-35m0-1097h-35v34h35v-34m-35 98v-64m11 64v-64m24 64v-64m-12 64v-64m-23 1e3v63m11-63v63m24-59v59m1170-495v370m-11-374v373m0-481v-10m11 122h-11m11.542-68.993c17.271-0.2567 33.923 6.4244 46.227 18.547 12.304 12.122 19.232 28.673 19.232 45.946m-66-0.5h66v1-1m-77-107v39h11m-54 686-2 13m13-10-2 12m45-258-21 124m-3-59-10 56m23-122-22 123m22-799v185m-32-565-2-14m-9 16-3-14m57 626v-368l-22-125m-12-1v-1m-196.93 911.27c-17.208 80.709-39.895 160.15-67.905 237.78m-0.5565-252.37c-17.465 81.917-40.8 162.47-69.825 241.04m2.3417-255.43c-17.738 83.196-41.778 164.92-71.913 244.47m253.67-487.74c-0.2281 3.8957-0.4687 7.7906-0.7219 11.685m-0.2764-11.743c-0.2484 4.2422-0.5116 8.4835-0.7897 12.724m-0.1984-12.956c-0.2716 4.6464-0.561 9.2918-0.8683 13.936m-25.766-406.67c30.315 189.8 30.315 383.21 0 573m-69.124-561.96c29.147 182.48 29.147 368.44 0 550.92m-68.136-540.04c27.995 175.28 27.995 353.88 0 529.16m172.62-227.47c-0.4447 21.981-1.2845 43.953-2.519 65.904m1.5934-136.23c0.2038 11.248 0.3042 22.499 0.3009 33.749m0.699-33.767c0.4014 22.158 0.4014 44.321 0 66.479m-2.5933-136.25c1.2345 21.951 2.0743 43.922 2.519 65.904m0.9998 74.237c-0.445 21.993-1.2852 43.976-2.5204 65.939m2.8959-103.6c0 11.262-0.097 22.525-0.3012 33.786m-2.5947-136.33c1.2352 21.963 2.0754 43.946 2.5204 65.939m-13.694-68.87c4.0932 70.607 4.0932 141.39 0 212m15.949-213.28c4.1611 71.46 4.1611 143.1 0 214.56m-13.963-0.9328c-0.2921 5.0335-0.605 10.066-0.9386 15.096m-1.058-15.27c-0.346 5.9601-0.7213 11.918-1.1257 17.875m-281.35-614.7c102.08 319.13 102.08 662.16 0 981.29m-13.332-963.73c95.854 308.1 95.854 638.05 0 946.16m475.89-877.58v133m-827 1004h23l-23-9 23-9h-23m12 33-12-7m0 15h23v-10l-1-3-1-1-3-1h-2l-2 1-1 1-1 3v10m0 24v-15m11 0h-23m23 15h-23m19 8 3 2 1 3v5l-1 3-3 2h-2l-2-1-1-1-1-2-2-7-1-2-4-2h-3l-2 2-1 3v5l1 3 2 2m20 28-23-6 23-5-23-6 23-5m-310-117h24l-24-15h24m-24 36v-14m13 14v-9m-13 9h24v-14m-24 41h24l-24-9 24-9h-24m744-1495h23l-23-15h23m-23 36v-14m12 14v-9m-12 9h23v-14m-23 40h23l-23-9 23-8h-23m23 36-1 2-2 2-2 1-3 2h-6l-3-2-2-1-3-2-1-2v-4l1-3 3-2 2-1 3-1h6l3 1 2 1 2 2 1 3v4m0 34-23-5 23-6-23-5 23-6m207-89h24l-24-15h24m-24 36v-14m13 14v-9m-13 9h24v-14m-24 40h24l-24-9 24-8h-24m24 36-4 4-2 1-3 2h-6l-3-2-2-1-4-4v-4l2-3 2-2 2-1 3-1h6l3 1 2 1 2 2 2 3v4m0 34-24-5 24-6-24-5 24-6m-380.54-447.01c-18.332 0.2566-36.001-6.846-49.055-19.719s-20.403-30.441-20.403-48.775m0-0.5v-1 1m69-1v2l-69-2zm0 2-69-2v2zm10-2h-10m10 69h-10m10-69v-252m-10 252v-262m10 10h213m-223-10h223m1447 786-17 13m17 13-17-13h-18m18 31-18-11m0 23h35v-15l-2-5-2-2-3-1h-3l-4 1-1 2-2 5v15m-7 30v-17m-11 22 35-14-35-13m18 45-18-12m0 23h35v-15l-2-5-2-1-3-2h-3l-4 2-1 1-2 5v15m0 20-2-5-1-2-4-1h-4l-4 1-1 2-2 5v15h35v-15l-2-5-2-2-3-1h-3l-4 1-1 2-2 5v15m17 13h-35m35 28h-35v-20m-1063-2926h23l-23-9 23-8h-23m23 36-1 2-2 2-2 1-4 1h-5l-6-2-2-2-1-2v-5l1-2 2-2 6-2h5l4 1 2 1 2 2 1 2v5m0 24-1 2-2 3-2 1-4 1h-5l-6-2-2-3-1-2v-4l1-3 2-2 6-2h5l4 1 2 1 2 2 1 3v4m-11 21-12-8m0 16h23v-10l-1-3-1-2-2-1h-2l-3 1-1 2-1 3v10m8 7 2 3 1 3v4l-1 4-2 2h-2l-3-1-1-1-3-9-1-2-3-3h-4l-2 3-1 3v4l1 4 2 2m17 6 2 3 1 3v4l-1 4-2 2h-2l-3-1-1-1-3-9-1-2-3-3h-4l-2 3-1 3v4l1 4 2 2m5 19v-11m-8 14 23-9-23-9m23 33h-23v-13m18 21 2 1 2 2 1 2v5l-1 2-2 2-2 1-4 1h-5l-6-2-2-2-1-2v-5l1-2 2-2 3-1m-3-877h23l-23-9 23-9h-23m23 37-1 2-2 2-2 1-3 1h-6l-3-1-2-1-3-2-1-2v-5l1-2 3-2 2-1 3-1h6l3 1 2 1 2 2 1 2v5m0 24-1 2-2 2-2 1-3 1h-6l-3-1-2-1-3-2-1-2v-5l1-2 3-2 2-1 3-1h6l3 1 2 1 2 2 1 2v5m-11 21-12-8m0 15h23v-10l-1-3-1-1-2-1h-2l-4 2-1 3v10m8 8 2 2 1 4v4l-1 3-2 2h-2l-2-1-3-3-2-7-1-2-1-1-2-1h-3l-3 2-1 4v4l1 3 3 2m16 7 2 2 1 4v4l-1 3-2 3h-2l-5-5-3-9-1-1-2-1h-3l-3 2-1 4v4l1 3 3 3m4 18v-11m-8 15 23-9-23-9m23 33h-23v-13m18 21 2 1 2 2 1 2v5l-1 2-2 2-2 1-3 1h-6l-3-1-2-1-3-2-1-2v-5l1-2 3-2 2-1m-952-19h23l-23-8 23-9h-23m23 36-1 2-3 3-2 1-3 1h-6l-3-1-2-1-2-3-1-2v-4l1-2 2-3 2-1 3-1h6l3 1 2 1 3 3 1 2v4m0 24-1 3-3 2-2 1-3 1h-6l-3-1-2-1-2-2-1-3v-4l1-2 4-4 3-1h6l3 1 2 2 3 2 1 2v4m-11 21-12-7m0 15h23v-10l-1-3-1-1-3-1h-2l-2 1-1 1-1 3v10m7 8 3 2 1 3v5l-1 3-3 2h-2l-2-1-1-1-1-2-2-7-1-2-4-2h-3l-2 2-1 3v5l1 3 2 2m16 7 3 2 1 3v5l-1 3-3 2h-2l-2-1-1-1-1-2-2-7-1-2-4-2h-3l-2 2-1 3v5l1 3 2 2m4 19v-11m-7 14 23-9-23-8m23 33h-23v-14m17 21 2 1 3 3 1 2v4l-1 2-3 3-2 1-3 1h-6l-3-1-2-1-2-3-1-2v-4l1-2 2-3 2-1m-15 705h23l-23-9 23-8h-23m23 36-1 2-2 2-6 3h-5l-6-3-2-2-1-2v-4l1-3 2-2 2-1 4-1h5l4 1 2 1 2 2 1 3v4m0 24-1 2-2 3-2 1-4 1h-5l-4-1-2-1-2-3-1-2v-4l1-2 2-3 2-1 4-1h5l4 1 2 1 2 3 1 2v4m-11 21-12-8m0 16h23v-10l-1-3-1-2-2-1h-3l-2 1-1 2-1 3v10m8 7 2 3 1 3v4l-1 4-2 2h-2l-3-1-1-1-3-9-1-2-3-3h-4l-2 3-1 3v4l1 4 2 2m17 6 2 3 1 3v4l-1 4-2 2h-2l-3-1-1-1-3-9-1-2-3-3h-4l-2 3-1 3v4l1 4 2 2m5 19v-11m-8 14 23-9-23-9m23 33h-23v-13m18 21 2 1 2 2 1 2v5l-1 2-2 2-2 1-4 1h-5l-4-1-2-1-2-2-1-2v-5l1-2 2-2 2-1m-2 570h23l-23-9 23-9h-23m23 36-1 3-2 2-2 1-3 1h-6l-6-2-2-2-1-3v-4l1-2 2-2 3-2 3-1h6l3 1 4 4 1 2v4m0 25-1 2-2 2-2 1-3 1h-6l-6-2-2-2-1-2v-5l1-2 2-2 6-2h6l3 1 2 1 2 2 1 2v5m-11 20-12-7m0 15h23v-10l-1-3-1-1-2-1h-2l-4 2-1 3v10m8 8 2 2 1 3v5l-1 3-2 2h-2l-2-1-3-3-2-7-1-2-1-1-2-1h-4l-2 2-1 3v5l1 3 2 2m17 7 2 2 1 3v5l-1 3-2 2h-2l-2-1-3-3-2-7-1-2-1-1-2-1h-4l-2 2-1 3v5l1 3 2 2m5 19v-11m-8 14 23-8-23-9m23 33h-23v-13m18 20 4 4 1 2v4l-1 3-2 2-2 1-3 1h-6l-6-2-2-2-1-3v-4l1-2 2-2 3-2m-1078 2889h23v-10l-1-3-1-1-2-1h-3l-4 2-1 3v10m12 24h-16l-3-1-3-2-1-3v-2l1-4 3-2 3-1h16m15-1575h-65m65 1863h-65m2939-14h69v465m-69-465v465m121-3163h12m-12 77h12m238 493v11m-77-11v11m-130 2270h24l-24-16h24m-24 39h24v-8l-4-6-2-1-3-1h-6l-3 1-2 1-4 6v8m0 46h24v-10l-2-3-1-1-2-1h-3l-2 1-1 1-2 3v10m-11 26h24l-24-8 24-9h-24m8 37v-11m-8 14 24-8-24-9m13 30-13-8m0 15h24v-10l-2-3-1-1-2-1h-2l-2 1-1 1-1 3v10m-28-265v297m0-331-11 34h23zm-776-1652v9h25v-9h-25m10 9v46h4v-46m-31-19v10h74v-10h-74m-16-65v46h4v-46m12-10v10h74v-10h-74m-27 0v10h26v-10h-26m969-374h69m-68-9h68m-243-497v-69m9 69v-69m561-220h1l4-1 1-2 2-3v-7l-2-3-1-2-4-1h-3l-3 1-5 4-17 16v-23m15 64v-29m12 41 3 1 3 4 2 3v7l-2 3-3 3-3 2-5 2h-9l-5-2-3-2-3-3-2-3v-7l2-3 3-4 3-1m27 41h-35m35 0-23 17v-25m23 54v-18l-13 10v-5l-2-3-2-2-5-2h-3l-5 2-3 3-2 5v5l2 5 1 2 4 2m20 31h1l4-2 1-1 2-4v-6l-2-4-1-1-4-2h-3l-3 2-5 3-17 17v-23m-2326 1214-17-39m22 27-17-39m-448 116v-369m346 298 102-45m-350 125 91-58-9-14 114-72 48 76 101-45m-267 52-9-14 130-83 49 78m-346 71h95l81-52m-176 61h98m815-104v19m-152-5-46-104m-79 14v-198m-176 304 127-56-7-15 56-25m-171 84 109-49-7-15m0 0 69-30m277 66-152 24m152-14-148 23m-522 1299h-91v-78l50 32m-207-38h148m-148-9h133m130 103h-115v-94m-81 235-6-11m14 6-8-16m34 68-9 4m-17-56-8 5m8.3883-3.6042c13.434-7.0012 29.117-8.3142 43.528-3.6444 14.411 4.6699 26.344 14.931 33.118 28.481m-0.0352-1.2325 1 1-1-1m-51 27-1-2 53-24zm-1-2 53-24-1-2zm-124-66h14v-223m117 302-6-11m1 23-10-19m-92-72h67m-91 10h85m-96-1736-693 1769m693 78-705-1848m2881 930h-48m99 0h-16m-83 0v763h99m0-763v763m-660 171v-162m732-271h23v-9l-1-4-1-1-2-1h-4l-2 1-1 1-1 4v9m12 25h-16l-4-1-2-3-1-3v-2l1-3 2-3 4-1h16m53 874v-142m176 206v-33m117 33v-33m-117 0v-173m162 173v-185h-329m318 12h-327m94 36v24l16-24v24m-39-24v24h8l3-2 4-4 1-3v-6l-1-3-4-4-3-2h-8m51 42v23h9l4-1 1-1 1-3v-3l-1-2-1-1-4-1h-9m-27-11v23l9-23 9 23v-23m-38 7h11m-14-7 9 23 9-23m-30 12 8-12m-16 0v23h10l3-1 1-1 2-3v-2l-3-3-3-1h-10m-18-23h142m-176 0 34 12v-23zm0-67h-139m148-569v557m-90-319v9m69-9v9m12-247v569m-139-331v473m-86-439v439m0-612h-737m737 139v-139m160-194v-28m0 62 12-34h-23zm-194 218v23l16-23v23m-39-23v23h8l3-1 2-3 2-2 1-3v-6l-1-3-4-4-3-1h-8m-46 0v23h10l3-1 2-4v-3l-1-2-1-1-3-1h-10m-26-11v23l8-23 9 23v-23m-37 7h11m-14-7 8 23 9-23m-30 12 8-12m-15 0v23h10l3-1 2-4v-2l-1-2-1-1-3-1h-10m-376-27h548m-583 0 35 12v-23zm1135 600v-173m-292 142v31h398m-572-1425v683m0 12v87m4-87v65m131-65v65m13-77h-9v12h-4v-12h4m-139 0v12h4v-12h-4m0-123h148m-148 21h148m-148 21h148m0 81v-123m-78 135.5c0 36.175-29.325 65.5-65.5 65.5m131 0c-36.175 0-65.5-29.325-65.5-65.5m-987-1732.5h-35m35 0-23 17v-25m23 48-1 5-5 3-9 2h-5l-8-2-5-3-2-5v-3l2-5 5-3 8-2h5l9 2 5 3 1 5v3m-8 41h2l3-1 2-2 1-3v-7l-1-3-2-2-3-1h-4l-3 1-5 3-17 17v-23m4 36-2 2-2-2 2-1 2 1m8 32v-17m-12 22 35-14-35-13m35 53v-23m0 11h-35m-135 1570-155-24m211 33v82m-57-1416-154 25m-1747 1227-17 6 17 5zm17 6h-17m-17-23v46m65-70v377m-65-353h-16 16m0 46h-16m0-70h81m1028 355h-27v27h27v-27m-1109-1452h81v-389m1610 1864h-195m549-3077v-23m16 0h-34m34 23h-34m34 19h-34m34 0-23 16v-25m23 55v-18l-13 10v-5l-2-4-1-1-5-2h-4l-5 2-3 3-1 5v5l1 5 2 1 3 2m20 31h2l3-1 2-2 1-3v-7l-1-3-2-2-3-1h-4l-3 1-5 4-16 16v-23m667.54 3369c17.271-0.2567 33.923 6.4244 46.227 18.547 12.304 12.122 19.232 28.673 19.232 45.946m0-0.5v1-1m-66 1v-2l66 2zm0-2 66 2v-2zm0 2v15m2-15h-11v15m9-80h-9m146-170v-17m-11 21 35-13-35-13m26 55h2l3-2 2-2 2-3v-7l-2-3-2-2-3-1h-3l-4 1-5 4-16 16v-23m35 53v-18l-14 10v-5l-1-4-2-1-5-2h-3l-5 2-3 3-2 5v5l2 5 1 2 3 1m20 32h2l3-2 2-2 2-3v-7l-2-3-2-2-3-1h-3l-4 1-5 4-16 16v-23m-135 173h-451m451-439h-451m460 0v359m-9-359v359m-486-695h12m0-202h-12m12 4h-12m12 63h-12m12 4h-12m6 68v63m-6-67h12m-12 4h12m-6-68v64m0-131v63m6-283h-12m12 3h-12m12 135h-12m12-4h-12m0-63h12m-12-4h12m-6 4v63m0-131v64m0 457v39m-6 4h12m-12-4h12m-12-39h12m-12-4h12m-12-28v-12h12v92m-12-150h12m-11.552 57.992c-15.147 0.2542-29.761-5.585-40.563-16.207s-16.885-25.136-16.885-40.285m0-0.5v-1 1m57-1v2l-57-2zm0 2-57-2v2zm12-840h-11m11-4h-11m-1 150h12m-12-4h12m-6-69v69m6-69h-12m12-4h-12m6-69v69m6 146h-12m12 4h-12m6-73v69m0-620v69m6-69h-11m11-4h-11m11 73h-12m12 4h-12m12 146h-12m12-4h-12m0-69h12m-12-4h12m-6 4v69m0-142v69m0-438v63m-6-67h12m-12 4h12m-6-68v64m6-64h-12m12-3h-12m12 138h-12m12-4h-12m1045-346h-39m38 0v11m69-11v11m-290 2109h-118v23m118-944h-118v773m-219-1430v-12m-474-170v30m152-40v-34h10m-162 34h152m10-34v44h-162m358-173v11m-1024-1361v-256m579 331h-248m248 11h-279m349-11v11m-70-11v11m-2390 1735h-208m208 12h-208m289-12v-115m-15 127v-12m-66 12v-12m65.5 78c-17.273 0-33.824-6.9278-45.946-19.232-12.122-12.304-18.804-28.956-18.547-46.227m63.993 64.458h1-1m-1-65h2l-2 65zm2 0-2 65h2zm-131-515h2l3-2 2-2 2-3v-7l-2-3-2-2-3-1h-3l-4 1-4 4-17 16v-23m28 51 2-3 5-5h-35m26 45h2l3-2 2-2 2-3v-7l-2-3-2-2-3-1h-3l-4 1-4 4-17 16v-23m91 194h-208m208 11h-208m289 266h-16m16-12h-15m1895-1072h-14v11h25m-90-11v11m1.5-76c17.273 0 33.824 6.9278 45.946 19.232 12.122 12.304 18.804 28.956 18.547 46.227m-64.993-66.458h-1 1m1 66h-2l2-66zm-2 0 2-66h-2zm-46 11h46m-47-11h22m-87 0v11m66-11v11m-64.993-10.542c-0.2566-17.271 6.4244-33.923 18.547-46.227 12.122-12.304 28.673-19.232 45.946-19.232m-0.5-1h1-1m1 66h-2l2-66zm-2 0 2-66h-2zm-349 0h247m-247 11h285m-362-11v-287m-79 287v-287m156 287v11m-65-11v11m1.5-76c17.273 0 33.824 6.9278 45.946 19.232 12.122 12.304 18.804 28.956 18.547 46.227m-64.993-66.458h-1 1m1 66h-2l2-66zm-2 0 2-66h-2zm-107 0h32m-31 0v11h106m-172-11v11m1.0071-10.542c-0.2566-17.271 6.4244-33.923 18.547-46.227 12.122-12.304 28.673-19.232 45.946-19.232m-0.5-1h1-1m1 66h-2l2-66zm-2 0 2-66h-2zm523 532h126m-125 0v11h125m-191-11v11m1.0071-10.542c-0.2566-17.271 6.4244-33.923 18.547-46.227 12.122-12.304 28.673-19.232 45.946-19.232m-0.5-1h1-1m1 66h-2l2-66zm-2 0 2-66h-2zm-674 11h185m-249.99-10.542c-0.2566-17.271 6.4244-33.923 18.547-46.227 12.122-12.304 28.673-19.232 45.946-19.232m-0.5-1h1-1m1 66h-2l2-66zm-2 0 2-66h-2zm2 0v11m-66-11v11m109-723h34v-11l-1-5-4-4-3-1-5-2h-8l-5 2-3 1-4 4-1 5v11m34 25-1 5-5 3-9 2h-5l-8-2-5-3-1-5v-3l1-5 5-4 8-1h5l9 1 5 4 1 5v3m-6 38 1-4 5-4h-34m26 44h2l3-2 2-1 1-4v-6l-1-3-2-2-3-2h-4l-3 2-5 3-16 17v-23m-918 501v-16m-12 21 35-13-35-13m28 51 2-3 5-5h-35m28 41 2-3 5-5h-35m27 44h1l4-1 1-2 2-3v-7l-2-3-1-2-4-2h-3l-3 2-5 3-17 17v-23m752-235h200m-200 12h212m-289-12h12m65 0v12m-66-12v12m1.5-77c17.273 0 33.824 6.9278 45.946 19.232 12.122 12.304 18.804 28.956 18.547 46.227m-64.993-65.458h-1 1m1 65h-2l2-65zm-2 0 2-65h-2zm-57 0v-231m34 231h-300v12h323m-389-12v12m1.5-77c17.273 0 33.824 6.9278 45.946 19.232 12.122 12.304 18.804 28.956 18.547 46.227m-64.993-65.458h-1 1m1 65h-2l2-65zm-2 0 2-65h-2zm-3 290v11h-305m370-11v11m-64.993-10.542c-0.2566-17.271 6.4244-33.923 18.547-46.227 12.122-12.304 28.673-19.232 45.946-19.232m-0.5-1h1-1m1 66h-2l2-66zm-2 0 2-66h-2zm-117-290v-231m-14 243h71m-72-12h49m12 0h12m-136.99 0.4585c-0.2566-17.271 6.4244-33.923 18.547-46.227 12.122-12.304 28.673-19.232 45.946-19.232m-0.5 0h1-1m1 65h-2l2-65zm-2 0 2-65h-2zm2 0v12m-65-12v12m-152-12v-231m0 265v-22m-12 22v-14m0 80h12m-12-66h12m-77 65.5c0-17.273 6.9278-33.824 19.232-45.946 12.304-12.122 28.956-18.804 46.227-18.547m-65.458 63.993v1-1m65-1v2l-65-2zm0 2-65-2v2zm-73 37v-11m0 10h-12v-10m12 76h-12m78-64.5c0 17.273-6.9278 33.824-19.232 45.946-12.304 12.122-28.956 18.804-46.227 18.547m64.458-64.993v-1 1m-65 1v-2l65 2zm0-2 65 2v-2zm-25-10h13m-13-12h98m-164 187h-13m13-11h-13m79-176v12m-66-12v12m66 164v11m-66-11v11m1.0071-10.542c-0.2566-17.271 6.4244-33.923 18.547-46.227 12.122-12.304 28.673-19.232 45.946-19.232m-0.5-1h1-1m1 66h-2l2-66zm-2 0 2-66h-2zm1579-8v-47m10 47v-47m-1477-223h152m-152-12h152m939-242v-287m-9 271v-271m-127 541v-243m-12 231v-231m-277 231v-231m-12 231v-231m-377 231v-231m-12 231v-231m-269 521h-16m77-23v-141m-104 156h-38m138 8h4v-12m-61 12h-16v-12m-11 4v-15h88m-77 11h77m-4 23v-15h-57v15m-81-175h142m-246-12v-29m246 205h-4m-150 0h-14m-78 0v-88m258 88v-176h-69m57 176v-12m-142 4v-80m-12 88v-88m85-88v-15m0-91v-239m-37 239v12m-140 106h13m-13-12h13m127-94h37m-37-12h37m2519 2773h-52m-12-6v12m12-12v12m52-12v12m-117-6h-41m-11-6v12m11-12v12m41-12v12m12-12v12m41-6h-41m113-16v33m-225-23v12m-8-22v33m56-17h-48m225-6h-233m233 12h-233m629-12v12m8-22v33m-68-17h-42m-11-6v12m11-12v12m42-12v12m11-12v12m49-6h-49m-112-6v12m-8-22v33m56-17h-48m169-6h-177m177 12h-177m642-3440 1-3 5-5h-34m14 54v-29m12 41 3 2 4 3 1 3v7l-1 3-4 3-3 2-5 2h-8l-5-2-3-2-4-3-1-3v-7l1-3 4-3 3-2m26 41h-34m34 0-23 17v-25m23 54v-18l-13 10v-5l-2-3-1-2-5-1h-3l-5 1-4 4-1 4v5l1 5 2 2 3 2m20 31h2l3-2 2-1 1-4v-6l-1-3-2-2-3-2h-4l-3 2-5 3-16 17v-23m-468 2638h-693m855-1961v-508h12v497m-12-566h12m442-22h-13m12 0v10h-33m98-10v10m-63.5-75c17.273 0 33.824 6.9278 45.946 19.232 12.122 12.304 18.804 28.956 18.547 46.227m-64.993-65.458h-1 1m0 65h-1l1-65zm-1 0 1-65h-1zm-99 0v10m66-10v10m-66-10h-134m134 10h-144m-141 589v-11h-57m165 11h-39m-69 0h-69m139 0v-11m-0.5 81c-18.334 0-35.902-7.3492-48.775-20.403-12.873-13.054-19.975-30.724-19.719-49.055m67.993 69.459h1-1m-1-70h2l-2 70zm2 0-2 70h2zm-636 187h-358m-12 1418v206m763 306v26h35v-26m-35-240v34h35v-34h-35m-718 93v12m9-12v12m-9-12h-45m45 125v14m778-139h-769m1244-2569h-11m-210-242v252m10-252v242m211-242v242m10-242v242m183 599h-378m378-11h-378m411-578h-139m139-10h-139m-2394 2565.5c0-13.295 5.3483-26.032 14.84-35.341 9.4921-9.3092 22.33-14.409 35.623-14.15m-50.463 48.991v1-1m50-1v2l-50-2zm0 2-50-2v2zm-50 70.5c0-13.295 5.3483-26.032 14.84-35.341 9.4921-9.3092 22.33-14.409 35.623-14.15m-50.463 48.991v1-1m50-1v2l-50-2zm0 2-50-2v2zm-272.46-22.991c13.293-0.2588 26.131 4.8407 35.623 14.15 9.4922 9.3092 14.84 22.046 14.84 35.341m-1-0.5v1-1m-50 1v-2l50 2zm0-2 50 2v-2zm0.5367-118.99c13.293-0.2588 26.131 4.8407 35.623 14.15 9.4922 9.3092 14.84 22.046 14.84 35.341m-1-0.5v1-1m-50 1v-2l50 2zm0-2 50 2v-2zm865.5-1631c13.295 0 26.032 5.3483 35.341 14.84 9.3092 9.4921 14.409 22.33 14.15 35.623m-49.991-50.463h-1 1m1 50h-2l2-50zm-2 0 2-50h-2zm-70.5-50c13.295 0 26.032 5.3483 35.341 14.84 9.3092 9.4921 14.409 22.33 14.15 35.623m-49.991-50.463h-1 1m1 50h-2l2-50zm-2 0 2-50h-2zm-79.5-50c13.295 0 26.032 5.3483 35.341 14.84 9.3092 9.4921 14.409 22.33 14.15 35.623m-49.991-50.463h-1 1m1 50h-2l2-50zm-2 0 2-50h-2zm-69.5-50c13.295 0 26.032 5.3483 35.341 14.84 9.3092 9.4921 14.409 22.33 14.15 35.623m-49.991-50.463h-1 1m1 50h-2l2-50zm-2 0 2-50h-2zm-8-113v115m635 2175v16h27v-16h-27m308-3450h-27v15h27v-15m-343 2770v62m23 195v-22h-23v-34m705 23h-651m-19 103v347m-12-347v544m714-636h-242m-460 22h-12m12 70h-12m82-68.5c0 18.334-7.3492 35.902-20.403 48.775-13.054 12.873-30.724 19.975-49.055 19.719m68.459-68.993v-1 1m-69 1v-2l69 2zm0-2 69 2v-2zm728-591v35h35v-35h-35m-751-1043v742m0-754h474m-474 12h474m-486 5v270m0 27v359m0 27v54m-116-440v-11m6 11v-11m91 11h-22v-11h22m-22.5 81c-18.334 0-35.902-7.3492-48.775-20.403-12.873-13.054-19.975-30.724-19.719-49.055m67.993 69.459h1-1m-1-70h2l-2 70zm2 0-2 70h2zm-167-11h23m-23 11h23m75 0v-11m-6 11v-11m-69 11v-11m69 0h6m-6 11h6m-73.5-80c18.334 0 35.902 7.3492 48.775 20.403 12.873 13.054 19.975 30.724 19.719 49.055m-68.993-70.459h-1 1m0 70h-1l1-70zm-1 0 1-70h-1zm185 567v189m12-189v422m-12-538h12m-69 115.5c0-15.149 6.0835-29.664 16.885-40.285 10.802-10.622 25.416-16.461 40.563-16.207m-57.448 55.992v1-1m57-1v2l-57-2zm0 2-57-2v2zm12 0h-12m0.4479-58.008c-15.147 0.2542-29.761-5.585-40.563-16.207s-16.885-25.136-16.885-40.285m0-0.5v-1 1m57-1v2l-57-2zm0 2-57-2v2zm763-87v35h35v-35h-35m0-688v35h35v-35h-35m0 303v34h35v-34h-35m-755 1078h-27v27h27v-27m0-303h-27v27h27v-27m0-772h-27v27h27v-27m0 386h-27v27h27v-27m0-692h-31v36h31v-36m-2109 2092v11m8-21v32m-68-16h-42m-11-6v11m11-11v11m42-11v11m11-11v11m49-5h-49m-112-6v11m-8-21v32m56-16h-48m169-6h-177m177 11h-177m3824-1233h-30m21 8h-12m12 46h-12m12 12h-12m12 41h-12m12 12h-12m6-53v41m15 66h-30m21-8h-12m6-46v46m-6-165v173m6-165v46m6-54v173m0 0v-173m-1545-876v6m12-6v25m0-332v152m-12 40h12m1542-768v-58h20v-15h15v-54h-35v-208m0-127v58h20v15h15v54h-35m-1553.5 876.99c-18.332 0.2566-36.001-6.846-49.055-19.719s-20.403-30.441-20.403-48.775m0-0.5v-1 1m69-1v2l-69-2zm0 2-69-2v2zm0 67h12m-12-69h12m-12-412v331m-15-81v-7m0 88v-11m-8-70v-15m0 96v-11m-331-720v-108m0-35v-216m354 724v-354h-366m366-11h-354m-52-434v-11h40m-40 11h40m-248 0v-11m69 0v11h70v-11m-70 0h70m-6 11v-11m-58 11v-11m58 5h-58m-73.5-74c18.334 0 35.902 7.3492 48.775 20.403 12.873 13.054 19.975 30.724 19.719 49.055m-68.993-70.459h-1 1m1 70h-2l2-70zm-2 0 2-70h-2zm-40 11h40m-40-11h40m207.5 81c-18.334 0-35.902-7.3492-48.775-20.403-12.873-13.054-19.975-30.724-19.719-49.055m67.993 69.459h1-1m-1-70h2l-2 70zm2 0-2 70h2zm198 688h208m-208 604v128m-321 154v-113m-2 0v113m-69 0h9v2h-9m140-2h-10v2h10m-82-2v2m22 0v-2h-9m9 2h-22m11-2h-11m13-113v113m-2 0v-113m152 113v-113m2 0v113m69 2h-10v-2h10m-140 0h9v2h-9m69-2h-11v2m23 0v-2h-10m10 2h-23m-313 1719 253-254m-183-56 183 287m-58 23v11m46-11v11m-599-11h-15m81 11h146m-212-12v12m66-12v12m-65-11.5c0-36.175 29.325-65.5 65.5-65.5m-0.5 65v-66m147.5-2c18.334 0 35.902 7.3492 48.775 20.403 12.873 13.054 19.975 30.724 19.719 49.055m-68.993-69.459h-1 1m1 69h-2l2-69zm-2 0 2-69h-2zm69 0v11m-69 0v-11h-11m80 11h572m-753-96v-10h2v12m-2-71v10h2m0-22h-2v10m2-10v22m-2-10h-115m115-2h-115m115-69v10h2v-10m-2 140h-115m117 2h-117m-154-46v-10h-2v22m2-71h-2m2 59h115m-115 12v-10h115m-115-61v-10h115m-115 81h-2m0 49h2v10m-2-10v10m0-130v-12h117m-186 200h25m-25-1v12h240m-306-12v12m0.5-77c36.175 0 65.5 29.325 65.5 65.5m-66-0.5v-66m1005 216h-115m181 11h73m-320 0h-61m61 2v-13h-146m212 13v-13m0 13.5c0 36.175-29.325 65.5-65.5 65.5m-0.5-66v65m181-65v-13m66 13v-13m0.5 79c-36.175 0-65.5-29.325-65.5-65.5m65-0.5v65m-486-372h2l3-2 2-2 2-3v-6l-2-4-2-1-3-2h-3l-4 2-5 3-16 16v-23m35 40h-35m35 0-24 16v-24m15 56h2l3-2 2-2 2-3v-6l-2-4-2-1-3-2h-3l-4 2-5 3-16 16v-23m-442-155h-35m35 0-23 17v-25m23 41h-35m35 0-23 17v-25m15 56h1l4-2 1-1 2-4v-6l-2-4-1-1-4-2h-3l-3 2-5 3-17 17v-24m-843-1678v11m-64.993-10.542c-0.2566-17.271 6.4244-33.923 18.547-46.227 12.122-12.304 28.673-19.232 45.946-19.232m-0.5 0h1-1m1 65h-2l2-65zm-2 0 2-65h-2zm-242-304v-10m-12 11v-11m0 10h12m-12 66h12m-11.542-0.01c-17.271 0.2567-33.923-6.4244-46.227-18.547-12.304-12.12-19.232-28.67-19.232-45.943m0-0.5v-1 1m65-1v2l-65-2zm0 2-65-2v2zm1517.5 249c14.088 0 27.585 5.6619 37.456 15.713 9.8714 10.051 15.289 23.648 15.035 37.733m-52.992-54.446h-1 1m1 54h-2l2-54zm-2 0 2-54h-2zm0 0v12m55.008-11.554c-0.2539-14.086 5.1639-27.682 15.035-37.733 9.8714-10.051 23.368-15.713 37.456-15.713m-0.5-1h1-1m1 54h-2l2-54zm-2 0 2-54h-2zm2 0v12h23m-23-12h69m420 189-2 5-3 1h-4l-3-1-2-4-1-6-2-5-3-3-4-2h-4l-4 2-1 1-2 5v7l2 5 1 1 4 2h4l4-2 3-3 2-5 1-7 2-3 3-1h4l3 1 2 5v7m0 38v-18l-14 9v-4l-1-4-2-1-5-2h-3l-5 2-3 3-2 5v5l2 5 1 1 4 2m19 31h2l3-1 2-2 2-3v-7l-2-3-2-2-3-1h-3l-4 1-5 4-16 16v-23m-231-45 34-17v23m0 30v-18l-13 10v-5l-2-3-1-2-5-2h-3l-5 2-4 3-1 5v5l1 5 2 2 3 1m20 32h2l3-2 2-1 1-4v-6l-1-4-2-1-3-2h-4l-3 2-5 3-16 17v-24m-406-139 4 1 1 5v4l-1 5-5 3-9 1h-8l-6-1-4-3-1-5v-2l1-5 4-3 5-2h1l5 2 3 3 2 5v2l-2 5-3 3-5 1m23 32v-18l-13 10v-5l-2-4-1-1-5-2h-3l-5 2-4 3-1 5v5l1 5 2 2 3 1m20 32h2l3-2 2-2 1-3v-7l-1-3-2-2-3-1h-4l-3 1-5 4-16 16v-23m347-169h417m-418 12h14m-13 0v-12m-66 12v-12m65.5 78c-17.273 0-33.824-6.9278-45.946-19.232-12.122-12.304-18.804-28.956-18.547-46.227m63.993 64.458h1-1m-1-65h2l-2 65zm2 0-2 65h2zm-101 184v-184m42 195h-42m68-11h-68m126 132-8-19m-4 20-52-118m52-199v144h12m0-115h140m-140-29v17m389 218h-27v27h27v-27m-237-206v262h2m150-147h-12v-115m0 0h-140m-152-29h292v17h-292m304-17v144m-123 124h-27v27h27v-27m200-187h-46v-81h-31m88 158v107m-11-107v77m-1310-918h-377m-12 0h-265m1975 2557h231m-19 138h19m-181 234 12 35 11-35zm12-50v50m90-90h23v-10l-1-3-1-1-2-1h-3l-4 2-1 3v10m12 24h-16l-3-1-3-2-1-3v-2l1-4 3-2 3-1h16m56 116h-113m113-21h-113m113-22h-113m113-21h-113m-67-58h23l-23-15h23m-23 38h23v-7l-1-4-2-2-2-1-3-1h-6l-3 1-2 1-3 2-1 4v7m59 99h-63m63-21h-100m100-22h-113m113-21h-113m234-21h-234m77 127h-77m113 64v-43m121 21h-113m113-21h-113m113-21h-113m113-21h-113m113 85h-234m113-22h-113m113-21h-113m113-42h-26m26 42-38-22v-12l-20 12v-12l-55-32m121 109v-191m-121 56 55 31v12l20-12v12l38 22v-121m-37 165-11-35-12 35zm94-165v235h-105v-70m75 163v11m6-25v40m-52-26v11m-6-25v40m58-15h-58m58-11h-58m52 6h-46m-971-667h-2m95 0h123v-225h-204m216 225v-225m-255 202v-23h-150v46h79m-85-58h156m-161 12v46m500-225h-84m84-12h-300m0 12v225m-14-23h-13v-227l15 10m12-6v9m-12-3v240m-27-257v199m-1700-228h-12m23-6h-32m21 52h-12m23 6h-32m15-6v-46m6 52v-58m-12 58v-58m-9-105h131m-131 268h135m710 289h-46m243 0h-74m270 0h-73m269 0h-57m254 0h-73m269 0h-73m270 0h-47m243 289h-185m382 0h-185m346 0v-289m-312 289v-289m-81 289v-289m342 125 2-4 5-5h-35m35 43v-18l-13 10v-5l-2-3-2-2-5-2h-3l-5 2-3 3-2 5v5l2 5 1 2 4 1m20 32h1l4-2 1-1 2-4v-6l-2-4-1-1-4-2h-3l-3 2-5 3-17 17v-24m-176-41-2 5-5 3-8 1h-5l-8-1-5-3-2-5v-4l2-5 5-3 8-2h5l8 2 5 3 2 5v4m0 39v-18l-14 10v-5l-1-3-2-2-5-2h-3l-5 2-3 3-2 5v5l2 5 1 2 4 1m19 32h2l3-2 2-1 2-4v-6l-2-4-2-1-3-2h-3l-4 2-5 3-16 16v-23m-1985-871-5 2-3 3-2 5v2l2 5 3 3 5 2h2l5-2 3-3 2-5v-2l-2-5-3-3-7-2h-8l-8 2-5 3-2 5v3l2 5 3 2m23 30 2-4 5-5h-35m26 45h2l3-2 2-1 2-4v-6l-2-4-2-1-3-2h-3l-4 2-4 3-17 17v-24m35-218-2 5-3 2h-4l-3-2-2-3-1-7-2-5-3-3-3-2h-5l-4 2-1 1-2 5v7l2 5 1 2 4 1h5l3-1 3-4 2-5 1-6 2-4 3-1h4l3 1 2 5v7m-7 36 2-3 5-5h-35m26 45h2l3-2 2-2 2-3v-7l-2-3-2-2-3-1h-3l-4 1-4 4-17 16v-23m0-280 35-17v23m-7 28 2-3 5-5h-35m26 45h2l3-2 2-2 2-3v-7l-2-3-2-2-3-1h-3l-4 1-4 4-17 16v-23m30-220 3 2 2 5v3l-2 5-5 4-8 1h-8l-7-1-3-4-2-5v-1l2-5 3-4 5-1h2l5 1 3 4 1 5v1l-1 5-3 4-5 1m16 30 2-3 5-5h-35m26 44h2l3-1 2-2 2-3v-7l-2-3-2-2-3-2h-3l-4 2-4 3-17 17v-23m35-348v17l-15 1 1-1 2-5v-5l-2-5-3-3-5-2h-3l-5 2-3 3-2 5v5l2 5 1 1 4 2m21 28 2-3 5-5h-35m26 44h2l3-1 2-2 2-3v-7l-2-3-2-2-3-1h-3l-4 1-4 4-17 16v-23m35-341v-18l-14 10v-5l-1-3-2-2-5-1h-3l-5 1-3 3-2 5v5l2 5 1 2 4 2m21 28 2-4 5-5h-35m26 45h2l3-2 2-1 2-4v-6l-2-4-2-1-3-2h-3l-4 2-4 3-17 17v-23m854 1593h289m-289 13h289m-780-11h-6m6 11h-6m-173 302v-113m-12 113v-146m281-17h-131m131 11h-119m697-11h-146m146 11h-61m-151 0h-46m46-11h-131m-65 11h-46m46-11h-104m1282 0h-104m104 11h-46m-123 0h-73m73-11h-158m-65 0h-131m131 11h-47m-150-11h-115m115 11h-46m971 0h-58m69 0h46m-57 289v-289m11 289v-289m-196 289v-289m-12 289v-289m-1756-59v-140m-12 140v-20m162 118v-39m-12 27v-38m12 50h-150m138-12h-138m-329 296v-612m317 210h-284m284-12h-284m2065-2337v-16m-11 21 35-13-35-13m35 46-2 5-5 3-8 2h-5l-9-2-4-3-2-5v-3l2-5 4-3 9-2h5l8 2 5 3 2 5v3m-7 38 2-3 5-5h-35m26 44h2l3-1 2-2 2-3v-7l-2-3-2-2-3-1h-3l-4 1-5 4-16 16v-23m-742-283v-21m18 21v-13m-18 13h35v-21m0 46-2 5-5 3-8 2h-5l-8-2-5-3-2-5v-3l2-5 5-4 8-1h5l8 1 5 4 2 5v3m-7 38 2-4 5-4h-35m26 44h2l3-2 2-1 2-4v-6l-2-3-2-2-3-2h-3l-3 2-5 3-17 17v-23m361 55-2 5-4 3-9 2h-5l-8-2-5-3-2-5v-3l2-5 5-4 8-1h5l9 1 4 4 2 5v3m-6 38 1-3 5-5h-35m27 44h2l3-1 1-2 2-3v-7l-2-3-1-2-3-2h-4l-3 2-5 3-17 17v-23m-275 262h185m-673 0h384m-489 0h-216m-89-8h-27v26h27v-26m-27 19h-63m474 0h-14m14-11h-14m-350-176v-14m390 182h-26v26h26v-26m411 19h11m-11-11h11m-11-8h-27v26h27v-26m-559 169h-187m611 1h-412m423 0h93m-821-13h41m820 407v-16m-11-344h-18m676-34h35m7 195-42 18v-18m-11 24v-11m-491-891h11m620-11h15m-511 532h360m-360 11h360m27 0h11m-11-11h11m-398-8h-27v26h27v-26m387 0h-27v26h27v-26m229 0h-27v26h27v-26m-1316 19h384m36 151h505m574-439h52m-29-22h29m-112-42h105m-105-85h112m-231-21h231m-231 21h111m8 22h112m-112 21h112m-112 21h112m-231 0h111m-111-21h111m-111-21h111m-115-144h-27v27h27v-27m-229 0h-27v27h27v-27m-387 0h-27v27h27v-27m589 0v-34m31 582v-570m254 0h-12m23 99v-111m-34 111v-99m23 99v-99m-12 99v-99m23-12h-296m262 12h-231m-20 562v-513m25 521h-9m9 11h-9m235-23v-424m11 424v-424m12 424v-424m11 424v-424m-1529 2460h-391m391 11h-392m1918 139h-85m-320 11h-73m447-2185h-6v11h6m-226-11v11m151-11v11m-75-11v11m69-11v11m-69-5h69m6 5h-81v-11m81 0h-81m-68.5-69c18.334 0 35.902 7.3492 48.775 20.403 12.873 13.054 19.975 30.724 19.719 49.055m-68.993-69.459h-1 1m1 69h-2l2-69zm-2 0 2-69h-2zm151.01 0.4588c-0.2566-18.332 6.846-36.001 19.719-49.055s30.441-20.403 48.775-20.403m-0.5 0h1-1m1 69h-2l2-69zm-2 0 2-69h-2zm-73-515v1l1 4 2 1 3 2h7l3-2 2-1 1-4v-3l-1-3-4-5-16-17h23m-36 4-2-2 2-2 1 2-1 2m-33 31h23m-12 0v-35m-18 30-3 3-5 2h-7l-5-2-3-3v-3l2-4 1-1 4-2 10-3 3-2 2-1 1-4v-5l-3-3-5-2h-7l-5 2-3 3m109 324-12-35-11 35zm-12 84v-84m-137 39h23l-23-15h23m-23 38h23v-8l-1-3-2-2-2-1-3-1h-6l-3 1-2 1-3 2-1 3v8m-32-63h111m17-42h103m-231 21h111m-111-21h111m-111-21h111m-111-22h111m-111-21h111m0 191v-318m8 318v-122l50-29 10 6v-23l10 6 42-23m-120 185h120m-112-42h112m-112-43h112m-112-233v165l50-28 10 5v-23l10 6 42-22m-112 151h112m-70 97h23v-9l-1-4-1-1-2-1h-4l-2 1-1 1-1 4v9m12 25h-16l-4-1-2-3-1-3v-2l1-3 2-3 4-1h16m-184-254h111m8 106h112m-66-42h8m-54-22h29m-29-21h60m-60 170h112m-73-259 11 35 12-35zm-115 195v-263h126v68m-350-535v32h11m12 0h34m-57 81h57m0-69v-12m-46-32v32m12-32v32m-23 12h57m-109 368h11m87-287v287m11-299v299m-495 0h48m-338 0h165m-165 11h142m574-379h-716m716-69h-716m716-70h-716m391-245v17l-15 1 2-1 1-5v-5l-1-5-4-4-5-1h-3l-5 1-3 4-2 5v5l2 5 2 1 3 2m28 23-2 5-5 3-8 2h-5l-8-2-5-3-2-5v-3l2-5 5-4 8-1h5l8 1 5 4 2 5v3m-8 41h1l4-1 1-2 2-3v-7l-2-3-1-2-4-2h-3l-3 2-5 3-17 17v-23m360-382v-36m12 37v-12m0 490v-146m0 145h-12v-412m12 477h-12m78-63.5c0 17.273-6.9278 33.824-19.232 45.946-12.304 12.122-28.956 18.804-46.227 18.547m64.458-64.993v-1 1m-65 1v-2l65 2zm0-2 65 2v-2zm0-412h-12m12-66h-12m78 1.5c0 17.273-6.9278 33.824-19.232 45.946-12.304 12.122-28.956 18.804-46.227 18.547m64.458-64.993v-1 1m-65 1v-2l65 2zm0-2 65 2v-2zm0 624v-81m-728 229v-808m0 820h774m-774-12h716m771 760v140m9-149v149m-102-24v24m-12-24v227m12-1147v851m-12-851v39m0-97h12m-12 58h12m-11.552-0.01c-15.147 0.2542-29.761-5.585-40.563-16.207-10.802-10.62-16.885-25.134-16.885-40.283m0-0.5v-1 1m57-1v2l-57-2zm0 2-57-2v2zm0 861v46m12-447h-35v35h35v-35m0 366h-35v35h35v-35m786 0h-35v35h35v-35m-599-855h-199m212 12h-200m-12-12v28m12-16v15m855-15v264m12-264v264m-774 613h-93m102-9h-102m358 149h-358m1158-1083h-29m63 0h-23m-11 6v-11m11 11v-11m23 11v-11m11 11v-11m-161 38h-797m820 33h-198m208 0v-46h211v46m-244-33v-46h277m0 46v-46m-533 556h-35v35h35v-35m-557-2227h-15v27h15v-27m-1623 1910h-33m21 7h-11m11 45h-11m11 12h-11m11 45h-11m11 11h-11m5-56v45m18 64h-33m21-8h-11m5-45v45m0-158v45m-5-52v173m11-173v173m6 34h-15v27h15v-27m0-489h-15v27h15v-27m-1290 2409h-16v27h16v-27m229 263.5c0-17.273 6.9278-33.824 19.232-45.946 12.304-12.122 28.956-18.804 46.227-18.547m-65.458 63.993v1-1m65-1v2l-65-2zm0 2-65-2v2zm0-65h12m-12 65h12m-12-65v-73m12 73v-158m-11.542-0.01c-17.271 0.2567-33.923-6.4244-46.227-18.547-12.304-12.12-19.232-28.67-19.232-45.943m0-0.5v-1 1m65-1v2l-65-2zm0 2-65-2v2zm0 64h12m-12-66h12m-12 66v73m12-139v-104m-77-0.5c0-17.273 6.9278-33.824 19.232-45.946 12.304-12.122 28.956-18.804 46.227-18.547m-65.458 63.993v1-1m65-1v2l-65-2zm0 2-65-2v2zm0-65h12m0 65h-12v47m12-112v-158m-12 466h-289m289 12h-289m289-197v46m0 335v-46m0-346h-289m289 11h-289m289-196v73m0.4585-157.01c-17.271 0.2567-33.923-6.4244-46.227-18.547-12.304-12.122-19.232-28.673-19.232-45.946m0-0.5v-1 1m65-1v1l-65-1zm0 1-65-1v1zm0 64h12m-12-65h12m-12 65v73m12-138v-104m-77-0.5c0-17.273 6.9278-33.824 19.232-45.946 12.304-12.122 28.956-18.804 46.227-18.547m-65.458 63.993v1-1m65-1v2l-65-2zm0 2-65-2v2zm0-66h12m0 66h-12v46m12-112v-327m-27.5-73c-17.273 0-33.824-6.9278-45.946-19.232-12.122-12.304-18.804-28.956-18.547-46.227m63.993 65.458h1-1m-1-66h2l-2 66zm2 0-2 66h2zm0 0v-11m-66 11v-11m81 797h-300m300-12h-300m300-138v-47h-289m289-11h-289m289-312v200m-289 516v185m0 196v-184m289-636h-289m289 81h-289m289 312h-289m289 81h-289m301-1508h-12m-65 325.5c0-17.273 6.9278-33.824 19.232-45.946 12.304-12.122 28.956-18.804 46.227-18.547m-65.458 63.993v1-1m65-1v2l-65-2zm0 2-65-2v2zm0-66h12m-12 66h12m-12-66v-143m12 143v-44m-77 413.5c0-17.273 6.9278-33.824 19.232-45.946 12.304-12.122 28.956-18.804 46.227-18.547m-65.458 63.993v1-1m65-1v2l-65-2zm0 2-65-2v2zm0-66h12m-12 66h12m0-66v-238m-12-297h-304m304 12h-289m289 439v-154m0-326v29m0 535v-73h-16m16-11h-15m15-480h-304m15 41v439m0 265v-254m0 724h-32m21 8h-12m12 45h-12m12 11h-12m12 45h-12m12 12h-12m6-57v45m17 64h-32m21-7h-12m6-45v45m0-158v45m-6-53v173m12-173v173m-6-558v45m6-45h-12m12 56h-12m12-11h-12m23-53h-32m15 121v45m6 0h-12m12-45h-12m12-12h-12m23 65h-32m21-174v174m-12-174v174m6-110v45m0-369v-44m6 108v-116m-12 116v-116m6 108v-44m6-12h-12m12 12h-12m12 44h-12m23 8h-32m21-108h-12m23-8h-32m32-277h-32m21 8h-12m23 108h-32m21-8h-12m12-44h-12m12-12h-12m6 56v-44m-6 52v-116m12 116v-116m-6 52v-44m-15 1592v-1771m1109-395h-45m45 6v-12m-57 12v-12m12 12v-12m53 23v-32m-121 15h-45m0 6v-12m45 12v-12m12 12v-12m-65 23v-32m174 21h-174m174-12h-174m109 6h-44m-263 0h-45m45 6v-12m-57 12v-12m12 12v-12m53 23v-32m-121 15h-45m0 6v-12m45 12v-12m12 12v-12m-65 23v-32m174 21h-174m174-12h-174m109 6h-44m-263 0h-45m45 6v-12m-57 12v-12m12 12v-12m53 23v-32m-121 15h-45m0 6v-12m45 12v-12m12 12v-12m-65 23v-32m174 21h-174m174-12h-174m109 6h-44m-280 8v-23m1122-434h-23m191-335h-191m0 335v-335m23 769v-434m168 434h-1290m2232-2918 1-3 5-5h-34m34 36-1 5-5 3-8 2h-5l-9-2-5-3-1-5v-3l1-5 5-3 9-2h5l8 2 5 3 1 5v3m-8 41h2l3-1 2-2 1-3v-7l-1-3-2-2-3-1h-4l-3 1-5 4-16 16v-23m3 36-2 2-1-2 1-1 2 1m8 32v-17m-11 22 34-14-34-13m34 53v-23m0 11h-34m-96 125h231m331 1614-2 5-5 3-8 2h-5l-8-2-5-3-2-5v-3l2-5 5-4 8-1h5l8 1 5 4 2 5v3m0 33-2 5-5 3-8 2h-5l-8-2-5-3-2-5v-3l2-5 5-4 8-1h5l8 1 5 4 2 5v3m-9 41h2l3-1 2-2 2-3v-7l-2-3-2-2-3-2h-3l-4 2-5 3-16 17v-23m26-1470h2l3-2 2-2 2-3v-6l-2-4-2-1-3-2h-3l-4 2-5 3-16 16v-23m35 46-2 5-5 4-8 1h-5l-8-1-5-4-2-5v-3l2-5 5-3 8-2h5l8 2 5 3 2 5v3m-9 42h2l3-2 2-2 2-3v-6l-2-4-2-1-3-2h-3l-4 2-5 3-16 16v-23m28 667 2-3 5-5h-35m35 36-2 5-5 4-8 1h-5l-8-1-5-4-2-5v-3l2-5 5-3 8-2h5l8 2 5 3 2 5v3m-9 42h2l3-2 2-2 2-3v-7l-2-3-2-2-3-1h-3l-4 1-5 4-16 16v-23m269 1062h34m-21 8h12m-33 108h42m-21-8h12m-12-44h12m-12-12h12m-6 56v-44m6 52v-116m-12 116v-116m6 52v-44m98 139v-178m-117-55h23m-23 73h-204m204 11h-204m204-84v73m-8 129v-118m8 2v-2m0 235v-117m58 50h-24v-216h24v-1783m-623 1756v445m14-791v301m0-486h-14m0-70h14v-17m-14 87v520m0-848v258m14-258v145m-14-533v323m14-389v-8m-12.542 73.993c-17.271 0.2567-33.923-6.4244-46.227-18.547-12.304-12.122-19.232-28.673-19.232-45.946m-1-0.5v-1 1m65-1v2l-65-2zm0 2-65-2v2zm14-2h-14m14 66h-14m1.4585 388.99c-17.271 0.2567-33.923-6.4244-46.227-18.547-12.304-12.122-19.232-28.673-19.232-45.946m-1-0.5v-1 1m65-1v2l-65-2zm0 2-65-2v2zm0-2h14m-14 65h14m574 91h-574m574 69h-547m539-138h-566m566-703h-566m566 69h-566m574 69h-574m-12.542-159.01c-17.271 0.2567-33.923-6.4244-46.227-18.547-12.304-12.122-19.232-28.673-19.232-45.946m-1-0.5v-1 1m65-1v2l-65-2zm0 2-65-2v2zm0 64h14m-14-66h14m-14 66v248m14-248v177m-12.542-566.01c-17.271 0.2567-33.923-6.4244-46.227-18.547-12.304-12.122-19.232-28.673-19.232-45.946m-1-0.5v-1 1m65-1v2l-65-2zm0 2-65-2v2zm14 64h-14m14-66h-14m14 66v231m-14-231v323m31 1691v-73m12 73v-109m-31 109h19m-19-73h19m-17-421h21m-21-8h29m-29 393h29m-31 109v-73m576-609h-574m574-157v146h-547m547-480v157m0-369v35m-8 845v-177m0 511v-177m8 0v-157m0 432v-98m-559-522v-50m12 50v-85m-29 35v50h17m-15 250v-152m-2-148h17m-15-35h27m-27-300v90m0 578h27v-33h-27m-639-375h-35m35 0-23 17v-25m23 48-2 5-5 3-8 2h-5l-8-2-5-3-2-5v-4l2-5 5-3 8-1h5l8 1 5 3 2 5v4m-8 41h1l4-2 1-1 2-4v-6l-2-4-1-1-4-2h-3l-3 2-5 3-17 17v-23m372.54-277.99c17.271-0.2566 33.923 6.4244 46.227 18.547 12.304 12.122 19.232 28.673 19.232 45.946m-1-0.5v1-1m-65 1v-2l65 2zm0-2 65 2v-2zm0-63h-12m0 65h12v193m-12-193v447m12.542 1.0071c17.271-0.2566 33.923 6.4244 46.227 18.547 12.304 12.122 19.232 28.673 19.232 45.946m-1-0.5v1-1m-65 1v-2l65 2zm0-2 65 2v-2zm0-64h-12m12 66h-12m12-66v-219m-12 285v13m12-298h23m-23-35h23m-23 335v-15m0-620v42m0 593h23m-23 35h23m-23 783v-69m23-714v-35m0-300v-35m-35-406h-716m716 69h-716m716 69h-716m0 601h716m-716 12h716m-716-821v809m0 1119v-287m716-1641v218m0 1411v-229m-734-100v-44m6 56h-11m11-12h-11m23-52h-33m21 8h-11m23 108h-33m21-8h-11m0 8v-116m11 116v-116m-6 108v-44m6-384h-11m23-7h-33m15 108v-45m6-11h-11m11 11h-11m11 45h-11m23 7h-33m15-63v-45m6 108v-115m-11 115v-115m11-320h-11m23-8h-33m15 108v-44m6-12h-11m11 12h-11m11 44h-11m23 8h-33m15-64v-44m6 108v-116m-11 116v-116m1656 45h-12m12-12h-12m12-46h-12m18-8h-35m23 54v-46m0 104v-46m0 104v-47m6-11h-12m12 11h-12m12 47h-12m18 164h-43m43-157h-43m37 0v-177m-12 177v-177m-17-714h-547m547 11h-574m574-122v111m0-381v93m-23-313h34m-21 8h12m-25 108h34m-21-8h12m-12-44h12m-12-12h12m-6 56v-44m6 52v-116m-12 116v-116m6 52v-44m-19 212v-310m-551 673h19m-19-34h27m-27 52v-18m0-335v58m19 295v-18m8 18v-52m-27 52h19m555-381h-23m58 2002v-46m0-1999h-24m-585 707v-198m0-438h27m-27-34h27m-27-304v7m0 1002h27m-27-35h27m0-636v-34m0 705v-35m-41-1250v283m-288 1002h23m-23-199v164h23m0 35v-35m-22.458-228.99c17.271-0.2566 33.923 6.4244 46.227 18.547 12.304 12.122 19.232 28.673 19.232 45.946m-1-0.5v1-1m-65 1v-2l65 2zm0-2 65 2v-2zm-12-63h12m0 65h-12v12m12-77v-41m0-7h15m-15 7h23m-23-7v-24h15v24m-15-359v301h23m0 65v-65m-35 183h-716v-844m716 855h-716m716-572v484m12.542-548.99c17.271-0.2566 33.923 6.4244 46.227 18.547 12.304 12.122 19.232 28.673 19.232 45.946m-1-0.5v1-1m-65 1v-2l65 2zm0-2 65 2v-2zm0-63h-12m0 65h12v43m-12-108v-218m12 360h23m-23-34h23m-23-222v114m23 142v-34m17-297h-15v58h15m0 6v-70m6-11h-25m-21 81h57m-57 11h57m-57-81v70m52-191v-69m-6 0h11m-11 69h11m-10.541-74.007c-18.332 0.2566-36.001-6.846-49.055-19.719s-20.403-30.441-20.403-48.775m0-0.5v-1 1m69-1v2l-69-2zm0 2-69-2v2zm0 67h11m-11-69h11m-11 69v81m11-81v81m-80 68.5c0-18.334 7.3492-35.902 20.403-48.775 13.054-12.873 30.724-19.975 49.055-19.719m-69.459 67.993v1-1m69-1v2l-69-2zm0 2-69-2v2zm0-69h11m0 69h-11v12m11-12v127m-11-104h-25m25-11h-466m466 23v-12m0-254v12m11-12v12m-477-12h466m242 0h-231m-69 462h-716m0 913h-33m21 8h-11m23 108h-33m21-8h-11m11-44h-11m11-12h-11m5 56v-44m-5 52v-116m11 116v-116m-6 52v-44m18-663h-33m21 8h-11m23 108h-33m21-8h-11m11-44h-11m11-12h-11m5 56v-44m-5 52v-116m11 116v-116m-6 52v-44m0-283v-44m6 44h-11m11 12h-11m5 44v-44m6-56h-11m11 100h-11m0 8v-116m11 116v-116m12 0h-33m33 116h-33m691-331h23l-23-16h23m-23 39h23v-8l-1-3-3-3-2-1-3-1h-6l-3 1-2 1-2 3-1 3v8m-200-132 35-11-35-12zm187 115h-255v-126h68m166 60v-118m-22 243v-118m-42 118v-118m-106-7v-118m21 118v-118m22 118v-88m21 88v-60m21 60v-15m8 15h-114m106-60v-58m-21 13v-13m127 125h-212m0 118v-243m620-34v-18m514 295v-295m0 0h-514m-37-8v-17m22 17h-43m-92 0h-42m-528 0h-43m178 0h-43m-150 282v-255m763-1v-26m-135 26h92v-26m58 303v-277h-15m543 310h-551m570 229h-15v27h15v-27m-1606-168h-15v-26h15v26m0 328h-15v-27h15v27m0 327h-15v-27h15v27m0 327h-15v-26h15v26m0 554h-15v27h15v-27m0 328h-15v27h15v-27m-141 842v-16h-27v16h27m-728 0v-16h-27v16h27m2851-443h-27v15h27v-15m918 759h-15v27h15v-27m0 1719h-15v16h15v-16m0 755h-15v27h15v-27m-239 248v15h15v-15h-15m-747-31v16h16v-16h-16m224 0v16h27v-16h-27m-1066-1v15h27v-15h-27m-240 0v15h27v-15h-27m-356 0v15h27v-15h-27m-323 0v15h27v-15h-27m-272 0v15h27v-15h-27m-1302-651h-16v27h16v-27m115-2171h-15v-16h15v16m803-184v-16h-27v16h27m-787 763h-16v27h16v-27m0 619h-16v27h16v-27m0 76h-16v27h16v-27m765 1548v15h27v-15h-27m-765-1237h-16v27h16v-27m0 331h-16v27h16v-27m4 317h-15v27h15v-27m365 589v15h27v-15h-27m-365-67h-15v27h15v-27m387-1624-2 5-3 1h-4l-3-1-1-4-2-6-2-5-3-4-3-1h-5l-4 1-1 2-2 5v7l2 5 1 1 4 2h5l3-2 3-3 2-5 2-7 1-3 3-2h4l3 2 2 5v7m0 31-2 5-5 3-8 2h-5l-8-2-5-3-2-5v-3l2-5 5-3 8-2h5l8 2 5 3 2 5v3m-9 41h2l3-1 2-2 2-3v-7l-2-3-2-2-3-1h-3l-3 1-5 3-17 17v-23m3 36-1 2-2-2 2-1 1 1m9 32v-17m-12 21 35-13-35-13m35 53v-23m0 11h-35m958-843-2-5-3-3-5-2h-2l-5 2-3 3-2 5v2l2 4 3 4 5 1h2l5-1 3-4 2-6v-8l-2-9-3-5-5-1h-4l-5 1-1 4m-25 29-5-1-3-5-2-8v-5l2-9 3-5 5-1h3l5 1 4 5 1 9v5l-1 8-4 5-5 1h-3m-41-8v2l1 3 2 2 3 1h7l3-1 2-2 2-3v-3l-2-4-3-5-17-16h23m-36 3-2-2 2-1 2 1-2 2m-31 8h16m-21-11 13 34 13-34m-53 34h23m-11 0v-34m-718 88h-138m2047-905v-18l-13 9v-4l-2-4-6-3h-4l-5 2-3 3-2 5v5l2 5 2 1 3 2m28 23-2 5-5 3-8 2h-5l-8-2-5-3-2-5v-3l2-5 5-3 8-2h5l8 2 5 3 2 5v3m-8 41h1l4-1 1-2 2-3v-7l-2-3-1-2-4-1h-3l-3 1-5 4-17 16v-23m4 36-2 2-2-2 2-1 2 1m8 32v-17m-12 22 35-14-35-13m35 53v-23m0 11h-35m141.46 942.99c-17.271 0.2567-33.923-6.4244-46.227-18.547-12.304-12.122-19.232-28.673-19.232-45.946m-1-0.5v-1 1m66-1v2l-66-2zm0 2-66-2v2zm0 64h11m-11-66h11m-623-989 3 2 4 3 1 3v7l-1 3-4 3-3 2-5 2h-8l-5-2-4-2-3-3-1-3v-7l1-3 3-3 4-2m26 48-1 5-5 3-9 2h-5l-8-2-5-3-1-5v-3l1-5 5-4 8-1h5l9 1 5 4 1 5v3m-6 38 1-4 5-4h-34m26 44h2l3-2 2-1 1-4v-6l-1-3-2-2-3-2h-4l-3 2-5 3-16 17v-23m226-345h-35v35h35v-35m300 0h-35v35h35v-35m-100 1441-293 47m293 1226-300-48m508-1520h-15v58h15m0 6v-69m-31 0v69m35 12v11m11-23h-46m46-81v104m-252-63v235m252-264h-46m-1874-12h1260m660-162h-34v34h34v-34m0-459h-34v35h34v-35m-30 891-181 29m-41 6-140 23m-131 32-16-35 35-15 15 33m-76-78-7-16m22 22-7-16 101-44m-116 38 43-18m-181 98-17-39m7 44-13-29m23 24 145-64m161 64-85 14m489-66-45 7m-883 107 33-21 20 32 61-27m-356 42h100m-95-11h91m247-72-47-75m-89 76-9-14m16 3 78-49m-94 46 98-62m-30 168-24-36m-142 26 123-78m-127 67 111-71m16 4-9-15m142 51-64-100m74 95-16-26m-84 83 354-156m-254 99 84-36m-100 10 87-39m-94 29 100-44m-1275 493v309m139-1699 3 2 3 3 2 3v7l-2 3-3 3-3 2-5 2h-8l-5-2-4-2-3-3-2-3v-7l2-3 3-3 4-2h5v8m21 40-2 5-5 3-8 2h-5l-8-2-5-3-2-5v-3l2-5 5-4 8-1h5l8 1 5 4 2 5v3m-7 38 2-4 5-4h-35m27 44h1l4-2 1-1 2-3v-7l-2-3-1-2-4-2h-3l-3 2-5 3-17 17v-23m1194 2233v-18l-13 10v-5l-1-4-2-1-5-2h-3l-5 2-4 3-1 5v5l1 5 2 1 3 2m28 17h-34m34 0-23 16v-25m15 56h2l3-1 2-2 1-3v-7l-1-3-2-2-3-1h-4l-3 1-5 4-16 16v-23m719-78v-41h-12m0 48v-48m-402-89 183 29v27h23m-951-129h96m-96-12h88m255 83-41 66m158-61 145 64m-155-68-13 28m-94-29 100 44 17-39m-110-15 87 39m238 77h58m-58 206v-194h70m-12-118-52-8m64 126v-116m-12 104v-106m-367-36 84 37m152 86 62 27m-22-100-29 65 62 27m-70-37-3 6m38-86-31 69m-314-125 61 26m95 30 158 69m-175-77 2 1m700 82-174-28m208 21-45-7m-483-36 24 11 15-33m-34-18-4 8m-277-18-16 26m6-31-64 101m-40-110-38 60m-7-11-9 15m-102-85 37 23m65 62 50 31m-34-35 78 50m-192-143 114 72m21-50 40 25 20-31m-295 242v-214m-6-1141v-337m-744.5 1905c-17.273 0-33.824-6.9278-45.946-19.232-12.122-12.304-18.804-28.956-18.547-46.227m63.993 65.458h1-1m-1-66h2l-2 66zm2 0-2 66h2zm-65 0v-11m65 11v-11m-82-22v-127m11 127v-1806m620 11h-350m408 12v-16h-58v16m-142-669v-13m-18 13h35v-22m0 47-2 5-5 3-8 2h-5l-8-2-5-3-2-5v-4l2-5 5-3 8-2h5l8 2 5 3 2 5v4m-7 38 2-4 5-5h-35m26 45h2l3-2 2-1 2-4v-6l-2-4-2-1-3-2h-3l-4 2-4 3-17 17v-24m-709 2 2-3 5-5h-35m28 41 2-3 5-5h-35m26 44h2l3-1 2-2 2-3v-7l-2-3-2-2-3-2h-3l-4 2-5 3-16 17v-23m242 484v-12m41 0v12m-17 35v337m11-372h6m-17 406v331m0 767v198m0-564v331m-443-2151h458m813 0h-135m-1171 35h35v-35m454 682h-35v35h35v-35m0 372h-35v34h35v-34m0 365h-35v35h35v-35m0 344h-46v57h46v-57m994 878-1 3-5 2h-3l-5-2-4-5-1-8v-8l1-7 4-3 5-2h1l5 2 3 3 2 5v2l-2 5-3 3-5 2h-1l-5-2-4-3-1-5m-25 23-5-2-3-5-2-8v-5l2-8 3-5 5-2h3l5 2 3 5 2 8v5l-2 8-3 5-5 2h-3m-41-8v1l1 4 2 1 3 2h7l3-2 2-1 1-4v-3l-1-3-4-5-16-17h23m-36 4-2-2 2-2 1 2-1 2m-32 8h17m-22-12 14 35 13-35m-53 35h23m-11 0v-35m-980-122 34-17v23m0 24-1 4-5 4-9 1h-4l-9-1-5-4-1-4v-4l1-5 5-3 9-2h4l9 2 5 3 1 5v4m-8 41h2l3-2 2-1 1-4v-6l-1-4-2-1-3-2h-4l-3 2-5 3-16 16v-23m3 37-2 1-1-1 1-2 2 2m8 31v-16m-11 21 34-13-34-13m34 52v-23m0 12h-34m102-69v139m-150-189v108m0-173v-46m0 624v-97m39-670v-19l-13 10v-5l-2-3-2-2-5-1h-3l-5 1-3 4-2 5v5l2 5 1 1 4 2m-4 13-1 2-2-2 2-2 1 2m32 33v-23m0 12h-35m30 18 3 3 2 5v7l-2 5-3 3h-3l-4-2-1-1-2-4-3-10-2-3-2-2-3-1h-5l-3 3-2 5v7l2 5 3 3m-140 141-2 5-5 3-8 2h-5l-8-2-5-3-2-5v-3l2-5 5-3 8-2h5l8 2 5 3 2 5v3m-9 41h2l3-1 2-2 2-3v-7l-2-3-2-2-3-1h-3l-4 1-4 4-17 16v-23m26 54h2l3-1 2-2 2-3v-7l-2-3-2-2-3-1h-3l-4 1-4 4-17 16v-23m72-197h23l-23-15h23m-23 38h23v-7l-1-4-2-2-2-1-3-1h-6l-3 1-2 1-3 2-1 4v7m-2-129h24v-10l-2-3-1-1-2-1h-3l-2 1-1 1-2 3v10m13 24h-17l-3-1-2-2-2-3v-2l2-4 2-2 3-1h17m-199 10 35-11-35-12zm165 94h-234v-105h69m116-12-35 12 35 11zm49 12h-49m-72 48h121m-106-72v-25m-41 97 22-38h11l-11-20h11l23-39m-30 97 22-38h12l-12-20h12l22-39m65 202v-202m-21 97v-97m0 202v-97m-21-8v-97m-21 97v-97m-21 97v-63m-22 63v-26m-21-10v-61m-21 97v-97m106 202v-97m-21 97v-97m-21 97v-97m-22 97v-97m-21 97v-97m-21 97v-97m-21-8v-97m0 202v-97m-21-8h43m-43 8h190m-190 97v-202m470 214h-39m39-12h-39m127 172h-6m-71-405h-35v35h35v-35m0 372h-35v34h35v-34m497 34h-35v-34h35v34m324-11v-23h-35m0 34v-34m35 23h11m239 0h11m-11 11v-15h-58v15m96-11v-23m353 23h-43m80 268-5 2-3 3-2 5v2l2 5 3 3 5 1h1l5-1 4-3 1-5v-2l-1-5-4-3-6-2h-8l-9 2-5 3-1 5v3l1 5 4 2m21 33h2l3-2 2-1 1-4v-6l-1-4-2-1-3-2h-4l-3 2-5 3-16 16v-23m26 55h2l3-2 2-1 1-4v-6l-1-4-2-1-3-2h-4l-3 2-5 3-16 17v-24m-177-40-2 5-3 2h-3l-3-2-2-3-2-7-1-5-4-3-3-2h-5l-3 2-2 2-2 5v6l2 5 2 2 3 1h5l3-1 4-3 1-5 2-7 2-3 3-2h3l3 2 2 5v6m-8 40h2l3-2 1-1 2-4v-6l-2-4-1-1-3-2h-4l-3 2-5 3-17 16v-23m27 55h2l3-2 1-1 2-4v-6l-2-4-1-1-3-2h-4l-3 2-5 3-17 16v-23m-163-49 35-17v23m-8 32h1l4-2 1-1 2-4v-6l-2-4-1-1-4-2h-3l-3 2-5 3-17 16v-23m27 55h1l4-2 1-1 2-4v-6l-2-4-1-1-4-2h-3l-3 2-5 3-17 16v-23m-169-69 3 1 2 5v3l-2 5-5 4-8 1h-8l-7-1-3-4-2-5v-1l2-5 3-3 5-2h2l5 2 3 3 2 5v1l-2 5-3 4-5 1m15 33h1l4-1 1-2 2-3v-7l-2-3-1-2-4-1h-3l-3 1-5 3-17 17v-23m27 54h1l4-1 1-2 2-3v-7l-2-3-1-2-4-1h-3l-3 1-5 3-17 17v-23m-194-68v16l-15 2 2-2 1-5v-5l-1-5-4-3-5-2h-3l-5 2-3 3-2 5v5l2 5 2 2 3 1m20 32h1l4-2 1-1 2-4v-6l-2-4-1-1-4-2h-3l-3 2-5 3-17 16v-23m27 55h1l4-2 1-1 2-4v-6l-2-4-1-1-4-2h-3l-3 2-5 3-17 17v-24m-135-62h-35m35 0-23 17v-25m15 56h1l3-1 2-2 2-3v-7l-2-3-2-2-3-1h-3l-3 1-5 3-17 17v-23m27 54h1l3-1 2-2 2-3v-7l-2-3-2-2-3-1h-3l-3 1-5 4-17 16v-23m-156-49v-18l-13 10v-5l-2-4-1-1-5-2h-4l-5 2-3 3-2 5v5l2 5 2 2 3 1m20 32h2l3-2 2-2 1-3v-7l-1-3-2-2-3-1h-4l-3 1-5 4-17 16v-23m27 55h2l3-2 2-2 1-3v-7l-1-3-2-2-3-1h-4l-3 1-5 4-17 16v-23m-258-42h1l4-1 1-2 2-3v-7l-2-3-1-2-4-1h-3l-3 1-5 3-17 17v-23m27 54h1l4-1 1-2 2-3v-7l-2-3-1-2-4-1h-3l-3 1-5 3-17 17v-23m27 54h1l4-1 1-2 2-3v-7l-2-3-1-2-4-1h-3l-3 1-5 4-17 16v-23m-350-117 2-4 5-5h-35m26 45h2l3-2 2-1 2-4v-6l-2-4-2-1-3-2h-3l-4 2-4 3-17 17v-23m26 54h2l3-2 2-1 2-4v-6l-2-4-2-1-3-2h-3l-4 2-4 3-17 17v-23m2366-408v-16m-12 21 35-13-35-13m4 36-2 2-2-2 2-2 2 2m31 30h-35v-20m0 51v-21m18 21v-13m-18 13h35v-21m67-576v16l-15 2 2-2 2-5v-5l-2-5-3-3-5-1h-4l-5 1-3 3-2 5v5l2 5 2 2 3 2m28 23-1 5-5 3-9 2h-5l-8-2-5-3-2-5v-4l2-5 5-3 8-1h5l9 1 5 3 1 5v4m-8 41h2l3-2 2-1 1-4v-6l-1-4-2-1-3-2h-4l-3 2-5 3-17 17v-23m4 36-2 1-2-1 2-2 2 2m8 31v-16m-12 21 35-13-35-13m35 53v-24m0 12h-35m594 1194h-401m966-2237h-34m34 0-23 17v-25m23 54v-18l-13 10v-5l-2-3-1-2-5-2h-4l-5 2-3 3-1 5v5l1 5 2 2 3 2m20 31h2l3-2 2-1 1-4v-6l-1-4-2-1-3-2h-4l-3 2-5 3-16 17v-23m-995.55-194.01c-15.147 0.2542-29.761-5.585-40.563-16.207s-16.885-25.136-16.885-40.285m0-0.5v-1 1m57-1v2l-57-2zm0 2-57-2v2zm-57 112.5c0-15.149 6.0835-29.664 16.885-40.285 10.802-10.622 25.416-16.461 40.563-16.207m-57.448 55.992v1-1m57-1v2l-57-2zm0 2-57-2v2zm12 0h-12m763 343v-34m35 34v-34m0 420v-35m-35 35v-35m-812 1559v-35m0 35-17-24h25m-38-8-2-1 2-2 1 2-1 1m-33 32h23m-12 0v-35m-18 30-3 3-5 2h-7l-5-2-3-3v-4l2-3 1-2 4-1 10-4 3-1 2-2 1-3v-5l-3-3-5-2h-7l-5 2-3 3m417-367h2l3-2 2-1 2-4v-6l-2-4-2-1-3-2h-3l-4 2-5 3-16 17v-24m35 53v-18l-14 10v-5l-1-3-2-2-5-2h-3l-5 2-4 3-1 5v5l1 5 2 2 3 2m20 31h2l3-2 2-1 2-4v-6l-2-4-2-1-3-2h-3l-4 2-5 3-16 17v-23m-204-300h9m-66 0.5c0-15.149 6.0835-29.664 16.885-40.285 10.802-10.622 25.416-16.461 40.563-16.207m-58.448 55.992v1-1m58-1v2l-58-2zm0 2-58-2v2zm0.4479-57.008c-15.147 0.2542-29.761-5.585-40.563-16.207s-16.885-25.136-16.885-40.285m-1-0.5v-1 1m58-1v2l-58-2zm0 2-58-2v2zm0-1h9m0 161h-19m19-11v-37m-791 37v-23m287 23h-12m-275-23h23v-175m643 353h-46m0 5v-11m46 11v-11m6 11h-58v-11h58m-57.007 11.541c0.2566 18.332-6.846 36.001-19.719 49.055s-30.441 20.403-48.775 20.403m-0.5 0h-1 1m-1-70h2l-2 70zm2 0-2 70h2zm-2 0v-11m195.5 81c-18.334 0-35.902-7.3492-48.775-20.403-12.873-13.054-19.975-30.724-19.719-49.055m67.993 69.459h1-1m-1-70h2l-2 70zm2 0-2 70h2zm-69 0v-11m69 0v11h19m-23-183h45m-256 172v498m246-636v23m-246 126h19m-63-199-139-162m139 0-139 162h139v-162h-139v162m163-40v-6m0-88 12-7m-12 114 12 7m-23-95v-62m11 62v-6m0 81 23 13v77m-23-171 23-13m-34 19h11m-11 69h11m-196 62v-231m11 231v-193m-34 193h23m185 0h-174m0-204h174m-174 11h174m-174-60v49m174-21v21m0 204v-62m-1171 96h46m951-11v-12m-34 12v-23m227 472v-289m12-11h19m-39-172v-43m12 43v-36m-23 59v-12h-174m174 12h-174m197-23h-12m295 710h-316m275-40h-234m1459-3143 3 2 3 3 2 4v6l-2 3-3 4-3 1-5 2h-8l-5-2-4-1-3-4-2-3v-6l2-4 3-3 4-2m26 42h-35m35 0-23 16v-25m23 55v-18l-13 10v-5l-2-4-1-1-5-2h-4l-5 2-3 3-2 5v5l2 5 2 1 3 2m20 31h1l4-1 1-2 2-3v-7l-2-3-1-2-4-1h-3l-3 1-5 4-17 16v-23m-698-611v33m-7-19h-47m0 5v-11m-11 11v-11m-45 0v11m-7-19v33m52-19h-45m103-6v11m7-11h-117m117 11h-117m358-19v33m-8-25v11m-58-5h-44m-8-14v33m8-25v11m44 0v-11m12 11v-11m54 11h-118m118-11h-118m110 6h-46m-1735-2526 1-4 5-5h-34m3 27-2 1-1-1 1-2 2 2m31 33v-23m0 11h-34m29 18 4 4 1 5v6l-1 5-4 3h-3l-3-1-2-2-2-3-3-10-2-3-1-2-4-2h-4l-4 4-1 5v6l1 5 4 3m556 928h2l3-1 2-2 1-3v-7l-1-3-2-2-3-2h-3l-4 2-5 3-16 17v-23m34 46-1 5-5 3-8 2h-5l-9-2-5-3-1-5v-3l1-5 5-4 9-1h5l8 1 5 4 1 5v3m-8 41h2l3-1 2-2 1-3v-7l-1-3-2-2-3-1h-3l-4 1-5 3-16 17v-23m3 36-2 2-1-2 1-1 2 1m8 32v-17m-11 21 34-13-34-13m34 53v-23m0 11h-34m-473-521v-19l-13 10v-5l-2-3-2-2-5-1h-3l-5 1-3 4-2 5v5l2 5 2 1 3 2m28 23-2 5-5 3-8 2h-5l-8-2-5-3-2-5v-3l2-5 5-4 8-1h5l8 1 5 4 2 5v3m-8 41h1l4-1 1-2 2-3v-7l-2-3-1-2-4-2h-3l-3 2-5 3-17 17v-23m302-692h23v-10l-1-3-1-1-3-1h-3l-2 1-1 1-1 3v10m12 24h-17l-3-1-2-2-1-3v-3l1-3 2-2 3-1h17m-83-12-34 12 34 11zm47 12h-47m-17 60v-118m-34 118-28-50 5-10h-23l6-10-27-48m-26 243v-118m21 118v-118m22 118v-118m21 118v-118m21 118v-118m21-38v-87m21 243v-118m21-7v-118m22 243v-118m21 118v-243m0 118h-67l-29-50 6-10h-23l6-10-28-48m206 324h-716m716 69h-716m279-139v23m437-23h-406v23m-310-23h279m31 23h-31m470-23v12m36 11h-57m-759 5294v-337m1009-5257h-58m58 12h-58m52 0v-12m-46 12v-12m52 23v-34m-58 34v-34m52 17h-46m-524 2h-46m-6 15v-33m58 33v-33m-52 24v-12m46 12v-12m6 12h-58m58-12h-58m-1669 5793h33m-33 176h33m-11-176v176m-6-169v49m-6-56v176m0-169h12m-12 161h12m-12-112h12m-12 12h12m-12 41h12m-12 11h12m-6 0v48m0-100v41m1152 195v-33m-117 33v-33m110 26v-11m-102 11v-11m109 11h-117m117-11h-117m64 0v11m-12-11v11m58-5h-46m-12 0h-44m-1054-1044v-58m12 58v-58m0 52h-12m12-46h-12m23 52h-32m32-58h-32m15 52v-46m-6 162v-58m12 58v-58m0 52h-12m12-46h-12m23 52h-32m32-58h-32m15 52v-46m894 997h-58m58-11h-58m52 0v11m-46-11v11m52-32v43m-58-43v43m52-17h-46m905 7v-33m-118 33v-33m110 26v-11m-102 11v-11m110 11h-118m118-11h-118m64 0v11m-12-11v11m58-5h-46m-12 0h-44m-1633-499v-46m18-6h-33m33 58h-33m21-52h-11m11 46h-11m11 6v-58m-11 58v-58m1418 556h-46m-6-26v43m58-43v43m-52-22v11m46-11v11m6-11h-58m58 11h-58m971-15h-46m-6-17v33m58-33v33m-52-22v12m46-12v12m6-12h-58m58 12h-58m-52-6h-46m-6-17v33m58-33v33m-52-22v12m46-12v12m6-12h-58m58 12h-58m-231 9h-58m58-11h-58m52 0v11m-46-11v11m52-32v43m-58-43v43m52-17h-46m-1030-2304h34v-34m-140 45v-46m412 1v45h-4m15-45v57h-435v-58m118 35v-34m2751 2338v-11m-102 11v-11m109 11h-117m117-11h-117m117 19v-33m-117 33v-33m63 14v11m-11-11v11m58-5h-47m-11 0h-44m569 11v-31h96m63-1026v-208m-30 231h-33v1003m33-428h-33m33 176h-33m15-176v176m6-169v49m6-56v176m0-169h-12m12 161h-12m12-112h-12m12 12h-12m12 41h-12m12 11h-12m6 0v48m0-100v41m0-272v41m0 11v48m6-48h-12m12-11h-12m12-41h-12m12-12h-12m12 112h-12m12-161h-12m12-8v177m-6-169v49m-6-57v177m18 0h-33m33-177h-33m-494 660h-502m996-1328h33v325m-1747 1002h-185m-280.5-221c-36.175 0-65.5-29.325-65.5-65.5m65-0.5v65m-66-65v-13m66 13v-13m-158 300v-289m-11.5 68c-36.175 0-65.5-29.325-65.5-65.5m65-0.5v65m-65-65v-13m65 13v-13m-300 300v-289m78 2.5c0 36.175-29.325 65.5-65.5 65.5m-0.5-66v65m0-65v-13m65 13v-13m-354 300v-289m-23 2v-13m-66 13v-13m66 13.5c0 36.175-29.325 65.5-65.5 65.5m-0.5-66v65m170 222v-289m77 2v-13m-66 13v-13m66 13.5c0 36.175-29.325 65.5-65.5 65.5m-0.5-66v65m-404 222v-289m77 2v-13m-66 13v-13m66 13.5c0 36.175-29.325 65.5-65.5 65.5m-0.5-66v65m-208 222v-289m78 2.5c0 36.175-29.325 65.5-65.5 65.5m-0.5-66v65m0-65v-13m65 13v-13m-168.5 77c-36.175 0-65.5-29.325-65.5-65.5m65-0.5v66m-66-64v-13m66 11v-11m11 300v-289m-357.5 7c-36.175 0-65.5-29.325-65.5-65.5m65-0.5h-65m77 276h-12m12-65h-12m0 127h-284m362-126.5c0 36.175-29.325 65.5-65.5 65.5m-0.5-66h65m-65-125v-21h-12m12-65h-12m-3.5-139c-36.175 0-65.5-29.325-65.5-65.5m65-0.5h-66m82 0v-58m0 123h-16m4-77h-284m296 12h-16m62-266h-38m38 214h-38m38-208v-12m-38 12v-12m0 226v-12m38 12v-12m77.5-132c-38.384 0-69.5-31.116-69.5-69.5m69-0.5v69m-69 133.5c0-38.384 31.116-69.5 69.5-69.5m-0.5 69v-69m-69 81h-54m54-12h-486m0-202h486v-12h-54m123 12v-12m-69 226v-12m69 12v-12m-135-248h-289m301 34v-46m140-1885v-237m-152 2168h-289m289 226h-284m434-214h-15m-424-404v-185m0-12v-185m0-11v-312m1861 1922h-185m-12 0h-185m-11 0h-185m-12 0h-184m-12 0h-185m-11 0h-185m1178 0v-289m-11 289v-289m-185 304v-304m-12 304v-304m-185 289v-289m-11 289v-289m-185 289v-289m-12 289v-289m-184 304v-304m-12 304v-304m-185 289v-289m-11 289v-289m-197 289h-381m393 0v-289m-12 289v-289m-243-536h-15m-419 445v-219m0 624v-393m4159-2644v1685m19-566v41m0 12v47m6-47h-12m12-12h-12m12-41h-12m12-11h-12m12 111h-12m12-158h-12m12-8v174m-6-166v47m-6-55v174m20 0h-33m33-174h-33m19-226v41m0 11v47m6-47h-12m12-11h-12m12-41h-12m12-12h-12m12 111h-12m12-158h-12m12-7v173m-6-166v47m-6-54v173m20 0h-33m33-173h-33m33 263v231m0-523v231m54 292h-54m54-523v-62m0 354h-54m54-61h-54m0-1406v23m-216 10h183v23m63-33h-30m0 33h-33m63-33v58m-30-25v387m30 42h-11m0 52h-19m30-387v208m-11 127v52m0 231h-19v-231m54 283h-35m35 62h-54m19-114v52m35 0v62m0 231h-54v-231m54 293h-54m54 292v-61m-711-1373h-655m1342 133h-30m30 176h-30m13-176v176m6-169v49m6-56v176m0-169h-12m12 161h-12m12-112h-12m12 12h-12m12 41h-12m12 11h-12m6 0v48m0-100v41m-19 636h-33m33 173h-33m13-173v173m6-165v46m6-54v173m0-165h-12m12 157h-12m12-111h-12m12 12h-12m12 41h-12m12 12h-12m6 0v46m0-99v41m-267-1056v11m-102-11v11m110-11h-117m117 11h-117m390 27h-193m-80-46v33m-117-33v33m109-20h-28m309 598h-33m33 176h-33m27-176v176m-12-176v176m6-108v41m0 12v48m6 0h-12m12-48h-12m12-12h-12m6-101v49m6 11h-12m12-11h-12m12-49h-12m18-130h-33m87 1317h-35v52h-19v231m54-283v-62m-68 208v41m0 11v47m6-47h-12m12-11h-12m12-41h-12m12-12h-12m12 111h-12m12-158h-12m12-8v174m-6-166v47m-6-55v174m20 0h-33m33-174h-33m-2565-4184v-243m1415 2345h-108m108 178h-108m108 36v-246m0 246h-25m25-246h-84m59 275v-29m-83-2016v-300h-562m539-320h-576m-113 43v-26m-42 27v-27m-436 27h-92m528 0h-393v-27m-43 27v-27m-92 27v-27m-43 0v27h-15m1317 276v-320m-1625 3093v-2794h308m-308 2e3h-216m23 794v-409m0 0h-23m0 0v-385m-1074 1204h-23m40-33v-310m-40 343v-387h23m-99 2393v-202m-32 235v-268m1981 879h-356m-169 0h-361m-169 0h-433m2091 0h-433m2228-1393v-52h-19m50 125v-15h-20v-58h-11m31 73h15v54h-35m20 262h15v-54h-35m20 54v15h-20v58h-30m-154 963h57m-462-31h-901m1363 31v-31h97m-154 50v-19m-278 0h208m54 35v-16h16m-70 16v-35m54 35h-54v-16m-262 16h54v-35m-54 35v-16h-15m0 0v-19h-58m0 0v-31m-500 204v-204m-401 204v-204m435 204v-204m0 204h-34m-717 0v-205m-433 48h-39m-92 0v-38m92 38v-38m39 38v-48m-131 48h-39m131-38h-92m-39 38v-48m-924 10h-92m622 0h-93m0 38h-38m-361 0h-38m568 0v-48m-38 48v-38m-93 38v-38m-38 38v-48m-491 48h-39m169 0v-48m-38 48v-38m-593-43v-72m1161 153h-38m-622 0v-38m-39 38v-48m-433 31v-31m-41-8h-284m325 39h-347v-30h-11m4225 0v-932m-2902 98v224h-18v104h18v23h102v-46l5-12h156v-199h-115v-94h-148m506 351v-225h-204v225h204m576-1834v238l-12-238zm0 238-12-238v240zm-164-3v-235h-152v-29h-114v184h68l46 104 152-24" clip-path="url(#clipPath366751)" fill="none" stroke="#000" stroke-linecap="round" stroke-linejoin="round" stroke-miterlimit="10" stroke-width="2"/>
</svg>
