<?xml version="1.0" encoding="UTF-8"?>
<!-- Created with Inkscape (http://www.inkscape.org/) -->
<svg width="1632" height="1056" version="1.1" viewBox="0 0 1632 1056" xmlns="http://www.w3.org/2000/svg">
 <defs>
  <clipPath id="clipPath49769">
   <path d="m607 638h5544v8840h-5544v-8840"/>
  </clipPath>
 </defs>
 <path id="map" transform="matrix(0 -.16 -.16 0 1594.7 1037.3)" d="m4623 7618h-138m-9-957v-69m0 121v69m-322-780h-69m-4-7v14m4-14v14m168-7h-69m-314 309v-35h-38v35h38m-3 383v-34h-38v34h38m730.36 829.36c13.034-13.034 30.711-20.356 49.144-20.356m-0.5 69-49-49m-1179-3947-29 19m29 0-29-19m29 44v-15l-11 8v-4l-2-3-1-1-4-2h-3l-4 2-3 3-1 4v4l1 4 2 1 2 2m24 19-2 4-4 3-7 1h-4l-7-1-4-3-1-4v-3l1-4 4-3 7-1h4l7 1 4 3 2 4v3m0 33v-15l-11 8v-4l-2-3-1-1-4-2h-3l-4 2-3 3-1 4v4l1 4 2 1 2 2m76.5-89c-33.966 0-61.5-27.534-61.5-61.5m61-0.5h-62m87.5-74c-38.384 0-69.5-31.116-69.5-69.5m69-0.5h-70m70.5 397c-38.384 0-69.5-31.116-69.5-69.5m69-0.5h-70m1175 2515-23 15m23 0-23-15m17 36h1l4-2 1-2v-5l-1-2-4-2h-2l-2 1-3 2-11 11v-15m23 26h-23m23 0-16 11v-16m16 36v-12l-9 7v-4l-1-2-1-1-4-1h-2l-3 1-2 2-1 3v4l1 3 1 1 2 1m42 20h9m-9 65h9m-8.5 1c-36.175 0-65.5-29.325-65.5-65.5m65-0.5h-65m65 87h23m-14-22v13h14m-14-92v14m-9 65v22m0-101v14m-1356 229-23-5 23-6-23-5 23-6m0 39-1 2-2 2-3 1-3 2h-5l-6-3-2-2-1-2v-4l1-3 2-2 2-1 4-1h5l6 2 2 2 1 3v4m0 24h-23v-13m0 34v-14m12 14v-9m-12 9h23v-14m-11 27-1-3-1-1-3-1h-3l-2 1-1 1-1 3v10h23v-10l-1-3-1-1-3-1h-2l-2 1-1 1-1 3v10m11 42-1 2-2 2-3 1-3 2h-5l-6-3-2-2-1-2v-4l1-3 2-2 2-1 4-1h5l6 2 2 2 1 3v4m0 26v-15m0 8h-23m0 51h23l-23-15h23m-23 36v-14m12 14v-8m-12 8h23v-14m-23 37h23v-9l-1-4-1-1-3-1h-3l-2 1-1 1-1 4v9m12 19-1 2-2 3-6 2h-5l-4-1-2-1-2-3-1-2v-4l1-2 2-3 2-1 4-1h5l6 2 2 3 1 2v4m-1163 493 10-13m0 23-15-15m0 15v-23m-19 23v-23h13m-33 8h11m-14-8 9 23 8-23m-42 23 5-23 6 23 5-23 6 23m-41 0h15m-7 0v-23m-25 8h11m-14-8 9 23 9-23m-22 18-1 2-3 2-2 1h-4l-2-1-3-2-1-2-1-4v-5l1-4 1-2 3-2 2-1h4l2 1 3 2 1 2m115-1167 10-13m0 23-15-15m0 15v-23m-19 23v-23h13m-33 8h11m-14-8 9 23 8-23m-42 23 5-23 6 23 5-23 6 23m-41 0h15m-7 0v-23m-25 8h11m-14-8 9 23 9-23m-22 18-1 2-3 2-2 1h-4l-2-1-3-2-1-2-1-3v-6l1-3 1-2 3-3 2-1h4l2 1 3 3 1 2m702-292h-23v-13m7 33v-11m-7 15 23-9-23-9m17 22 2 1 3 2 1 3v4l-1 2-3 2-2 1-3 2h-6l-3-2-2-1-2-2-1-2v-4l1-3 2-2 2-1m18 24h-23m0 24h23l-23-15h23m-16 35v-11m-7 15 23-9-23-9m12 38v-15m11 0h-23m23 15h-23m17 8 2 1 3 2 1 3v4l-1 2-3 2-2 2-3 1h-6l-3-1-4-4-1-2v-4l1-3 2-2 2-1m-5 36v-14m12 14v-8m-12 8h23v-14m-23 41h23l-23-9 23-9h-23m-84 1132-81 43m81 0-81-43m81-962-82 44m82 0-82-44m1103-45-98 65m98 0-98-65m97 1047-97 54m97 0-97-54m-90-990-804 930m804 52-804-930m177 402-13-10m23 0-16 15m16 0h-23m23 19h-23v-13m7 33v-11m-7 14 23-9-23-9m23 43-23-5 23-6-23-5 23-6m0 41v-15m0 7h-23m7 25v-11m-7 14 23-9-23-9m17 22 3 1 2 3 1 2v4l-1 2-2 3-6 2h-5l-4-1-2-1-2-3-1-2v-4l1-2 2-3 2-1m200-115-13-10m23 0-15 15m15 0h-23m23 19h-23v-13m8 33v-11m-8 14 23-9-23-9m23 43-23-5 23-6-23-5 23-6m0 41v-15m0 7h-23m8 25v-11m-8 14 23-9-23-9m18 22 2 1 2 3 1 2v4l-1 2-2 3-2 1-4 1h-5l-6-2-2-3-1-2v-4l1-2 2-3 3-1m202-115-13-10m23 0-16 15m16 0h-23m23 19h-23v-13m7 33v-11m-7 14 23-9-23-9m23 43-23-5 23-6-23-5 23-6m0 41v-15m0 7h-23m7 25v-11m-7 14 23-9-23-9m17 22 3 1 2 3 1 2v4l-1 2-2 3-6 2h-5l-4-1-2-1-2-3-1-2v-4l1-2 2-3 2-1m441-627h24m-23 1h23m-22 1h22m-22 1136v-97m-1 97v-95m2 95v-98m-9 98v-31m-104 3v-70m1 68v-67m1 66v-64m5 59v-54m-7-8h113m-112 1h111m-110 2h109m-104 5h97m-104 62h104m-103-2h103m-102-1h102m-97-5h97v-54m-104-1054v79m1-78v77m1-76v75m5-70v65m-7 7h112m-111-1h110m-109-1h108m-103-5h98m7-66v66m-1-65v71m-1-72v71m-5-70v65m7-64v71m-112-79h134m-133 1h133m-132 1h132m-127 5h98m37-20v1142m-8 15v-1172m236 985v-34h-38v34h38m-217-1073v1338m-11-1235h3v1142m-3 0h3m-604-1294-1 4-3 1h-2l-2-1-1-3-1-4-1-3-3-2-2-2h-3l-3 3-1 3v4l1 4 1 1 2 1h3l2-1 3-2 2-8 1-2 2-1h2l3 1 1 3v4m0 17h-23m23 0-16 11v-17m16 37v-12l-9 6v-3l-1-2-1-1-4-2h-2l-3 2-2 2-1 3v3l1 4 1 1 2 1m26 1423-1 3-2 1h-3l-2-1-1-2-2-8-2-2-2-1h-4l-2 1-1 1-1 4v4l1 3 3 3h4l4-4 1-3 1-4 1-3 2-1h3l2 1 1 4v4m0 17h-23m23 0-15 11v-17m15 36v-12l-9 7v-3l-1-3-1-1-3-1h-3l-3 1-2 2-1 4v3l1 3 3 3m-533-271v-80m1 80v-79m2 79v-78m4 78v-73m447-1237v4h1v4h-1v5h-4v-1 1h3v-6h1v-3h-1v-3h-3v-1h4m69 0v4h-1v4h1v5h4v-1 1h-4v-6h-1v-3h1v-3h4v-1h-4m-69 0h3v-69h-3v69m0.5232-68.759c36.944 2.9568 66.279 32.292 69.236 69.236m-71.759 10.523h-8m8-10v11h-8m0-8h8m-8-1h8m-8-2h8m175 10h-102m102 1h-102m0-8h102m-102-1h102m-102 9v-11h102m-531 325h-97m95-1h-94m93-2h-91m86-4h-82m90-51v58m-2-57v56m-1-55v53m-5-48v44m-89-72v79h12m-11-79v78m2-78v76m94-55h-90v-21 72m88-50h-88m87 1h-87m82 5h-82m-7-28h7m612 1446v4h-1v3h1v5h3v-1 1h-3v-5h-1v-3h1v-4h3v1-1h-3m-70 0v4h1v3h-1v5h-4v-1h1v1h3v-5h1v-3h-1v-4h-3v1h-1v-1h4m70 0h-4v-69h4v69m-68.759 0.4768c2.9567-36.944 32.292-66.279 69.236-69.236m0.5232 78.759h8m-8-9v10h8m0-8h-8m8-1h-8m8-1h-8m-175 9h102m-102 1h102m0-8h-102m102-1h-102m102 9v-10h-102m-117-1483v7m2-8v10h-58m56-2h-56m56-7h-56m58-1h-58m-175 1020h-96m94 1h-93m92 1h-90m85 5h-81m89 51v-58m-2 56v-55m-1 54v-53m-5 48v-43m-61-7h12m57 58h-89m87-2h-87m86-1h-86m81-5h-81m-8-1033h12m320 1106v-7m1 8v-9h-57m56 1h-56m56 7h-56m57 1h-57m-158-138v-877h188v-52h616v982h-616v-52h-188v-1m204 53v-982m-56 930v-878m443 930v-982m-194 982v-982m-56 982v-982m194 982v-982m-366 1306h-23m23 0-15 11v-16m15 25v11l-10 1 1-1 1-3v-3l-1-4-2-2-3-1h-3l-3 1-2 2-1 4v3l1 3 1 1 2 1m19 20v-12l-9 7v-4l-1-2-1-1-3-1h-3l-3 1-2 2-1 4v3l1 3 1 1 2 1m23-201h23l-23-9 23-8h-23m12 33-12-8m0 15h23v-10l-1-3-1-1-2-1h-2l-2 1-1 1-2 3v10m0 25v-16m11 0h-23m23 16h-23m20 7 2 2 1 4v4l-1 3-2 3h-2l-2-1-5-10-1-3-1-1-2-1h-3l-3 2-1 4v4l1 3 3 3m19 27-23-5 23-6-23-5 23-6m-240 5h23l-23-16h23m-23 37v-15m12 15v-9m-12 9h23v-15m-23 41h23l-23-9 23-8h-23m687-1502h23l-23-15h23m-23 36v-14m12 14v-9m-12 9h23v-14m-23 40h23l-23-9 23-8h-23m23 36-1 2-3 2-2 1-3 2h-6l-3-2-2-1-2-2-1-2v-4l1-3 2-2 2-1 3-1h6l3 1 2 1 3 2 1 3v4m0 34-23-5 23-6-23-5 23-6m343 1294-15-23m0 23 15-23m-32 23-3-1-1-2v-2l1-2 2-2 8-2 2-2 1-2v-3l-1-3-1-1-4-1h-4l-3 1-1 1-1 3v3l1 2 2 2 3 1 5 1 2 2 1 2v2l-1 2-4 1h-4m-16 0v-23m0 23-11-15h16m-36 15h12l-7-9h4l2-1 1-1 1-3v-2l-1-4-2-2-4-1h-3l-3 1-1 1-1 3m-1910-285-23 15m23 0-23-15m23 35v-12l-9 7v-4l-1-2-1-1-4-1h-2l-3 1-2 2-1 3v4l1 3 1 1 2 1m13 21h1l4-2 1-2v-5l-1-2-4-2h-2l-2 1-3 2-11 11v-15m23 35v-12l-9 7v-4l-1-2-1-1-4-1h-2l-3 1-2 2-1 3v4l1 3 1 1 2 1m1332-3460v-21m18 21v-13m-18 13h35v-21m-35 49 35-16v23m0 23-2 5-5 3-8 2h-5l-8-2-5-3-2-5v-3l2-5 5-4 8-1h5l8 1 5 4 2 5v3m0 40v-19l-13 10v-5l-2-3-2-2-4-1h-4l-5 1-3 4-2 5v5l2 5 2 1 3 2m123-989h35v-11l-2-5-3-4-4-1-5-2h-8l-5 2-3 1-3 4-2 5v11m0 28 35-16v23m0 23-2 5-5 3-8 2h-5l-8-2-5-3-2-5v-3l2-5 5-4 8-1h5l8 1 5 4 2 5v3m0 40v-19l-14 10v-5l-1-3-2-2-5-1h-3l-5 1-3 4-2 5v5l2 5 1 1 4 2m-231-129 4 2 3 3 2 3v7l-2 3-3 4-4 1-5 2h-8l-5-2-3-1-3-4-2-3v-7l2-3 3-3 3-2m-8 51 35-16v23m0 23-2 5-5 3-8 2h-5l-9-2-4-3-2-5v-3l2-5 4-3 9-2h5l8 2 5 3 2 5v3m0 40v-18l-14 9v-4l-1-4-2-1-5-2h-3l-5 2-3 3-2 5v5l2 5 1 1 3 2m-241-111-2-5-2-1-3-2h-5l-3 2-2 1-1 5v15m0 0h34v-15l-1-5-2-1-3-2h-4l-3 2-2 1-1 5v15m-18 28 34-16v23m0 23-1 5-5 3-9 2h-5l-8-2-5-3-1-5v-3l1-5 5-4 8-1h5l9 1 5 4 1 5v3m0 40v-19l-13 10v-5l-2-3-1-2-5-1h-4l-5 1-3 4-1 5v5l1 5 2 1 3 2m12 790v-16m-11 21 34-13-34-13m0 50 34-17v23m0 23-1 5-5 3-9 2h-5l-8-2-5-3-1-5v-3l1-5 5-3 8-2h5l9 2 5 3 1 5v3m0 40v-18l-13 10v-5l-2-4-1-1-5-2h-4l-4 2-4 3-1 5v5l1 5 2 1 3 2m373-900h10m-10-108h10m-5 108v-108m-237 108v-108m-4 0h9m-9 108h9m-25 95h168m-168-10h16m221 10h40m-40-10h15m95 10h142m-212-10h-15m139 5h-50m104 0h-50m50-5v10m-50-10v10m-4-10v10m-50-10v10m-72.5-79c18.334 0 35.902 7.3492 48.775 20.403 12.873 13.054 19.975 30.724 19.719 49.055m-68.993-69.459h-1 1m1 69h-2l2-69zm-2 0 2-69h-2zm70 0v10m-70-10v10m-40-10v10m-69-10v10m0.01-9.5412c-0.2566-18.332 6.846-36.001 19.719-49.055 12.869-13.054 30.438-20.403 48.771-20.403m-0.5 0h1-1m1 69h-2l2-69zm-2 0 2-69h-2zm-71 0v10m-50-10v10m-4-10v10m-50-10v10m0-5h50m4 0h50m-287 0h50m-104 0h50m-50-5v10m50-10v10m4-10v10m50-10v10m4.0067-9.5412c-0.2566-18.332 6.846-36.001 19.719-49.055s30.441-20.403 48.775-20.403m-0.5 0h1-1m1 69h-2l2-69zm-2 0 2-69h-2zm-67 0v10m69-10v10m252-287v277m10-277v277m-237-277h227m237 0h-227m-237 277h143m321 0h-142m-574 10h158m-158-10h158m-158 608v-598m0-287v277m252-277v277m-252-277h243v277m-85 608h-158m158 10h-158m227 0v-10m-69 10v-10m68.5 80c-18.334 0-35.902-7.3492-48.775-20.403-12.873-13.054-19.975-30.724-19.719-49.055m67.993 68.459h1-1m-1-69h2l-2 69zm2 0-2 69h2zm-73 0v-10m-50 10v-10m-4 10v-10m-50 10v-10m0 5h50m4 0h50m93-8v-52m-4 0h9m0 52h-9m67-61h50m-104 0h50m-50 5v-10m50 10v-10m4 10v-10m50 10v-10m72.5 80c-18.334 0-35.902-7.3492-48.775-20.403-12.873-13.054-19.975-30.724-19.719-49.055m67.993 68.459h1-1m-1-69h2l-2 69zm2 0-2 69h2zm-69 0v-10m69 0v10h19m-19-10h29m-219 69h-16m16 10h-16m16-79v69m0 287v-277m473 277h-464v-346m-9 346h-243v-277m716 0h-264m264-10h-254m254 203v-193m0-150v140m-254-69v69m-10-59v69m-209-79h121m-112 10h112m363-81v-66m-10 66v-66m0 474v-65m10 65v-65m1-414h-12m12 77h-12m12 331h-12m12 77h-12m-391 331h23l-23-9 23-9h-23m23 37-1 2-2 2-2 1-4 1h-5l-4-1-2-1-2-2-1-2v-5l1-2 2-2 2-1 4-1h5l4 1 2 1 2 2 1 2v5m0 24-1 2-2 2-2 1-4 1h-5l-4-1-2-1-2-2-1-2v-5l1-2 2-2 2-1 4-1h5l4 1 2 1 2 2 1 2v5m-11 21-12-8m0 15h23v-9l-1-4-1-1-2-1h-3l-2 1-1 1-1 4v9m8 8 2 2 1 4v4l-1 3-2 3h-2l-3-2-1-1-1-2-3-9-1-1-2-1h-4l-2 2-1 4v4l1 3 2 3m17 6 2 2 1 4v4l-1 3-2 3h-2l-3-2-1-1-1-2-3-9-1-1-2-1h-4l-2 2-1 4v4l1 3 2 3m5 18v-11m-8 15 23-9-23-9m23 33h-23v-13m18 21 2 1 2 2 1 2v5l-1 2-2 2-2 1-4 1h-5l-4-1-2-1-2-2-1-2v-5l1-2 2-2 2-1m932-1847h23l-23-9 23-9h-23m23 37-1 2-2 2-2 1-3 1h-6l-6-2-2-2-1-2v-5l1-2 2-2 3-1 3-2h6l3 2 2 1 2 2 1 2v5m0 24-1 2-2 2-2 1-3 1h-6l-6-2-2-2-1-2v-5l1-2 2-2 6-2h6l3 1 2 1 2 2 1 2v5m-11 21-12-8m0 15h23v-10l-1-3-1-1-2-1h-2l-4 2-1 3v10m8 8 2 2 1 4v4l-1 3-2 2h-2l-2-1-3-3-2-7-1-2-1-1-2-1h-4l-2 2-1 4v4l1 3 2 2m17 7 2 2 1 4v4l-1 3-2 2h-2l-2-1-3-3-2-7-1-2-1-1-2-1h-4l-2 2-1 4v4l1 3 2 2m5 19v-11m-8 14 23-8-23-9m23 33h-23v-13m18 21 2 1 2 2 1 2v4l-1 3-2 2-2 1-3 1h-6l-6-2-2-2-1-3v-4l1-2 2-2 3-1m-6 566h23l-23-9 23-8h-23m23 36-1 2-2 2-2 1-3 2h-6l-3-2-3-1-2-2-1-2v-4l1-3 2-2 6-2h6l3 1 2 1 2 2 1 3v4m0 24-1 2-2 3-2 1-3 1h-6l-6-2-2-3-1-2v-4l1-2 2-3 6-2h6l3 1 2 1 2 3 1 2v4m-11 21-12-8m0 16h23v-10l-1-3-1-2-2-1h-2l-2 1-2 2-1 3v10m8 7 2 3 1 3v4l-1 4-2 2h-2l-2-1-1-1-2-3-2-6-1-2-3-3h-4l-2 3-1 3v4l1 4 2 2m17 6 2 3 1 3v4l-1 4-2 2h-2l-2-1-1-1-2-3-2-6-1-2-3-3h-4l-2 3-1 3v4l1 4 2 2m5 19v-11m-8 14 23-9-23-9m23 33h-23v-13m18 21 2 1 2 2 1 2v5l-1 2-2 2-2 1-3 1h-6l-6-2-2-2-1-2v-5l1-2 2-2 3-1m313 3262h23l-23-9 23-9h-23m23 36-1 3-2 2-2 1-4 1h-5l-6-2-2-2-1-3v-4l1-2 2-2 3-1 3-2h5l6 3 2 2 1 2v4m0 25-1 2-2 2-2 1-4 1h-5l-6-2-2-2-1-2v-5l1-2 2-2 6-2h5l4 1 2 1 2 2 1 2v5m-11 21-12-8m0 15h23v-10l-1-3-1-1-2-1h-2l-3 1-1 1-1 3v10m-12 50h23l-23-9 23-9h-23m8 38v-11m-8 14 23-9-23-9m23 22-23 16m23 0-23-16m0 36v-15m12 15v-9m-12 9h23v-15m898-1097h23l-23-9 23-9h-23m23 36-1 3-2 2-2 1-3 1h-6l-3-1-2-1-3-2-1-3v-4l1-2 3-2 2-1 3-2h6l3 2 2 1 2 2 1 2v4m0 25-1 2-2 2-2 1-3 1h-6l-3-1-2-1-3-2-1-2v-5l1-2 3-2 2-1 3-1h6l3 1 2 1 2 2 1 2v5m-11 21-12-8m0 15h23v-10l-1-3-1-1-2-1h-2l-4 2-1 3v10m8 8 2 2 1 3v5l-1 3-2 2h-2l-2-1-3-3-2-7-1-2-1-1-2-1h-3l-3 2-1 3v5l1 3 3 2m16 7 2 2 1 3v5l-1 3-2 2h-2l-2-1-3-3-2-7-1-2-1-1-2-1h-3l-3 2-1 3v5l1 3 3 2m4 19v-11m-8 14 23-8-23-9m23 33h-23v-13m18 20 4 4 1 2v4l-1 3-2 2-2 1-3 1h-6l-3-1-2-1-3-2-1-3v-4l1-2 3-2 2-2m-6 462h23l-23-9 23-8h-23m23 36-1 2-2 2-2 1-3 2h-6l-3-2-2-1-3-2-1-2v-4l1-3 3-2 2-1 3-1h6l3 1 2 1 2 2 1 3v4m0 24-1 2-2 3-2 1-3 1h-6l-3-1-2-1-3-3-1-2v-4l1-2 3-3 2-1 3-1h6l3 1 2 1 2 3 1 2v4m-11 21-12-8m0 16h23v-10l-1-3-1-2-2-1h-2l-2 1-2 2-1 3v10m8 7 2 3 1 3v4l-1 4-2 2h-2l-2-1-1-1-2-3-2-6-1-2-3-3h-3l-3 3-1 3v4l1 4 3 2m16 6 2 3 1 3v4l-1 4-2 2h-2l-2-1-1-1-2-3-2-6-1-2-3-3h-3l-3 3-1 3v4l1 4 3 2m4 19v-11m-8 14 23-9-23-9m23 33h-23v-13m18 21 2 1 2 2 1 2v5l-1 2-2 2-2 1-3 1h-6l-3-1-2-1-3-2-1-2v-5l1-2 3-2 2-1m-6 772h23l-23-9 23-9h-23m23 37-1 2-2 2-2 1-3 1h-6l-3-1-2-1-3-2-1-2v-5l1-2 3-2 2-1 3-1h6l3 1 2 1 2 2 1 2v5m0 24-1 2-2 2-2 1-3 1h-6l-3-1-2-1-3-2-1-2v-5l1-2 3-2 2-1 3-1h6l3 1 2 1 2 2 1 2v5m-11 21-12-8m0 15h23v-10l-1-3-1-1-2-1h-2l-4 2-1 3v10m8 8 2 2 1 4v4l-1 3-2 2h-2l-2-1-3-3-2-7-1-2-1-1-2-1h-3l-3 2-1 4v4l1 3 3 2m16 7 2 2 1 4v4l-1 3-2 2h-2l-2-1-3-3-2-7-1-2-1-1-2-1h-3l-3 2-1 4v4l1 3 3 2m4 19v-11m-8 15 23-9-23-9m23 33h-23v-13m18 21 2 1 2 2 1 2v5l-1 2-2 2-2 1-3 1h-6l-3-1-2-1-3-2-1-2v-5l1-2 3-2 2-1m-951-2168 1-4 5-5h-34m14 55v-30m-3 60v-17m-11 22 34-14-34-13m-1784 1295-23-5 23-6-23-5 23-6m0 39-1 2-2 2-2 1-4 1h-5l-4-1-2-1-2-2-1-2v-5l1-2 2-2 2-1 4-1h5l4 1 2 1 2 2 1 2v5m0 24h-23v-13m0 34v-14m12 14v-9m-12 9h23v-14m-11 27-1-3-1-1-2-1h-4l-2 1-1 1-1 3v10h23v-10l-1-3-1-1-2-1h-3l-2 1-1 1-1 3v10m11 42-1 2-2 2-2 1-4 1h-5l-4-1-2-1-2-2-1-2v-5l1-2 2-2 2-1 4-1h5l4 1 2 1 2 2 1 2v5m0 26v-15m0 8h-23m0 51h23l-23-15h23m-23 36v-14m12 14v-9m-12 9h23v-14m-23 37h23v-10l-1-3-1-1-2-1h-4l-2 1-1 1-1 3v10m12 19-1 2-4 4-4 1h-5l-4-1-4-4-1-2v-4l1-3 2-2 2-1 4-1h5l4 1 2 1 2 2 1 3v4m-493-759h23l-23-16h23m-23 39h23v-8l-1-3-2-2-3-2-3-1h-5l-4 1-4 4-1 3v8m27 6-35 20m8 21h23v-10l-1-3-1-1-2-1h-4l-2 1-1 1-1 3v10m12 24h-17l-3-1-2-2-1-3v-3l1-3 2-2 3-1h17m-22 1093h23l-23-16h23m-23 39h23v-8l-1-3-2-3-2-1-4-1h-5l-6 2-2 3-1 3v8m28 6-36 20m8 21h23v-10l-1-3-1-1-2-1h-4l-2 1-1 1-1 3v10m12 24h-16l-4-1-2-2-1-3v-3l1-3 2-2 4-1h16m2714-1332h-434v-14h439m-578 14v-14m138.5 84c-18.334 0-35.902-7.3492-48.775-20.403-12.873-13.054-19.975-30.724-19.719-49.055m67.993 69.459h1-1m-1-70h2l-2 70zm2 0-2 70h2zm-69.007 0.5412c0.2566 18.332-6.846 36.001-19.719 49.055s-30.441 20.403-48.775 20.403m-0.5 0h-1 1m-1-70h2l-2 70zm2 0-2 70h2zm588-26v609m-12-609v12m-315 0v14m-4-14v14m26-14v14m4-14v14m73-14v14m-4-14v14m215 0v583m-596-597h23m573 666v52m0 634h-243v16h248m-314-16v16m1.5-80c17.273 0 33.824 6.9278 45.946 19.232 12.122 12.304 18.804 28.956 18.547 46.227m-64.993-66.458h-1 1m1 65h-2l2-65zm-2 0 2-65h-2zm-113 97v162m-12-162v162m12-228h-12m12 66h-12m77-64.5c0 17.273-6.9278 33.824-19.232 45.946-12.304 12.122-28.956 18.804-46.227 18.547m65.458-64.993v-1 1m-65 1v-2l65 2zm0-2 65 2v-2zm427.46 65.993c-17.271 0.2567-33.923-6.4244-46.227-18.547-12.304-12.122-19.232-28.673-19.232-45.946m0-0.5v-1 1m65-1v2l-65-2zm0 2-65-2v2zm0 64h12m-12-66h12m-12 66v162m12-162v174m-541-190v-16m-12 21 35-13-35-13m30 34 3 2 2 5v3l-2 5-5 4-8 1h-8l-7-1-3-4-2-5v-1l2-5 3-4 5-1h2l4 1 4 4 1 5v1l-1 5-4 4-4 1m23 15v17l-15 1 1-1 2-5v-5l-2-5-3-4-5-1h-3l-5 1-3 4-2 5v5l2 5 1 1 4 2m28 30v-19l-14 10v-5l-1-3-2-2-5-1h-3l-5 1-3 4-2 5v5l2 5 1 1 4 2m328-88 4 2 1 5v3l-1 5-5 4-8 1h-9l-6-1-4-4-1-5v-1l1-5 4-4 5-1h1l5 1 4 4 1 5v1l-1 5-4 4-5 1m23 15v17l-14 1 1-1 2-5v-5l-2-5-3-4-5-1h-3l-5 1-4 4-1 5v5l1 5 2 1 3 2m28 30v-19l-13 10v-5l-1-3-2-2-5-1h-3l-5 1-4 4-1 5v5l1 5 2 1 3 2m-210 77h-123m248-243h-113v15m-12-15v15m439-15v15m-601-15h162m-2384-184v33m11-104v-227m-11 227v13h9m0-4h14m-12-9h22m-24 13v-4m14 62h-23v6-6m33 10h-22m-68-10.5c0-15.149 6.0836-29.664 16.885-40.285 10.802-10.622 25.416-16.461 40.563-16.207m-58.448 55.992v1-1m58-1v2l-58-2zm0 2-58-2v2zm23-62v62m10-71v81m764-987-786 1033m786 0-786-1033m786 0h-786m786 1033h-786m155-1915v-18l-13 10v-5l-2-4-2-1-5-2h-3l-5 2-3 3-2 5v5l2 5 1 2 4 1m21 28 2-3 5-5h-35m35 43v-18l-13 10v-5l-2-4-2-1-5-2h-3l-5 2-3 3-2 5v5l2 5 1 2 4 1m2413-149v-89m-15 89v-73m15.541 73.007c18.332-0.2566 36.001 6.846 49.055 19.719s20.403 30.441 20.403 48.775m0-0.5v1-1m-70 1v-2l70 2zm0-2 70 2v-2zm-84 1.5c0-18.334 7.3492-35.902 20.403-48.775 13.054-12.873 30.724-19.975 49.055-19.719m-69.459 67.993v1-1m69-1v2l-69-2zm0 2-69-2v2zm0 0h15m-15-69h15m-285 142h270v-73m-285 89h300v-89m-285 73v-215h270m-285 231v-247h300m284 197v154m-18-154v239m0-309h18m-18 70h18m-17.541-0.01c-18.332 0.2566-36.001-6.846-49.055-19.719-13.054-12.869-20.403-30.438-20.403-48.771m0-0.5v-1 1m69-1v2l-69-2zm0 2-69-2v2zm-704 40 4 2 1 5v3l-1 5-5 3-9 2h-8l-6-2-4-3-1-5v-1l1-5 4-4 4-1h2l5 1 3 4 2 5v1l-2 5-3 3-5 2m23 18h-34m34 0-23 17v-25m23 54v-18l-13 10v-5l-2-3-1-2-5-1h-4l-4 1-4 4-1 5v5l1 4 2 2 3 2m138-280h589v150m0 309h-539v-22h-50v-437m-21 349v-331m-1391-2088h-11m23-7h-33m16 107v-44m5-11h-11m11 11h-11m11 44h-11m23 8h-33m16-63v-45m5 108v-115m-11 115v-115m-685 5005v33m-183-33v33m67-23h-67m67 12h-67m67-22v33m49-33v33m3433 9v11m8-21v33m-121-17h-47m0-6v11m112-11v11m-12-11v11m-41-11v11m-12-11v11m53-5h-41m-67-16v33m176-12h-176m176-11h-176m168 6h-48m54-3550v33m-1058-631v-262m-969-1564v-117m718 493h-35m35 0-23 16v-24m23 47-1 5-5 4-9 1h-5l-8-1-5-4-2-5v-3l2-5 5-3 8-2h5l9 2 5 3 1 5v3m0 40v-18l-13 10v-5l-2-3-1-2-5-2h-4l-5 2-3 3-2 5v5l2 5 2 2 3 1m28 649v-18l-13 10v-5l-2-4-1-1-5-2h-4l-5 2-3 3-2 5v5l2 5 2 2 3 1m28 23-1 5-5 4-9 1h-5l-8-1-5-4-2-5v-3l2-5 5-3 8-2h5l9 2 5 3 1 5v3m0 40v-18l-13 10v-5l-2-4-1-1-5-2h-4l-5 2-3 3-2 5v5l2 5 2 2 3 1m-38 451-2-5-2-1-3-2h-5l-3 2-2 1-1 5v15m0 0h34v-15l-1-5-2-1-3-2h-4l-3 2-2 1-1 5v15m8 33h2l3-1 2-2 1-3v-7l-1-3-2-2-3-2h-4l-3 2-5 3-16 17v-23m34 46-1 5-5 3-9 2h-5l-8-2-5-3-1-5v-3l1-5 5-4 8-1h5l9 1 5 4 1 5v3m0 40v-19l-13 10v-5l-2-3-1-2-5-1h-4l-5 1-3 4-1 5v5l1 5 2 1 3 2m20 264h2l3-2 2-1 1-4v-6l-1-4-2-1-3-2h-4l-3 2-5 3-16 17v-24m34 47-1 5-5 3-9 2h-5l-8-2-5-3-1-5v-4l1-5 5-3 8-2h5l9 2 5 3 1 5v4m0 39v-18l-13 10v-5l-2-3-1-2-5-2h-4l-5 2-3 3-1 5v5l1 5 2 2 3 2m-226-249h555m-555 11h555m-1248-771 35-17v24m0 23-2 5-5 3-8 2h-5l-8-2-5-3-2-5v-4l2-5 5-3 8-2h5l8 2 5 3 2 5v4m0 39v-18l-14 10v-5l-1-3-2-2-5-2h-3l-5 2-3 3-2 5v5l2 5 1 2 4 2m19-841v17l-15 1 2-1 2-5v-5l-2-5-3-3-5-2h-4l-5 2-3 3-2 5v5l2 5 2 1 3 2m28 23-2 5-4 3-9 2h-5l-8-2-5-3-2-5v-3l2-5 5-3 8-2h5l9 2 4 3 2 5v3m0 40v-18l-13 10v-5l-2-4-1-1-5-2h-4l-5 2-3 3-2 5v5l2 5 2 1 3 2m360 134h-716m1666 3183-5 1-3 4-2 5v1l2 5 3 3 5 2h2l5-2 3-3 2-5v-1l-2-5-3-4-7-1h-8l-9 1-4 4-2 5v3l2 5 3 1m30 15v17l-15 1 1-1 2-5v-5l-2-5-3-3-5-2h-3l-5 2-3 3-2 5v5l2 5 1 1 3 2m29 30v-18l-14 10v-5l-1-4-2-1-5-2h-3l-5 2-3 3-2 5v5l2 5 1 1 3 2m-5 759 35-17v23m0 14v16l-15 2 2-2 2-5v-5l-2-5-3-3-5-2h-4l-5 2-3 3-2 5v5l2 5 2 2 3 1m28 30v-18l-13 10v-5l-2-3-1-2-5-2h-4l-5 2-3 3-2 5v5l2 5 2 2 3 1m180-1350v-17m-12 22 35-13-35-13m35 36v16l-15 2 2-2 1-5v-5l-1-5-4-3-5-1h-3l-5 1-3 3-2 5v5l2 5 1 2 4 2m28 16h-35m35 0-23 17v-25m23 54v-18l-13 10v-5l-2-3-2-2-5-1h-3l-5 1-3 3-2 5v5l2 5 1 2 4 2m705-457-1-5-2-1-3-2h-5l-3 2-2 1-2 5v15m0 0h35v-15l-2-5-1-1-4-2h-3l-3 2-2 1-2 5v15m-109-20 3 1 4 4 1 3v7l-1 3-4 3-3 2-5 1h-8l-5-1-3-2-4-3-1-3v-7l1-3 4-4 3-1m-88 129h-34m34 0-23 16v-25m23 42h-34m34 0-23 16v-25m23 55v-18l-13 10v-5l-1-4-2-1-5-2h-3l-5 2-4 3-1 5v5l1 5 2 1 3 2m-989-574 1-3 5-5h-34m34 36-1 5-5 3-9 2h-5l-8-2-5-3-1-5v-3l1-5 5-3 8-2h5l9 2 5 3 1 5v3m0 40v-18l-13 10v-5l-2-4-1-1-5-2h-4l-5 2-3 3-1 5v5l1 5 2 1 3 2m510 126v17l-15 1 2-1 2-5v-5l-2-5-3-4-5-1h-3l-5 1-4 4-1 5v5l1 5 2 1 3 2m28 16h-34m34 0-23 17v-25m23 55v-19l-13 10v-5l-2-3-1-2-5-1h-3l-5 1-4 4-1 5v5l1 5 2 1 3 2m985 178v-17m-11 22 34-13-34-14m34 40h-34m34 0-23 17v-25m23 41h-34m34 0-23 17v-25m23 54v-18l-13 10v-5l-2-3-1-2-5-1h-4l-5 1-3 3-1 5v5l1 5 2 2 3 2m-496-461 2-3 5-5h-35m15 55v-30m12 41 3 2 3 3 2 3v7l-2 3-3 4-3 1-5 2h-9l-5-2-3-1-3-4-2-3v-7l2-3 3-3 3-2m27 41h-35m35 0-23 17v-25m23 41h-35m35 0-23 17v-25m23 55v-19l-13 10v-5l-2-3-2-2-5-1h-3l-5 1-3 4-2 5v5l2 5 1 1 4 2m472-229 2-3 5-5h-35m15 55v-30m3 49-2-5-1-1-4-2h-5l-3 2-1 1-2 5v15m0 0h35v-15l-2-5-2-1-3-2h-3l-4 2-1 1-2 5v15m17 18h-35m35 0-24 17v-25m24 41h-35m35 0-24 17v-25m24 55v-19l-14 10v-5l-1-3-2-2-5-1h-3l-5 1-3 4-2 5v5l2 5 1 1 3 2m-73 825v-18l-13 10v-5l-2-4-1-1-5-2h-4l-5 2-3 3-2 5v5l2 5 2 2 3 1m28 17h-35m35 0-23 16v-25m23 55v-18l-13 10v-5l-2-4-1-1-5-2h-4l-5 2-3 3-2 5v5l2 5 2 2 3 1m20 556h2l3-1 1-2 2-3v-7l-2-3-1-2-3-2h-4l-3 2-5 3-17 17v-23m35 39h-35m35 0-23 17v-25m23 55v-19l-13 10v-5l-2-3-1-2-5-1h-4l-5 1-3 4-2 5v5l2 5 2 1 3 2m22 874 1-3 5-5h-35m35 30h-35m35 0-23 16v-25m23 55v-18l-13 10v-5l-2-4-1-1-5-2h-4l-5 2-3 3-2 5v5l2 5 2 1 3 2m-498-2303-8-8m-41 57-8-8m105.94 9.9368c-12.964 12.964-30.583 20.19-48.916 20.062-18.333-0.1283-35.85-7.6003-48.631-20.744m97.61-0.2541v-1 1m-50-48 1-2 48 51zm1-2 48 51 1-2zm-66 62v145m362-167h7m121-73h-22m21 15h-23m24 85h-24m23 10h-43m43-110v15m69-15v15m-67.5-84c18.334 0 35.902 7.3492 48.775 20.403 12.873 13.054 19.975 30.724 19.719 49.055m-68.993-70.459h-1 1m1 70h-2l2-70zm-2 0 2-70h-2zm0 100v10m69-10v10m-67.5-79c18.334 0 35.902 7.3492 48.775 20.403 12.873 13.054 19.975 30.724 19.719 49.055m-68.993-69.459h-1 1m1 69h-2l2-69zm-2 0 2-69h-2zm-118-100h-25m25 15h-9m15 95h-8m8-10h-8m2-100v15m70-15v15m-68.993-14.541c-0.2566-18.332 6.846-36.001 19.719-49.055s30.441-20.403 48.775-20.403m-0.5-1h1-1m1 70h-2l2-70zm-2 0 2-70h-2zm-61.993 100.46c-0.2566-18.332 6.846-36.001 19.719-49.055s30.441-20.403 48.775-20.403m-0.5 0h1-1m1 69h-2l2-69zm-2 0 2-69h-2zm-67 0v10m69-10v10m-84-37v-58m219 95v9m-212-9v9m87-19h-11m136 10h-23m23-10h-23m-106-100h-12m16 15h-15m140 0h-23m-92 0v85m-120-27v-73m110 15v85m125 146h-212m222-127h-10m10 69h-10m80-67.5c0 18.334-7.3492 35.902-20.403 48.775-13.054 12.873-30.724 19.975-49.055 19.719m68.459-68.993v-1 1m-69 1v-2l69 2zm0-2 69 2v-2zm-348 1.5c0 18.334-7.3492 35.902-20.403 48.775-13.054 12.873-30.724 19.975-49.055 19.719m68.459-68.993v-1 1m-69 1v-2l69 2zm0-2 69 2v-2zm0 69h-12m12-69h-12m12 69v58m-12-58v251m738-439h-341m308 15h-275m-10 0v85m10-85v104m0 69v58m-10-58v58m-605-651h-389m865 0v405m-384 27-4 4-6-6 4-4-86-86m24 160 15-15-6-6m-9 10 9-10m129 1-146-146v-334m-16 340v-340m162 502-70-70m-63 51-5-5m369 114v59m-11-59v59m11-127h-11m11 68h-11m-197-79v11m12-11v11m295-570v451m-2926 2347h-366m366 220h-366m374 0v-220m-8 220v-220m2552-119-2 5-3 2h-3l-4-2-3-9-2-5-3-4-3-1h-5l-4 1-1 2-2 5v6l2 5 1 2 4 2h5l3-2 3-3 2-5 2-7 1-3 4-2h3l3 2 2 5v6m0 32-2 5-5 3-8 2h-5l-8-2-5-3-2-5v-3l2-5 5-4 8-1h5l8 1 5 4 2 5v3m0 39v-18l-13 10v-5l-2-3-2-2-5-1h-3l-5 1-3 4-2 5v5l3 6 4 2m-4 13-1 2-2-2 2-2 1 2m9 31v-16m-12 21 35-13-35-13m35 53v-23m0 11h-35m35-2169-2 5-5 4-8 1h-5l-8-1-5-4-2-5v-3l2-5 5-3 8-2h5l8 2 5 3 2 5v3m-7 38 2-3 5-5h-35m35 43v-18l-13 10v-5l-2-3-2-2-5-2h-3l-5 2-3 3-2 5v5l2 5 1 2 4 1m-4 14-1 1-2-1 2-2 1 2m9 31v-17m-12 22 35-13-35-14m35 53v-23m0 12h-35m19 1224-5 1-3 4-2 4v2l2 5 3 3 5 2h2l5-2 3-3 1-5v-2l-1-4-3-4-7-1h-8l-9 1-5 4-1 4v4l1 5 4 1m29 25-1 5-5 3-8 2h-5l-9-2-5-3-1-5v-3l1-5 5-3 9-2h5l8 2 5 3 1 5v3m0 40v-18l-13 10v-5l-1-4-2-1-5-2h-3l-5 2-4 3-1 5v5l1 5 2 1 3 2m-3 13-2 2-1-2 1-1 2 1m8 32v-17m-11 22 34-14-34-13m34 53v-23m0 11h-34m-55-1009v-139m-1474-310h89m-89 9h99m-407-9h139m-139 9h243m-308-9v9m65-9v9m-63.5-74c17.273 0 33.824 6.9278 45.946 19.232 12.122 12.304 18.804 28.956 18.547 46.227m-64.993-66.458h-1 1m1 66h-2l2-66zm-2 0 2-66h-2zm373 0v9m-65-9v9m1.5-74c17.273 0 33.824 6.9278 45.946 19.232 12.122 12.304 18.804 28.956 18.547 46.227m-64.993-66.458h-1 1m1 66h-2l2-66zm-2 0 2-66h-2zm164-233h84m-610 233v-233m9 233v-233m249 233v-233m10 233v-233m248 233v-233m10 242v-242m-517 0h249m10 0h248m-248 233h95m-354 0h46m-173 0h118m-118 9h172m-237-9v9m65-9v9m-63.5-74c17.273 0 33.824 6.9278 45.946 19.232 12.122 12.304 18.804 28.956 18.547 46.227m-64.993-66.458h-1 1m1 66h-2l2-66zm-2 0 2-66h-2zm-21 9v-57m-95-185v175h104v58m-104-48h95m9 48h13m-22 9h21m-174-67h47m-46 0v10h46m-112-10v10m1.0071-9.5415c-0.2566-17.271 6.4244-33.923 18.547-46.227 12.122-12.304 28.673-19.232 45.946-19.232m-0.5 0h1-1m1 65h-2l2-65zm-2 0 2-65h-2zm48 0v-175m-289 185h177m-177 346h-239m250-356h166m-177 10v-185m1521-915v122m-11-122v252m0-317h11m-11 65h11m-10.542 0.9929c-17.271 0.2567-33.923-6.4244-46.227-18.547-12.304-12.122-19.232-28.673-19.232-45.946m-1-0.5v-1 1m66-1v2l-66-2zm0 2-66-2v2zm11 315v-11m-11 77h11m-11-66h11m-10.542 65.993c-17.271 0.2567-33.923-6.4244-46.227-18.547-12.304-12.122-19.232-28.673-19.232-45.946m-1-0.5v-1 1m66-1v2l-66-2zm0 2-66-2v2zm-301-1740v308m12-495v11m46-113v90m-46 12h58v-114m-58 102h46m-46 507v-6m-728-314v-381m728 1157v173m0 255v-39h-12v19m12-84h-12m0 96v8m12-220v58m0 9v49m66 105.5c0 17.273-6.9278 33.824-19.232 45.946-12.304 12.122-28.956 18.804-46.227 18.547m64.458-64.993v-1 1m-65 1v-2l65 2zm0-2 65 2v-2zm-728-8h716m-665.5 1830c18.334 0 35.902 7.3492 48.775 20.403 12.873 13.054 19.975 30.724 19.719 49.055m-68.993-70.459h-1 1m1 70h-2l2-70zm-2 0 2-70h-2zm1218-150.54c-0.2566-17.271 6.4244-33.923 18.547-46.227 12.122-12.304 28.673-19.232 45.946-19.232m-0.5 0h1-1m1 65h-2l2-65zm-2 0 2-65h-2zm-127.5-65c17.273 0 33.824 6.9278 45.946 19.232 12.122 12.304 18.804 28.956 18.547 46.227m-64.993-65.458h-1 1m1 65h-2l2-65zm-2 0 2-65h-2zm967.46 1005c-18.332 0.2566-36.001-6.846-49.055-19.719s-20.403-30.441-20.403-48.775m0-0.5v-1 1m69-1v2l-69-2zm0 2-69-2v2zm0.4588-379.01c-18.332 0.2566-36.001-6.846-49.055-19.719s-20.403-30.441-20.403-48.775m0-0.5v-1 1m69-1v2l-69-2zm0 2-69-2v2zm0.4588-466.01c-18.332 0.2566-36.001-6.846-49.055-19.719s-20.403-30.441-20.403-48.775m0-0.5v-1 1m69-1v2l-69-2zm0 2-69-2v2zm-69 420.5c0-18.334 7.3492-35.902 20.403-48.775 13.054-12.873 30.724-19.975 49.055-19.719m-69.459 67.993v1-1m69-1v2l-69-2zm0 2-69-2v2zm12 628v235m-12-235v66m0-135h12m-12 69h12m-100 335v13m-64.5-77c36.175 0 65.5 29.325 65.5 65.5m-66-0.5v-65m79 78v-13m65.5 78c-36.175 0-65.5-29.325-65.5-65.5m65-0.5v65m9 85h12m0 69h-12 12m-81-0.5c0-18.334 7.3492-35.902 20.403-48.775 13.054-12.873 30.724-19.975 49.055-19.719m-69.459 67.993v1-1m69-1v2l-69-2zm0 2-69-2v2zm0 408h12m-12-70h12m104 218v337m-12-337v37m82-104.5c0 18.334-7.3492 35.902-20.403 48.775-13.054 12.873-30.724 19.975-49.055 19.719m68.459-68.993v-1 1m-69 1v-2l69 2zm0-2 69 2v-2zm0 69h-12m12-69h-12m-1887.5-101c15.149 0 29.664 6.0835 40.285 16.885 10.622 10.802 16.461 25.416 16.207 40.563m-56.992-58.448h-1 1m1 57h-2l2-57zm-2 0 2-57h-2zm58 0v12m-58 0v-12h-9m67 12h21m-504-1864v-11m-70 11v-11m69.5 81c-18.334 0-35.902-7.3492-48.775-20.403-12.873-13.054-19.975-30.724-19.719-49.055m67.993 68.459h1-1m-1-69h2l-2 69zm2 0-2 69h2zm-693.01 0.5412c0.2566 18.332-6.846 36.001-19.719 49.055s-30.441 20.403-48.775 20.403m-0.5-1h-1 1m-1-69h2l-2 69zm2 0-2 69h2zm67 0v-11m-69 0v11h-12m12-11h-12m3690 327v762m0 786v439m-2145-5003v208m0 45h58m-58-10h48m-48-252h58m-58 9h48v243m10-252v262m-35-380v35h-35v-35h35m-23-350v15m23 670v35h-35v-35h35m0-670v35h-35v-35h35m-23-25h58m-58 10h48m-25 375h25m-48 10h58m-10-385v375m10-385v395m-58 737h58m-58-9h48m-48-266h48m-48-10h58m-10 10v266m10-276v285m-58 627v-24m23-360h25m-48-10h58m-58 336v-301m23 301v34h-35v-34h35m0-671v35h-35v-35h35m0 335v35h-35v-35h35m35 732h231m11 158v-185m-11 250v12m0-77h11m-11 66h11m-76-0.5c0-17.273 6.9278-33.824 19.232-45.946 12.304-12.122 28.956-18.804 46.227-18.547m-66.458 63.993v1-1m66-1v2l-66-2zm0 2-66-2v2zm-39 113-2 5-5 4-8 1h-5l-8-1-5-4-2-5v-3l2-5 5-3 8-2h5l8 2 5 3 2 5v3m0 33-2 5-5 4-8 1h-5l-8-1-5-4-2-5v-3l2-5 5-3 8-2h5l8 2 5 3 2 5v3m0 40v-18l-13 10v-5l-2-3-2-2-5-2h-3l-5 2-3 3-2 5v5l2 5 2 2 3 1m-60-16v56m0-125v42m-12-43v126m0-125h12m-77-0.5c0-17.273 6.9278-33.824 19.232-45.946 12.304-12.122 28.956-18.804 46.227-18.547m-65.458 63.993v1-1m65-1v2l-65-2zm0 2-65-2v2zm0-66h12m15 191h-27v27h27v-27m112 13h-112m-27-231h-150m289 12v219m0-231h-139v27m139-15h-127v15m1105 1057h12m-12-65h12m-77 65.5c0-36.175 29.325-65.5 65.5-65.5m-0.5 65h-65m77 678v52m0 69v596m-17-596v565m0-640h17m-17 6h17m-17 75h17m-17-6h17m-17-196h17m-17 6h17m-17 75h17m-17-6h17m173-692v89m-12-89v6m12 175v378m-12-378v127m0-308h12m-12-70h12m-12 182h12m-12 69h12m0-535v284m-12-284v284m705-395h-693m693-70h-693m693-69h-693m-12 182h12m-12 68h12m693 1148h-693m693-69h-693m693-70h-693m726 428h-726m726-139h-726m726 70h-726m0 181v338m-12-338v338m0-407h12m-12 488v-11h12v34m-12-1294v216m0 170v351m705-217h-693m726 12h-726m92 1213h-369m970-1987h-693v11m693-23h-693m185-774h-185m0 12v251m693-251v762m-693-936h185v35m11-46v27m-196-27h173m-346 400v93m161-93v36m0 462v72m721-797h-291m291 12h-709m-173-185h-413v-478m-209 1343v-222h-14m23 241v-241m-219 1607v72m159-1424h83m-77-12v12m-6 0v-12h26m-162.5-69c18.334 0 35.902 7.3492 48.775 20.403 12.873 13.054 19.975 30.724 19.719 49.055m-68.993-70.459h-1 1m1 70h-2l2-70zm-2 0 2-70h-2zm-21 0h21m-21 12h21m-6-12v12m6-12v12m70.007-11.541c-0.2566-18.332 6.846-36.001 19.719-49.055s30.441-20.403 48.775-20.403m-0.5-1v0m0 70h-1l1-70zm-1 0 1-70h-1zm38-243v222m-11-233v254m0-863h-185m185 12h-185m820 608h-601m-34-11h647v175m-12-164v164m-820-807h408m-408 11h185m9 459v11m0-21h16m-16 10h66m-75 11v-11m647 23h-676m100 0v-19h-58v19m62-23v23m-66-23v23m0-93v60m16-60v60m-25-60v81h-29m-156 0h27v12h-27m156-12v12m-249 269h-81m93 0v212h69m-162-223v11m81 0v212m93-249v161m-12-162v27m0 11h-69m69-11h-162m-38 223h119m-129-47v47h-8m0-47v47m-9-47v47m27-47v47m-306-28v-31m19 31h-27v27h27v-27m27 28h233m-279-69v-220m36 289v-59h-36m0-10h46v69m460-80v80m-506 0h36m-27-173v-2 2h-9m0-2h9-9m9 2h-9m0 173v-1m69-172h10v-2h-10m-11 0v2m21 0v-2h-10m10 2h-21m9-2h-9m-48.5-50c13.295 0 26.032 5.3483 35.341 14.84 9.3092 9.4921 14.409 22.33 14.15 35.623m-49.991-50.463h-1 1m1 50h-2l2-50zm-2 0 2-50h-2zm61 0v-114m-2 0v114m2-114v114m-2 0v-114m69 114h-8m10 0h10v2h-20m0-2v2m-48.5-52c13.295 0 26.032 5.3483 35.341 14.84 9.3092 9.4921 14.409 22.33 14.15 35.623m-49.991-50.463h-1 1m1 50h-2l2-50zm-2 0 2-50h-2zm58 0v-114m2 0v114m-2-114v114m2 0v-114m137-42v31h-275v-31m275 42h-275m275-42h-275m275 162h12v-162m-12 162v-120m-814-53h344m-344 11h333m-401-11v11m68-11v11m367 331v12m139-12v12m-137.5-81c18.334 0 35.902 7.3492 48.775 20.403 12.873 13.054 19.975 30.724 19.719 49.055m-68.993-69.459h-1 1m1 69h-2l2-69zm-2 0 2-69h-2zm70.007 0.4588c-0.2566-18.332 6.846-36.001 19.719-49.055s30.441-20.403 48.775-20.403m-0.5 0h1-1m1 69h-2l2-69zm-2 0 2-69h-2zm-618-331v368h258m-258 9h258m27 18v-52m-10 21v-31m-8 31v-39m-9 43v-52m17 17h172v-8m-180 0h180m-189-9h189m11 15h23m-196 12h196m139-12h21m-21 12h532m-694-12v-342m-11 327v-316m-162 364h-27v27h27v-27m-289 0h-27v27h27v-27m1995 1488h-427m577-23v35h35v-35h-35m467 227-1 5-5 4-8 1h-5l-9-1-5-4-1-5v-3l1-5 5-3 9-2h5l8 2 5 3 1 5v3m0 27h-34m34 0-23 16v-24m23 54v-18l-13 10v-5l-1-3-2-2-5-2h-3l-5 2-4 3-1 5v5l1 5 2 2 3 1m-312-268h-92m-173 0h-647m924 0v34m-12-34v33m-323 106h-104m104 11h-46m46 1v-12m65 12v-12m1 12.5c0 36.175-29.325 65.5-65.5 65.5m-0.5-66v66m-195 46-2 5-3 2h-4l-3-2-2-3-1-7-2-5-3-3-3-1h-5l-4 1-1 2-2 5v6l2 5 1 2 4 2h5l3-2 3-3 2-5 1-7 2-3 3-2h4l3 2 2 5v6m0 38v-18l-14 10v-5l-1-3-2-2-5-1h-3l-5 1-3 3-2 5v5l2 5 1 2 4 2m28 29v-18l-14 10v-5l-1-3-2-2-5-1h-3l-5 1-3 3-2 5v5l2 5 1 2 4 2m53-199h-250m250 11h-165m231 1v-12m-66 12v-12m66.5 78c-36.175 0-65.5-29.325-65.5-65.5m65-0.5v66m-381-78h-78m78 11h-47m112 1v-12m-65 12v-12m66 12.5c0 36.175-29.325 65.5-65.5 65.5m-0.5-66v66m774-67v289m-786-289v289m404-289v289m-808-788h108m-108 12h115m-115 1v-13m-66 13v-13m66 13.5c0 36.175-29.325 65.5-65.5 65.5m-0.5-66v66m1891 258h-693m92 162h-258m-123 0h-46m427-11h-258m-412 11h-73m73 289h-185m855-289v289m-369-289v289m-12-289v289m-277-289v299m-12-299v299m-269-720h348m-348 14h27m-185 0h20m188 226h-12m35 0h-12m-11-205v205m11-224v224m-219-240h19m177 35v205m62 0h-27v27h27v-27m-245-226v-14m6 14v-14m144 14v-14m-5 14v-14m-69.007 14.541c0.2566 18.332-6.846 36.001-19.719 49.055s-30.441 20.403-48.775 20.403m-0.5-1h-1 1m-1-69h2l-2 69zm2 0-2 69h2zm136.5 70c-18.334 0-35.902-7.3492-48.775-20.403-12.873-13.054-19.975-30.724-19.719-49.055m67.993 68.459h1-1m-1-69h2l-2 69zm2 0-2 69h2zm674-2250v11m161 1961v12m12-251v251m-820 266v257m-220-35v-61m35 96h-35m31-31h-27v27h27v-27m-8-306v74m8 0h-27v27h27v-27m-514-74h11m299 0h15m-27 41v-41m8 41h-27v27h27v-27m0 265h-27v27h27v-27m-283-306h275m-330-12h357m-358 12h21m-183 0h25m138 0v-12m-0.5 82c-18.334 0-35.902-7.3492-48.775-20.403-12.873-13.054-19.975-30.724-19.719-49.055m67.993 68.459h1-1m-1-69h2l-2 69zm2 0-2 69h2zm55 302h-27v27h27v-27m-23-302v302m-206 23h-10m-80 12h22m-87-12h-3m71 0h-3m-65-1v13m65-13v13m-65-12.5c0-36.175 29.325-65.5 65.5-65.5m-0.5 65v-65m-13-188h68m-68-2h68m10-69h25m0 73v252m-25-325v64h25m-35-64v73h35m-189 118v111m112-111h11m-123 0h102m-102-10h123v10m-21 0v134m10-134v134m-128 0h4v-11m-75 11v-21h75m-65 21v-11m81-12h-4m-77 23h4m61-11h-65m61 23v-19h-57v19m-33 0h-10m39-23h65m-73-69v-12m-173-302h-27v27h27v-27m277 61v70m12-62v73m-12-115v23m-31 81h31m-19 11h31m0-73h123m-123-12v-57h-27v27h27v-27m-172 179h12v-118m-12 118v-118m172-4h193m-236 74v242m-269-312v241m0 12v57m0-69h196m-196 12h196m-196-264h300m-300 11h300m399 8v302m-35-302v337m-183-337v337m-11-337v64m-189 9v108m-679-1585-2 5-5 3-8 2h-5l-8-2-5-3-2-5v-3l2-5 5-4 8-1h5l8 1 5 4 2 5v3m0 23v16l-15 2 1-2 2-5v-4l-2-5-3-4-5-1h-3l-5 1-3 4-2 5v4l2 5 1 2 4 2m28 29v-18l-14 10v-5l-1-3-2-2-5-1h-3l-5 1-3 4-2 5v5l3 6 4 2m178 1498v-17m-12 21 35-13-35-13m26 55h2l3-2 2-2 2-3v-7l-2-3-2-2-3-1h-3l-4 1-4 4-17 16v-23m35 36v17l-15 2 1-2 2-5v-5l-2-5-3-3-5-2h-3l-5 2-3 3-2 5v5l2 5 1 2 4 1m28 30v-18l-14 10v-5l-1-4-2-1-5-2h-3l-5 2-3 3-2 5v5l2 5 1 2 4 1m-356-80h1l4-2 1-2 2-3v-7l-2-3-1-2-4-1h-3l-3 1-5 4-17 16v-23m35 36v17l-15 2 2-2 1-5v-5l-1-5-4-3-4-2h-4l-5 2-3 3-2 5v5l2 5 2 2 3 1m28 30v-18l-13 10v-5l-2-4-6-3h-4l-5 2-3 3-2 5v5l2 5 2 2 3 1m-296 217h-46m46 12h-46m35 289v-289m11 0v-12m66 13v-13m0 12.5c0 36.175-29.325 65.5-65.5 65.5m-0.5-66v65m63 40 3 2 2 5v3l-2 5-5 3-8 2h-8l-7-2-3-3-2-5v-2l2-5 3-3 5-2h2l4 2 4 3 1 5v2l-1 5-4 3-4 2m14 33h2l3-2 2-1 2-4v-6l-2-4-2-1-3-2h-3l-4 2-5 3-16 17v-24m35 53v-18l-14 10v-5l-1-3-2-2-5-2h-3l-5 2-3 3-2 5v5l2 5 1 2 4 2m99-193v289h-185m185-289h-73m85 289v-289m716-163h-12v13h58m-123-13v13m0-12.5c0-36.175 29.325-65.5 65.5-65.5m-0.5 65v-65m58-166v-1310m-46 1322h-366m377 219h35m-46 0v-219m11 219v-219m-714-1303-17 6 17 6zm18 6h-18m-21-24v47h-16 16m0-47h-16m37 1205-17 6 17 6zm18 6h-18m-21-23h-16 16v47h-16m0 74v-127m0 254v-115m-11 114v-43m797-83h-786m786 12h-35m35-1348v-283m0 297v-2m-786-12v-260m786 274h-786v-2m786 14h-786m786-14h-786m786-12h-786m1897-687h8m44 0h8m-52 21h52m0-106h-231m0 148h112m-112 21h112m-112 22h112m-112-64h112m-293-1066h48m10-394v404h-58m48-394v384m-487 338h360m127-9v-16h10m-58 16h48m-23 9h23m10-25h-20v-58h20m-10-127v127h10m0 83v-113m-58-106v-22m58 241v-219m-58 9h48m-48-9h58m-110 600h40v4m-40-15h40m12-357v-13m-12 77v293m-747 720h-11m42-8h-27v27h27v-27m-112 8h-11m-314 0h-299m601 0h-275m-407 360v-51m0 783v-331m0 697v-23m0-709v-331m705-406h-624m694 0h92m-460 3h-27v27h27v-27m-476-258v-427m-11 427v-138m11 204h-11m11.542-64.993c17.271-0.2567 33.923 6.4244 46.227 18.547 12.304 12.122 19.232 28.673 19.232 45.946m0-0.5v1-1m-66 1v-2l66 2zm0-2 66 2v-2zm0-64h-11m1452-354v-17m-11 22 35-14-35-13m28 51 2-3 5-5h-35m28 41 2-3 5-5h-35m35 43v-18l-14 10v-5l-1-4-2-1-5-2h-3l-5 2-3 3-2 5v5l2 5 1 2 4 1m-282-115-1-5-2-2-3-1h-5l-4 1-1 2-2 5v15m0 0h35v-15l-2-5-1-2-4-1h-3l-3 1-2 2-2 5v15m10 29 2-3 5-5h-35m28 41 2-3 5-5h-35m35 43v-18l-13 10v-5l-2-4-2-1-5-2h-3l-5 2-3 3-2 5v5l2 5 1 2 4 1m-18 126 4 1 5 5v-34m-42 28 4 1 5 5v-34m-43 34h18l-10-13h5l3-2 2-1 2-5v-4l-2-5-3-3-5-1h-5l-5 1-2 2-1 3m-14-3-1-2 1-1 2 1-2 2m-31 8h16m-21-11 13 34 13-34m-52 34h23m-12 0v-34m611 64v-223m0 400v-166m-40 178h40m-40-12h40m165-104v-11h9m-9 11h9m-84 0h6m-6-11h6m-75 11v-11m69 11v-11m6 11v-11m-84 11h9m-9-11h9m75 11v-11m-6 11v-11m74.5 81c-18.334 0-35.902-7.3492-48.775-20.403-12.873-13.054-19.975-30.724-19.719-49.055m67.993 68.459h1-1m-1-69h2l-2 69zm2 0-2 69h2zm-143.5-80c18.334 0 35.902 7.3492 48.775 20.403 12.873 13.054 19.975 30.724 19.719 49.055m-68.993-70.459v0m1 70h-1l1-70zm-1 0 1-70h-1zm-9-351v-366m-12 367v-47m199 543h-25v-4m-214-551h40m-427 0h360m-116 347h183m-183 11h183m-294 0h47m-47 185h227m-116-185v-11m-65 11v-11m65.993 11.542c0.2567 17.271-6.4244 33.923-18.547 46.227-12.122 12.304-28.673 19.232-45.946 19.232m-0.5 0h-1 1m-1-66h2l-2 66zm2 0-2 66h2zm-14 185v-185m272 197v-431m-139 287v-13m-18 13h35v-22m-7 52 2-4 5-5h-35m28 42 2-4 5-5h-35m35 43v-18l-13 10v-5l-2-3-2-2-5-2h-3l-5 2-3 3-2 5v5l2 5 2 2 3 2m-268-104v-21m18 21v-13m-18 13h34v-21m-6 51 1-3 5-5h-34m28 41 1-3 5-5h-34m34 43v-18l-13 9v-4l-2-4-1-1-5-2h-3l-5 2-4 3-1 5v5l1 5 2 1 3 2m-313-101h35v-11l-1-5-4-4-3-1-5-2h-8l-5 2-4 1-3 4-2 5v11m29 30 1-3 5-5h-35m29 41 1-3 5-5h-35m35 43v-19l-13 10v-5l-2-3-1-2-5-1h-4l-5 1-3 4-2 5v5l2 5 2 1 3 2m-340-96h1l4-1 1-2 2-3v-7l-2-3-1-2-4-1h-3l-3 1-5 4-17 16v-23m28 51 2-3 5-5h-35m35 43v-18l-13 9v-4l-2-4-2-1-5-2h-3l-5 2-3 3-2 5v5l2 5 2 1 3 2m575-134h243m-243 11h185m-296 0h47m-47 185h148m-114 0v-185m77 0v-11m-65 11v-11m65.993 11.542c0.2567 17.271-6.4244 33.923-18.547 46.227-12.122 12.304-28.673 19.232-45.946 19.232m-0.5 0h-1 1m-1-66h2l-2 66zm2 0-2 66h2zm-320 185v-185m-46-146v-15m11 15v-15m0 150v-69m295 80h-183v-11h241m-306 11v-11m65.993 11.542c0.2567 17.271-6.4244 33.923-18.547 46.227-12.122 12.304-28.673 19.232-45.946 19.232m-0.5 0h-1 1m-1-66h1l-1 66zm1 0-1 66h1zm-48-146h-11m11 66h-11m920 265v-7m-294 7v-185m-12 185v-185m-296 185v-185m-12 185v-185m-295-11h47m-47 11h48m-265 185h94m-121-7h-45v7m0 0h45m187 12h978m-979-12h47m-112 0v12m66-12v12m-64.993-11.542c-0.2566-17.271 6.4244-33.923 18.547-46.227 12.122-12.304 28.673-19.232 45.946-19.232m-0.5 0h1-1m1 65h-2l2-65zm-2 0 2-65h-2zm1-242h47m-46-12h46m-35 254v-242m-243-114v-175h278m0 277v-11m11 265h166m-466-254h177m-166 12h166m-121 223h-45m289 19v-185m-11 185v-242m-278 223v-223m-11 242v-254m-393 254v-11h39m115 11v-23m-165-231v-277m50 531h-39m-385-496v242m385 231v-16m-11 51v-50m-93 190v-293m-11 293v-73m0 150h-289m289-77h11m-11 66h11m-76-0.5c0-17.273 6.9278-33.824 19.232-45.946 12.304-12.122 28.956-18.804 46.227-18.547m-66.458 63.993v1-1m66-1v2l-66-2zm0 2-66-2v2zm11 300v-104m-11 170v73m0-150h-289m289-81h-289m289 92h11m-11 66h11m-10.542-0.01c-17.271 0.2567-33.923-6.4244-46.227-18.547-12.304-12.12-19.232-28.67-19.232-45.943m-1-0.5v-1 1m66-1v2l-66-2zm0 2-66-2v2zm-138-637v16l-15 2 2-2 1-5v-5l-1-5-4-3-5-2h-3l-5 2-3 3-2 5v5l2 5 2 2 3 2m21 28 2-4 5-5h-35m35 43v-18l-13 10v-5l-2-3-2-2-5-2h-3l-5 2-3 3-2 5v5l2 5 2 2 3 2m28 581-2 5-3 2h-3l-4-2-1-3-2-7-2-5-3-3-3-2h-5l-3 2-2 2-2 5v6l2 5 2 2 3 1h5l3-1 3-3 2-5 2-7 1-3 4-2h3l3 2 2 5v6m-7 37 2-4 5-5h-35m35 43v-18l-13 10v-5l-2-3-2-2-5-2h-3l-5 2-3 3-2 5v5l2 5 2 2 3 1m166 44v74m-289-663v185m0 393v-185m289-404h-301m301 11h-301m301 185h-289m289 12h-289m289 196h-289m289-11h-289m289 196h-301m301 11h-301m312 1495v-7m3370 309v31h397m-1602-2345v27m-882 1813h-27v27h27v-27m626.5 82c-12.234 0-23.952-4.9264-32.511-13.668-8.5588-8.7413-13.237-20.561-12.979-32.792m44.99 45.46h1-1m0-46h1l-1 46zm1 0-1 46h1zm-46-12h-194m1408 260-5 2-4 3-1 5v2l1 5 4 3 5 2h1l5-2 3-3 2-5v-2l-2-5-3-3-6-2h-9l-8 2-5 3-2 5v4l2 5 3 1m30 32v-19l-13 10v-5l-2-3-1-2-5-1h-4l-5 1-3 4-2 5v5l2 5 2 1 3 2m28 30v-19l-13 10v-5l-2-3-1-2-5-1h-4l-5 1-3 4-2 5v5l2 5 2 1 3 2m-180 103h-277m1259-439h-589m-264-2107h-13m14-9h-14m79 0v9m-66-9v9m1.5-74c17.273 0 33.824 6.9278 45.946 19.232 12.122 12.304 18.804 28.956 18.547 46.227m-64.993-66.458h-1 1m1 66h-2l2-66zm-2 0 2-66h-2zm125 0h-59m59 9h-59m-503-1136h-532m532 12h-555m-2029 1666v-47m-143-298 3 2 2 5v3l-2 5-5 3-8 2h-8l-7-2-3-3-2-5v-2l2-4 3-4 5-1h2l5 1 3 4 2 4v2l-2 5-3 3-5 2m16 30 2-4 5-5h-35m35 43v-18l-13 10v-5l-2-3-2-2-5-1h-3l-5 1-3 4-2 4v5l2 5 2 2 3 2m1895-1055h-12m12-65h-12m78 1.5c0 17.273-6.9278 33.824-19.232 45.946-12.304 12.122-28.956 18.804-46.227 18.547m64.458-64.993v-1 1m-65 1v-2l65 2zm0-2 65 2v-2zm-728 373h262m454 58h12m-12 66h12m-11.542-0.01c-17.271 0.2567-33.923-6.4244-46.227-18.547-12.304-12.12-19.232-28.67-19.232-45.943m0-0.5v-1 1m65-1v2l-65-2zm0 2-65-2v2zm-325-278-1 5-5 3-9 2h-5l-8-2-5-3-1-5v-3l1-5 5-4 8-1h5l9 1 5 4 1 5v3m-6 38 1-3 5-5h-34m34 43v-19l-13 10v-5l-2-3-1-2-5-1h-3l-5 1-4 4-1 5v5l1 5 2 1 3 2m-679 443v-12m66 12v-12m-0.5 78c-17.273 0-33.824-6.9278-45.946-19.232-12.122-12.304-18.804-28.956-18.547-46.227m63.993 64.458h1-1m-1-65h2l-2 65zm2 0-2 65h2zm-66 254h-581m-79-266v12m65-12v12m-64.993-11.542c-0.2566-17.271 6.4244-33.923 18.547-46.227 12.122-12.304 28.673-19.232 45.946-19.232m-0.5 0h1-1m1 65h-2l2-65zm-2 0 2-65h-2zm108 254h-15m73 0h4v-11m-62 11h-15v-11m-66-12h154m-88 12h77m-4 23v-16h-58v16m62-12h-4m-150-254h-15m169 254v-11m-247-231h14m2682 2723h-52m-12-6v12m12-12v12m52-12v12m-116-6h-42m-11-6v12m11-12v12m42-12v12m11-12v12m41-6h-41m113-16v33m-225-23v12m-8-22v33m56-17h-48m225-6h-233m233 12h-233m629-12v12m8-22v33m-68-17h-41m-12-6v12m12-12v12m41-12v12m11-12v12m49-6h-49m-112-6v12m-7-22v33m55-17h-48m169-6h-176m176 12h-176m-1643.5-777c13.295 0 26.032 5.3483 35.341 14.84 9.3092 9.4921 14.409 22.33 14.15 35.623m-49.991-50.463h-1 1m1 50h-2l2-50zm-2 0 2-50h-2zm-234.99 39.463c-0.2588-13.293 4.8407-26.131 14.15-35.623 9.3092-9.4922 22.046-14.84 35.341-14.84m-0.5 0h1-1m1 50h-2l2-50zm-2 0 2-50h-2zm-118.99 0.4633c-0.2588-13.293 4.8407-26.131 14.15-35.623 9.3092-9.4922 22.046-14.84 35.341-14.84m-0.5 0h1-1m1 50h-2l2-50zm-2 0 2-50h-2zm835.5-1531c13.295 0 26.032 5.3483 35.341 14.84 9.3092 9.4921 14.409 22.33 14.15 35.623m-49.991-50.463h-1 1m1 50h-2l2-50zm-2 0 2-50h-2zm-67.5-50c13.295 0 26.032 5.3483 35.341 14.84 9.3092 9.4921 14.409 22.33 14.15 35.623m-49.991-50.463h-1 1m1 50h-2l2-50zm-2 0 2-50h-2zm613 2153v15h27v-15h-27m308-3451h-27v16h27v-16m-308 3156v289m-11-290v486m739-1204v34h35v-34h-35m-65-104v-12m14 12v-12m74 12h-9v-12h9m-161 0h8m-8 12h8m79 0v-12m-14 12v-12m-65 12v-12m65 0h14m-14 12h14m51-282v35h35v-35h-35m0-688v34h35v-34h-35m0 302v35h35v-35h-35m-755 1078h-27v27h27v-27m0-1379h-27v26h27v-26m-2105 2090v12m-117-12v12m8-12v12m49-12v12m7-12v12m53-6h-53m-116-6v12m52-6h-52m176-6h-67m67 12h-67m3712-1234h-31m21 8h-11m11 47h-11m11 12h-11m11 41h-11m11 11h-11m5-52v41m16 66h-31m21-8h-11m5-47v47m-5-166v174m5-166v47m6-55v174m0 0v-174m10-1758v-58h19v-16h15v-54h-34v-207m0-127v58h19v15h15v54h-34m-1545 726h-23m-341-347v-242m0-285v-139m-163 1446v-114m-2 0v114m-68 0h10v2h-10m137-2h-9v2h9m-78-2v2m20 0v-2h-9m9 2h-20m9-2h-9m11-114v114m-2 0v-114m-183 1810 275-325m-275 0 252 302m-58 23v12m46-12v12m-364.01-336.46c0.2566 18.332-6.846 36.001-19.719 49.055s-30.441 20.403-48.775 20.403m-0.5-1h-1 1m-1-69h2l-2 69zm2 0-2 69h2zm-2 0v-12m159 349h322m-619-268v2m-55-2h5m-5 2h5m-248 37h-10v2h22m-71-2v2m59-2v-116m12 116h-10v-116m-71 116h10m71 0v2m49 0v-2h10m-10 2h10m-140 0h10m90 215v12h215m-281-13v13m0.5-78c36.175 0 65.5 29.325 65.5 65.5m-66-0.5v-65m1033 215h-158m223 12h46m-335 0h-46m46 1v-13h-104m170 13v-13m0 13.5c0 36.175-29.325 65.5-65.5 65.5m-0.5-66v66m224-66v-13m65 13v-13m0.5 79c-36.175 0-65.5-29.325-65.5-65.5m65-0.5v66m-932-416v-19l-13 10v-5l-2-3-1-2-5-1h-4l-4 1-4 4-1 5v5l1 5 2 1 3 2m28 13v17l-15 1 2-1 2-5v-5l-2-5-3-3-5-2h-4l-4 2-4 3-1 5v5l1 5 2 1 3 2m28 30v-18l-13 9v-5l-2-3-1-1-5-2h-4l-4 2-4 3-1 5v5l1 5 2 1 3 2m-1143-2102v-35m-11 36v-36m0 35h11m-11 66h11m-10.542-0.01c-17.271 0.2567-33.923-6.4244-46.227-18.547-12.304-12.12-19.232-28.67-19.232-45.943m-1-0.5v-1 1m66-1v2l-66-2zm0 2-66-2v2zm1834 577 35-16v23m0 16h-35m35 0-23 17v-25m23 55v-19l-13 10v-5l-2-3-2-2-5-1h-3l-5 1-3 4-2 5v5l2 5 1 1 4 2m-559-162-5 2-3 3-1 5v2l1 4 3 4 5 1h2l5-1 3-4 2-4v-2l-2-5-3-3-7-2h-8l-8 2-5 3-2 5v3l2 5 3 2m30 18h-35m35 0-23 16v-24m23 54v-18l-13 10v-5l-2-3-2-2-4-2h-4l-5 2-3 3-2 5v5l2 5 2 2 3 1m380-219h530m-4 235h-27v27h27v-27m-8-224h-219m19 257h-27v27h27v-27m200-138v105m-1656-917h-393m2110 2928 12 35 11-35zm12-49v49m91-88h23l-23-16h23m-23 39h23v-8l-1-3-3-2-2-1-3-1h-6l-3 1-2 1-2 2-1 3v8m79 100h-114m114-21h-114m114-21h-114m114-21h-114m-66-59h23v-10l-1-4-4-2h-3l-2 1-1 1-1 4v10m12 24h-17l-3-1-2-2-1-4v-2l1-3 2-2 3-2h17m35 114h-63m63-21h-100m100-21h-113m113-21h-113m235-21h-235m77 127h-77m113 63v-43m122 22h-114m114-21h-114m114-21h-114m114-22h-114m114 85h-235m113-21h-113m113-21h-113m113-43h-26m26 42-38-22v-11l-20 11v-11l-55-32m121 108v-190m-121 55 55 32v12l20-12v12l38 22v-121m-37 165-11-35-12 35zm94-165v234h-105v-69m75 163v11m6-26v41m-52-26v11m-6-26v41m58-15h-58m58-11h-58m52 5h-46m-1184-667h94m104-23h14m-312-344v23m-1414 59h-12m24-6h-33m21 52h-12m24 6h-33m15-6v-46m6 52v-58m-12 58v-58m-9-105h129m-129 267h136m709 290h-46m243 0h-73m269 0h-73m270 0h-47m243 0h-73m270 0h-74m270 0h-46m242 289h-184m381 0h-185m347 0v-289m-312 289v-289m-81 289v-289m343 108 3 1 2 5v4l-2 4-5 4-8 1h-8l-7-1-3-4-2-4v-2l2-5 3-3 5-2h2l5 2 3 3 2 5v2l-2 4-3 4-5 1m23 32v-18l-13 10v-5l-2-4-1-1-5-2h-4l-5 2-3 3-2 5v5l2 5 2 1 3 2m28 30v-18l-13 10v-5l-2-4-1-1-5-2h-4l-5 2-3 3-2 5v5l2 5 2 1 3 2m-183-75v17l-15 1 2-1 1-5v-5l-1-5-4-3-5-2h-3l-5 2-3 3-2 5v5l2 5 1 1 4 2m28 30v-18l-13 10v-5l-2-4-2-1-5-2h-3l-5 2-3 3-2 5v5l2 5 1 1 4 2m28 30v-18l-13 10v-5l-2-4-2-1-5-2h-3l-5 2-3 3-2 5v5l2 5 1 1 4 2m-1980-876v-18l-13 10v-5l-2-4-2-1-5-2h-3l-5 2-3 3-2 5v5l2 5 2 1 3 2m20 31h1l4-1 1-2 2-3v-7l-2-3-1-2-4-1h-3l-3 1-5 4-17 16v-23m35 53v-18l-13 10v-5l-2-4-2-1-5-2h-3l-5 2-3 3-2 5v5l2 5 2 2 3 1m20-235h1l4-2 1-1 2-4v-6l-2-3-1-2-4-2h-3l-3 2-5 3-17 17v-23m27 54h1l4-2 1-1 2-4v-6l-2-3-1-2-4-2h-3l-3 2-5 3-17 17v-23m35 52v-18l-13 10v-5l-2-3-2-2-5-1h-3l-5 1-3 4-2 5v5l2 4 2 2 3 2m21-302 2-3 5-5h-35m27 44h1l4-1 1-2 2-3v-7l-2-3-1-2-4-2h-3l-3 2-5 3-17 17v-23m35 53v-19l-13 10v-5l-2-3-2-2-5-1h-3l-5 1-3 4-2 5v5l2 5 2 1 3 2m28-231-2 5-5 3-8 1h-5l-8-1-5-3-2-5v-4l2-5 5-3 8-2h5l8 2 5 3 2 5v4m-8 41h1l4-2 1-1 2-4v-6l-2-4-1-1-4-2h-3l-3 2-5 3-17 17v-24m35 53v-18l-13 10v-5l-2-3-2-2-5-2h-3l-5 2-3 3-2 5v5l2 5 2 2 3 2m16-322-5 1-3 4-2 5v1l2 5 3 4 5 1h2l5-1 3-4 2-5v-1l-2-5-3-4-7-1h-8l-8 1-5 4-2 5v3l2 5 3 2m23 29 2-3 5-5h-35m35 43v-18l-13 10v-5l-2-4-2-1-5-2h-3l-5 2-3 3-2 5v5l2 5 2 2 3 1m-7-464 35-17v23m-7 29 2-4 5-5h-35m35 43v-18l-13 10v-5l-2-3-2-2-5-2h-3l-5 2-3 3-2 5v5l2 5 2 2 3 1m847 1618h166m-166 13h166m-566 138h-158m158 12h-73m662-12h-158m158 12h-73m-150 0h-47m47-12h-131m-66 12h-46m46-12h-104m1310 0h-131m131 12h-73m-124 0h-73m73-12h-158m-65 0h-131m131 12h-46m-151-12h-104m104 12h-46m971 0h-73m84 0h74m-85 289v-289m11 289v-289m-196 289v-289m-12 289v-289m-1756-84v-115m-11 115v-7m-317 414v-613m317 199h-285m285-12h-285m2110-2494v-18l-13 10v-5l-2-3-1-2-5-1h-4l-5 1-3 4-2 4v5l2 5 2 2 3 2m28 23-1 5-5 3-9 2h-5l-8-2-5-3-2-5v-4l2-4 5-4 8-1h5l9 1 5 4 1 4v4m0 39v-18l-13 10v-5l-2-3-1-2-5-1h-4l-5 1-3 4-2 4v5l2 5 2 2 3 2m-3 13-2 2-2-2 2-2 2 2m8 31v-16m-12 21 35-13-35-13m35 53v-24m0 12h-35m-772-197 4 1 3 4 2 3v7l-2 3-3 3-4 2-5 2h-8l-5-2-3-2-3-3-2-3v-7l2-3 3-4 3-1m20 53 2-4 5-5h-35m28 42 2-4 5-5h-35m35 43v-18l-14 10v-5l-1-3-2-2-5-2h-3l-5 2-3 3-2 5v5l2 5 1 2 4 2m2 361h102m-512 0h94m-504-19h-27v27h27v-27m-77-223h-14m501 223h-27v27h27v-27m410 0h-27v27h27v-27m-19 545v-345m23 366v-8m641-46v-342m-356-151h121m266 0h40m-427-19h-27v27h27v-27m387 0h-27v27h27v-27m229 0h-27v27h27v-27m-901 181h46m978-447h112m-112-21h112m-235-252h-27v27h27v-27m-229 0h-27v27h27v-27m-387 0h-27v27h27v-27m620 558v-450m266 99v-111m-35 111v-99m23 99v-95m-11 95v-95m-12-16h-112m112 12h-231m-19 431v-429m25 448h-6m231-23v-423m12 423v-423m11 423v-423m12 423v-423m-1529 2459h-89m89 12h-463m1988 138h-58m-347 12h-46m420-2175h-6v12h6m-225-12v12m150-12v12m-75-12v12m69-12v12m-69-6h69m6 6h-81v-12m81 0h-81m-67.5-69c18.334 0 35.902 7.3492 48.775 20.403 12.873 13.054 19.975 30.724 19.719 49.055m-68.993-69.459h-1 1m1 69h-2l2-69zm-2 0 2-69h-2zm150.01 0.4588c-0.2566-18.332 6.846-36.001 19.719-49.055s30.441-20.403 48.775-20.403m-0.5 0h1-1m1 69h-2l2-69zm-2 0 2-69h-2zm-75-393v1l2 4 2 1 3 2h7l3-2 2-1 1-4v-3l-1-3-4-5-16-17h23m-36 4-2-2 2-2 1 2-1 2m-33 31h23m-12 0v-35m-18 30-3 3-5 2h-7l-5-2-3-3v-3l2-4 1-1 3-2 10-3 4-2 1-1 2-4v-5l-3-3-5-2h-7l-5 2-3 3m110 251-12-35-11 35zm-12 28v-28m-118 60h23l-23-16h23m-23 39h23v-8l-1-3-4-4-4-1h-5l-4 1-4 4-1 3v8m-51-140h112m7-42h86m-205 21h112m-112-21h112m-112-22h112m-112-21h112m0 170v-191h-112m119 191v-48l50-29 10 6v-23l10 6 42-23m-119 111h119m-112-43h112m-112-42h11m-11-106v112l50-28 10 5v-23l10 6 42-22m-84 77h84m-69 94h23v-10l-1-3-4-2h-3l-2 1-1 1-1 3v10m12 24h-17l-3-1-2-2-1-3v-3l1-3 2-2 3-1h17m-66-145h48m-2-43h8m-54-42h60m-60 169h112m-73-137 11 35 12-35zm-115 159v-227h126v68m-350-642v-18m58-54v-11m-58 92h58m-70 0v12m-716 385h106m610-478h-716m716-69h-716m716-69h-716m411-261-5 2-3 3-2 5v2l2 5 3 3 5 2h2l4-2 4-3 1-5v-2l-1-5-4-3-6-2h-8l-9 2-5 3-1 5v4l1 5 4 1m29 25-1 5-5 3-8 2h-5l-9-2-5-3-1-5v-3l1-5 5-4 9-1h5l8 1 5 4 1 5v3m0 40v-19l-13 10v-5l-1-3-2-2-5-1h-3l-5 1-4 4-1 5v5l1 5 2 1 3 2m334 87v-23m0 22h-12v-391m12 456h-12m78-63.5c0 17.273-6.9278 33.824-19.232 45.946-12.304 12.122-28.956 18.804-46.227 18.547m64.458-64.993v-1 1m-65 1v-2l65 2zm0-2 65 2v-2zm0 245v-149m-728 199v-809m0 820h716m-716-11h716m678 458h-34v35h34v-35m0 366h-34v34h34v-34m786 0h-35v34h35v-34m363-909h-44m102 0h-47m-11 6v-12m11 12v-12m47 12v-12m11 12v-12m-176 39h-797m836-14h206v46m-245-32v-47h277m0 47v-47m-533 557h-35v35h35v-35m-555-2227h-15v27h15v-27m-1625 1909h-33m21 8h-11m11 45h-11m11 11h-11m11 45h-11m11 12h-11m6-57v45m17 65h-33m21-8h-11m6-45v45m0-158v45m-6-53v174m11-174v174m6 33h-15v27h15v-27m0-488h-15v27h15v-27m-1290 2409h-16v27h16v-27m230 263.5c0-17.273 6.9278-33.824 19.232-45.946 12.304-12.122 28.956-18.804 46.227-18.547m-66.458 63.993v1-1m66-1v2l-66-2zm0 2-66-2v2zm0-66h11m-11 66h11m-11-66v-73m11 73v-158m-10.542 0.9929c-17.271 0.2567-33.923-6.4244-46.227-18.547-12.304-12.122-19.232-28.673-19.232-45.946m-1-0.5v-1 1m66-1v2l-66-2zm0 2-66-2v2zm0 63h11m-11-65h11m-11 65v74m11-139v-104m-76-0.5c0-17.273 6.9278-33.824 19.232-45.946 12.304-12.122 28.956-18.804 46.227-18.547m-66.458 63.993v1-1m66-1v2l-66-2zm0 2-66-2v2zm0-66h11m0 66h-11v46m11-112v-157m-11 466h-289m289 11h-289m289-196v46m0 335v-46m0-347h-289m289 12h-289m289-197v73m0.4585-157.01c-17.271 0.2567-33.923-6.4244-46.227-18.547-12.304-12.122-19.232-28.673-19.232-45.946m-1-0.5v-1 1m66-1v2l-66-2zm0 2-66-2v2zm0 64h11m-11-66h11m-11 66v73m11-139v-104m-76-0.5c0-17.273 6.9278-33.824 19.232-45.946 12.304-12.122 28.956-18.804 46.227-18.547m-66.458 63.993v1-1m66-1v2l-66-2zm0 2-66-2v2zm0-65h11m0 65h-11v46m11-111v-158m-11 477h-301m301-11h-301m301-139v-46h-289m289-12h-289m289-381v47m-289 739v185m0 196v-185m289-635h-289m289 81h-289m289 312h-289m289 80h-289m289-1224v-209m-65 554.5c0-17.273 6.9278-33.824 19.232-45.946 12.304-12.122 28.956-18.804 46.227-18.547m-66.458 63.993v1-1m66-1v2l-66-2zm0 2-66-2v2zm0-65h11m-11 65h11m0-65v-131m14-472h-330m305 12h-289m289 506v-47m0 59v73m0-564h-289m0-27v310m0 393v-185m0 724h-35m23 7h-11m11 45h-11m11 12h-11m11 45h-11m11 11h-11m5-56v45m18 64h-35m23-8h-11m5-45v45m0-158v45m-5-52v173m11-173v173m-6-558v45m6-45h-11m11 56h-11m11-11h-11m23-53h-35m17 121v44m6 0h-11m11-44h-11m11-12h-11m23 64h-35m23-173v173m-11-173v173m5-109v45m0-369v-44m6 107v-115m-11 115v-115m5 108v-45m6-11h-11m11 11h-11m11 45h-11m23 7h-35m23-107h-11m23-8h-35m35-277h-35m23 7h-11m23 108h-35m23-8h-11m11-44h-11m11-11h-11m5 55v-44m-5 52v-115m11 115v-115m-6 52v-45m-17 1593v-1772m1111-394h-45m45 5v-11m-56 11v-11m11 11v-11m53 23v-33m-121 16h-45m0 5v-11m45 11v-11m12 11v-11m-64 23v-33m173 21h-173m173-11h-173m109 6h-45m-263 0h-45m45 5v-11m-56 11v-11m11 11v-11m53 23v-33m-121 16h-45m0 5v-11m45 11v-11m12 11v-11m-64 23v-33m173 21h-173m173-11h-173m109 6h-45m-263 0h-45m45 5v-11m-56 11v-11m11 11v-11m53 23v-33m-121 16h-45m0 5v-11m45 11v-11m12 11v-11m-64 23v-33m173 21h-173m173-11h-173m109 6h-45m1010-16h-1290v23m2906-662h33m-22 8h12m-23 107h33m-22-7h12m-12-45h12m-12-11h12m-6 56v-45m6 52v-115m-12 115v-115m6 52v-44m6-91h-23v69m0 736v-724m56 167h-23v-215h23v-1783m-622 1908v358m11-855v114m0-302h-11m0-69h11v-16m-11 85v303m-16-493v16m0-94v16m-9 62v25m0-112v25m25-75v258m11-258v145m-11-533v319m11-384v-8m-10.542 73.993c-17.271 0.2567-33.923-6.4244-46.227-18.547-12.304-12.122-19.232-28.673-19.232-45.946m-1-0.5v-1 1m66-1v2l-66-2zm0 2-66-2v2zm11-2h-11m11 65h-11m0 319h11m-27 222h16m-25 9h25m-16-103h16m-25 78h9m-9-62h9m-9-25h25m0-50h11m578 92h-578m578 69h-555m555-139h-578m578-703h-578m578 70h-578m578 69h-578m-10.542-159.01c-17.271 0.2567-33.923-6.4244-46.227-18.547-12.304-12.122-19.232-28.673-19.232-45.946m-1-0.5v-1 1m66-1v2l-66-2zm0 2-66-2v2zm0 63h11m-11-65h11m-11 65v249m11-249v177m-10.542-565.01c-17.271 0.2567-33.923-6.4244-46.227-18.547-12.304-12.122-19.232-28.673-19.232-45.946m-1-0.5v-1 1m66-1v2l-66-2zm0 2-66-2v2zm11 63h-11m11-65h-11m11 65v231m-11-231v324m23 1690v-73m11 73v-107m-23 107h12m-12-73h12m-12-34h23m-23 107v-73m578-608h-578m578-703v691h-555m555 624v-339m-566-285v-50m11 50v-85m-23 35v50h12m-12 250v-153m0-147h12m-12-35h23m-23-300v86m0 584h23v-35h-23m-300-593h-12m0 66h12v9m0 438h-12m12 65h-12v15m12 0v-15m0-610v32m-728 1710v-385m716-1631v306m0 1314v-230m-733-1v-45m5 56h-11m11-11h-11m23-52h-33m21 7h-11m23 108h-33m21-8h-11m0 8v-115m11 115v-115m-5 107v-44m5-383h-11m23-8h-33m16 108v-44m5-12h-11m11 12h-11m11 44h-11m23 8h-33m16-64v-44m5 108v-116m-11 116v-116m11-319h-11m23-8h-33m16 108v-45m5-11h-11m11 11h-11m11 45h-11m23 7h-33m16-63v-44m5 107v-115m-11 115v-115m1662 316h-33m15 109v-45m6 45h-11m11 11h-11m5-68v-45m6 45h-11m11 12h-11m11-57h-11m11 158h-11m23 8h-33m15-8v-45m6 53v-173m-11 173v-173m23-335h-33m15 109v-45m6 45h-11m11 11h-11m5-68v-45m6 45h-11m11 12h-11m11-57h-11m11 158h-11m23 8h-33m15-8v-45m6 53v-173m-11 173v-173m23-335h-33m15 109v-45m6 45h-11m11 11h-11m5-68v-45m6 45h-11m11 12h-11m11-57h-11m11 158h-11m23 8h-33m15-8v-45m6 53v-173m-11 173v-173m23-335h-33m21 7h-11m11 57h-11m11-12h-11m5 0v-45m18 166h-33m21-8h-11m11-45h-11m11-11h-11m5 56v-45m-5 53v-173m11 173v-173m-6 109v-45m-15-111h-555m555 12h-578m578-393v381m-23-600h33m-22 7h12m-23 108h33m-22-8h12m-12-44h12m-12-11h12m-6 55v-44m6 52v-115m-12 115v-115m6 52v-45m21 357v-45m0 102v-45m0 101v-45m6-68h-11m11 12h-11m11 45h-11m11 11h-11m0 53v-174m11 174v-174m0 8h-11m11 158h-11m23-166h-33m33 174h-33m-23-266v-310m-555 674h16m-16-35h23m-23 52v-17m0-335v58m16 294v-17m7 17v-52m-23 52h16m562-381h-23m56 2003v-47m0-1998h-23m-588 706v-198m0-437h23m-23-35h23m-23-304v8m0 1001h23m-23-35h23m0-635v-35m0 705v-35m-34-1249v283m-289 737v12m0.5415-76.993c17.271-0.2566 33.923 6.4244 46.227 18.547 12.304 12.122 19.232 28.673 19.232 45.946m-1-0.5v1-1m-65 1v-2l65 2zm0-2 65 2v-2zm-12-63h12m-12 65h12v-1m0-405v300m-12-377v98m12.542-162.99c17.271-0.2566 33.923 6.4244 46.227 18.547 12.304 12.122 19.232 28.673 19.232 45.946m-1-0.5v1-1m-65 1v-2l65 2zm0-2 65 2v-2zm0-64h-12m0 66h12v17m-12-83v-217m12 310h23m-23-206v90m40-165h-15v58h15m0 5v-69m6-12h-25m-21 81h58m-58 12h46m-46-81v69m52-190v-70m-6 0h12m-12 70h12m-11.541-75.007c-18.332 0.2566-36.001-6.846-49.055-19.719s-20.403-30.441-20.403-48.775m0-0.5v-1 1m69-1v2l-69-2zm0 2-69-2v2zm0 68h12m-12-70h12m-12 70v80m12-80v80m-81 69.5c0-18.334 7.3492-35.902 20.403-48.775 13.054-12.873 30.724-19.975 49.055-19.719m-69.459 67.993v1-1m69-1v2l-69-2zm0 2-69-2v2zm0-70h12m0 70h-12v11m12-11v115m-12-92h-25m25-12h-466m466 23v-11m0-254v11m12-11v11m-478-11h466m243 0h-231m-786 1375h-33m21 7h-11m23 108h-33m21-8h-11m11-44h-11m11-11h-11m6 55v-44m-6 52v-115m11 115v-115m-5 52v-45m17-662h-33m21 8h-11m23 107h-33m21-7h-11m11-45h-11m11-11h-11m6 56v-45m-6 52v-115m11 115v-115m-5 52v-44m0-284v-44m5 44h-11m11 12h-11m6 44v-44m5-56h-11m11 100h-11m0 8v-115m11 115v-115m12 0h-33m33 115h-33m691-331h23l-23-15h23m-23 38h23v-8l-1-3-2-2-6-2h-5l-4 1-2 1-2 2-1 3v8m-200-131 35-12-35-11zm187 115h-255v-127h68m145 185v-117m-43 117v-117m-106-8v-117m22 117v-117m21 117v-88m21 88v-60m21 60v-14m98 14h-204m212 8h-212m0 117v-242m605-60h-42m-93 0h-42m-528 0h-42m177 0h-42m-151 281v-254m763-2v-25m-135 27h93v-27m57 302v-277h-15m545 310h-555m576 230h-15v27h15v-27m-1610-168h-15v-27h15v27m0 327h-15v-27h15v27m0 328h-15v-27h15v27m0 327h-15v-27h15v27m0 554h-15v27h15v-27m0 327h-15v27h15v-27m-141 842v-15h-27v15h27m-728 0v-15h-27v15h27m2852-443h-27v16h27v-16m917 759h-15v27h15v-27m0 1720h-15v15h15v-15m0 754h-15v27h15v-27m-985 218v15h15v-15h-15m223 0v15h27v-15h-27m-1066-1v15h27v-15h-27m-240 0v15h27v-15h-27m-356 0v15h27v-15h-27m-323 0v15h27v-15h-27m-272 0v15h27v-15h-27m-1302-651h-15v26h15v-26m115-2172h-15v-15h15v15m803-184v-15h-27v15h27m-787 764h-16v26h16v-26m0 619h-16v27h16v-27m0 76h-16v27h16v-27m765 1548v15h27v-15h-27m-765-1237h-16v27h16v-27m0 330h-16v27h16v-27m4 318h-15v27h15v-27m365 589v15h27v-15h-27m-365-67h-15v27h15v-27m387-1636v16l-15 2 2-2 1-5v-5l-1-5-4-3-4-2h-4l-5 2-3 3-2 5v5l2 5 2 2 3 2m28 23-2 5-5 3-8 2h-5l-8-2-5-3-2-5v-4l2-5 5-3 8-2h5l8 2 5 3 2 5v4m0 39v-18l-13 10v-5l-2-3-2-2-4-2h-4l-5 2-3 3-2 5v5l2 5 2 2 3 2m-3 13-2 1-2-1 2-2 2 2m8 31v-16m-12 21 35-13-35-13m35 52v-23m0 12h-35m953-832v-35m0 35-17-23h25m-48 23-5-2-3-5-2-8v-5l2-8 3-5 5-2h4l4 2 4 5 1 8v5l-1 8-4 5-4 2h-4m-39 0h18l-10-13h5l3-2 2-2 1-4v-4l-1-5-4-3-4-2h-5l-5 2-2 2-2 3m-13-3-2-2 2-2 2 2-2 2m-31 8h16m-21-12 13 35 13-35m-53 35h23m-11 0v-35m-717 101h-139m1871-1028h2l3-1 2-2 2-3v-7l-2-3-2-2-3-2h-3l-4 2-4 3-17 17v-23m35 46-2 5-5 3-8 2h-5l-8-2-5-3-2-5v-3l2-5 5-4 8-1h5l8 1 5 4 2 5v3m0 40v-19l-14 10v-5l-1-3-2-2-5-1h-3l-5 1-3 4-2 5v5l2 5 1 1 4 2m-4 13-1 2-2-2 2-2 1 2m9 31v-16m-12 21 35-13-35-13m35 53v-23m0 11h-35m215 1800-2 5-3 2h-3l-4-2-1-3-2-7-2-5-3-3-3-2h-5l-4 2-1 1-2 5v7l2 5 1 2 4 1h5l3-1 3-4 2-5 2-6 1-4 4-1h3l3 1 2 5v7m0 25h-35m35 0-23 16v-24m23 54v-18l-13 10v-5l-2-4-2-1-5-2h-3l-5 2-3 3-2 5v5l2 5 1 2 4 1m56-885.5c0-17.273 6.9278-33.824 19.232-45.946 12.304-12.122 28.956-18.804 46.227-18.547m-65.458 63.993v1-1m65-1v2l-65-2zm0 2-65-2v2zm0-66h12m-12 66h12m-424-1233h-35v34h35v-34m300 0h-34v34h34v-34m112 1151v16m12-201h-35v35h35v-35m0-458h-35v35h35v-35m-1194 1038h308m-285-10h258m-1090 376v331m1226 516v17l-15 1 2-1 2-5v-5l-2-5-3-3-5-2h-3l-5 2-4 3-1 5v5l1 5 2 1 3 2m28 13v17l-15 1 2-1 2-5v-5l-2-5-3-3-5-2h-3l-5 2-4 3-1 5v5l1 5 2 1 3 2m28 30v-18l-13 10v-5l-2-4-1-1-5-2h-3l-5 2-4 3-1 5v5l1 5 2 1 3 2m793-21v-41h-11m0 47v-47m-1148-163h262m-285-11h285m414 394v-193m-699-201v-1063m11-31v-345m-743 1727.5c0 17.273-6.9278 33.824-19.232 45.946-12.304 12.122-28.956 18.804-46.227 18.547m65.458-64.993v-1 1m-66 1v-2l66 2zm0-2 66 2v-2zm0 65h-11m11-65h-11m0 84v-19m11 19v-19m682-1802h-275m57-667-2-5-2-2-3-2h-5l-3 2-2 2-2 5v14m0 0h35v-14l-2-5-1-2-4-2h-3l-3 2-2 2-1 5v14m16 32v-18l-13 10v-5l-2-4-1-1-5-2h-4l-5 2-3 3-2 5v5l2 5 2 1 3 2m21 28 2-3 5-5h-35m35 43v-18l-13 10v-5l-2-4-1-1-5-2h-4l-5 2-3 3-2 5v5l2 5 2 1 3 2m-694-11h-35m35 0-23 16v-24m16 53 2-4 5-5h-35m35 43v-18l-13 10v-5l-2-3-2-2-5-2h-3l-5 2-3 3-2 5v5l2 5 1 2 4 1m259 496v337m0 35v331m0 766v199m0-564v240m-443-2060h374m897 0h-193m-1113 35h35v-35m454 682h-34v34h34v-34m0 371h-34v35h34v-35m0 366h-34v35h34v-35m0 366h-34v35h34v-35m980 826 16 35h-23m-23 0-5-2-3-5-2-8v-5l2-8 3-5 5-2h3l5 2 4 5 1 8v5l-1 8-4 5-5 2h-3m-40 0h19l-10-14h5l3-1 2-2 1-5v-3l-1-5-4-3-5-2h-5l-5 2-1 1-2 4m-13-4-2-1 2-2 2 2-2 1m-31 8h16m-21-11 13 35 13-35m-53 35h23m-11 0v-35m-950-137 3 1 2 5v3l-2 5-5 4-8 1h-9l-6-1-3-4-2-5v-1l2-5 3-3 5-2h1l5 2 4 3 1 5v1l-1 5-4 4-5 1m24 25-2 5-5 3-8 2h-5l-8-2-5-3-2-5v-3l2-5 5-3 8-2h5l8 2 5 3 2 5v3m0 40v-18l-14 9v-4l-1-4-2-1-5-2h-3l-5 2-3 3-2 5v5l2 5 1 1 4 2m-4 13-1 2-2-2 2-1 1 1m8 32v-17m-11 22 35-14-35-13m35 53v-23m0 11h-35m103-68v139m-150-189v96m0-162v-46m0 624v-332m38-435v-18l-13 10v-5l-2-3-1-2-5-2h-4l-5 2-3 3-2 5v5l2 5 2 2 3 1m-3 14-2 1-2-1 2-2 2 2m31 33v-23m0 11h-35m30 18 3 4 2 5v6l-2 5-3 3h-3l-4-1-1-2-2-3-3-10-2-3-1-2-4-2h-5l-3 4-2 5v6l2 5 3 3m-140 135h-35m35 0-23 17v-25m15 56h1l4-2 1-1 2-4v-6l-2-3-1-2-4-2h-3l-3 2-5 3-17 17v-23m35 52v-18l-13 10v-5l-2-3-2-2-5-1h-3l-5 1-3 4-2 5v4l2 5 2 2 3 2m66-220h23l-23-16h23m-23 39h23v-8l-1-3-3-2-2-1-3-2h-6l-3 2-2 1-2 2-1 3v8m-2-129h23v-10l-1-3-1-1-3-2h-3l-3 3-1 3v10m12 24h-17l-3-1-2-2-1-4v-2l1-3 2-2 3-1h17m-198 10 34-12-34-11zm165 93h-235v-105h70m115-11-35 11 35 12zm50 11h-50m-72 49h122m-106-73v-24m-42 97 22-39h12l-12-20h12l22-38m-30 97 23-39h11l-11-20h11l22-38m66 202v-202m-22 97v-97m0 202v-98m-21-7v-97m-21 97v-97m-21 97v-64m-21 64v-27m-21-9v-61m-22 97v-97m106 202v-98m-21 98v-98m-21 98v-98m-21 98v-98m-21 98v-98m-22 98v-98m-21-7v-97m0 202v-98m-21-7h43m-43 7h191m-191 98v-202m470 213h-39m39-11h-39m50-233h-34v34h34v-34m0 371h-34v35h34v-35m497 35h-34v-35h34v35m324-12v-23h-35m0 35v-35m35 23h11m679 274h-35m35 0-24 16v-25m24 55v-18l-14 10v-5l-1-4-2-1-5-2h-3l-5 2-3 3-2 5v5l2 5 1 1 4 2m28 30v-18l-14 10v-5l-1-4-2-1-5-2h-3l-5 2-3 3-2 5v5l2 5 1 1 4 2m-184-58v-18l-13 9v-4l-1-4-2-1-5-2h-3l-5 2-4 3-1 5v5l1 5 2 1 3 2m28 30v-18l-13 10v-5l-1-4-2-1-5-2h-3l-5 2-4 3-1 5v5l1 5 2 1 3 2m28 30v-18l-13 10v-5l-1-4-2-1-5-2h-3l-5 2-4 3-1 5v5l1 5 2 1 3 2m-143-68h2l3-1 1-2 2-3v-7l-2-3-1-2-3-1h-4l-3 1-5 4-17 16v-23m35 53v-18l-13 10v-5l-2-4-1-1-5-2h-4l-5 2-3 3-2 5v5l2 5 2 1 3 2m28 30v-18l-13 10v-5l-2-4-1-1-5-2h-4l-5 2-3 3-2 5v5l2 5 2 1 3 2m-177-76 1-4 5-5h-34m34 43v-18l-13 10v-5l-2-3-1-2-5-2h-4l-5 2-3 3-1 5v5l1 5 2 2 3 2m28 29v-18l-13 10v-5l-2-3-1-2-5-2h-4l-5 2-3 3-1 5v5l1 5 2 2 3 2m-201-82-2 5-4 3-9 2h-5l-8-2-5-3-2-5v-3l2-5 5-3 8-2h5l9 2 4 3 2 5v3m0 40v-18l-13 10v-5l-2-4-1-1-5-2h-4l-5 2-3 3-2 5v5l2 5 2 1 3 2m28 30v-18l-13 10v-5l-2-4-1-1-5-2h-4l-5 2-3 3-2 5v5l2 5 2 1 3 2m-154-90-4 2-4 3-1 5v2l1 5 4 3 4 2h2l5-2 3-3 2-5v-2l-2-5-3-3-7-2h-8l-8 2-5 3-2 5v3l2 5 3 2m22 33h1l4-2 1-1 2-4v-6l-2-4-1-1-4-2h-3l-3 2-5 3-17 17v-24m35 53v-18l-13 10v-5l-2-3-1-2-5-2h-4l-5 2-3 3-2 5v5l2 5 2 2 3 2m-163-77-1 5-4 1h-3l-3-1-2-4-1-6-2-5-3-4-4-1h-5l-3 1-2 2-1 5v7l1 5 2 1 3 2h5l4-2 3-3 2-5 1-7 2-3 3-2h3l4 2 1 5v7m-8 39h2l3-1 2-2 1-3v-7l-1-3-2-2-3-2h-4l-3 2-5 3-16 17v-23m34 53v-19l-13 10v-5l-1-3-2-2-5-1h-3l-5 1-4 4-1 5v5l1 5 2 1 3 2m-243-70 35-17v24m-8 31h2l3-2 1-1 2-4v-6l-2-4-1-1-3-2h-4l-3 2-5 3-17 17v-24m35 53v-18l-13 10v-5l-2-3-1-2-5-2h-4l-5 2-3 3-2 5v5l2 5 2 2 3 2m-399-156v17l-15 2 2-2 1-5v-5l-1-5-4-3-5-2h-3l-5 2-3 3-2 5v5l2 5 2 2 3 1m20 32h1l4-2 1-2 2-3v-7l-2-3-1-2-4-1h-3l-3 1-5 4-17 16v-23m35 53v-18l-13 10v-5l-2-4-2-1-5-2h-3l-5 2-3 3-2 5v5l2 5 2 2 3 1m2359-415v-16m-11 21 34-13-34-13m3 36-2 2-1-2 1-1 2 1m31 30h-34v-20m0 51v-21m18 21v-13m-18 13h34v-21m924-1218v-35m35 35v-35m0 421v-35m-35 35v-35m-812 1558v-34m0 34-17-23h25m-38-8-2-2 2-1 2 1-2 2m-33 31h23m-11 0v-34m-19 29-3 4-5 1h-6l-5-1-4-4v-3l2-3 2-2 3-2 10-3 3-2 2-1 1-4v-5l-3-3-5-1h-6l-5 1-4 3m262-308 35-16v23m0 29v-18l-13 10v-5l-2-3-2-2-5-1h-3l-5 1-3 3-2 5v5l2 5 2 2 3 2m28 29v-18l-13 10v-5l-2-3-2-2-5-1h-3l-5 1-3 3-2 5v5l2 5 2 2 3 2m-573-350h-16m-263-23h11v-302m643 480h-46m0 6v-12m46 12v-12m6 12h-58v-12h58m-57.007 12.541c0.2566 18.332-6.846 36.001-19.719 49.055s-30.441 20.403-48.775 20.403m-0.5-1h-1 1m-1-69h2l-2 69zm2 0-2 69h2zm-2 0v-12m196.5 82c-18.334 0-35.902-7.3492-48.775-20.403-12.873-13.054-19.975-30.724-19.719-49.055m67.993 68.459v0m-1-69h1l-1 69zm1 0-1 69h1zm-69 0v-12m69 2v10h20m-235 486v-486h19m-63-200-138-161m138 0-138 161h138v-161h-138v161m163-39v-6m0-89 11-6m-11 114 11 7m-23-96v-61m12 61v-5m0 81 23 13v77m-23-171 23-14m-35 19h12m-12 70h12m-197 65v-238m185 234h-173v-192m0-12h177m-177 12h173m-173-110v98m173 239v-23m-1171 23h46m952 0v-23m192 461v-289m12-12h19m-38-172v-42m11 42v-35m-23 47h-173m196-12h-11m294 711h-316m276-41h-235m734-3652v32m-7-19h-46m0 6v-12m-12 12v-12m-44 0v12m-8-19v32m52-19h-44m102-6v12m7-12h-117m117 12h-117m358-19v32m-8-25v12m-57-6h-45m-7-13v32m7-25v12m45 0v-12m11 12v-12m54 12h-117m117-12h-117m109 6h-46m-1735-2526 2-3 4-5h-34m3 26-2 2-1-2 1-1 2 1m31 33v-23m0 12h-34m30 18 3 3 1 5v7l-1 5-3 3h-4l-3-2-2-1-1-4-4-10-1-3-2-2-3-1h-5l-4 3-1 5v7l1 5 4 3m558 1057 2-4 5-5h-35m35 37-2 5-5 3-8 2h-5l-8-2-5-3-2-5v-3l2-5 5-4 8-1h5l8 1 5 4 2 5v3m0 39v-18l-14 10v-5l-1-3-2-2-5-1h-3l-5 1-3 4-2 5v4l2 5 1 2 4 2m-4 13-1 2-2-2 2-2 1 2m9 31v-16m-12 21 35-13-35-13m35 53v-23m0 11h-35m-316-1231-29-50 6-10h-23l5-10-27-47m-26 242v-117m22 117v-117m21 117v-117m21 117v-117m21 117v-117m43 117v-117m42 117v-117m21 117v-242m-366 254v23m437-23h-406v23m-310-23h279m31 23h-31m470-23v11m37 12h-58m-759 5293v-198m1009-5395h-58m58 11h-58m52 0v-11m-46 11v-11m52 23v-33m-58 33v-33m52 15h-46m-524 2h-46m-6 16v-33m58 33v-33m-52 23v-11m46 11v-11m6 11h-58m58-11h-58m-1668 5792h32m-32 176h32m-11-176v176m-6-168v49m-6-57v176m0-168h12m-12 161h12m-12-112h12m-12 11h12m-12 41h12m-12 12h12m-6 0v48m0-101v41m1153 196v-33m-118 33v-33m110 26v-11m-102 11v-11m110 11h-118m118-11h-118m64 0v11m-12-11v11m58-6h-46m-12 0h-44m-1053-1043v-58m11 58v-58m0 52h-11m11-46h-11m23 52h-35m35-58h-35m17 52v-46m-5 161v-57m11 57v-57m0 52h-11m11-47h-11m23 52h-35m35-57h-35m17 52v-47m894 998h-58m58-12h-58m52 0v12m-46-12v12m52-32v42m-58-42v42m52-16h-46m905 7v-33m-117 33v-33m109 26v-11m-102 11v-11m110 11h-117m117-11h-117m63 0v11m-11-11v11m57-6h-46m-11 0h-45m-1632-498v-47m17-5h-32m32 57h-32m20-52h-11m11 47h-11m11 5v-57m-11 57v-57m1419 556h-47m-5-26v42m57-42v42m-52-22v12m47-12v12m5-12h-57m57 12h-57m970-16h-46m-6-16v33m58-33v33m-52-22v11m46-11v11m6-11h-58m58 11h-58m-52-6h-46m-6-16v33m58-33v33m-52-22v11m46-11v11m6-11h-58m58 11h-58m-231 10h-58m58-12h-58m52 0v12m-46-12v12m52-32v42m-58-42v42m52-16h-46m-724-2320v-8m12 0v19h-299m3199 2315v-31h96m64-1026v-208m-31 231h-33v552m33 22h-33m33 176h-33m16-176v176m5-168v49m6-57v176m0-168h-11m11 161h-11m11-112h-11m11 11h-11m11 41h-11m11 12h-11m5 0v48m0-101v41m0-272v41m0 12v48m6-48h-11m11-12h-11m11-41h-11m11-11h-11m11 112h-11m11-161h-11m11-8v176m-6-168v49m-5-57v176m17 0h-33m33-176h-33m-493 660h-96m622-1213v210m-1747 1002h-185m-253.5-222c-36.175 0-65.5-29.325-65.5-65.5m65-0.5v66m-65-66v-13m65 13v-13m-185 301v-289m-10.5 67c-36.175 0-65.5-29.325-65.5-65.5m65-0.5v66m-66-66v-13m66 13v-13m-301 301v-289m78 1.5c0 36.175-29.325 65.5-65.5 65.5m-0.5-66v66m0-66v-13m65 13v-13m-354 301v-289m-12 1v-13m-65 13v-13m65.5 79c-36.175 0-65.5-29.325-65.5-65.5m65-0.5v66m93 222v-289m77 1v-13m-66 13v-13m66 13.5c0 36.175-29.325 65.5-65.5 65.5m-0.5-66v66m-404 222v-289m77 1v-13m-65 13v-13m66 13.5c0 36.175-29.325 65.5-65.5 65.5m-0.5-66v66m-208 222v-289m77 1.5c0 36.175-29.325 65.5-65.5 65.5m-0.5-66v66m0-66v-13m66 13v-13m-169.5 78c-36.175 0-65.5-29.325-65.5-65.5m65-0.5v65m-65-64v-13m65 12v-12m12 301v-289m-357.5-18c-36.175 0-65.5-29.325-65.5-65.5m65-0.5h-66m66 362h-285m296-297h-11m11-65h-11m-4.5-115c-36.175 0-65.5-29.325-65.5-65.5m65-0.5h-66m82 0v-46m0 112h-16m5-77h-285m296 11h-16m62-265h-38m38 213h-38m38-207v-12m-38 12v-12m0 225v-11m38 11v-11m77.5-132c-38.384 0-69.5-31.116-69.5-69.5m69-0.5v69m-69 133.5c0-38.384 31.116-69.5 69.5-69.5m-0.5 69v-70m-69 81h-54m54-11h-485m0-202h485v-12h-54m123 12v-12m-69 225v-11m69 11v-11m-134-249h-289m300 35v-46m-11 46h-289m289 225h-285m435-213h-16m-423-405v-185m0-11v-185m0-12v-185m1860 1796h-185m-11 0h-185m-12 0h-185m-11 0h-185m-12 0h-185m-11 0h-185m1179 0v-289m-12 289v-289m-185 304v-304m-11 304v-304m-185 289v-289m-12 289v-289m-185 289v-289m-11 289v-289m-185 304v-304m-12 304v-304m-185 289v-289m-11 289v-289m-197 289h-184m196 0v-289m-12 289v-289m-242-536h-16m-419 433v-208m0 624v-404m4159-2623v231m19 879v41m0 12v46m6-46h-11m11-12h-11m11-41h-11m11-12h-11m11 111h-11m11-157h-11m11-8v173m-6-165v46m-5-54v173m19 0h-33m33-173h-33m19-227v41m0 12v47m6-47h-11m11-12h-11m11-41h-11m11-11h-11m11 111h-11m11-158h-11m11-8v173m-6-165v47m-5-55v173m19 0h-33m33-173h-33m33 264v231m0-524v231m54 293h-54m54-524v-61m0 354h-54m54-62h-54m0-1405v23m-225 9h192v23m64-32h-31m0 32h-33m64-32v58m-31-26v382m31 48h-12m0 52h-19m31-387v208m-12 127v52m0 231h-19v-231m54 283h-35m35 62h-54m19-114v52m35 0v62m0 231h-54v-231m54 292h-54m54 293v-62m-501-1373h-460m938 133h-31m31 176h-31m13-176v176m6-168v49m6-57v176m0-168h-12m12 161h-12m12-112h-12m12 11h-12m12 41h-12m12 12h-12m6 0v48m0-101v41m-19 636h-33m33 174h-33m14-174v174m5-166v47m6-55v174m0-166h-11m11 158h-11m11-111h-11m11 12h-11m11 41h-11m11 11h-11m5 0v47m0-99v41m-235-1057v12m-158-12v12m165-12h-173m173 12h-173m415 27h-193m-222-47v33m166-19h-45m294 598h-33m33 176h-33m27-176v176m-11-176v176m5-108v41m0 11v48m6 0h-11m11-48h-11m11-11h-11m5-101v48m6 12h-11m11-12h-11m11-48h-11m71 1187h-35v52h-19v231m54-283v-62m-68 207v41m0 12v47m6-47h-11m11-12h-11m11-41h-11m11-11h-11m11 111h-11m11-158h-11m11-8v173m-6-165v47m-5-55v173m19 0h-33m33-173h-33m-2565-4185v-242m1308 543v-301h-563m-150-275v-27m-42 27v-27m-435 27h-93m528 0h-393v-27m-42 27v-27m-93 27v-27m-42 0v27h-16m-308 3048v-2794h308m-1600 3204h-23m42-100v-242m-42 342 2-387h23m-98 2394v-202m-33 234v-267m1982 879h-357m-169 0h-360m-170 0h-433m2091 0h-433m2228-1393v-52h-19m50 125v-16h-19v-57h-12m31 73h15v54h-34m19 262h15v-54h-34m19 54v15h-19v58h-31m-154 963h58m-463-31h-901m1364 31v-31h96m-154 50v-19m-277 0h208m53 34v-15h16m-69 15v-34m53 34h-53v-15m-262 15h54v-34m-54 34v-15h-16m0 0v-19h-58m0 0v-31m-901 204v-204m-316 204v-205m-433 48h-38m-93 0v-39m93 39v-39m38 39v-48m-131 48h-38m131-39h-93m-38 39v-48m-925 9h-92m622 0h-93m0 39h-38m-360 0h-39m568 0v-48m-38 48v-39m-93 39v-39m-38 39v-48m-491 48h-39m170 0v-48m-39 48v-39m-593-42v-289m1161 370h-38m-622 0v-39m-39 39v-48m-433 24v-24m-40-9h-285m325 33h-347v-23h-10m4224 0v-932m-2532 448v-144h-112v-108h31v-73h123v73h35v252h-77m-124-21v-242h31v-70h-300v310h23v23h171v-21h75" clip-path="url(#clipPath49769)" fill="none" stroke="#000" stroke-linecap="round" stroke-linejoin="round" stroke-miterlimit="10" stroke-width="2"/>
</svg>
