<?xml version="1.0" encoding="UTF-8"?>
<svg width="28" height="28" version="1.1" viewBox="0 0 28 28" xmlns="http://www.w3.org/2000/svg">
 <path d="m19 2.53906c-2.1854 0-4 1.8146-4 4 0 0.16267 0.076193 0.30298 0.095703 0.46094h-3.3359c-1.5837 0-3.0381 0.93176-3.6914 2.377a2.0002 2.0002 0 0 0-0.052734 0.125l-0.66992 1.8008a2.0002 2.0002 0 0 0 0.23828 1.7246c-2.0976 1.2143-3.584 3.3936-3.584 5.9727 0 3.8421 3.1579 7 7 7 2.5961 0 4.7918-1.5027 6-3.623v0.62305a2.0002 2.0002 0 0 0 2 2h2a2.0002 2.0002 0 0 0 2-2v-5.5c0-1.7869-1.2249-3.263-2.8574-3.7676l0.48438-1.0684c0.39321-0.85732 0.33802-1.7368 0.11328-2.5723 1.3189-0.65885 2.2598-1.9966 2.2598-3.5527 0-2.1854-1.8146-4-4-4zm-2.0078 8.457a2.0002 2.0002 0 0 0-2e-3 0.00586l-1.6699 3.6699a2.0002 2.0002 0 0 0 0.095703 1.3281h-1.3965c-0.02621 0-0.04562-0.03761-0.02734-0.07813a2.0002 2.0002 0 0 0 0.0039-0.0059l1.8301-4.1015a2.0002 2.0002 0 0 0 0.072266-0.81445h1.0625c0.12865 0 0.0653-0.07815 0.03125-0.00391zm-6.3223 7.1387c0.30508 0.47273 0.73616 0.84884 1.207 1.1641-0.1354 0.39056-0.43574 0.70117-0.87695 0.70117-0.55909 0-1-0.44091-1-1 0-0.42904 0.29647-0.72123 0.66992-0.86523z" color="#000000" fill="#fff" stroke-linejoin="round" style="-inkscape-stroke:none;paint-order:stroke markers fill"/>
 <path d="m16 19h-2c0 1.65-1.35 3-3 3s-3-1.35-3-3 1.35-3 3-3v-2c-2.76 0-5 2.24-5 5s2.24 5 5 5 5-2.24 5-5zm3-3.5h-1.86l1.67-3.67c0.61-1.33-0.37-2.83-1.85-2.83h-5.2c-0.81 0-1.54 0.47-1.87 1.2l-0.67 1.8 1.92 0.53 0.65-1.53h2.21l-1.83 4.1c-0.6 1.33 0.39 2.9 1.85 2.9h4.98v5h2v-5.5c0-1.1-0.9-2-2-2zm2-8.96a2 2 0 0 1-2 2 2 2 0 0 1-2-2 2 2 0 0 1 2-2 2 2 0 0 1 2 2z" color="#000000" stroke-linejoin="round" stroke-width="4" style="-inkscape-stroke:none;paint-order:stroke markers fill"/>
</svg>
