<?xml version="1.0" encoding="UTF-8"?>
<svg width="28" height="28" version="1.1" viewBox="0 0 28 28" xmlns="http://www.w3.org/2000/svg">
 <path d="m8 2c-2.1909 0-4 1.8091-4 4v16c0 2.1909 1.8091 4 4 4h12c2.1909 0 4-1.8091 4-4v-16c0-2.1909-1.8091-4-4-4zm7 4h5v16h-12v-5.668l2.5-1.5 4.5 2.7012z" color="#000000" fill="#fff" style="-inkscape-stroke:none;paint-order:stroke markers fill"/>
 <path d="m20 4h-12c-1.1 0-2 0.9-2 2v16c0 1.1 0.9 2 2 2h12c1.1 0 2-0.9 2-2v-16c0-1.1-0.9-2-2-2zm-12 2h5v8l-2.5-1.5-2.5 1.5z" color="#000000" stroke-width="4" style="-inkscape-stroke:none;paint-order:stroke markers fill"/>
</svg>
