<?xml version="1.0" encoding="UTF-8"?>
<svg width="28" height="28" version="1.1" viewBox="0 0 28 28" xmlns="http://www.w3.org/2000/svg">
 <path d="m14 4c-3.2899 0-6 2.7101-6 6 0 1.8554 0.91214 3.46 2.2539 4.5645-0.66879 0.17016-1.34 0.3184-1.998 0.58203-0.98233 0.39352-1.9281 0.88895-2.7383 1.6367-0.8102 0.74777-1.5176 1.8839-1.5176 3.2168v2a2.0002 2.0002 0 0 0 2 2h16a2.0002 2.0002 0 0 0 2-2v-2c0-1.3329-0.70738-2.469-1.5176-3.2168s-1.756-1.2432-2.7383-1.6367c-0.65808-0.26363-1.3293-0.41188-1.998-0.58203 1.3418-1.1044 2.2539-2.7091 2.2539-4.5645 0-3.2899-2.7101-6-6-6zm0 4c1.1301 0 2 0.86994 2 2s-0.86994 2-2 2-2-0.86994-2-2 0.86994-2 2-2zm0 10c1.0004 0 2.89 0.31142 4.2578 0.85938 0.68392 0.27398 1.2391 0.61168 1.5117 0.86328 0.27261 0.25161 0.23047 0.28026 0.23047 0.27734h-12c0 0.00292-0.042144-0.025737 0.23047-0.27734 0.27261-0.25161 0.8278-0.5893 1.5117-0.86328 1.3678-0.54796 3.2574-0.85938 4.2578-0.85938z" color="#000000" fill="#fff" stroke-linejoin="round" style="-inkscape-stroke:none;paint-order:stroke markers fill"/>
 <path d="m14 14c2.21 0 4-1.79 4-4s-1.79-4-4-4-4 1.79-4 4 1.79 4 4 4zm0 2c-2.67 0-8 1.34-8 4v2h16v-2c0-2.66-5.33-4-8-4z" color="#000000" stroke-linejoin="round" stroke-width="4" style="-inkscape-stroke:none;paint-order:stroke markers fill"/>
</svg>
