<?xml version="1.0" encoding="UTF-8"?>
<svg width="28" height="28" version="1.1" viewBox="0 0 28 28" xmlns="http://www.w3.org/2000/svg">
 <path d="m5 2a2.0002 2.0002 0 0 0-2 2v7c0 2.4878 1.5722 4.5814 3.75 5.4785v7.5215a2.0002 2.0002 0 0 0 2 2h2.5a2.0002 2.0002 0 0 0 2-2v-7.5215c1.1636-0.47935 2.085-1.3214 2.75-2.375v1.8965a2.0002 2.0002 0 0 0 2 2h0.5v6a2.0002 2.0002 0 0 0 2 2h2.5a2.0002 2.0002 0 0 0 2-2v-20a2.0002 2.0002 0 0 0-2-2c-1.9211 0-3.6036 0.7587-4.8398 1.8242-0.46404 0.39994-0.81663 0.89033-1.1602 1.3809v-1.2051a2.0002 2.0002 0 0 0-2-2h-2a2.0002 2.0002 0 0 0-1 1 2.0002 2.0002 0 0 0-1-1h-2a2.0002 2.0002 0 0 0-1 1 2.0002 2.0002 0 0 0-1-1zm16 4.7676v7.7324a2.0002 2.0002 0 0 0-0.5-0.5h-0.5v-6c0-0.031515 0.19776-0.65005 0.77148-1.1445 0.058846-0.050717 0.1648-0.040237 0.22852-0.087891zm-11 5.2324a2.0002 2.0002 0 0 0 1 1h0.10156a2.0002 2.0002 0 0 0-1.1016 1.1719 2.0002 2.0002 0 0 0-1.1016-1.1719h0.10156a2.0002 2.0002 0 0 0 1-1z" color="#000000" fill="#fff" stroke-linejoin="round" style="-inkscape-stroke:none;paint-order:stroke markers fill"/>
 <path d="m13 11h-2v-7h-2v7h-2v-7h-2v7c0 2.12 1.66 3.84 3.75 3.97v9.03h2.5v-9.03c2.09-0.13 3.75-1.85 3.75-3.97v-7h-2zm5-3v8h2.5v8h2.5v-20c-2.76 0-5 2.24-5 4z" color="#000000" stroke-linejoin="round" stroke-width="4" style="-inkscape-stroke:none;paint-order:stroke markers fill"/>
</svg>
