<?xml version="1.0" encoding="UTF-8"?>
<svg width="28" height="28" version="1.1" viewBox="0 0 28 28" xmlns="http://www.w3.org/2000/svg">
 <path d="m8.2949 2.5859-0.72461 0.72656-0.015625-0.017578a2.0002 2.0002 0 0 0-2.8281 0l-1.4316 1.4316a2.0002 2.0002 0 0 0 0 2.8281l0.017578 0.015625-0.72656 0.72461a2.0002 2.0002 0 0 0 0 2.8301l0.015625 0.01563-0.015625 0.01563a2.0002 2.0002 0 0 0 0 2.8281l1.4297 1.4297a2.0002 2.0002 0 0 0 2.8281 0l2.1562-2.1563 5.7422 5.7422-2.1562 2.1562a2.0002 2.0002 0 0 0 0 2.8281l1.4297 1.4297a2.0002 2.0002 0 0 0 2.8281 0l0.01563-0.01563 0.01563 0.01563a2.0002 2.0002 0 0 0 2.8301 0l0.72461-0.72461 0.01563 0.01563a2.0002 2.0002 0 0 0 2.8281 0l1.4316-1.4316a2.0002 2.0002 0 0 0 0-2.8281l-0.01563-0.01563 0.72461-0.72461a2.0002 2.0002 0 0 0 0-2.8301l-0.01563-0.01563 0.01563-0.01563a2.0002 2.0002 0 0 0 0-2.8281l-1.4297-1.4297a2.0002 2.0002 0 0 0-2.8281 0l-2.1563 2.1563-5.7422-5.7422 2.1562-2.1562a2.0002 2.0002 0 0 0 0-2.8281l-1.4297-1.4297a2.0002 2.0002 0 0 0-2.8281 0l-0.01563 0.015625-0.01563-0.015625a2.0002 2.0002 0 0 0-2.8301 0zm1.416 4.2422 0.015625 0.015625a2.0002 2.0002 0 0 0 0.03125 0l-0.74219 0.74219a2.0002 2.0002 0 0 0 0 1.4297 2.0002 2.0002 0 0 0-1.4297 0l-0.73047 0.73047a2.0002 2.0002 0 0 0-0.011719-0.019531l-0.015625-0.015625 0.72656-0.72656a2.0002 2.0002 0 0 0 0.58203-1.4297 2.0002 2.0002 0 0 0 0.84766 0zm11.445 11.414a2.0002 2.0002 0 0 0 0 0.03125l0.01563 0.01563-0.72656 0.72656a2.0002 2.0002 0 0 0 0 1.4297 2.0002 2.0002 0 0 0-1.4297 0l-0.72656 0.72656-0.01563-0.01563a2.0002 2.0002 0 0 0-0.03125 0l0.74219-0.74219a2.0002 2.0002 0 0 0 0.58203-1.4297 2.0002 2.0002 0 0 0 0.84766 0z" color="#000000" fill="#fff" stroke-linejoin="round" style="-inkscape-stroke:none;paint-order:stroke markers fill"/>
 <path d="M 22.57,16.86 24,15.43 22.57,14 19,17.57 10.43,9 14,5.43 12.57,4 11.14,5.43 9.71,4 7.57,6.14 6.14,4.71 4.71,6.14 6.14,7.57 4,9.71 5.43,11.14 4,12.57 5.43,14 9,10.43 17.57,19 14,22.57 15.43,24 l 1.43,-1.43 1.43,1.43 2.14,-2.14 1.43,1.43 1.43,-1.43 -1.43,-1.43 2.14,-2.14 z" color="#000000" stroke-linejoin="round" stroke-width="4" style="-inkscape-stroke:none;paint-order:stroke markers fill"/>
</svg>
