<?xml version="1.0" encoding="UTF-8"?>
<svg width="28" height="28" enable-background="new 0 0 24 24" version="1.1" viewBox="0 0 28 28" xmlns="http://www.w3.org/2000/svg">
 <path d="m9 3c-2.7409 0-5 2.2591-5 5v1.1406a2.0002 2.0002 0 0 0 0.042969 0.054687c-1.7239 0.44377-3.043 1.9522-3.043 3.8047v5c0 2.1289 1.3765 3.9318 3.2695 4.6465 0.33047 1.296 1.3402 2.3535 2.7305 2.3535 1.2531 0 2.1374-0.89462 2.582-2h8.8359c0.44465 1.1054 1.329 2 2.582 2 1.3903 0 2.4-1.0575 2.7305-2.3535 1.893-0.71473 3.2695-2.5175 3.2695-4.6465v-5c0-1.8525-1.319-3.3609-3.043-3.8047a2.0002 2.0002 0 0 0 0.042969-0.054688v-1.1406c0-2.7409-2.2591-5-5-5zm0 4h10c0.51662 0 0.8949 0.39427 0.95508 0.89258-1.7526 1.0478-2.9551 2.9278-2.9551 5.1074h-6c0-2.1796-1.2025-4.0596-2.9551-5.1074 0.060176-0.49831 0.43846-0.89258 0.95508-0.89258zm-4 10a2.0002 2.0002 0 0 0 2 2h1a2.0002 2.0002 0 0 0-1 1 2.0002 2.0002 0 0 0-1-1c-0.55909 0-1-0.44091-1-1zm18 0v1c0 0.55909-0.44091 1-1 1a2.0002 2.0002 0 0 0-1 1 2.0002 2.0002 0 0 0-1-1h1a2.0002 2.0002 0 0 0 2-2z" color="#000000" fill="#fff" style="-inkscape-stroke:none;paint-order:stroke markers fill"/>
 <path d="m23 11c-1.1 0-2 0.9-2 2v4h-14v-4c0-1.1-0.9-2-2-2s-2 0.9-2 2v5c0 1.65 1.35 3 3 3v1c0 0.55 0.45 1 1 1s1-0.45 1-1v-1h12v1c0 0.55 0.45 1 1 1s1-0.45 1-1v-1c1.65 0 3-1.35 3-3v-5c0-1.1-0.9-2-2-2zm-14 2v2h10v-2c0-1.86 1.28-3.41 3-3.86v-1.14c0-1.65-1.35-3-3-3h-10c-1.65 0-3 1.35-3 3v1.14c1.72 0.45 3 2 3 3.86z" color="#000000" style="-inkscape-stroke:none;paint-order:stroke markers fill"/>
</svg>
