<?xml version="1.0" encoding="UTF-8"?>
<svg width="28" height="28" enable-background="new 0 0 24 24" version="1.1" viewBox="0 0 28 28" xmlns="http://www.w3.org/2000/svg">
 <path d="m11.881 2.625c-1.2832 0-2.5674 0.48341-3.5352 1.4512l-3.5391 3.5391a2.0002 2.0002 0 0 0 0 0.82617 2.0002 2.0002 0 0 0-1.4102 0.58398l-0.71094 0.71094a2.0002 2.0002 0 0 0 0 2.8281l3.541 3.5391a2.0002 2.0002 0 0 0 0.7207 0l-3.5215 3.5215a2.0002 2.0002 0 0 0 0 2.8301l2.1191 2.1191a2.0002 2.0002 0 0 0 2.8281 0l5.9961-5.9883 5.9961 5.9961a2.0002 2.0002 0 0 0 2.8281 0l2.1211-2.1211a2.0002 2.0002 0 0 0 0-2.8281l-5.6641-5.6641c2.9424-0.08562 5.3496-2.5074 5.3496-5.4688 0-0.94782-0.26434-1.8085-0.63672-2.5234a2.0002 2.0002 0 0 0-1.4062-1.0078 2.0002 2.0002 0 0 0-0.93359-1.332c-0.71498-0.37238-1.5756-0.63672-2.5234-0.63672-1.4602 0-2.7819 0.60105-3.7715 1.5449a2.0002 2.0002 0 0 0-0.31445-0.46875c-0.96776-0.96776-2.25-1.4512-3.5332-1.4512zm-1.416 4.9883a2.0002 2.0002 0 0 0 0 1.4023l0.70117-0.69922a2.0002 2.0002 0 0 0 0 2.1191 2.0002 2.0002 0 0 0-0.70312 0l-0.69922-0.69922a2.0002 2.0002 0 0 0-0.46289-0.091797 2.0002 2.0002 0 0 0-0.25391-0.61328zm4.7266 1.9004 0.2168 0.2168-0.70312 0.70313a2.0002 2.0002 0 0 0 0.48633-0.91992zm-1.082 3.4102a2.0002 2.0002 0 0 0 0.26562 0l-0.2207 0.2207a2.0002 2.0002 0 0 0-0.04492-0.2207z" color="#000000" fill="#fff" style="-inkscape-stroke:none;paint-order:stroke markers fill"/>
 <path d="m19.5 12c1.93 0 3.5-1.57 3.5-3.5 0-0.58-0.16-1.12-0.41-1.6l-2.7 2.7-1.49-1.49 2.7-2.7c-0.48-0.25-1.02-0.41-1.6-0.41-1.93 0-3.5 1.57-3.5 3.5 0 0.41 0.08 0.8 0.21 1.16l-1.85 1.85-1.78-1.78 0.71-0.71-1.41-1.41 2.12-2.12c-1.17-1.17-3.07-1.17-4.24 0l-3.54 3.54 1.41 1.41h-2.82l-0.71 0.71 3.54 3.54 0.71-0.71v-2.83l1.41 1.41 0.71-0.71 1.78 1.78-7.41 7.41 2.12 2.12 11.38-11.37c0.36 0.13 0.75 0.21 1.16 0.21zm-3.7173 5.1719 2.1213-2.1213 5.9962 5.9962-2.1213 2.1213z" color="#000000" style="-inkscape-stroke:none;paint-order:stroke markers fill"/>
</svg>
