<?xml version="1.0" encoding="UTF-8"?>
<svg width="28" height="28" version="1.1" viewBox="0 0 28 28" xmlns="http://www.w3.org/2000/svg">
 <path d="m9.5 2c-2.1791 0-4 1.8209-4 4 0 0.60349 0.16385 1.1642 0.41211 1.6816-1.1197 0.71296-1.9121 1.9072-1.9121 3.3184v5.5a2.0002 2.0002 0 0 0 1.5 1.5v6a2.0002 2.0002 0 0 0 2 2h4a2.0002 2.0002 0 0 0 2-2v-4.2559a2.0002 2.0002 0 0 0 0.5 0.25586h1v4a2.0002 2.0002 0 0 0 2 2h3a2.0002 2.0002 0 0 0 2-2v-4h1a2.0002 2.0002 0 0 0 1.8984-2.6309l-2.541-7.6309a2.0002 2.0002 0 0 0-0.0039-0.013672c-0.16228-0.47523-0.5503-0.78904-0.86329-1.1621 0.60414-0.70223 1.0098-1.582 1.0098-2.5625 0-2.1791-1.8209-4-4-4s-4 1.8209-4 4c0 0.97997 0.40626 1.8585 1.0098 2.5605-0.28807 0.34355-0.62819 0.6387-0.78906 1.0742-0.3085-0.82769-0.8962-1.4841-1.6328-1.9531 0.24826-0.51748 0.41211-1.0782 0.41211-1.6816 0-2.1791-1.8209-4-4-4zm-1.5 9h3v4a2.0002 2.0002 0 0 0-1.5 1.5 2.0002 2.0002 0 0 0-1.5-1.5zm10.439 0h0.12109c0.0073 0-0.0049-0.01583 0.0059 0.01563l1.6601 4.9844h-0.22656a2.0002 2.0002 0 0 0-1.5 1.5 2.0002 2.0002 0 0 0-1.5-1.5h-0.22656l1.6641-4.998a2.0002 2.0002 0 0 0 2e-3 -2e-3z" color="#000000" fill="#fff" stroke-linejoin="round" style="-inkscape-stroke:none;paint-order:stroke markers fill"/>
 <path d="m7.5 24v-7.5h-1.5v-5.5c0-1.1 0.9-2 2-2h3c1.1 0 2 0.9 2 2v5.5h-1.5v7.5zm12.5 0v-6h3l-2.54-7.63c-0.28-0.82-1.04-1.37-1.9-1.37h-0.12c-0.86 0-1.63 0.55-1.9 1.37l-2.54 7.63h3v6zm-10.5-16c1.11 0 2-0.89 2-2s-0.89-2-2-2-2 0.89-2 2 0.89 2 2 2zm9 0c1.11 0 2-0.89 2-2s-0.89-2-2-2-2 0.89-2 2 0.89 2 2 2z" color="#000000" stroke-linejoin="round" stroke-width="4" style="-inkscape-stroke:none;paint-order:stroke markers fill"/>
</svg>
